<?xml version="1.0" encoding="utf-8"?>
<!-- Generator: Adobe Illustrator 14.0.0, SVG Export Plug-In  -->
<!DOCTYPE svg PUBLIC "-//W3C//DTD SVG 1.1//EN" "http://www.w3.org/Graphics/SVG/1.1/DTD/svg11.dtd" [
	<!ENTITY ns_flows "http://ns.adobe.com/Flows/1.0/">
]>
<svg version="1.1"
	 xmlns="http://www.w3.org/2000/svg" xmlns:xlink="http://www.w3.org/1999/xlink" xmlns:a="http://ns.adobe.com/AdobeSVGViewerExtensions/3.0/"
	 x="0px" y="0px" width="200px" height="27px" viewBox="-0.606 -0.931 200 27" enable-background="new -0.606 -0.931 200 27"
	 xml:space="preserve">
<defs>
</defs>
<path fill="#772953" d="M11.666,25.902c-1.743,0-3.329-0.286-4.759-0.855c-1.432-0.571-2.659-1.413-3.685-2.525
	c-1.025-1.107-1.821-2.463-2.379-4.06C0.283,16.866,0,15.027,0,12.951c0-2.074,0.311-3.92,0.933-5.527
	c0.619-1.609,1.464-2.963,2.54-4.061c1.07-1.1,2.313-1.934,3.722-2.508C8.6,0.287,10.09,0,11.666,0c1.072,0,2.033,0.072,2.881,0.213
	c0.844,0.145,1.576,0.311,2.198,0.502c0.621,0.191,1.121,0.383,1.503,0.572c0.383,0.191,0.644,0.334,0.787,0.43L17.996,4.58
	c-0.213-0.143-0.523-0.299-0.93-0.465c-0.404-0.17-0.875-0.334-1.412-0.502c-0.537-0.166-1.128-0.303-1.773-0.412
	c-0.643-0.107-1.32-0.158-2.037-0.158c-1.217,0-2.324,0.227-3.326,0.678C7.516,4.174,6.655,4.83,5.94,5.689S4.672,7.59,4.276,8.82
	c-0.394,1.229-0.589,2.604-0.589,4.131c0,1.481,0.172,2.828,0.52,4.045c0.343,1.217,0.869,2.259,1.572,3.13
	c0.704,0.869,1.576,1.545,2.611,2.023c1.039,0.478,2.26,0.714,3.668,0.714c1.575,0,2.881-0.166,3.917-0.501s1.818-0.633,2.345-0.896
	l0.893,2.863c-0.165,0.12-0.465,0.268-0.893,0.447c-0.431,0.178-0.967,0.354-1.609,0.519c-0.644,0.166-1.396,0.312-2.256,0.43
	C13.597,25.844,12.667,25.902,11.666,25.902z"/>
<path fill="#772953" d="M33.705,0.574c0.857,1.785,1.682,3.596,2.468,5.418c0.786,1.826,1.579,3.74,2.379,5.742
	c0.8,2.006,1.616,4.12,2.453,6.354c0.834,2.229,1.728,4.657,2.681,7.282h-3.791c-0.406-1.074-0.789-2.137-1.145-3.187
	c-0.359-1.053-0.729-2.111-1.108-3.186H26.404l-2.253,6.372h-3.612c0.953-2.625,1.846-5.053,2.683-7.282
	c0.834-2.233,1.651-4.348,2.448-6.354c0.802-2.002,1.595-3.916,2.379-5.742c0.789-1.822,1.612-3.633,2.471-5.418H33.705z
	 M32.023,4.543c-0.835,1.789-1.628,3.65-2.379,5.582c-0.752,1.934-1.5,3.947-2.238,6.05h9.231c-0.763-2.077-1.521-4.087-2.272-6.03
	C33.613,8.197,32.833,6.332,32.023,4.543z"/>
<path fill="#772953" d="M64.187,25.37c-0.526-0.883-1.128-1.874-1.808-2.974c-0.678-1.096-1.412-2.236-2.201-3.416
	c-0.786-1.18-1.604-2.379-2.448-3.596c-0.848-1.217-1.688-2.393-2.522-3.523c-0.834-1.135-1.646-2.201-2.434-3.203
	C51.987,7.656,51.26,6.775,50.59,6.01v19.36h-3.397V0.574h2.755c1.121,1.191,2.32,2.578,3.596,4.164s2.54,3.223,3.791,4.904
	c1.254,1.68,2.434,3.334,3.541,4.954c1.113,1.622,2.047,3.067,2.812,4.329V0.574h3.397V25.37H64.187z"/>
<path fill="#772953" d="M118.354,25.37c-0.525-0.883-1.128-1.874-1.808-2.974c-0.68-1.096-1.412-2.236-2.201-3.416
	c-0.786-1.18-1.604-2.379-2.449-3.596s-1.688-2.393-2.522-3.523c-0.834-1.135-1.646-2.201-2.434-3.203
	c-0.786-1.002-1.512-1.883-2.183-2.648v19.36h-3.396V0.574h2.755c1.121,1.191,2.317,2.578,3.596,4.164
	c1.275,1.586,2.539,3.223,3.791,4.904c1.253,1.68,2.434,3.334,3.54,4.954c1.111,1.622,2.048,3.067,2.812,4.329V0.574h3.398V25.37
	H118.354z"/>
<path fill="#772953" d="M127.55,0.574h3.472V25.37h-3.472V0.574z"/>
<path fill="#772953" d="M147.979,25.902c-1.741,0-3.326-0.286-4.758-0.855c-1.431-0.571-2.662-1.413-3.688-2.525
	c-1.025-1.107-1.817-2.463-2.379-4.06c-0.56-1.596-0.839-3.435-0.839-5.511c0-2.074,0.31-3.92,0.931-5.527
	c0.62-1.609,1.466-2.963,2.538-4.061c1.074-1.1,2.315-1.934,3.722-2.508C144.912,0.287,146.404,0,147.979,0
	c1.074,0,2.033,0.072,2.88,0.213c0.849,0.145,1.58,0.311,2.201,0.502c0.62,0.191,1.122,0.383,1.503,0.572
	c0.379,0.191,0.645,0.334,0.785,0.43l-1.035,2.863c-0.216-0.143-0.528-0.299-0.934-0.465c-0.406-0.17-0.875-0.334-1.412-0.502
	c-0.535-0.166-1.126-0.303-1.771-0.412c-0.646-0.107-1.325-0.158-2.039-0.158c-1.217,0-2.324,0.227-3.328,0.678
	c-1.003,0.453-1.858,1.109-2.575,1.969c-0.714,0.859-1.271,1.9-1.662,3.131c-0.395,1.229-0.593,2.604-0.593,4.131
	c0,1.481,0.173,2.828,0.519,4.045c0.348,1.217,0.871,2.259,1.575,3.13c0.704,0.869,1.574,1.545,2.611,2.023
	c1.037,0.478,2.262,0.714,3.667,0.714c1.576,0,2.883-0.166,3.919-0.501c1.038-0.335,1.818-0.633,2.343-0.896l0.896,2.863
	c-0.167,0.12-0.466,0.268-0.896,0.447c-0.429,0.178-0.967,0.354-1.608,0.519c-0.646,0.166-1.396,0.312-2.257,0.43
	C149.91,25.844,148.98,25.902,147.979,25.902z"/>
<path fill="#772953" d="M170.018,0.574c0.858,1.785,1.683,3.596,2.47,5.418c0.787,1.826,1.579,3.74,2.379,5.742
	c0.799,2.006,1.613,4.12,2.452,6.354c0.835,2.229,1.728,4.657,2.682,7.282h-3.793c-0.406-1.074-0.786-2.137-1.145-3.187
	c-0.358-1.053-0.729-2.111-1.109-3.186H162.72l-2.254,6.372h-3.614c0.952-2.625,1.849-5.053,2.684-7.282
	c0.835-2.233,1.651-4.348,2.451-6.354c0.799-2.002,1.593-3.916,2.379-5.742c0.785-1.822,1.609-3.633,2.468-5.418H170.018z
	 M168.337,4.543c-0.834,1.789-1.628,3.65-2.379,5.582c-0.753,1.934-1.5,3.947-2.238,6.05h9.233c-0.766-2.077-1.523-4.087-2.274-6.03
	C169.926,8.197,169.146,6.332,168.337,4.543z"/>
<path fill="#772953" d="M198.425,22.472v2.898h-14.917V0.574h3.467v21.897H198.425z"/>
<circle fill="#772953" cx="84.223" cy="12.953" r="7.773"/>
<path fill="#772953" d="M97.174,12.951c0,7.154-5.799,12.951-12.951,12.951c-7.153,0-12.951-5.797-12.951-12.951
	C71.271,5.799,77.069,0,84.223,0C91.375,0,97.174,5.799,97.174,12.951z M84.223,3.152c-5.414,0-9.8,4.389-9.8,9.799
	c0,5.415,4.386,9.804,9.8,9.804s9.803-4.389,9.803-9.804C94.025,7.541,89.637,3.152,84.223,3.152z"/>
</svg>
