<svg width="300" height="300" viewBox="0 0 16 16" xmlns="http://www.w3.org/2000/svg"><path d="M0 1c0-.552.445-1 1-1h14c.552 0 1 .445 1 1v14c0 .552-.445 1-1 1H1c-.552 0-1-.445-1-1V1zm8.38 8.985c-1.31 0-2.223-.929-2.223-2.19 0-1.228.93-2.207 2.174-2.207.663 0 1.23.288 1.65.72.124.128.324.14.457.023l1.278-1.124c-.747-.963-1.991-1.61-3.385-1.61C5.875 3.597 4 5.456 4 7.795c0 2.323 1.825 4.182 4.314 4.182 1.51 0 2.705-.548 3.65-1.809l-1.398-1.05a.326.326 0 0 0-.441.043c-.382.441-.997.824-1.744.824z" fill="#00C046" fill-rule="evenodd"/></svg>