<svg width="103" height="26" viewBox="0 0 103 26" fill="none" xmlns="http://www.w3.org/2000/svg">
<path d="M68.2719 4.97662H71.5716V20.6638H68.2719V4.97662ZM74.0599 20.7179H77.3596V0.0540939H74.0599V20.7179ZM98.0234 0.0540939V4.97662H96.4006V8.27633H98.0234V20.6638H101.323V8.27633H103V4.97662H101.323V0H98.0234V0.0540939ZM47.4458 14.4971C47.5559 13.945 47.6103 13.3832 47.6081 12.8202C47.5914 10.9048 46.8684 9.06294 45.5776 7.64768C44.2868 6.23242 42.5191 5.34336 40.6134 5.15091C38.7076 4.95846 36.7978 5.47618 35.2502 6.60481C33.7025 7.73345 32.6259 9.39358 32.2266 11.267C31.8274 13.1404 32.1336 15.0952 33.0866 16.7568C34.0396 18.4184 35.5724 19.6697 37.391 20.271C39.2097 20.8723 41.1863 20.7812 42.9419 20.0152C44.6976 19.2492 46.1087 17.8621 46.9048 16.1199H42.9019C42.3668 16.6302 41.7143 17.0009 41.0019 17.1992C40.2896 17.3975 39.5394 17.4173 38.8176 17.2569C38.0958 17.0965 37.4246 16.7608 36.8633 16.2795C36.302 15.7982 35.8679 15.186 35.5993 14.4971H47.4458ZM39.7645 8.33043C40.6738 8.3318 41.5618 8.60568 42.3139 9.11672C43.066 9.62777 43.6476 10.3525 43.9838 11.1974H35.5452C35.8749 10.3481 36.455 9.61918 37.2086 9.10716C37.9621 8.59515 38.8535 8.32426 39.7645 8.33043ZM87.6915 17.3641C86.7928 17.3641 85.9143 17.0976 85.167 16.5983C84.4198 16.099 83.8374 15.3894 83.4935 14.5591C83.1496 13.7288 83.0596 12.8152 83.2349 11.9337C83.4103 11.0523 83.843 10.2427 84.4785 9.6072C85.114 8.97173 85.9236 8.53897 86.805 8.36364C87.6864 8.18832 88.6001 8.2783 89.4304 8.62222C90.2606 8.96613 90.9703 9.54853 91.4696 10.2958C91.9689 11.043 92.2354 11.9215 92.2354 12.8202C92.2282 14.0231 91.7471 15.1747 90.8965 16.0253C90.046 16.8758 88.8944 17.3569 87.6915 17.3641ZM87.6915 4.97662C86.1402 4.97662 84.6237 5.43664 83.3338 6.2985C82.044 7.16037 81.0386 8.38537 80.445 9.8186C79.8513 11.2518 79.696 12.8289 79.9986 14.3504C80.3013 15.8719 81.0483 17.2695 82.1452 18.3665C83.2422 19.4634 84.6398 20.2104 86.1613 20.5131C87.6828 20.8157 89.2599 20.6604 90.6931 20.0667C92.1263 19.4731 93.3513 18.4677 94.2132 17.1779C95.0751 15.888 95.5351 14.3715 95.5351 12.8202C95.5336 10.7404 94.7067 8.74624 93.2361 7.2756C91.7655 5.80497 89.7713 4.97811 87.6915 4.97662ZM57.94 4.97662C55.8602 4.97811 53.866 5.80497 52.3953 7.2756C50.9247 8.74624 50.0979 10.7404 50.0964 12.8202V25.5863H53.3961V19.2574C54.4052 19.969 55.5679 20.4329 56.7898 20.6112C58.0117 20.7896 59.2584 20.6776 60.4289 20.2841C61.5994 19.8907 62.6607 19.227 63.5268 18.3468C64.3928 17.4665 65.0393 16.3946 65.4137 15.2179C65.7881 14.0412 65.88 12.7928 65.6818 11.5739C65.4836 10.3551 65.001 9.2001 64.273 8.20262C63.5451 7.20514 62.5924 6.39324 61.492 5.83275C60.3917 5.27226 59.1748 4.97896 57.94 4.97662ZM57.94 17.3641C57.0413 17.3641 56.1627 17.0976 55.4155 16.5983C54.6683 16.099 54.0859 15.3894 53.742 14.5591C53.398 13.7288 53.3081 12.8152 53.4834 11.9337C53.6587 11.0523 54.0915 10.2427 54.727 9.6072C55.3624 8.97173 56.1721 8.53897 57.0535 8.36364C57.9349 8.18832 58.8485 8.2783 59.6788 8.62222C60.5091 8.96613 61.2188 9.54853 61.718 10.2958C62.2173 11.043 62.4838 11.9215 62.4838 12.8202C62.4766 14.0231 61.9956 15.1747 61.145 16.0253C60.2944 16.8758 59.1428 17.3569 57.94 17.3641ZM13.9618 0.0540939C12.275 -0.0489107 10.5954 0.347745 9.13289 1.19444C7.67042 2.04113 6.49008 3.30027 5.73954 4.81434C5.67838 4.92595 5.65614 5.05474 5.67633 5.1804C5.69652 5.30605 5.75798 5.4214 5.85102 5.50823C5.94406 5.59507 6.06336 5.64844 6.19011 5.65992C6.31685 5.67141 6.44381 5.64035 6.55094 5.57165C7.90225 4.74641 9.4574 4.31547 11.0407 4.3275C13.3341 4.3342 15.5316 5.24822 17.1533 6.86989C18.775 8.49157 19.689 10.6891 19.6957 12.9825C19.6947 13.1098 19.7351 13.2339 19.8107 13.3364C19.8862 13.4388 19.993 13.5139 20.1149 13.5505C20.2369 13.5871 20.3673 13.5831 20.4868 13.5392C20.6063 13.4953 20.7083 13.4139 20.7776 13.307C21.7199 11.8025 22.1909 10.0506 22.1299 8.27633C22.0151 6.14212 21.1193 4.12471 19.6129 2.60843C18.1066 1.09215 16.0952 0.18297 13.9618 0.0540939ZM25.4837 21.6916C26.3977 20.2721 26.8838 18.6196 26.8838 16.9313C26.8838 15.2431 26.3977 13.5905 25.4837 12.1711C25.4145 12.0643 25.3125 11.9828 25.193 11.9389C25.0735 11.895 24.943 11.8911 24.8211 11.9277C24.6992 11.9642 24.5924 12.0394 24.5168 12.1418C24.4412 12.2442 24.4009 12.3684 24.4019 12.4956C24.4469 14.0359 24.0796 15.5602 23.338 16.9108C22.5964 18.2615 21.5074 19.3896 20.1837 20.1783C18.86 20.967 17.3496 21.3878 15.8087 21.397C14.2679 21.4063 12.7525 21.0038 11.4194 20.231C11.3118 20.1672 11.1865 20.1399 11.0621 20.1533C10.9378 20.1667 10.8211 20.2201 10.7297 20.3054C10.6382 20.3908 10.5769 20.5035 10.555 20.6266C10.5331 20.7497 10.5516 20.8767 10.608 20.9884C11.4417 22.5525 12.7222 23.833 14.2863 24.6667C16.1912 25.6388 18.388 25.8727 20.4548 25.3235C22.5216 24.7744 24.3126 23.4809 25.4837 21.6916ZM0.925198 20.8802C1.69057 22.3821 2.87403 23.6307 4.3329 24.4753C5.79178 25.3199 7.46381 25.7245 9.14744 25.6404C9.2723 25.6342 9.39187 25.5881 9.48847 25.5087C9.58508 25.4294 9.6536 25.3211 9.68392 25.1998C9.71424 25.0785 9.70475 24.9507 9.65685 24.8352C9.60895 24.7197 9.52517 24.6227 9.41791 24.5585C8.02745 23.7993 6.86851 22.6777 6.0641 21.3129C4.91775 19.3184 4.60998 16.9505 5.2084 14.7292C5.80682 12.508 7.26249 10.6151 9.25563 9.4664C9.36413 9.403 9.44915 9.30612 9.49792 9.19029C9.54668 9.07447 9.55657 8.94595 9.52609 8.82404C9.49561 8.70212 9.42641 8.59337 9.32888 8.51413C9.23134 8.43488 9.11073 8.3894 8.98516 8.38452C7.21115 8.32557 5.45979 8.79637 3.95445 9.73687C2.16257 10.8923 0.861666 12.67 0.30236 14.7275C-0.256946 16.7849 -0.0350872 18.9765 0.925198 20.8802ZM13.9618 0.0540939C12.275 -0.0489107 10.5954 0.347745 9.13289 1.19444C7.67042 2.04113 6.49008 3.30027 5.73954 4.81434C5.67838 4.92595 5.65614 5.05474 5.67633 5.1804C5.69652 5.30605 5.75798 5.4214 5.85102 5.50823C5.94406 5.59507 6.06336 5.64844 6.19011 5.65992C6.31685 5.67141 6.44381 5.64035 6.55094 5.57165C7.90225 4.74641 9.4574 4.31547 11.0407 4.3275C13.3341 4.3342 15.5316 5.24822 17.1533 6.86989C18.775 8.49157 19.689 10.6891 19.6957 12.9825C19.6947 13.1098 19.7351 13.2339 19.8107 13.3364C19.8862 13.4388 19.993 13.5139 20.1149 13.5505C20.2369 13.5871 20.3673 13.5831 20.4868 13.5392C20.6063 13.4953 20.7083 13.4139 20.7776 13.307C21.7199 11.8025 22.1909 10.0506 22.1299 8.27633C22.0151 6.14212 21.1193 4.12471 19.6129 2.60843C18.1066 1.09215 16.0952 0.18297 13.9618 0.0540939ZM25.4837 21.6916C26.3977 20.2721 26.8838 18.6196 26.8838 16.9313C26.8838 15.2431 26.3977 13.5905 25.4837 12.1711C25.4145 12.0643 25.3125 11.9828 25.193 11.9389C25.0735 11.895 24.943 11.8911 24.8211 11.9277C24.6992 11.9642 24.5924 12.0394 24.5168 12.1418C24.4412 12.2442 24.4009 12.3684 24.4019 12.4956C24.4469 14.0359 24.0796 15.5602 23.338 16.9108C22.5964 18.2615 21.5074 19.3896 20.1837 20.1783C18.86 20.967 17.3496 21.3878 15.8087 21.397C14.2679 21.4063 12.7525 21.0038 11.4194 20.231C11.3118 20.1672 11.1865 20.1399 11.0621 20.1533C10.9378 20.1667 10.8211 20.2201 10.7297 20.3054C10.6382 20.3908 10.5769 20.5035 10.555 20.6266C10.5331 20.7497 10.5516 20.8767 10.608 20.9884C11.4417 22.5525 12.7222 23.833 14.2863 24.6667C16.1912 25.6388 18.388 25.8727 20.4548 25.3235C22.5216 24.7744 24.3126 23.4809 25.4837 21.6916ZM0.925198 20.8802C1.69057 22.3821 2.87403 23.6307 4.3329 24.4753C5.79178 25.3199 7.46381 25.7245 9.14744 25.6404C9.2723 25.6342 9.39187 25.5881 9.48847 25.5087C9.58508 25.4294 9.6536 25.3211 9.68392 25.1998C9.71424 25.0785 9.70475 24.9507 9.65685 24.8352C9.60895 24.7197 9.52517 24.6227 9.41791 24.5585C8.02745 23.7993 6.86851 22.6777 6.0641 21.3129C4.91775 19.3184 4.60998 16.9505 5.2084 14.7292C5.80682 12.508 7.26249 10.6151 9.25563 9.4664C9.36413 9.403 9.44915 9.30612 9.49792 9.19029C9.54668 9.07447 9.55657 8.94595 9.52609 8.82404C9.49561 8.70212 9.42641 8.59337 9.32888 8.51413C9.23134 8.43488 9.11073 8.3894 8.98516 8.38452C7.21115 8.32557 5.45979 8.79637 3.95445 9.73687C2.16257 10.8923 0.861666 12.67 0.30236 14.7275C-0.256946 16.7849 -0.0350872 18.9765 0.925198 20.8802Z" fill="url(#paint0_linear_659_4)"/>
<defs>
<linearGradient id="paint0_linear_659_4" x1="25.4204" y1="43.7207" x2="81.1453" y2="-18.1681" gradientUnits="userSpaceOnUse">
<stop offset="0.25" stop-color="#4C4CFF"/>
<stop offset="1" stop-color="#00D7FF"/>
</linearGradient>
</defs>
</svg>
