<svg width="243" height="78" viewBox="0 0 243 78" fill="none" xmlns="http://www.w3.org/2000/svg">
<g clip-path="url(#clip0_420_9197)">
<path d="M22.4038 12.8801C20.0904 15.5675 18.8922 19.0378 19.0548 22.5801V25.2311H29.0978C30.3251 25.177 31.5257 25.601 32.4468 26.4141C32.8665 26.8187 33.1955 27.3078 33.4121 27.8491C33.6286 28.3905 33.7277 28.9716 33.7028 29.5541C33.7212 30.115 33.6185 30.6733 33.4018 31.191C33.185 31.7086 32.8593 32.1736 32.4468 32.5541C31.5261 33.3682 30.3256 33.7933 29.0978 33.7401H18.9808V72.3271C19.0141 73.0069 18.907 73.6863 18.6661 74.3229C18.4252 74.9595 18.0558 75.5396 17.5808 76.0271C17.0677 76.5058 16.4637 76.8764 15.8045 77.1169C15.1453 77.3574 14.4445 77.4629 13.7438 77.4271C13.1092 77.4342 12.4797 77.314 11.8924 77.0735C11.3051 76.833 10.7721 76.4772 10.3248 76.0271C9.83454 75.5477 9.45074 74.9705 9.19833 74.333C8.94592 73.6956 8.83056 73.0121 8.85976 72.3271V33.7421H4.67676C3.44896 33.7953 2.24838 33.3702 1.32776 32.5561C0.911835 32.1896 0.578666 31.7387 0.350388 31.2336C0.12211 30.7284 0.00395011 30.1804 0.00375981 29.6261C-0.0211501 29.0436 0.0779367 28.4625 0.294462 27.9211C0.510987 27.3798 0.840012 26.8907 1.25976 26.4861C1.71883 26.0618 2.2572 25.7325 2.84394 25.5169C3.43068 25.3014 4.05423 25.2039 4.67876 25.2301H8.93276V23.5561C8.82351 19.2715 9.78269 15.0272 11.7238 11.2061C13.5381 7.77913 16.299 4.94571 19.6778 3.04306C23.2138 1.06456 27.2093 0.0542105 31.2608 0.114064C32.5855 0.0579674 33.8822 0.506875 34.8888 1.37006C35.3607 1.77346 35.737 2.27679 35.9903 2.84356C36.2437 3.41034 36.3679 4.02639 36.3538 4.64706C36.3682 5.26808 36.2442 5.88451 35.9908 6.45166C35.7374 7.01881 35.3609 7.52245 34.8888 7.92606C33.8822 8.78925 32.5855 9.23816 31.2608 9.18206C29.6069 9.1372 27.9623 9.4436 26.4356 10.081C24.9089 10.7185 23.5347 11.6725 22.4038 12.8801V12.8801Z" fill="url(#paint0_linear_420_9197)"/>
<path d="M43.6808 1.50808C44.3735 0.792625 45.2657 0.302537 46.2411 0.101747C47.2165 -0.0990427 48.2298 -0.00121149 49.1487 0.382479C50.0677 0.766169 50.8497 1.41791 51.3927 2.25267C51.9357 3.08744 52.2145 4.06648 52.1928 5.06208V59.1411C52.1104 61.253 52.5937 63.3486 53.5928 65.2111C53.9094 65.8962 54.4093 66.4803 55.0372 66.899C55.6652 67.3176 56.3967 67.5544 57.1508 67.5831H59.5928C60.1979 67.5661 60.7992 67.6828 61.3541 67.9248C61.9089 68.1667 62.4036 68.5281 62.8028 68.9831C63.6554 69.9681 64.104 71.2391 64.0588 72.5411C64.0628 73.2436 63.8929 73.9361 63.5641 74.5569C63.2354 75.1778 62.7581 75.7076 62.1748 76.0991C60.7436 77.0871 59.0281 77.5789 57.2908 77.4991H57.0768C54.3431 77.5378 51.6637 76.7348 49.4018 75.1991C47.0497 73.5588 45.2117 71.2842 44.1018 68.6401C42.803 65.6445 42.1603 62.4056 42.2168 59.1411V5.06208C42.2032 4.40016 42.3263 3.74255 42.5784 3.13035C42.8304 2.51815 43.2061 1.96453 43.6818 1.50408L43.6808 1.50808Z" fill="url(#paint1_linear_420_9197)"/>
<path d="M109.337 26.486C113.413 28.8656 116.783 32.2847 119.105 36.394C121.565 40.6558 122.842 45.4972 122.805 50.418V72.467C122.786 73.7963 122.245 75.0648 121.298 75.9982C120.352 76.9316 119.076 77.4549 117.746 77.4549C116.417 77.4549 115.141 76.9316 114.194 75.9982C113.248 75.0648 112.706 73.7963 112.688 72.467V68.838C110.084 72.0141 106.73 74.4922 102.929 76.0491C99.1287 77.6059 95.0004 78.1925 90.9164 77.756C86.8325 77.3195 82.9214 75.8736 79.5356 73.5487C76.1498 71.2237 73.3958 68.0927 71.5218 64.438C69.2662 60.1123 68.1154 55.296 68.1718 50.418C68.1257 45.5055 69.3772 40.6679 71.7998 36.394C74.1154 32.2569 77.5172 28.8309 81.6378 26.486C85.8618 24.0659 90.6539 22.8141 95.5218 22.859C100.37 22.7991 105.143 24.0525 109.337 26.486V26.486ZM104.453 66.466C107.106 64.8642 109.276 62.5738 110.733 59.838C112.29 56.9206 113.082 53.6557 113.033 50.349C113.07 47.0437 112.279 43.7816 110.733 40.86C109.258 38.0877 107.057 35.7688 104.365 34.1517C101.674 32.5346 98.5929 31.6803 95.4528 31.6803C92.3127 31.6803 89.2318 32.5346 86.5401 34.1517C83.8484 35.7688 81.6474 38.0877 80.1728 40.86C78.6125 43.7762 77.8209 47.042 77.8728 50.349C77.8305 53.6638 78.6477 56.933 80.2448 59.838C81.7343 62.5725 83.9258 64.8604 86.5938 66.466C89.3151 68.0537 92.4092 68.8903 95.5598 68.8903C98.7104 68.8903 101.804 68.0537 104.526 66.466H104.453Z" fill="url(#paint2_linear_420_9197)"/>
<path d="M168.365 24.9522C171.505 26.14 174.291 28.109 176.459 30.6732C177.228 31.5432 177.672 32.6528 177.715 33.8132C177.688 34.4187 177.523 35.0101 177.233 35.5422C176.942 36.0742 176.534 36.5329 176.04 36.8832C175.216 37.4328 174.237 37.7022 173.249 37.6512C171.506 37.6485 169.831 36.9736 168.574 35.7672C167.073 34.343 165.29 33.2494 163.341 32.5572C161.149 31.8901 158.863 31.5838 156.573 31.6502C153.997 31.552 151.435 32.0787 149.107 33.1852C148.248 33.5398 147.513 34.1389 146.992 34.908C146.471 35.6771 146.187 36.5823 146.177 37.5112C146.126 38.7045 146.469 39.8813 147.154 40.8602C148.172 41.9931 149.472 42.8357 150.922 43.3022C153.526 44.2789 156.211 45.0261 158.946 45.5352C166.156 46.9772 171.249 49.0005 174.226 51.6052C175.686 52.8173 176.853 54.3448 177.639 56.0729C178.424 57.8009 178.808 59.6846 178.761 61.5822C178.792 64.5094 177.941 67.3782 176.319 69.8152C174.516 72.4273 171.996 74.4626 169.063 75.6762C165.418 77.1915 161.496 77.9282 157.55 77.8392C153.228 77.8668 148.934 77.159 144.85 75.7462C141.39 74.6455 138.219 72.7863 135.57 70.3042C135.162 69.905 134.841 69.4268 134.625 68.8988C134.409 68.3709 134.303 67.8044 134.314 67.2342C134.302 66.4838 134.474 65.7419 134.815 65.0732C135.155 64.4045 135.654 63.8291 136.268 63.3972C137.251 62.5688 138.474 62.078 139.757 61.9972C140.475 62.0282 141.179 62.205 141.827 62.5168C142.475 62.8287 143.053 63.269 143.525 63.8112C145.116 65.4247 147.047 66.664 149.177 67.4392C151.725 68.4712 154.451 68.9927 157.201 68.9742C160.969 68.9742 163.899 68.3462 165.992 67.0902C166.927 66.623 167.715 65.9067 168.269 65.0202C168.823 64.1338 169.122 63.1115 169.132 62.0662C169.111 61.0227 168.816 60.0031 168.277 59.1093C167.739 58.2155 166.975 57.4789 166.062 56.9732C164.015 55.6245 160.548 54.4848 155.662 53.5542C143.01 51.1355 136.684 45.9258 136.684 37.9252C136.592 34.9223 137.611 31.9911 139.545 29.6922C141.57 27.3833 144.17 25.6502 147.08 24.6682C150.259 23.5353 153.613 22.9684 156.988 22.9932C160.87 22.9123 164.733 23.5773 168.365 24.9522V24.9522Z" fill="url(#paint3_linear_420_9197)"/>
<path d="M230.811 25.7891C234.44 27.7691 237.402 30.7797 239.323 34.4411C241.472 38.6967 242.527 43.4205 242.393 48.1861V72.5361C242.374 73.8654 241.833 75.1339 240.886 76.0673C239.94 77.0007 238.664 77.524 237.334 77.524C236.005 77.524 234.729 77.0007 233.782 76.0673C232.836 75.1339 232.295 73.8654 232.276 72.5361V48.1161C232.276 42.7668 230.834 38.7201 227.95 35.9761C225.066 33.2321 221.251 31.8598 216.507 31.8591C213.894 31.8496 211.315 32.4466 208.972 33.6031C206.811 34.6124 204.957 36.1774 203.6 38.1381C202.314 40.0306 201.632 42.2689 201.646 44.5571V72.4661C201.665 73.1335 201.551 73.7981 201.311 74.421C201.071 75.044 200.709 75.6127 200.246 76.0941C199.533 76.8176 198.621 77.3118 197.626 77.513C196.631 77.7142 195.598 77.6134 194.66 77.2234C193.723 76.8335 192.923 76.1722 192.365 75.3245C191.806 74.4768 191.513 73.4814 191.524 72.4661V5.13609C191.505 4.46267 191.626 3.79273 191.879 3.16837C192.132 2.54401 192.512 1.97874 192.994 1.50809C193.992 0.615681 195.283 0.122314 196.622 0.122314C197.96 0.122314 199.252 0.615681 200.25 1.50809C200.725 1.99556 201.094 2.57569 201.335 3.21228C201.576 3.84887 201.683 4.52827 201.65 5.20809V29.4171C203.8 27.2895 206.365 25.627 209.185 24.5331C212.665 23.2136 216.384 22.6434 220.099 22.8598C223.814 23.0762 227.442 24.0744 230.745 25.7891H230.811Z" fill="url(#paint4_linear_420_9197)"/>
</g>
<defs>
<linearGradient id="paint0_linear_420_9197" x1="1.01794" y1="38.7716" x2="243.869" y2="38.8742" gradientUnits="userSpaceOnUse">
<stop stop-color="#FE2B8F"/>
<stop offset="1" stop-color="#FF6E60"/>
</linearGradient>
<linearGradient id="paint1_linear_420_9197" x1="1.00703" y1="38.6762" x2="243.919" y2="38.7193" gradientUnits="userSpaceOnUse">
<stop stop-color="#FE2B8F"/>
<stop offset="1" stop-color="#FF6E60"/>
</linearGradient>
<linearGradient id="paint2_linear_420_9197" x1="1.02244" y1="50.2115" x2="243.878" y2="50.6996" gradientUnits="userSpaceOnUse">
<stop stop-color="#FE2B8F"/>
<stop offset="1" stop-color="#FF6E60"/>
</linearGradient>
<linearGradient id="paint3_linear_420_9197" x1="1.00253" y1="50.0325" x2="243.887" y2="50.3566" gradientUnits="userSpaceOnUse">
<stop stop-color="#FE2B8F"/>
<stop offset="1" stop-color="#FF6E60"/>
</linearGradient>
<linearGradient id="paint4_linear_420_9197" x1="0.968078" y1="38.4032" x2="243.88" y2="38.6371" gradientUnits="userSpaceOnUse">
<stop stop-color="#FE2B8F"/>
<stop offset="1" stop-color="#FF6E60"/>
</linearGradient>
<clipPath id="clip0_420_9197">
<rect width="242.404" height="77.8963" fill="white"/>
</clipPath>
</defs>
</svg>
