<svg viewBox="0 0 160 58.66" xmlns="http://www.w3.org/2000/svg"><path d="m75.13 16.6h-8.48a.65.65 0 0 0 -.65.4l-10 29a.64.64 0 0 1 -1.21 0l-10-29a.65.65 0 0 0 -.6-.43h-8.43l16 40.87h7.44z" fill="#0c3932"/><path d="m21.52 16.83-11.61 13.69a1.28 1.28 0 0 1 -2.25-.83v-29.05a.64.64 0 0 0 -.66-.64h-6.36a.64.64 0 0 0 -.64.64v56.19a.64.64 0 0 0 .64.64h6.36a.63.63 0 0 0 .64-.64v-9.28a7.65 7.65 0 0 1 1.87-5l22.42-25.95h-9.93a.65.65 0 0 0 -.48.23z" fill="#0c3932"/><path d="m34.48 57.47h-8.94l-7.36-11a7.66 7.66 0 0 1 .67-9.37l1.15-1.34z" fill="#00c586"/><g fill="#0c3932"><path d="m81.54 56.83v-39.59a.64.64 0 0 1 .64-.64h6.38a.64.64 0 0 1 .64.64v39.59a.63.63 0 0 1 -.64.64h-6.38a.64.64 0 0 1 -.64-.64z"/><path d="m114.14 58.66a21.76 21.76 0 0 1 -8.67-1.66 14.76 14.76 0 0 1 -6.1-4.64 12.39 12.39 0 0 1 -2.48-6.86h7.17a.64.64 0 0 1 .64.55 6.7 6.7 0 0 0 2.71 4.29 10.82 10.82 0 0 0 6.65 1.9 9.71 9.71 0 0 0 6-1.67 5 5 0 0 0 2.14-4.14 4 4 0 0 0 -2.2-3.8 34.33 34.33 0 0 0 -7.41-2.58 55.27 55.27 0 0 1 -7.59-2.47 13.7 13.7 0 0 1 -5.11-3.79 10 10 0 0 1 -2.15-6.67 10.1 10.1 0 0 1 2-6 13.13 13.13 0 0 1 5.49-4.31 19.86 19.86 0 0 1 8.07-1.57c4.64 0 8.44 1.19 11.31 3.55a12.86 12.86 0 0 1 4.65 9.75h-6.93a.64.64 0 0 1 -.63-.58 6.76 6.76 0 0 0 -2.44-4.42 11.24 11.24 0 0 0 -11.9-.36 4.55 4.55 0 0 0 -2.06 3.9 4.2 4.2 0 0 0 1.23 3.14 9.28 9.28 0 0 0 3.22 2.05 56.29 56.29 0 0 0 5.52 1.76 61.87 61.87 0 0 1 7.3 2.4 13.13 13.13 0 0 1 4.92 3.6 9.72 9.72 0 0 1 2.15 6.32 10.85 10.85 0 0 1 -1.94 6.31 13 13 0 0 1 -5.46 4.38 19.44 19.44 0 0 1 -8.1 1.62z"/><path d="m150.42 24.27h9.58v-7.67h-10.33v-14.68a.64.64 0 0 0 -.64-.64h-6.39a.64.64 0 0 0 -.64.64v14.68h-8.82v7.67h8.3a.64.64 0 0 1 .64.64v19.15c0 9.32 3.87 14 11.49 14h5.75a.64.64 0 0 0 .64-.64v-5.69a.64.64 0 0 0 -.64-.64h-4.47c-3.42 0-5.11-2.05-5.11-7v-19.18a.64.64 0 0 1 .64-.64z"/></g><path d="m80.9 0h8.94a0 0 0 0 1 0 0v8.94a0 0 0 0 1 0 0 8.94 8.94 0 0 1 -8.94-8.94 0 0 0 0 1 0 0z" fill="#00c586"/></svg>