<svg xmlns="http://www.w3.org/2000/svg" viewBox="0 0 1366 281.16"><defs><style>.cls-1{fill:#12438c;}</style></defs><g id="Layer_2" data-name="Layer 2"><g id="Ebene_1" data-name="Ebene 1"><polygon class="cls-1" points="468.86 31.92 289.87 31.92 289.87 65.1 361.88 65.1 361.88 248.26 396.85 248.26 396.85 65.1 468.86 65.1 468.86 31.92"/><path class="cls-1" d="M475.27,106.83l-3.22-18.74H441V248.26h35v-106a54.21,54.21,0,0,1,21.62-16.84,75.54,75.54,0,0,1,31.27-6.53h6.27V85.1h-6.27C507.51,85.1,489.53,92.4,475.27,106.83Z"/><rect class="cls-1" x="552.49" y="26.54" width="37.06" height="37.06"/><rect class="cls-1" x="553.54" y="88.09" width="34.97" height="160.17"/><path class="cls-1" d="M994.06,85.1c-19.22,0-36.78,7.46-52.29,22.18l-3.3-19.19H907.4V248.26h35V144.16C956.61,126.79,971.78,118,987.48,118c19.77,0,29,10.35,29,32.57v97.71h35V147.56c0-17.61-5.14-32.53-15.28-44.37C1025.86,91.19,1011.7,85.1,994.06,85.1Z"/><path class="cls-1" d="M1123.54,49.87l-63.36,62v7.32h28.39v88.74c0,28.34,16.43,43.33,47.51,43.33a61.19,61.19,0,0,0,28.69-7l2.09-1.09V214.78h-6.8l-.76.34c-13.3,5.91-24.77,5.1-31.23,2.38-3-1.31-4.53-5.33-4.53-12V119.18h43.32V88.09h-43.32Z"/><rect class="cls-1" x="1187.35" y="26.54" width="37.06" height="37.06"/><rect class="cls-1" x="1188.39" y="88.09" width="34.97" height="160.17"/><path class="cls-1" d="M1356,173a47.6,47.6,0,0,0-24.31-15.16l-26.46-6.94a119.71,119.71,0,0,1-21.89-7.8c-6.51-3.16-7.27-7-7.27-9.59,0-4.25,2.38-7.78,7.27-10.79,5.42-3.34,14.23-5,26.19-5,12.17,0,24.83,2.72,37.65,8.07l.72.3h6.76V94.66l-2.54-.94a141.69,141.69,0,0,0-49.76-8.62c-18.21,0-32.89,4.75-43.64,14.11-10.9,9.5-16.42,22-16.42,37,0,11.14,3.47,20.48,10.32,27.76A51.06,51.06,0,0,0,1277,178.49l26.33,7.06a130.83,130.83,0,0,1,21.59,7.61c7,3.31,7,6.66,7,7.76,0,7.49-3,17.45-29.28,17.45a99,99,0,0,1-51.2-13.8l-.92-.54h-6.45v32.18l2,1.11c16.84,9.24,35.72,13.93,56.11,13.93,20.65,0,36.57-4.53,47.3-13.45,10.94-9.1,16.49-20.43,16.49-33.68C1366,191.13,1362.63,180.65,1356,173Z"/><path class="cls-1" d="M818.2,85.1a78.28,78.28,0,0,0-28.15,5.3,71,71,0,0,0-24.38,15.71,77.17,77.17,0,0,0-17,26.17c-4.26,10.44-6.42,22.77-6.42,36.66a103.82,103.82,0,0,0,5,32.88A67.86,67.86,0,0,0,788.79,245c10.61,4.12,23.26,6.21,37.61,6.21a149.67,149.67,0,0,0,16.64-.92c5.44-.61,10.57-1.37,15.23-2.27a124.88,124.88,0,0,0,12.55-3,63.44,63.44,0,0,0,8.14-3l-4.83-28.9a113,113,0,0,1-17.5,4.91,123.43,123.43,0,0,1-25.5,2.46c-15.86,0-28.14-3.59-36.52-10.68s-13.21-17.25-14.26-30.18l-.06-.71H889.18c.18-1.84.32-3.94.42-6.24.1-2.64.15-4.87.15-6.83,0-26.74-6.36-47.12-18.9-60.56S840.6,85.1,818.2,85.1Zm34.7,68H780.57l.1-.74a62.7,62.7,0,0,1,3.5-13.87,38.93,38.93,0,0,1,7.21-12.1,34.87,34.87,0,0,1,27.13-11.8,34.91,34.91,0,0,1,14.93,3,31.25,31.25,0,0,1,10.63,8.1,35.47,35.47,0,0,1,6.59,12.12,48,48,0,0,1,2.24,14.69Z"/><path class="cls-1" d="M698.43,84C647.13,84,607,120.54,607,167.2v.61c0,46.15,40,82.29,91.14,82.29,18.74,0,34.61-3.73,48.5-11.42l-.39-.35c-.6-.55-1.21-1.1-1.77-1.7h0a81.16,81.16,0,0,1-15.07-23.18,60.44,60.44,0,0,1-29.23,7.27c-31.35,0-55-23-55-53.52v-.61c0-29.67,23.27-52.91,53-52.91A60.63,60.63,0,0,1,729.62,122a88.74,88.74,0,0,1,17.79-26.71C733.54,87.67,717.5,84,698.43,84Z"/><polygon class="cls-1" points="34.84 227.65 0 192.81 52.38 140.43 0.39 88.44 35.23 53.6 122.06 140.43 34.84 227.65"/><polygon class="cls-1" points="88.34 281.16 53.51 246.32 140.73 159.1 227.56 245.93 192.72 280.76 140.73 228.78 88.34 281.16"/><polygon class="cls-1" points="140.43 122.06 53.6 35.23 88.44 0.4 140.43 52.39 192.81 0 227.65 34.84 140.43 122.06"/></g></g></svg>