<svg width="165" height="52" viewBox="0 0 165 52" fill="none" xmlns="http://www.w3.org/2000/svg">
<path fill-rule="evenodd" clip-rule="evenodd" d="M47.0204 17.8571C48.0855 17.8571 48.949 16.9937 48.949 15.9286C48.949 14.8635 48.0855 14 47.0204 14C45.9553 14 45.0918 14.8635 45.0918 15.9286C45.0918 16.9937 45.9553 17.8571 47.0204 17.8571ZM48.4898 19.2347H45.551V32H48.4898V19.2347ZM6.56633 18.9592C10.1928 18.9592 13.1327 21.9196 13.1327 25.5714L13.1327 32H10.102V31.1442C9.08143 31.8022 7.86812 32.1837 6.56633 32.1837C2.93984 32.1837 0 29.2233 0 25.5714C0 21.9196 2.93984 18.9592 6.56633 18.9592ZM6.56633 29.3367C8.62049 29.3367 10.2857 27.651 10.2857 25.5714C10.2857 23.4919 8.62049 21.8061 6.56633 21.8061C4.51217 21.8061 2.84694 23.4919 2.84694 25.5714C2.84694 27.651 4.51217 29.3367 6.56633 29.3367ZM56.801 32.1837C60.4275 32.1837 63.3673 29.2233 63.3673 25.5714C63.3673 21.9196 60.4275 18.9592 56.801 18.9592C53.1745 18.9592 50.2347 21.9196 50.2347 25.5714C50.2347 29.2233 53.1745 32.1837 56.801 32.1837ZM56.801 29.3367C58.8552 29.3367 60.5204 27.651 60.5204 25.5714C60.5204 23.4919 58.8552 21.8061 56.801 21.8061C54.7469 21.8061 53.0816 23.4919 53.0816 25.5714C53.0816 27.651 54.7469 29.3367 56.801 29.3367ZM14.3265 27.7296H17.0357C17.0357 28.6939 17.7704 29.4745 18.8724 29.4745C19.7449 29.4745 20.4337 28.8316 20.4337 27.6378C20.4337 26.6135 19.2926 26.3499 18.3688 26.1365C18.0916 26.0725 17.834 26.013 17.6326 25.9388C16.7602 25.6173 15.1531 24.7908 15.1531 22.6327C15.1531 20.4745 16.5306 19.0051 18.7806 19.0051C20.5806 19.0051 21.551 20.0459 21.8112 20.6122L20.1122 22.3112C19.8826 21.852 19.5612 21.4847 18.8724 21.4847C18.5051 21.4847 17.8622 21.7143 17.8622 22.5408C17.8622 23.2814 18.3227 23.4261 19.5349 23.8071C19.901 23.9221 20.3357 24.0587 20.8469 24.2398C23.051 25.0204 23.1888 27.0867 23.1888 28.0051C23.1888 28.9235 23.051 32.1837 18.7806 32.1837C15.3643 32.1837 14.3265 29.6122 14.3265 27.7296ZM24.1531 19.2347H27.2296V26.9949C27.2296 27.4082 27.3673 29.5204 29.801 29.5204C32.2347 29.5204 32.7857 27.6378 32.7857 26.9949V19.2347H35.6326V27.6837L35.6327 32H32.6939V30.9975C31.7679 31.6597 30.6589 32.1378 29.3418 32.1378C26.2194 32.1378 24.1531 29.8878 24.1531 26.9949V19.2347ZM40.6837 20.1964C41.5896 19.5079 42.6591 18.9967 43.898 18.9612V21.7668C43.8239 21.7624 43.7474 21.7602 43.6684 21.7602C41.2347 21.7602 40.5918 23.6429 40.5918 24.2857V32.0459H37.7449V23.4133L37.7449 19.2806L40.6837 19.2806V20.1964ZM64.6531 24.8367C64.6531 21.5906 67.2845 18.9592 70.5306 18.9592C73.7767 18.9592 76.4082 21.5907 76.4082 24.8367V32H73.5612V24.8367C73.5612 23.163 72.2044 21.8061 70.5306 21.8061C68.8568 21.8061 67.5 23.163 67.5 24.8367V32H64.6531V24.8367Z" fill="black"/>
</svg>
