<svg width="300" height="255" xmlns="http://www.w3.org/2000/svg"><g fill="none" fill-rule="evenodd"><path d="M184.833 239.056c-1.366 0-2.418-1.08-2.444-2.51a1.447 1.447 0 0 0-.028-.338l.013-20.105c-.001-2.838-.948-5.204-2.815-7.031-1.55-1.518-3.502-2.353-5.646-2.413-1.115-.03-2.226-.04-3.342-.04l-4.395.015c-.24 0-.487.077-.596.122-.465.18-.973.686-.973 1.362v28.256c0 1.228-.654 2.197-1.707 2.53a2.98 2.98 0 0 1-.908.147c-1.384 0-2.434-1.1-2.444-2.56-.013-1.971-.01-4.689-.006-6.662l.002-21.73c0-.795-.648-1.44-1.444-1.44h-14.712c-.795 0-1.442.645-1.442 1.44l-.001 28.271c-.001 1.242-.666 2.219-1.734 2.55-.29.09-.582.136-.866.136-1.378 0-2.435-1.09-2.46-2.533-.011-.72-.009-2.184-.005-2.906l.003-29.288c0-1.28.729-2.298 1.901-2.653.211-.066.464-.1.753-.1 6.509-.004 13.008-.008 19.51-.008 5.053 0 10.109.004 15.161.009 2.556.003 4.742.543 6.68 1.652 1.677.954 3.058 2.29 4.11 3.969 1.631 2.61 2.429 5.642 2.437 9.268.014 5.726.015 14.85.011 20.602-.17.846-.812 1.557-1.709 1.84a2.917 2.917 0 0 1-.904.148zm29.035.21c-7.89 0-14.541-4.318-17.788-11.554-3.16-7.038-1.377-15.981 4.24-21.265 3.82-3.595 8.282-5.418 13.26-5.418 1.106 0 2.254.09 3.415.264 8.06 1.206 14.225 7.432 15.342 15.493a6.27 6.27 0 0 1-.068 1.99c-.26 1.384-.875 1.876-2.347 1.878l-28.758.002c-.441 0-.853.196-1.128.54-.277.347-.379.792-.28 1.22 1.322 5.88 4.418 9.642 9.464 11.501 1.49.55 3.028.827 4.574.827 2.46 0 5.018-.71 7.605-2.111 1.748-.944 3.376-2.279 4.98-4.08a2.538 2.538 0 0 1 1.896-.827c.328 0 .642.06.932.18.884.359 1.505 1.304 1.477 2.247-.018.596-.26 1.152-.738 1.698-3.153 3.592-6.909 5.898-11.164 6.855-1.641.372-3.295.56-4.914.56zm-.14-33.855c-4.295 0-7.66 1.31-10.282 4.006-1.613 1.656-2.603 3.63-2.943 5.868a1.44 1.44 0 0 0 1.427 1.657h23.421c.432 0 .838-.189 1.111-.52.276-.329.389-.762.309-1.189-.576-3.044-1.965-5.368-4.247-7.102-2.32-1.767-5.072-2.656-8.414-2.717l-.382-.003zm-149.06 33.852c-5.607 0-10.454-2.225-14.404-6.613-2.498-2.777-4.003-6.082-4.473-9.82-.861-6.854 1.302-12.623 6.427-17.145 3.51-3.097 7.698-4.668 12.45-4.668.535 0 1.074.02 1.62.058 4.85.346 8.925 2.185 12.111 5.465 3.172 3.265 4.868 7.034 5.038 11.205.043 1.04-.15 1.791-.572 2.229-.434.453-1.208.682-2.303.682h-28.34c-.44 0-.85.196-1.125.54-.275.335-.38.778-.285 1.21 1.31 5.912 4.428 9.687 9.536 11.544 1.464.53 2.977.8 4.498.8 2.46 0 5.017-.71 7.597-2.11 1.758-.951 3.387-2.286 4.983-4.078a2.543 2.543 0 0 1 1.903-.836c.325 0 .638.06.928.177.924.371 1.549 1.278 1.453 2.11-.077.663-.325 1.314-.646 1.699-3.118 3.736-6.911 6.089-11.276 6.996-1.766.368-3.488.555-5.12.555zm.12-33.938c-2.233 0-4.472.503-6.656 1.495-3.578 1.628-5.795 4.445-6.586 8.375-.087.422.02.858.294 1.196.278.34.686.531 1.12.531h23.434c.435 0 .841-.191 1.115-.526.273-.324.385-.756.305-1.184-.74-3.922-2.85-6.723-6.273-8.328-2.203-1.034-4.475-1.559-6.754-1.559zm199.522 49.671c-3.059 0-6.17-.746-9.244-2.217-1.403-.67-2.154-1.424-2.437-2.443-.28-1.01-.01-1.966.706-2.494.519-.386.977-.573 1.403-.573.282 0 .584.087.9.256 2.158 1.158 4.768 2.36 7.774 2.498.296.011.587.019.874.019 4.554-.002 8.297-1.7 11.125-5.048 1.276-1.507 2.017-3.217 2.734-4.87.3-.697.585-1.358.909-2.001.435-.866.814-1.718 1.266-2.74.277-.629.555-1.253.848-1.873.402-.853.358-1.71-.13-2.543-1.207-2.05-2.402-4.107-3.597-6.164l-7.938-13.668a96.978 96.978 0 0 1-.925-1.649c-.655-1.191-1.398-2.542-2.27-3.784-.486-.688-.666-1.488-.506-2.253.153-.736.589-1.37 1.195-1.741.412-.25.892-.382 1.386-.382 1.073 0 2.083.592 2.638 1.544 2.406 4.11 4.8 8.23 7.196 12.348l4.403 7.57c.123.214.256.425.405.66l.275.431a1.443 1.443 0 0 0 2.415.039c.655-.957 1.045-1.917 1.424-2.844.134-.334.268-.659.412-.979 1.555-3.453 3.067-6.925 4.58-10.399l1.878-4.302c.37-.846.749-1.688 1.138-2.525.47-1.01 1.407-1.662 2.386-1.662.207 0 .413.028.61.085 1.189.337 2.01 1.666 1.833 2.962-.064.455-.306.952-.562 1.478-.113.226-.21.427-.303.63-2.692 5.92-5.4 11.826-8.113 17.733l-2.805 6.089c-1.556 3.368-3.112 6.738-4.644 10.117l-.37.822c-.971 2.165-1.975 4.403-3.436 6.275-2.395 3.068-5.333 5.23-8.737 6.424-2.216.78-4.469 1.174-6.696 1.174zm-153.168-54.325c-12.086-.921-22.092 9.297-20.788 21.434.988 9.207 8.634 16.536 17.881 17.187 6.092.429 11.633-1.983 15.462-6.029.21-.221.578-.083.578.222v3.353c0 1.238.891 2.367 2.125 2.49a2.37 2.37 0 0 0 2.615-2.355v-16.52c0-10.194-7.695-19.006-17.873-19.782zm-1.514 33.935c-8.077-.001-14.648-6.563-14.648-14.629 0-8.066 6.571-14.628 14.648-14.628 8.076 0 14.647 6.562 14.647 14.628 0 8.067-6.57 14.63-14.647 14.63zm-88.842-33.943c-5.547-.392-10.637 1.571-14.394 4.978-.637.577-1.65.157-1.65-.701v-20.436c0-1.239-.892-2.368-2.126-2.492A2.371 2.371 0 0 0 0 184.368v35.609c0 10.676 8.697 19.364 19.387 19.365 11.419 0 20.563-9.91 19.266-21.57-1.021-9.172-8.65-16.457-17.867-17.109zm-1.398 33.943c-8.077 0-14.647-6.564-14.647-14.63 0-8.065 6.57-14.627 14.647-14.627 8.076 0 14.646 6.562 14.646 14.628 0 8.067-6.57 14.63-14.646 14.63zm222.381 3.744a2.53 2.53 0 0 1-2.53-2.529v-21.147c0-7.16 5.83-12.984 12.999-12.984h5.516a2.53 2.53 0 0 1 0 5.056h-5.516c-4.376 0-7.937 3.557-7.937 7.928v21.147a2.53 2.53 0 0 1-2.532 2.529z" fill="#1E2E44"/><path d="M150.368 0C110.016 0 77 33.411 77 74.25c0 34.532 23.608 63.75 55.296 71.951 5.61 1.451 11.041-2.994 11.041-8.854v-27.965c0-6.627-7.918-9.945-12.545-5.257l-.113.113c-2.477 2.51-6.467 3.154-9.323 1.096-3.628-2.612-3.936-7.8-.922-10.85l.42-.423c4.626-4.685 1.348-12.695-5.198-12.695H98.63c-3.506 0-6.775-2.401-7.356-5.9-.739-4.442 2.668-8.33 6.929-8.33h17.455c6.546.002 9.824-8.008 5.195-12.693l-12.04-12.186c-2.479-2.509-3.113-6.546-1.08-9.435a6.996 6.996 0 0 1 10.72-.932l12.343 12.492c4.629 4.685 12.543 1.367 12.543-5.258v-.497c0-4.311 3.84-7.76 8.23-7.012 3.457.588 5.828 3.897 5.828 7.445v.064c0 6.625 7.914 9.943 12.545 5.258l12.04-12.185c2.48-2.508 6.469-3.15 9.323-1.092 3.627 2.614 3.933 7.8.92 10.85l-12.342 12.49c-4.629 4.685-1.35 12.694 5.195 12.694h-2.002c3.47 0 6.715 2.342 7.337 5.795.81 4.486-2.618 8.434-6.911 8.434h1.576c-6.546 0-9.824 8.01-5.195 12.695l13.473 13.635c2.478 2.51 3.113 6.547 1.08 9.435a6.996 6.996 0 0 1-10.72.933l-13.776-13.942c-4.629-4.685-12.543-1.367-12.543 5.258v27.965c0 5.86 5.432 10.305 11.042 8.854 31.687-8.198 55.297-37.414 55.297-71.946 0-40.838-33.015-74.253-73.368-74.255zm6.97 15.209c0 3.896-3.12 7.054-6.97 7.054-3.85 0-6.97-3.158-6.97-7.054 0-3.897 3.12-7.055 6.97-7.055 3.85 0 6.97 3.16 6.97 7.055zm57.547 59.574c0 3.897-3.12 7.055-6.97 7.055-3.85 0-6.97-3.16-6.97-7.055 0-3.896 3.12-7.054 6.97-7.054 3.85 0 6.97 3.158 6.97 7.054zm-98.55 39.915c0 3.895-3.121 7.055-6.971 7.055-3.849-.002-6.97-3.16-6.97-7.056 0-3.895 3.121-7.055 6.971-7.055 3.849.002 6.97 3.16 6.97 7.056z" fill="#31B3A4"/></g></svg>