<?xml version="1.0" encoding="UTF-8"?>
<svg width="300px" height="300px" viewBox="0 0 16 16" version="1.1" xmlns="http://www.w3.org/2000/svg" xmlns:xlink="http://www.w3.org/1999/xlink">
    <!-- Generator: Sketch 42 (36781) - http://www.bohemiancoding.com/sketch -->
    <title>Canopy Logo</title>
    <desc>Canopy Logo</desc>
    <defs></defs>
    <g id="import-2" stroke="none" stroke-width="1" fill="none" fill-rule="evenodd">
        <g id="import-v2-44" transform="translate(-149.000000, -657.000000)" fill="#00C046">
            <g id="dup-copy-4" transform="translate(27.000000, 580.000000)">
                <g id="Group-2" transform="translate(14.000000, 22.000000)">
                    <g id="old" transform="translate(16.000000, 33.000000)">
                        <path d="M92,23.0008717 C92,22.4481055 92.4446309,22 93.0008717,22 L106.999128,22 C107.551894,22 108,22.4446309 108,23.0008717 L108,36.9991283 C108,37.5518945 107.555369,38 106.999128,38 L93.0008717,38 C92.4481055,38 92,37.5553691 92,36.9991283 L92,23.0008717 Z M100.380543,31.9854171 C99.0696755,31.9854171 98.1570717,31.0562095 98.1570717,29.7952284 C98.1570717,28.5673793 99.0863547,27.5883605 100.330808,27.5883605 C100.993675,27.5883605 101.560619,27.8760586 101.98077,28.3088133 C102.104619,28.4364359 102.304845,28.4488888 102.438355,28.3313039 L103.715713,27.2067001 C102.968996,26.244285 101.724543,25.5971907 100.330808,25.5971907 C97.8749585,25.5971907 96.0000151,27.4555303 96.0000151,29.7952284 C96.0000151,32.1181718 97.8252981,33.9766624 100.314128,33.9766624 C101.824166,33.9766624 103.018883,33.4290397 103.964543,32.1680586 L102.565902,31.1189265 C102.430053,31.0169642 102.236166,31.0329642 102.124921,31.1614171 C101.743034,31.6022473 101.127638,31.9854171 100.380543,31.9854171 Z" id="logo-icon"></path>
                    </g>
                </g>
            </g>
        </g>
    </g>
</svg>