<svg xmlns="http://www.w3.org/2000/svg" width="237" height="40" viewBox="0 0 237 40">
    <g fill="none" fill-rule="evenodd">
        <path fill="#000000" fill-rule="nonzero" d="M40.47 6.34c0-2.09 1.807-3.665 3.956-3.665a3.76 3.76 0 0 1 2.718 1.023 3.689 3.689 0 0 1 1.157 2.641c-.05 2.071-1.784 3.71-3.875 3.665-2.15 0-3.957-1.66-3.957-3.665zm.775 6.69h6.367v19.863h-6.367V13.03zm29.215 9.164v10.699h-6.368V22.92c0-3.07-1.893-4.222-3.488-4.222-1.721 0-3.87.897-3.87 4.222v9.972h-6.368V13.03h6.367v3.54c.69-2.829 3.871-4.04 5.768-4.04 5.332-.009 7.959 3.571 7.959 9.664zm22.59 0v10.699h-6.368V22.92c0-3.07-1.892-4.222-3.487-4.222-1.722 0-3.871.897-3.871 4.222v9.972h-6.368V13.03h6.368v3.54c.689-2.829 3.87-4.04 5.763-4.04 5.336-.009 7.963 3.571 7.963 9.664zm1.334.727c0-6.307 5.164-10.4 10.887-10.4 5.723 0 10.949 4.077 10.949 10.4s-5.205 10.356-10.928 10.356c-5.723 0-10.908-4.093-10.908-10.356zm15.317 0c0-2.727-1.978-4.561-4.43-4.561-2.451 0-4.434 1.834-4.434 4.561s1.979 4.517 4.434 4.517c2.456 0 4.422-1.79 4.422-4.517h.008zm27.498-9.89l-8.521 19.862h-5.552l-8.518-19.863h6.935l4.39 11.806 4.344-11.806h6.922zm20.824 0v19.862h-6.314v-2.259c-1.465 1.875-4.178 2.643-6.242 2.643-4.988 0-9.724-3.923-9.724-10.356 0-6.432 4.727-10.363 9.716-10.363 2.064 0 4.777.767 6.241 2.642v-2.174l6.323.004zm-6.584 9.89a4.58 4.58 0 0 0-2.783-4.312 4.659 4.659 0 0 0-5.081.933 4.55 4.55 0 0 0-1.038 5.014 4.627 4.627 0 0 0 4.301 2.838c2.51.007 4.561-1.986 4.601-4.473zm8.18-.044c0-6.307 5.204-10.356 11.058-10.356 3.87 0 6.84 1.875 8.778 4.687l-4.895 3.07a4.878 4.878 0 0 0-3.83-1.918c-2.925 0-4.646 2.044-4.646 4.517 0 2.472 1.721 4.561 4.646 4.561a4.91 4.91 0 0 0 3.83-1.919l4.895 3.067c-1.938 2.828-4.895 4.69-8.778 4.69-5.854 0-11.059-4.092-11.059-10.4zm19.575 0c0-6.307 5.21-10.356 11.059-10.356 3.875 0 6.845 1.875 8.778 4.687l-4.895 3.07a4.882 4.882 0 0 0-3.83-1.918c-2.925 0-4.646 2.044-4.646 4.517 0 2.472 1.72 4.561 4.646 4.561a4.91 4.91 0 0 0 3.83-1.919l4.895 3.067c-1.933 2.828-4.895 4.69-8.778 4.69-5.85 0-11.059-4.092-11.059-10.4zm40.882 1.919H205.39c.6 1.875 2.28 2.982 4.687 2.982a7.625 7.625 0 0 0 5.079-1.92l3.263 4.094c-1.982 2.133-5.42 3.325-8.823 3.325-6.323 0-10.842-4.218-10.842-10.27 0-6.466 5.078-10.486 10.842-10.486s10.586 3.964 10.586 10.016c.02.554-.02 1.277-.106 2.259zm-6.242-3.71c-.04-1.959-1.807-3.231-4.079-3.231-1.937 0-3.744.852-4.389 3.232h8.468zm23.15-7.97l-1.506 6.011a5.753 5.753 0 0 0-2.884-.767c-2.496 0-4.56 2.044-4.56 7.927v6.606h-6.368V13.03h6.282v4.178c1.163-3.28 3.57-4.687 6.025-4.687a6.58 6.58 0 0 1 3.01.594z"/>
        <path fill="#E81F76" d="M9.02 24.13L.293 37.203a1.715 1.715 0 0 0-.082 1.772c.305.561.895.91 1.538.91h17.455c.642 0 1.233-.349 1.537-.91a1.715 1.715 0 0 0-.081-1.772l-8.725-13.079a1.755 1.755 0 0 0-1.46-.773c-.586 0-1.133.293-1.457.777z"/>
        <path fill="#E81F76" d="M9.02 15.762L.293 2.682A1.715 1.715 0 0 1 .212.91C.517.35 1.107 0 1.75 0h17.455c.642 0 1.233.35 1.537.91.305.561.273 1.242-.081 1.773l-8.725 13.079a1.75 1.75 0 0 1-1.459.778 1.75 1.75 0 0 1-1.458-.778z" opacity=".2"/>
        <path fill="#E81F76" d="M21.803 3.588l-8.725 13.079a1.72 1.72 0 0 0-.08 1.775c.305.561.897.911 1.54.912h17.45a1.752 1.752 0 0 0 1.538-.914 1.72 1.72 0 0 0-.08-1.773L24.72 3.587a1.754 1.754 0 0 0-1.459-.774c-.586 0-1.134.29-1.458.775z" opacity=".4"/>
        <path fill="#E81F76" d="M24.72 36.453l8.725-13.08a1.72 1.72 0 0 0 .08-1.773 1.752 1.752 0 0 0-1.536-.913h-17.45c-.644 0-1.236.35-1.54.912a1.72 1.72 0 0 0 .079 1.775l8.725 13.079c.324.484.872.775 1.458.775.587 0 1.135-.291 1.459-.775z" opacity=".7"/>
    </g>
</svg>
