<svg id="Layer_1" xmlns="http://www.w3.org/2000/svg" viewBox="0 0 518 376.4"><style>.st1{fill:#e0e0e2}</style><path d="M383.7 377.4l44-62.9c2.2-3.2 1.4-7.5-1.8-9.7-.1-.1-.2-.1-.2-.2L162.3 135.9c-1-.7-1.2-2-.6-3 .6-.9 1.8-1.2 2.7-.7l158 79.9L435.6 25.8c1-1.6.5-3.8-1.2-4.7-.8-.5-1.7-.6-2.6-.4L112.2 98.8c-2.9.7-5.2 3-6 5.9L61.1 275.2c-1 3.7.8 7.7 4.2 9.4l184.5 92.8h133.9z" fill="#d3d3d3"/><path id="Fill-8_1_" class="st1" d="M292.3 175.7l-162.4-72-7.2 16.7 160.2 107L379 67.2z"/><path class="st1" d="M293 377.4l-45.1-37.8-22.9 37.8z"/><path d="M351.3 377.4l57.5-82.3c2.2-3.2 1.4-7.5-1.8-9.7-.1 0-.1-.1-.2-.1L143.2 116.7c-1-.7-1.3-2-.6-3 .6-.9 1.8-1.3 2.8-.8l158 80L416.5 6.6c1-1.6.5-3.8-1.2-4.7-.8-.5-1.7-.6-2.6-.4L93.2 79.6c-2.9.7-5.2 3-6 5.9L42.1 256c-1 3.8.8 7.7 4.2 9.4l222.7 112h82.3z" fill="#f9f9f9"/></svg>