<svg id="Layer_1" data-name="Layer 1" xmlns="http://www.w3.org/2000/svg" viewBox="0 0 394.29 376.05"><defs><style>.cls-1{fill:#d3d3d3;}.cls-2{fill:#e0e0e2;}.cls-3{fill:#f9f9f9;}</style></defs><title>splash-cropped</title><path class="cls-1" d="M383.74,377.45l44-62.95a6.94,6.94,0,0,0-1.8-9.7c-.1-.1-.2-.1-.2-.2L162.3,135.9a2.22,2.22,0,0,1-.6-3,2.08,2.08,0,0,1,2.7-.7l158,79.9L435.6,25.8a3.33,3.33,0,0,0-1.2-4.7,3.39,3.39,0,0,0-2.6-.4L112.2,98.8a8.33,8.33,0,0,0-6,5.9L61.1,275.2a8.22,8.22,0,0,0,4.2,9.4l184.53,92.85Z" transform="translate(-41.82 -1.4)"/><polygon id="Fill-8" class="cls-2" points="250.47 174.3 88.08 102.3 80.88 119 241.07 226 337.18 65.8 250.47 174.3"/><polygon class="cls-2" points="251.18 376.05 206.07 338.2 183.16 376.05 251.18 376.05"/><path class="cls-3" d="M351.34,377.45,408.8,295.1a6.94,6.94,0,0,0-1.8-9.7c-.1,0-.1-.1-.2-.1L143.2,116.7a2.13,2.13,0,0,1-.6-3,2.21,2.21,0,0,1,2.8-.8l158,80L416.5,6.6a3.33,3.33,0,0,0-1.2-4.7,3.39,3.39,0,0,0-2.6-.4L93.2,79.6a8.33,8.33,0,0,0-6,5.9L42.1,256a8.16,8.16,0,0,0,4.2,9.4L269,377.45Z" transform="translate(-41.82 -1.4)"/></svg>