<svg xmlns="http://www.w3.org/2000/svg" viewBox="0 0 75.71 37.21"><defs><style>.cls-1{fill:#e20074;}</style></defs><title>T_Logo_3c_p_DE</title><g id="Marke"><path class="cls-1" d="M14.88,39.53V32h7.54v7.53Z" transform="translate(-14.88 -14.88)"/><path class="cls-1" d="M37.86,39.53V32h7.53v7.53Z" transform="translate(-14.88 -14.88)"/><path class="cls-1" d="M60.46,39.53V32H68v7.53Z" transform="translate(-14.88 -14.88)"/><path class="cls-1" d="M83.06,39.53V32h7.53v7.53Z" transform="translate(-14.88 -14.88)"/><path class="cls-1" d="M45,14.88H15.25L14.88,28l2,.34c.36-3.87,1.38-6.74,3-8.61a9.61,9.61,0,0,1,7.26-3.07V44.13c0,2.4-.34,4-1,4.67a4.73,4.73,0,0,1-3,1.13C22.68,50,22,50,21,50v2.1H39.32V50c-1,0-1.73,0-2.15-.06a4.73,4.73,0,0,1-3-1.13c-.7-.71-1-2.27-1-4.67V16.67a9.61,9.61,0,0,1,7.26,3.07q2.49,2.81,3.05,8.61l2-.34Z" transform="translate(-14.88 -14.88)"/></g></svg>