<svg id="Layer_1" data-name="Layer 1" xmlns="http://www.w3.org/2000/svg" viewBox="0 0 240.94 155.91">
	<path d="M67,65.77a10.42,10.42,0,0,1,8.24-4,10.71,10.71,0,0,1,10,7.14A17.34,17.34,0,0,1,86,73.63V97.84H78.61V73.63c0-4.88-3.55-8.7-8.08-8.7a7.66,7.66,0,0,0-3.5.84m-4.31,5.64a9.5,9.5,0,0,0-.27,2.22v8.65a17.85,17.85,0,0,1-.33,3.38C60.75,90.6,56.72,94,51.68,94a10.4,10.4,0,0,1-8.1-3.82A7.63,7.63,0,0,0,47,91c4.53,0,8.08-3.83,8.08-8.7V73.63c0-9,6.78-16,15.44-16A15.11,15.11,0,0,1,80.1,61a12.13,12.13,0,0,0-4.83-1c-6.37,0-11.5,4.85-12.55,11.43M47,98.28c-8.66,0-15.44-7-15.44-16V58.06h7.36V81.74c0,.05,0,.09,0,.13s0,.2,0,.31v.1c0,.32,0,.63,0,.94.6,7.15,6,12.57,12.7,12.57a12.12,12.12,0,0,0,5.37-1.26,15.11,15.11,0,0,1-10,3.75M75.39,73.63V101h13.8V73.63c0-10.77-8.19-19.2-18.66-19.2s-18.66,8.43-18.66,19.2v8.65c0,3.14-2.09,5.51-4.86,5.51s-4.86-2.37-4.86-5.51V54.87H28.35V82.28c0,10.77,8.2,19.2,18.66,19.2s18.66-8.43,18.66-19.2V73.63c0-3.14,2.09-5.51,4.86-5.51s4.86,2.37,4.86,5.51" fill="#3842d0"/><rect x="207.61" y="66.41" width="4.99" height="22.53" fill="#3842d0"/><path d="M194.74,79.83a2.81,2.81,0,0,1,.29-1.09,3.33,3.33,0,0,1,.72-.91,3.48,3.48,0,0,1,1-.61,3.77,3.77,0,0,1,1.32-.23,2.76,2.76,0,0,1,2.2.84,3,3,0,0,1,.72,2Zm8.72-4.06a6.56,6.56,0,0,0-2.37-1.59,7.91,7.91,0,0,0-3-.55,8.82,8.82,0,0,0-3.16.56,7.47,7.47,0,0,0-2.54,1.6,7.25,7.25,0,0,0-1.7,2.5,8.32,8.32,0,0,0-.63,3.29,8.16,8.16,0,0,0,.64,3.34,7,7,0,0,0,1.76,2.46,7.57,7.57,0,0,0,2.61,1.52,9.54,9.54,0,0,0,3.17.53,9.07,9.07,0,0,0,4-.83A6.85,6.85,0,0,0,205,86.27l-3.4-2.15a4,4,0,0,1-1.32,1.12,4.25,4.25,0,0,1-2,.43,4,4,0,0,1-2.38-.79,3.35,3.35,0,0,1-.8-.88,2.71,2.71,0,0,1-.38-1.13h10.79c0-.18,0-.37,0-.57v-.59a9.66,9.66,0,0,0-.55-3.4,7.59,7.59,0,0,0-1.53-2.54" fill="#3842d0"/><path d="M165.53,83a2.79,2.79,0,0,1-3.07,3,4,4,0,0,1-.75-.08,2.18,2.18,0,0,1-.69-.25,1.6,1.6,0,0,1-.49-.48,1.28,1.28,0,0,1-.19-.71,1.4,1.4,0,0,1,.42-1.06,2.69,2.69,0,0,1,1.06-.61,7.25,7.25,0,0,1,1.46-.29c.54,0,1.09-.07,1.63-.07h.62Zm4.11-5a6.11,6.11,0,0,0-1.18-2.44,4.73,4.73,0,0,0-2.11-1.43,9.42,9.42,0,0,0-3.17-.47,10.91,10.91,0,0,0-3.57.63,8.67,8.67,0,0,0-3.06,1.88L159,78.79a6.49,6.49,0,0,1,1.67-1.08,4.68,4.68,0,0,1,2-.45,3.4,3.4,0,0,1,1.91.52,1.85,1.85,0,0,1,.77,1.63v.24a31.58,31.58,0,0,0-3.31.18,12,12,0,0,0-3.09.72,5.7,5.7,0,0,0-2.27,1.51,3.68,3.68,0,0,0-.87,2.59,4.3,4.3,0,0,0,.5,2.21,4.18,4.18,0,0,0,1.3,1.43,5.23,5.23,0,0,0,1.74.77,7.2,7.2,0,0,0,1.86.24,6.26,6.26,0,0,0,2.49-.5,3.78,3.78,0,0,0,1.72-1.43h.08V89H170V81.46a14.43,14.43,0,0,0-.36-3.5" fill="#3842d0"/><path d="M149.44,82.88a3.63,3.63,0,0,1-.67,1.24,3.38,3.38,0,0,1-1.11.86,3.6,3.6,0,0,1-3,0,3.53,3.53,0,0,1-1.12-.86,4.27,4.27,0,0,1-.72-1.22,4.55,4.55,0,0,1-.25-1.41,3.88,3.88,0,0,1,.25-1.39,4.19,4.19,0,0,1,.72-1.23,3.71,3.71,0,0,1,1.12-.87,3.44,3.44,0,0,1,1.5-.32,3.29,3.29,0,0,1,1.51.33,3.36,3.36,0,0,1,1.11.85,3.49,3.49,0,0,1,.67,1.21,4.14,4.14,0,0,1,.22,1.4,4.61,4.61,0,0,1-.22,1.41m3-6.87a6.71,6.71,0,0,0-2.2-1.7,6.47,6.47,0,0,0-2.91-.62,5.57,5.57,0,0,0-2.78.62,6.29,6.29,0,0,0-1.76,1.37h-.06V66.41h-4.89V89h4.5V87h.06a4.69,4.69,0,0,0,2.05,1.74,7,7,0,0,0,5.8,0A6.86,6.86,0,0,0,152.52,87a7.74,7.74,0,0,0,1.38-2.51,9.35,9.35,0,0,0,.48-3,8.94,8.94,0,0,0-.49-3A7.63,7.63,0,0,0,152.48,76" fill="#3842d0"/><path d="M183.64,82.88a3.63,3.63,0,0,1-.67,1.24,3.38,3.38,0,0,1-1.11.86,3.31,3.31,0,0,1-1.52.33,3.24,3.24,0,0,1-1.49-.33,3.53,3.53,0,0,1-1.12-.86A4.27,4.27,0,0,1,177,82.9a4,4,0,0,1-.25-1.41A3.88,3.88,0,0,1,177,80.1a4.19,4.19,0,0,1,.72-1.23,3.71,3.71,0,0,1,1.12-.87,3.4,3.4,0,0,1,1.49-.32,3.31,3.31,0,0,1,1.52.33,3.36,3.36,0,0,1,1.11.85,3.49,3.49,0,0,1,.67,1.21,4.14,4.14,0,0,1,.22,1.4,4.61,4.61,0,0,1-.22,1.41m3-6.87a6.71,6.71,0,0,0-2.2-1.7,6.48,6.48,0,0,0-2.92-.62,5.54,5.54,0,0,0-2.77.62A6.29,6.29,0,0,0,177,75.68H177V66.41h-4.9V89h4.51V87h.06a4.72,4.72,0,0,0,2,1.74,6.66,6.66,0,0,0,2.82.61,6.57,6.57,0,0,0,3-.65A7,7,0,0,0,186.72,87a7.74,7.74,0,0,0,1.38-2.51,9.35,9.35,0,0,0,.48-3,8.94,8.94,0,0,0-.49-3A7.63,7.63,0,0,0,186.68,76" fill="#3842d0"/><path d="M114,80.48a6.19,6.19,0,0,1-.21,1.64,3.86,3.86,0,0,1-.69,1.39,3.26,3.26,0,0,1-1.24,1,4.2,4.2,0,0,1-1.83.36,4.35,4.35,0,0,1-1.83-.36,3.15,3.15,0,0,1-1.23-1,4.21,4.21,0,0,1-.69-1.39,6.25,6.25,0,0,1-.22-1.64V67.76h-5.07V80.9a9.29,9.29,0,0,0,.62,3.48,7.7,7.7,0,0,0,1.79,2.67,8.16,8.16,0,0,0,2.84,1.75,11.51,11.51,0,0,0,7.51,0,8.37,8.37,0,0,0,2.88-1.75,7.48,7.48,0,0,0,1.83-2.68,9,9,0,0,0,.64-3.47V67.76H114Z" fill="#3842d0"/><path d="M134,75.77a6.15,6.15,0,0,0-2.26-1.59,9.38,9.38,0,0,0-3.26-.55h0a9.38,9.38,0,0,0-3.26.55,6.23,6.23,0,0,0-2.26,1.59,7.24,7.24,0,0,0-1.48,2.54,10.1,10.1,0,0,0-.34,3.4V89h4.95V80.81a2.4,2.4,0,0,1,4.79,0V89h4.95V81.71a10.1,10.1,0,0,0-.34-3.4A7.24,7.24,0,0,0,134,75.77" fill="#3842d0"/>
</svg>
