<?xml version="1.0" encoding="UTF-8" standalone="no"?>
<svg
   xmlns:dc="http://purl.org/dc/elements/1.1/"
   xmlns:cc="http://creativecommons.org/ns#"
   xmlns:rdf="http://www.w3.org/1999/02/22-rdf-syntax-ns#"
   xmlns:svg="http://www.w3.org/2000/svg"
   xmlns="http://www.w3.org/2000/svg"
   xmlns:xlink="http://www.w3.org/1999/xlink"
   viewBox="0 0 181.71703 28.644241"
   height="28.644241"
   width="181.71703"
   version="1.1"
   id="svg2">
  <metadata
     id="metadata8">
    <rdf:RDF>
      <cc:Work
         rdf:about="">
        <dc:format>image/svg+xml</dc:format>
        <dc:type
           rdf:resource="http://purl.org/dc/dcmitype/StillImage" />
        <dc:title></dc:title>
      </cc:Work>
    </rdf:RDF>
  </metadata>
  <defs
     id="defs6" />
  <g
     transform="matrix(0.23728517,0,0,0.23728517,-1.8535419e-5,0)"
     id="g3">
    <defs
       id="defs5">
      <rect
         y="0"
         x="0"
         height="120.717"
         width="765.81799"
         id="SVGID_1_" />
    </defs>
    <clipPath
       id="SVGID_2_">
      <use
         height="100%"
         width="100%"
         y="0"
         x="0"
         style="overflow:visible"
         id="use9"
         overflow="visible"
         xlink:href="#SVGID_1_" />
    </clipPath>
    <path
       style="fill:#003755"
       id="path11"
       d="m 195.002,109.836 c -0.501,0 -0.975,-0.079 -1.449,-0.237 -1.305,-0.448 -2.319,-1.476 -2.754,-2.793 -10.396,-31.359 -31.727,-56.761 -58.526,-69.726 -2.082,-1.001 -3.044,-3.426 -2.201,-5.587 l 7.8,-19.997 c 0.449,-1.147 1.357,-2.055 2.503,-2.51 0.528,-0.198 1.081,-0.303 1.621,-0.303 0.659,0 1.318,0.151 1.924,0.441 33.005,15.966 58.381,45.861 71.451,84.165 0.646,1.909 -0.065,4.005 -1.752,5.124 l -16.18,10.698 c -0.738,0.475 -1.581,0.725 -2.437,0.725"
       clip-path="url(#SVGID_2_)" />
    <path
       style="fill:#003755"
       id="path13"
       d="M 195.002,105.422 C 184.171,72.773 162.247,46.659 134.196,33.101 l 7.8,-19.998 c 32.017,15.491 56.471,44.333 69.186,81.621 l -16.18,10.698 z"
       clip-path="url(#SVGID_2_)" />
    <path
       style="fill:#005a8b"
       id="path15"
       d="m 147.016,108.136 c -1.463,0 -2.885,-0.725 -3.728,-2.042 -7.524,-11.779 -17.63,-21.345 -29.225,-27.682 -1.989,-1.081 -2.845,-3.544 -1.923,-5.64 l 6.258,-14.388 c 0.501,-1.133 1.45,-2.016 2.636,-2.424 0.461,-0.159 0.935,-0.238 1.423,-0.238 0.738,0 1.475,0.185 2.121,0.554 15.587,8.524 28.907,21.568 38.526,37.708 1.238,2.082 0.566,4.783 -1.503,6.048 l -12.292,7.457 c -0.725,0.437 -1.502,0.647 -2.293,0.647"
       clip-path="url(#SVGID_2_)" />
    <path
       style="fill:#005a8b"
       id="path17"
       d="M 147.016,103.709 C 139.058,91.271 128.491,81.258 116.199,74.538 l 6.258,-14.388 c 14.941,8.182 27.589,20.581 36.839,36.101 l -12.28,7.458 z"
       clip-path="url(#SVGID_2_)" />
    <path
       style="fill:#0071ac"
       id="path19"
       d="m 94.142,114.368 c 3.399,6.522 12.003,8.314 19.237,3.992 7.206,-4.308 10.329,-13.11 6.943,-19.618 -3.386,-6.536 -11.99,-8.328 -19.21,-4.006 -7.233,4.322 -10.356,13.111 -6.97,19.632"
       clip-path="url(#SVGID_2_)" />
    <path
       style="fill:#25a7d8"
       id="path21"
       d="m 70.4,112.432 c -0.712,0 -1.423,-0.171 -2.082,-0.514 C 35.972,94.671 11.768,63.84 0.187,25.063 -0.393,23.139 0.411,21.057 2.124,20.016 L 18.725,9.948 c 0.699,-0.421 1.489,-0.645 2.293,-0.645 0.553,0 1.093,0.105 1.607,0.303 1.278,0.5 2.253,1.574 2.648,2.898 9.158,31.717 29.474,57.936 55.773,71.917 2.042,1.094 2.899,3.558 1.976,5.679 l -8.564,19.685 c -0.487,1.133 -1.436,2.002 -2.595,2.411 -0.475,0.156 -0.962,0.236 -1.463,0.236"
       clip-path="url(#SVGID_2_)" />
    <path
       style="fill:#25a7d8"
       id="path23"
       d="M 70.4,108.018 C 39.002,91.297 15.694,61.534 4.416,23.799 L 21.018,13.729 C 30.544,46.75 51.44,73.682 78.964,88.333 L 70.4,108.018 Z"
       clip-path="url(#SVGID_2_)" />
    <path
       style="fill:#28c3ec"
       id="path25"
       d="m 92.008,66.673 c -0.751,0 -1.502,-0.186 -2.161,-0.567 C 74.195,57.278 62.363,43.008 55.63,24.853 c -0.738,-1.99 0.04,-4.229 1.858,-5.323 l 11.726,-7.118 c 0.698,-0.422 1.489,-0.639 2.293,-0.639 0.487,0 0.975,0.079 1.436,0.244 1.252,0.435 2.24,1.39 2.701,2.622 4.941,13.126 13.465,23.377 24.665,29.648 1.989,1.107 2.806,3.531 1.897,5.613 l -6.14,14.125 c -0.5,1.146 -1.462,2.029 -2.648,2.424 -0.462,0.157 -0.936,0.224 -1.41,0.224"
       clip-path="url(#SVGID_2_)" />
    <path
       style="fill:#28c3ec"
       id="path27"
       d="M 92.008,62.259 C 77.33,53.958 66.105,40.334 59.781,23.311 l 11.726,-7.118 c 5.27,14.023 14.585,25.195 26.654,31.955 l -6.153,14.111 z"
       clip-path="url(#SVGID_2_)" />
    <path
       style="fill:#86d4eb"
       id="path29"
       d="m 118.794,5.679 c -3.807,-6.305 -12.504,-7.55 -19.447,-2.781 -6.93,4.757 -9.486,13.73 -5.705,20.031 3.794,6.298 12.503,7.537 19.434,2.767 6.944,-4.77 9.5,-13.732 5.718,-20.017"
       clip-path="url(#SVGID_2_)" />
    <path
       style="fill:#003e5a"
       id="path31"
       d="m 319.42,109.849 c -3.044,0 -6.378,-0.224 -9.895,-0.658 l -3.373,-69.212 -32.491,69.159 c -1.753,0.145 -3.32,0.289 -4.744,0.448 -1.673,0.171 -3.492,0.263 -5.441,0.263 -2.398,0 -4.967,-0.21 -7.668,-0.619 l -4.664,-95.448 c 2.806,-0.343 5.902,-0.527 9.222,-0.527 1.634,0 3.268,0.046 4.928,0.138 1.199,0.06 2.372,0.205 3.518,0.415 l 0.408,77.714 33.941,-77.635 c 1.383,-0.184 2.675,-0.329 3.873,-0.434 1.542,-0.132 3.11,-0.198 4.717,-0.198 2.306,0 4.783,0.198 7.392,0.606 l 3.663,77.661 31.397,-77.687 c 2.438,-0.382 4.941,-0.58 7.418,-0.58 1.779,0 3.492,0.093 5.139,0.277 l 3.017,0.316 -41.345,95.382 c -2.938,0.409 -5.969,0.619 -9.012,0.619"
       clip-path="url(#SVGID_2_)" />
    <path
       style="fill:#003e5a"
       id="path33"
       d="m 380.7,110.679 c -4.545,0 -8.682,-0.421 -12.319,-1.198 -3.505,-0.778 -6.43,-2.069 -8.696,-3.848 -2.213,-1.727 -3.768,-3.992 -4.624,-6.733 -0.857,-2.741 -0.897,-6.192 -0.119,-10.29 0.764,-4.031 2.28,-7.418 4.479,-10.065 2.241,-2.74 4.928,-4.928 7.972,-6.562 3.123,-1.674 6.535,-2.886 10.158,-3.624 3.703,-0.738 7.365,-1.12 10.896,-1.12 2.621,0 5.481,0.132 8.604,0.409 l 1.923,0.158 0.686,-3.584 c 0.461,-2.464 0.422,-4.546 -0.146,-6.166 -0.566,-1.661 -1.555,-2.978 -2.938,-3.914 -1.33,-0.896 -3.044,-1.515 -5.1,-1.818 -1.896,-0.276 -4.071,-0.435 -6.456,-0.435 -4.717,0 -9.908,0.843 -15.482,2.504 -0.539,-1.779 -0.922,-3.479 -1.093,-5.073 -0.198,-1.62 -0.118,-3.544 0.224,-5.731 3.716,-1.133 7.457,-1.977 11.107,-2.543 4.058,-0.62 7.827,-0.935 11.226,-0.935 9.091,0 15.85,2.16 20.053,6.416 4.137,4.203 5.323,11.121 3.518,20.568 l -7.602,39.79 c -3.084,0.855 -6.693,1.673 -10.765,2.437 -4.649,0.896 -9.853,1.357 -15.506,1.357 m 7.893,-34.811 c -4.823,0 -8.907,0.896 -12.148,2.662 -3.558,1.938 -5.758,5.046 -6.575,9.249 -0.527,2.78 -0.303,5.006 0.659,6.588 0.909,1.502 2.16,2.648 3.729,3.347 1.475,0.672 3.109,1.081 4.874,1.226 1.634,0.145 3.083,0.224 4.322,0.224 1.488,0 2.978,-0.118 4.506,-0.368 l 5.271,-0.896 4.019,-21.068 -1.449,-0.236 c -1.107,-0.197 -2.306,-0.369 -3.61,-0.501 -1.333,-0.16 -2.531,-0.227 -3.598,-0.227"
       clip-path="url(#SVGID_2_)" />
    <path
       style="fill:#003e5a"
       id="path35"
       d="m 445.973,109.704 c -1.345,0 -2.872,-0.04 -4.572,-0.132 -1.278,-0.066 -2.503,-0.211 -3.636,-0.448 L 425.115,41.48 c 1.384,-0.224 2.688,-0.356 3.873,-0.421 1.872,-0.079 3.492,-0.119 4.85,-0.119 1.806,0 3.609,0.04 5.414,0.119 1.306,0.079 2.545,0.224 3.69,0.434 l 7.51,49.896 26.259,-49.843 c 1.213,-0.171 2.478,-0.316 3.781,-0.408 1.728,-0.132 3.426,-0.198 5.152,-0.198 1.344,0 2.898,0.04 4.65,0.119 1.12,0.065 2.358,0.21 3.703,0.421 l -38.855,67.71 c -1.422,0.198 -2.885,0.303 -4.387,0.382 -1.924,0.092 -3.505,0.132 -4.782,0.132"
       clip-path="url(#SVGID_2_)" />
    <path
       style="fill:#003e5a"
       id="path37"
       d="m 520.033,110.679 c -6.378,0 -11.727,-0.896 -15.916,-2.622 -4.138,-1.726 -7.353,-4.138 -9.565,-7.153 -2.214,-3.031 -3.611,-6.694 -4.164,-10.91 -0.54,-4.282 -0.329,-9.025 0.646,-14.124 0.962,-4.994 2.581,-9.75 4.821,-14.112 2.227,-4.334 5.033,-8.129 8.379,-11.304 3.321,-3.162 7.222,-5.705 11.608,-7.563 4.375,-1.845 9.342,-2.78 14.757,-2.78 4.678,0 8.749,0.83 12.069,2.438 3.307,1.633 5.995,3.887 7.984,6.693 2.003,2.819 3.294,6.218 3.848,10.132 0.566,3.953 0.409,8.261 -0.448,12.793 -0.329,1.687 -0.725,3.36 -1.172,4.994 -0.238,0.909 -0.476,1.712 -0.699,2.411 l -46.234,0 -0.224,1.896 c -0.751,6.008 0.607,10.462 4.02,13.242 3.28,2.675 8.023,4.032 14.085,4.032 3.228,0 6.628,-0.304 10.105,-0.923 2.885,-0.5 5.731,-1.199 8.498,-2.068 0.395,1.41 0.686,3.044 0.856,4.862 0.197,2.028 0.157,4.216 -0.118,6.508 -7.114,2.359 -14.889,3.558 -23.136,3.558 m 8.155,-59.33 c -5.112,0 -9.368,1.489 -12.661,4.4 -3.201,2.847 -5.561,6.839 -7.022,11.872 l -0.554,1.937 31.74,0 0.276,-1.845 c 0.712,-4.756 0.079,-8.683 -1.844,-11.674 -2.002,-3.122 -5.35,-4.69 -9.935,-4.69"
       clip-path="url(#SVGID_2_)" />
    <path
       style="fill:#003e5a"
       id="path39"
       d="m 590.8,110.679 c -5.705,0 -10.54,-0.909 -14.388,-2.675 -3.809,-1.752 -6.813,-4.203 -8.946,-7.272 -2.135,-3.082 -3.505,-6.824 -4.085,-11.094 -0.579,-4.321 -0.382,-9.092 0.593,-14.178 0.949,-5.006 2.53,-9.71 4.717,-13.992 2.148,-4.216 4.941,-7.972 8.287,-11.16 3.309,-3.162 7.234,-5.679 11.636,-7.47 4.412,-1.806 9.406,-2.728 14.836,-2.728 2.002,0 3.82,0.039 5.48,0.132 1.607,0.092 3.135,0.276 4.585,0.527 1.449,0.263 2.885,0.619 4.295,1.054 1.133,0.342 2.359,0.777 3.689,1.291 -0.396,1.66 -1.015,3.505 -1.806,5.468 -0.777,1.937 -1.752,3.847 -2.897,5.666 -2.082,-0.686 -4.006,-1.16 -5.758,-1.436 -2.082,-0.343 -4.546,-0.502 -7.286,-0.502 -6.259,0 -11.489,2.096 -15.534,6.233 -3.901,4.005 -6.576,9.697 -7.946,16.917 -1.501,7.826 -0.869,13.664 1.846,17.366 2.767,3.755 7.114,5.651 12.951,5.651 1.41,0 2.701,-0.039 3.888,-0.078 1.237,-0.053 2.463,-0.172 3.676,-0.356 1.225,-0.197 2.503,-0.5 3.794,-0.882 0.856,-0.264 1.818,-0.567 2.873,-0.896 0.461,1.396 0.777,2.979 0.987,4.718 0.224,1.936 0.105,4.229 -0.304,6.838 -3.306,1.133 -6.402,1.884 -9.195,2.239 -3.242,0.408 -6.589,0.619 -9.988,0.619"
       clip-path="url(#SVGID_2_)" />
    <path
       style="fill:#003e5a"
       id="path41"
       d="m 652.198,110.679 c -6.377,0 -11.727,-0.896 -15.916,-2.622 -4.124,-1.726 -7.353,-4.138 -9.565,-7.153 -2.214,-3.031 -3.611,-6.694 -4.164,-10.91 -0.54,-4.282 -0.315,-9.025 0.659,-14.124 0.949,-4.994 2.569,-9.75 4.809,-14.112 2.227,-4.334 5.033,-8.129 8.379,-11.304 3.321,-3.162 7.234,-5.705 11.608,-7.563 4.375,-1.845 9.342,-2.78 14.77,-2.78 4.679,0 8.736,0.83 12.044,2.438 3.319,1.633 6.008,3.887 7.997,6.693 2.004,2.819 3.307,6.218 3.86,10.132 0.553,3.953 0.396,8.261 -0.461,12.793 -0.329,1.687 -0.725,3.36 -1.16,4.994 -0.25,0.909 -0.486,1.712 -0.711,2.411 l -46.22,0 -0.238,1.896 c -0.751,6.008 0.607,10.462 4.02,13.242 3.294,2.675 8.023,4.032 14.085,4.032 3.228,0 6.64,-0.304 10.105,-0.923 2.899,-0.5 5.744,-1.199 8.498,-2.068 0.408,1.41 0.686,3.044 0.856,4.862 0.197,2.028 0.158,4.216 -0.131,6.508 -7.102,2.359 -14.876,3.558 -23.124,3.558 m 8.156,-59.33 c -5.111,0 -9.367,1.489 -12.648,4.4 -3.214,2.847 -5.573,6.839 -7.036,11.872 l -0.553,1.937 31.739,0 0.277,-1.845 c 0.698,-4.756 0.092,-8.683 -1.844,-11.674 -2.003,-3.122 -5.351,-4.69 -9.935,-4.69"
       clip-path="url(#SVGID_2_)" />
    <path
       style="fill:#003e5a"
       id="path43"
       d="m 725.534,97.517 c -0.356,0.04 -0.711,0.092 -1.055,0.132 -0.962,0.092 -1.845,0.145 -2.635,0.145 -1.845,0 -3.386,-0.224 -4.598,-0.646 -1.371,-0.487 -2.411,-1.383 -3.083,-2.635 -0.62,-1.199 -0.922,-2.74 -0.91,-4.758 0.014,-1.844 0.29,-4.188 0.857,-7.167 l 9.223,-48.368 c 1.568,-8.208 0.737,-14.15 -2.478,-17.659 -3.24,-3.557 -8.222,-5.362 -14.809,-5.362 -1.7,0 -3.584,0.092 -5.64,0.27 -1.489,0.132 -2.833,0.336 -4.031,0.613 -0.054,0.198 -0.106,0.382 -0.133,0.567 l -0.381,1.982 c -0.555,2.879 -0.778,5.873 -0.646,8.904 0.343,-0.04 0.698,-0.079 1.054,-0.119 0.962,-0.105 1.831,-0.158 2.636,-0.158 1.83,0 3.373,0.224 4.585,0.646 1.37,0.487 2.411,1.37 3.083,2.635 0.619,1.199 0.936,2.74 0.908,4.756 0,1.845 -0.275,4.19 -0.843,7.168 l -9.222,48.381 c -1.582,8.194 -0.752,14.137 2.463,17.642 3.242,3.571 8.235,5.362 14.823,5.362 1.698,0 3.57,-0.092 5.625,-0.264 1.489,-0.131 2.847,-0.343 4.032,-0.605 0.066,-0.211 0.118,-0.396 0.146,-0.566 l 0.381,-2.003 c 0.555,-2.873 0.766,-5.864 0.648,-8.893"
       clip-path="url(#SVGID_2_)" />
    <path
       style="fill:#003e5a"
       id="path45"
       d="m 765.785,97.517 c -0.343,0.04 -0.711,0.092 -1.054,0.132 -0.975,0.092 -1.845,0.145 -2.635,0.145 -1.831,0 -3.386,-0.224 -4.599,-0.646 -1.37,-0.487 -2.398,-1.383 -3.082,-2.635 -0.62,-1.199 -0.91,-2.74 -0.91,-4.758 0.014,-1.844 0.276,-4.188 0.856,-7.167 l 9.224,-48.368 c 1.567,-8.208 0.736,-14.15 -2.465,-17.659 -3.254,-3.557 -8.234,-5.362 -14.821,-5.362 -1.7,0 -3.584,0.092 -5.641,0.27 -1.488,0.132 -2.846,0.336 -4.03,0.613 -0.066,0.198 -0.106,0.382 -0.146,0.567 l -0.383,1.982 c -0.54,2.879 -0.764,5.873 -0.646,8.904 0.356,-0.04 0.712,-0.079 1.067,-0.119 0.962,-0.105 1.831,-0.158 2.635,-0.158 1.831,0 3.387,0.224 4.585,0.646 1.385,0.487 2.412,1.37 3.084,2.635 0.633,1.199 0.922,2.74 0.922,4.756 -0.014,1.845 -0.289,4.19 -0.856,7.168 l -9.236,48.381 c -1.555,8.194 -0.737,14.137 2.464,17.642 3.256,3.571 8.248,5.362 14.836,5.362 1.699,0 3.584,-0.092 5.625,-0.264 1.489,-0.131 2.848,-0.343 4.046,-0.605 0.054,-0.211 0.105,-0.396 0.133,-0.566 l 0.381,-2.003 c 0.554,-2.873 0.765,-5.864 0.646,-8.893"
       clip-path="url(#SVGID_2_)" />
  </g>
</svg>
