<svg xmlns="http://www.w3.org/2000/svg" viewBox="0 0 58 58"><path d="M12 0C9.694 0 7.781 1.758 7.53 4L7.5 5c0 2.2 1.8 4 4 4h6l2-4h12l-1.961 3.921a.055.055 0 0 0 .049.079H50.5V0H12z" fill="#ead8bb"/><path d="M29.5 9v26.201c0 .505-.665.69-.925.256L23.5 27l-5.075 8.458c-.26.433-.925.249-.925-.256V9h-6c-2.2 0-4-1.8-4-4v48.958A4.042 4.042 0 0 0 11.542 58H50.5V9h-21z" fill="#6b4842"/><path d="M12.5 9h-1c-2.2 0-4-1.8-4-4v48.958A4.042 4.042 0 0 0 11.542 58h.958V9z" fill="#513531"/><path d="M50.5 2h-9a1 1 0 1 0 0 2h9V2zm0 3h-8a1 1 0 1 0 0 2h8V5z" fill="#d3bea1"/><path d="M19.5 5l-2 4v26.201c0 .505.666.69.925.256L23.5 27l5.075 8.458c.26.433.925.249.925-.256V9l2-4h-12z" fill="#dd352e"/><path fill="#b02721" d="M19.5 5l-2 4h12l2-4z"/></svg>