<svg xmlns="http://www.w3.org/2000/svg" viewBox="0 0 53 53"><path d="M12.821 46.638c10.701 1.847 16.659 1.847 27.36 0L49.671 45c-4.685-4.657-7.317-10.415-7.317-17v-9c.038-6.047-3.957-10.478-7.946-12.301-4.999-2.285-10.815-2.294-15.806.008C14.648 8.53 10.367 12.958 10.329 19v9c0 6.585-2.315 12.343-7 17l9.492 1.638z" fill="#e7eced"/><path d="M15.329 20h-.006a1.001 1.001 0 0 1-.994-1.006c.03-4.682 3.752-7.643 5.948-8.654 3.849-1.775 8.594-1.772 12.469-.002a1 1 0 1 1-.832 1.818c-3.353-1.533-7.469-1.537-10.799 0-1.767.814-4.762 3.173-4.785 6.85a1 1 0 0 1-1.001.994z" fill="#fff"/><path d="M30.329 5.381V4a4 4 0 0 0-8 0v1.453a19.075 19.075 0 0 1 8-.072zM18.235 47.46C19.68 50.728 22.837 53 26.512 53c3.676 0 6.834-2.273 8.278-5.543-5.928.752-10.631.753-16.555.003z" fill="#c7cac7"/></svg>