<svg xmlns="http://www.w3.org/2000/svg" viewBox="0 0 56 56"><path fill="#366db6" d="M8 5h40v46H8z"/><path d="M48 9h4v38h-4zM4 9h4v38H4z" fill="#a485be"/><path d="M52 13h4v30h-4zM0 13h4v30H0z" fill="#a4e869"/><circle cx="16" cy="13" r="1" fill="#183351"/><circle cx="13" cy="10" r="1" fill="#183351"/><circle cx="19" cy="10" r="1" fill="#183351"/><circle cx="13" cy="16" r="1" fill="#183351"/><circle cx="19" cy="16" r="1" fill="#183351"/><circle cx="22" cy="13" r="1" fill="#183351"/><circle cx="28" cy="13" r="1" fill="#183351"/><circle cx="25" cy="10" r="1" fill="#183351"/><circle cx="31" cy="10" r="1" fill="#183351"/><circle cx="25" cy="16" r="1" fill="#183351"/><circle cx="31" cy="16" r="1" fill="#183351"/><circle cx="34" cy="13" r="1" fill="#183351"/><circle cx="40" cy="13" r="1" fill="#183351"/><circle cx="37" cy="10" r="1" fill="#183351"/><circle cx="43" cy="10" r="1" fill="#183351"/><circle cx="37" cy="16" r="1" fill="#183351"/><circle cx="43" cy="16" r="1" fill="#183351"/><circle cx="16" cy="19" r="1" fill="#183351"/><circle cx="16" cy="25" r="1" fill="#183351"/><circle cx="13" cy="22" r="1" fill="#183351"/><circle cx="19" cy="22" r="1" fill="#183351"/><circle cx="13" cy="28" r="1" fill="#183351"/><circle cx="19" cy="28" r="1" fill="#183351"/><circle cx="22" cy="19" r="1" fill="#183351"/><circle cx="28" cy="19" r="1" fill="#183351"/><circle cx="22" cy="25" r="1" fill="#183351"/><circle cx="28" cy="25" r="1" fill="#183351"/><circle cx="25" cy="22" r="1" fill="#183351"/><circle cx="31" cy="22" r="1" fill="#183351"/><circle cx="25" cy="28" r="1" fill="#183351"/><circle cx="31" cy="28" r="1" fill="#183351"/><circle cx="34" cy="19" r="1" fill="#183351"/><circle cx="40" cy="19" r="1" fill="#183351"/><circle cx="34" cy="25" r="1" fill="#183351"/><circle cx="40" cy="25" r="1" fill="#183351"/><circle cx="37" cy="22" r="1" fill="#183351"/><circle cx="43" cy="22" r="1" fill="#183351"/><circle cx="37" cy="28" r="1" fill="#183351"/><circle cx="43" cy="28" r="1" fill="#183351"/><circle cx="16" cy="31" r="1" fill="#183351"/><circle cx="16" cy="37" r="1" fill="#183351"/><circle cx="13" cy="34" r="1" fill="#183351"/><circle cx="19" cy="34" r="1" fill="#183351"/><circle cx="13" cy="40" r="1" fill="#183351"/><circle cx="19" cy="40" r="1" fill="#183351"/><circle cx="22" cy="31" r="1" fill="#183351"/><circle cx="28" cy="31" r="1" fill="#183351"/><circle cx="22" cy="37" r="1" fill="#183351"/><circle cx="28" cy="37" r="1" fill="#183351"/><circle cx="25" cy="34" r="1" fill="#183351"/><circle cx="31" cy="34" r="1" fill="#183351"/><circle cx="25" cy="40" r="1" fill="#183351"/><circle cx="31" cy="40" r="1" fill="#183351"/><circle cx="34" cy="31" r="1" fill="#183351"/><circle cx="40" cy="31" r="1" fill="#183351"/><circle cx="34" cy="37" r="1" fill="#183351"/><circle cx="40" cy="37" r="1" fill="#183351"/><circle cx="37" cy="34" r="1" fill="#183351"/><circle cx="43" cy="34" r="1" fill="#183351"/><circle cx="37" cy="40" r="1" fill="#183351"/><circle cx="43" cy="40" r="1" fill="#183351"/><circle cx="16" cy="43" r="1" fill="#183351"/><circle cx="13" cy="46" r="1" fill="#183351"/><circle cx="19" cy="46" r="1" fill="#183351"/><circle cx="22" cy="43" r="1" fill="#183351"/><circle cx="28" cy="43" r="1" fill="#183351"/><circle cx="25" cy="46" r="1" fill="#183351"/><circle cx="31" cy="46" r="1" fill="#183351"/><circle cx="34" cy="43" r="1" fill="#183351"/><circle cx="40" cy="43" r="1" fill="#183351"/><circle cx="37" cy="46" r="1" fill="#183351"/><circle cx="43" cy="46" r="1" fill="#183351"/></svg>