<svg xmlns="http://www.w3.org/2000/svg" viewBox="0 0 55 55"><path d="M21.66 24H2.34A2.34 2.34 0 0 1 0 21.66V2.34A2.34 2.34 0 0 1 2.34 0h19.32A2.34 2.34 0 0 1 24 2.34v19.32A2.34 2.34 0 0 1 21.66 24z" fill="#efce4a"/><path d="M51.66 24H32.34A2.34 2.34 0 0 1 30 21.66V2.34A2.34 2.34 0 0 1 32.34 0h19.32A2.34 2.34 0 0 1 54 2.34v19.32A2.34 2.34 0 0 1 51.66 24z" fill="#7fabda"/><path d="M21.66 54H2.34A2.34 2.34 0 0 1 0 51.66V32.34A2.34 2.34 0 0 1 2.34 30h19.32A2.34 2.34 0 0 1 24 32.34v19.32A2.34 2.34 0 0 1 21.66 54z" fill="#d75a4a"/><path fill="none" stroke="#23a24d" stroke-width="2" stroke-linecap="round" stroke-miterlimit="10" d="M42 30v24M30 42h24"/></svg>