<svg xmlns="http://www.w3.org/2000/svg" viewBox="0 0 58 58"><path d="M41.536 58H16.464A2.464 2.464 0 0 1 14 55.536V6.464A2.464 2.464 0 0 1 16.464 4h25.072A2.464 2.464 0 0 1 44 6.464v49.072A2.464 2.464 0 0 1 41.536 58z" fill="#424a60"/><path fill="#d8a852" d="M24 0h10v4H24z"/><path d="M36 29h-4V16.068c.012-.058-.064-.092-.1-.046L22 32h5l.002 13.929c-.016.059.06.097.098.05L36 29z" fill="#efce4a"/><path d="M41.536 4H16.464A2.464 2.464 0 0 0 14 6.464V13h30V6.464A2.464 2.464 0 0 0 41.536 4z" fill="#ea6248"/></svg>