<svg xmlns="http://www.w3.org/2000/svg" viewBox="0 0 52 52"><circle cx="11" cy="38.32" r="11" fill="#7383bf"/><path d="M14.264 2.688c-3.343.151-6.116 2.664-6.909 5.915l-5.93 24.313C3.314 29.577 6.891 27.32 11 27.32c6.075 0 11 4.925 11 11V10.073a7.394 7.394 0 0 0-7.736-7.385z" fill="#424a60"/><path fill="#363e4b" d="M22 15.32h8v13h-8z"/><circle cx="41" cy="38.32" r="11" fill="#7383bf"/><path d="M30 38.76v-.44c0 .149.016.293.022.44H30zm7.736-36.072c3.343.151 6.116 2.664 6.909 5.915l5.93 24.313C48.686 29.577 45.109 27.32 41 27.32c-6.075 0-11 4.925-11 11V10.073a7.394 7.394 0 0 1 7.736-7.385z" fill="#424a60"/><circle cx="11" cy="38.32" r="8" fill="#7fabda"/><circle cx="41" cy="38.32" r="8" fill="#7fabda"/><path d="M35.299 43.929L46.608 32.62a7.974 7.974 0 0 0-3.617-2.039l-9.731 9.731a7.988 7.988 0 0 0 2.039 3.617zM13.754 30.817L3.497 41.074a8 8 0 0 0 2.322 3.335l11.27-11.271a8 8 0 0 0-3.335-2.321z" fill="#a1c8ec"/><path fill="#424a60" d="M24 15.32h4.023v13H24z"/><path d="M34 29.835a10.955 10.955 0 0 1 7-2.515c.282 0 .554.036.831.057L37.996 2.723c-.088-.007-.172-.031-.26-.035A7.362 7.362 0 0 0 34 3.507v26.328zM11 27.32c2.659 0 5.098.944 7 2.515V3.507a7.373 7.373 0 0 0-3.736-.819c-.089.004-.172.028-.26.035l-3.835 24.654c.277-.021.549-.057.831-.057z" fill="#556080"/></svg>