<svg xmlns="http://www.w3.org/2000/svg" viewBox="0 0 57 57"><path d="M6 0a6 6 0 0 0-6 6v45a6 6 0 1 1 12 0V6a6 6 0 0 0-6-6z" fill="#226bac"/><path d="M12 7v44a6 6 0 1 0-12 0v.06A5.94 5.94 0 0 0 5.94 57H57V7H12z" fill="#3083c9"/><path d="M52 41h-3a1 1 0 1 1 0-2h1v-.617a1 1 0 1 1 2 0V41zm-7 0h-2a1 1 0 1 1 0-2h2a1 1 0 1 1 0 2zm-6 0h-2a1 1 0 1 1 0-2h2a1 1 0 1 1 0 2zm-6 0h-2a1 1 0 1 1 0-2h2a1 1 0 1 1 0 2zm-6 0h-2a1 1 0 1 1 0-2h2a1 1 0 1 1 0 2zm-6 0h-2a1 1 0 1 1 0-2h2a1 1 0 1 1 0 2zm-4-2a1 1 0 0 1-1-1v-2a1 1 0 1 1 2 0v2a1 1 0 0 1-1 1zm34-3.617a1 1 0 0 1-1-1v-2a1 1 0 1 1 2 0v2a1 1 0 0 1-1 1zM17 33a1 1 0 0 1-1-1v-2a1 1 0 1 1 2 0v2a1 1 0 0 1-1 1zm34-3.617a1 1 0 0 1-1-1v-2a1 1 0 1 1 2 0v2a1 1 0 0 1-1 1zM17 27a1 1 0 0 1-1-1v-2a1 1 0 1 1 2 0v2a1 1 0 0 1-1 1zm33.495-3.356c-.199 0-.4-.06-.575-.183l-1.635-1.153a1 1 0 1 1 1.153-1.635l1.635 1.153a1 1 0 0 1-.578 1.818zM19.452 22.27a1.002 1.002 0 0 1-.578-1.818l1.634-1.153a1.004 1.004 0 0 1 1.395.24 1.002 1.002 0 0 1-.24 1.395l-1.634 1.153a1.006 1.006 0 0 1-.577.183zm26.141-2.086c-.199 0-.4-.06-.576-.183l-1.634-1.153a1.001 1.001 0 0 1 1.155-1.635l1.634 1.153a1.001 1.001 0 0 1-.579 1.818zM24.354 18.81a1.002 1.002 0 0 1-.578-1.818l1.634-1.153a1.006 1.006 0 0 1 1.395.24 1.002 1.002 0 0 1-.24 1.395l-1.634 1.153a1.009 1.009 0 0 1-.577.183zm16.337-2.086c-.199 0-.4-.06-.576-.183l-1.634-1.153a1.001 1.001 0 0 1 1.155-1.635l1.634 1.153a1.001 1.001 0 0 1-.579 1.818zM29.256 15.35a1.002 1.002 0 0 1-.578-1.818l1.634-1.153a1.004 1.004 0 0 1 1.395.24 1.002 1.002 0 0 1-.24 1.395l-1.634 1.153a1.009 1.009 0 0 1-.577.183zm6.533-2.086c-.199 0-.4-.06-.576-.183l-1.634-1.153a1.001 1.001 0 0 1 1.155-1.635l1.634 1.153a1.001 1.001 0 0 1-.579 1.818z" fill="#7fabda"/><path fill="none" stroke="#efce4a" stroke-width="2" stroke-linecap="round" stroke-miterlimit="10" d="M41 46h11v6H41z"/><path d="M30 36h-2a1 1 0 1 1 0-2h1v-1a1 1 0 1 1 2 0v2a1 1 0 0 1-1 1zm-6 0h-2a1 1 0 1 1 0-2h2a1 1 0 1 1 0 2zm-2-4a1 1 0 0 1-1-1v-2a1 1 0 1 1 2 0v2a1 1 0 0 1-1 1zm8-2a1 1 0 0 1-1-1v-2a1 1 0 1 1 2 0v2a1 1 0 0 1-1 1zm-4-2h-2a1 1 0 1 1 0-2h2a1 1 0 1 1 0 2zm20 8h-2a1 1 0 1 1 0-2h1v-1a1 1 0 1 1 2 0v2a1 1 0 0 1-1 1zm-6 0h-2a1 1 0 1 1 0-2h2a1 1 0 1 1 0 2zm-2-4a1 1 0 0 1-1-1v-2a1 1 0 1 1 2 0v2a1 1 0 0 1-1 1zm8-2a1 1 0 0 1-1-1v-2a1 1 0 1 1 2 0v2a1 1 0 0 1-1 1zm-4-2h-2a1 1 0 1 1 0-2h2a1 1 0 1 1 0 2z" fill="#7fabda"/><path fill="none" stroke="#c6e2f7" stroke-width="2" stroke-linecap="round" stroke-miterlimit="10" d="M37 46h-5m5 3h-7m7 3H27"/></svg>