<svg xmlns="http://www.w3.org/2000/svg" viewBox="0 0 58 58"><path fill="#edeada" d="M27.5 4v24l-8-6-8 6V4h-7v54h49V4z"/><path d="M46.5 35h-35a1 1 0 1 0 0 2h35a1 1 0 1 0 0-2zm0-7h-13a1 1 0 1 0 0 2h13a1 1 0 1 0 0-2zm0-7h-13a1 1 0 1 0 0 2h13a1 1 0 1 0 0-2zm-13-5h13a1 1 0 1 0 0-2h-13a1 1 0 1 0 0 2zm13 31h-35a1 1 0 1 0 0 2h35a1 1 0 1 0 0-2zm-35-4h14a1 1 0 1 0 0-2h-14a1 1 0 1 0 0 2zm35-2h-13a1 1 0 1 0 0 2h13a1 1 0 1 0 0-2zm-16.29 1.71c.18-.19.29-.45.29-.71 0-.261-.11-.521-.29-.7-.37-.38-1.061-.38-1.42-.01-.181.189-.29.449-.29.71 0 .26.109.52.29.71.189.18.439.29.71.29.26 0 .52-.11.71-.29z" fill="#cec9ae"/><path fill="#d75a4a" d="M27.5 28l-8-6-8 6V0h16z"/></svg>