<svg xmlns="http://www.w3.org/2000/svg" viewBox="0 0 52.965 52.965"><path d="M24.008 13.401L33.2 4.208c4.278-4.278 11.278-4.278 15.556 0h0c4.278 4.278 4.278 11.278 0 15.556L36.735 31.786c-4.278 4.278-11.278 4.278-15.556 0h0" fill="none" stroke="#d5354e" stroke-width="2" stroke-linecap="round" stroke-miterlimit="10"/><path d="M27.543 40.978l-7.778 7.778c-4.278 4.278-11.278 4.278-15.556 0h0c-4.278-4.278-4.278-11.278 0-15.556l11.314-11.314c4.278-4.278 11.278-4.278 15.556 0h0M33.965 45v6m3.757-8l4.243 4.243m-3-8.243h6m-29-29V4m-3.758 8L7.965 7.757m3 8.243h-6" fill="none" stroke="#d5354e" stroke-width="2" stroke-linecap="round" stroke-miterlimit="10"/></svg>