<svg xmlns="http://www.w3.org/2000/svg" viewBox="0 0 58 58"><path d="M49.586 58H8.414A1.914 1.914 0 0 1 6.5 56.086V1.914C6.5.857 7.357 0 8.414 0h41.171C50.643 0 51.5.857 51.5 1.914v54.171A1.914 1.914 0 0 1 49.586 58z" fill="#ddccb6"/><path fill="#f2ecbf" d="M11.5 44h9v9h-9zm13 0h9v9h-9z"/><path fill="#dc691d" d="M37.5 31h9v22h-9z"/><path fill="#f2ecbf" d="M11.5 31h9v9h-9zm13 0h9v9h-9zm-13-13h9v9h-9zm13 0h9v9h-9z"/><path fill="#424a60" d="M37.5 18h9v9h-9z"/><path fill="#74972f" d="M11.5 5h35v8h-35z"/></svg>