<svg xmlns="http://www.w3.org/2000/svg" viewBox="0 0 57 57"><path fill="#e7eced" d="M.5 18h56v39H.5z"/><path d="M22.5 50h-3V25a.996.996 0 0 0-1.382-.923 1.006 1.006 0 0 0-.326.217l-5.999 5.999a.999.999 0 1 0 1.414 1.414l4.293-4.293V50h-3a1 1 0 1 0 0 2h8a1 1 0 1 0 0-2zm18.716-13.079A6.994 6.994 0 0 0 44.5 31c0-3.859-3.141-7-7-7s-7 3.141-7 7a6.994 6.994 0 0 0 3.284 5.921C31.24 38.262 29.5 40.93 29.5 44c0 4.411 3.589 8 8 8s8-3.589 8-8c0-3.07-1.74-5.738-4.284-7.079zM32.5 31c0-2.757 2.243-5 5-5s5 2.243 5 5-2.243 5-5 5-5-2.243-5-5zm5 19c-3.309 0-6-2.691-6-6s2.691-6 6-6 6 2.691 6 6-2.691 6-6 6zm4-45H.5v13h56V5z" fill="#424a60"/><circle cx="19.5" cy="9" r="2" fill="#38454f"/><circle cx="25.5" cy="9" r="2" fill="#38454f"/><circle cx="31.5" cy="9" r="2" fill="#38454f"/><circle cx="37.5" cy="9" r="2" fill="#38454f"/><path d="M37.5 0c-1.13 0-2.162.391-3 1.025.534.405.979.912 1.315 1.495A2.98 2.98 0 0 1 37.5 2c1.654 0 3 1.346 3 3s-1.346 3-3 3a1 1 0 1 0 0 2c2.757 0 5-2.243 5-5s-2.243-5-5-5z" fill="#afb6bb"/><path d="M33.185 2.52A4.936 4.936 0 0 0 32.5 5h2c0-1.03-.522-1.939-1.315-2.48zm-6 0A4.936 4.936 0 0 0 26.5 5h2c0-1.03-.522-1.939-1.315-2.48z" fill="#839594"/><path d="M35.815 2.52A5.027 5.027 0 0 0 34.5 1.025C33.662.391 32.63 0 31.5 0s-2.162.391-3 1.025c.534.405.979.912 1.315 1.495.481-.328 1.061-.52 1.685-.52s1.204.192 1.685.52A2.999 2.999 0 0 1 31.5 8a1 1 0 1 0 0 2c2.757 0 5-2.243 5-5 0-.907-.261-1.746-.685-2.48z" fill="#afb6bb"/><path d="M21.185 2.52A4.936 4.936 0 0 0 20.5 5h2c0-1.03-.522-1.939-1.315-2.48z" fill="#839594"/><path d="M29.815 2.52A5.027 5.027 0 0 0 28.5 1.025C27.662.391 26.63 0 25.5 0s-2.162.391-3 1.025c.534.405.979.912 1.315 1.495.481-.328 1.061-.52 1.685-.52s1.204.192 1.685.52A2.999 2.999 0 0 1 25.5 8a1 1 0 1 0 0 2c2.757 0 5-2.243 5-5 0-.907-.261-1.746-.685-2.48z" fill="#afb6bb"/><path d="M23.815 2.52A5.027 5.027 0 0 0 22.5 1.025 4.954 4.954 0 0 0 19.5 0c-2.757 0-5 2.243-5 5h2c0-1.654 1.346-3 3-3a2.98 2.98 0 0 1 1.685.52A2.999 2.999 0 0 1 19.5 8a1 1 0 1 0 0 2c2.757 0 5-2.243 5-5 0-.907-.261-1.746-.685-2.48z" fill="#afb6bb"/></svg>