<svg xmlns="http://www.w3.org/2000/svg" viewBox="0 0 59 59"><path fill="#e7eced" d="M.5 12h58v47H.5z"/><path d="M33.013 1.508l-1.066 1.693c5.821 3.664 16.971 9.621 17.083 9.681l.941-1.764c-.112-.059-11.199-5.983-16.958-9.61zm-23.984 9.61l.941 1.764c.112-.06 11.262-6.017 17.083-9.681l-1.066-1.693c-5.759 3.626-16.846 9.551-16.958 9.61z" fill="#7383bf"/><circle cx="22.5" cy="28" r="1" fill="#424a60"/><circle cx="29.5" cy="28" r="1" fill="#424a60"/><circle cx="36.5" cy="28" r="1" fill="#424a60"/><circle cx="43.5" cy="28" r="1" fill="#424a60"/><circle cx="50.5" cy="28" r="1" fill="#424a60"/><circle cx="8.5" cy="36" r="1" fill="#efce4a"/><circle cx="15.5" cy="36" r="1" fill="#ed7161"/><circle cx="8.5" cy="28" r="1" fill="#949493"/><circle cx="15.5" cy="28" r="1" fill="#949493"/><circle cx="22.5" cy="36" r="1" fill="#424a60"/><circle cx="29.5" cy="36" r="1" fill="#424a60"/><circle cx="36.5" cy="36" r="1" fill="#424a60"/><circle cx="43.5" cy="36" r="1" fill="#424a60"/><circle cx="50.5" cy="36" r="1" fill="#424a60"/><circle cx="8.5" cy="43" r="1" fill="#efce4a"/><circle cx="15.5" cy="43" r="1" fill="#ed7161"/><circle cx="22.5" cy="43" r="1" fill="#424a60"/><circle cx="29.5" cy="43" r="1" fill="#424a60"/><circle cx="36.5" cy="43" r="1" fill="#424a60"/><circle cx="43.5" cy="43" r="1" fill="#424a60"/><circle cx="50.5" cy="43" r="1" fill="#424a60"/><circle cx="43.5" cy="51" r="1" fill="#949493"/><circle cx="50.5" cy="51" r="1" fill="#949493"/><circle cx="8.5" cy="51" r="1" fill="#efce4a"/><circle cx="15.5" cy="51" r="1" fill="#ed7161"/><circle cx="22.5" cy="51" r="1" fill="#424a60"/><circle cx="29.5" cy="51" r="1" fill="#424a60"/><circle cx="36.5" cy="51" r="1" fill="#424a60"/><circle cx="29.5" cy="5" r="4" fill="#f7e6a1" stroke="#d8a852" stroke-width="2" stroke-linejoin="round" stroke-miterlimit="10"/><path fill="#424a60" d="M.5 12h58v7H.5z"/></svg>