<svg xmlns="http://www.w3.org/2000/svg" viewBox="0 0 58 58"><path fill="#26b99a" d="M42 5H1v13h56V5z"/><circle cx="20" cy="9" r="2" fill="#38454f"/><circle cx="26" cy="9" r="2" fill="#38454f"/><circle cx="32" cy="9" r="2" fill="#38454f"/><circle cx="38" cy="9" r="2" fill="#38454f"/><path d="M38 0c-1.13 0-2.162.391-3 1.025.534.405.979.912 1.315 1.495A2.98 2.98 0 0 1 38 2c1.654 0 3 1.346 3 3s-1.346 3-3 3a1 1 0 1 0 0 2c2.757 0 5-2.243 5-5s-2.243-5-5-5z" fill="#afb6bb"/><path d="M33.685 2.52A4.936 4.936 0 0 0 33 5h2c0-1.03-.522-1.939-1.315-2.48zm-6 0A4.936 4.936 0 0 0 27 5h2c0-1.03-.522-1.939-1.315-2.48z" fill="#839594"/><path d="M36.315 2.52A5.013 5.013 0 0 0 35 1.025C34.162.391 33.13 0 32 0s-2.162.391-3 1.025c.534.405.979.912 1.315 1.495C30.796 2.192 31.376 2 32 2s1.204.192 1.685.52A2.999 2.999 0 0 1 32 8a1 1 0 1 0 0 2c2.757 0 5-2.243 5-5 0-.907-.261-1.746-.685-2.48z" fill="#afb6bb"/><path d="M21.685 2.52A4.936 4.936 0 0 0 21 5h2c0-1.03-.522-1.939-1.315-2.48z" fill="#839594"/><path d="M30.315 2.52A5.013 5.013 0 0 0 29 1.025C28.162.391 27.13 0 26 0s-2.162.391-3 1.025c.534.405.979.912 1.315 1.495C24.796 2.192 25.376 2 26 2s1.204.192 1.685.52A2.999 2.999 0 0 1 26 8a1 1 0 1 0 0 2c2.757 0 5-2.243 5-5 0-.907-.261-1.746-.685-2.48z" fill="#afb6bb"/><path d="M24.315 2.52A5.013 5.013 0 0 0 23 1.025 4.954 4.954 0 0 0 20 0c-2.757 0-5 2.243-5 5h2c0-1.654 1.346-3 3-3a2.98 2.98 0 0 1 1.685.52A2.999 2.999 0 0 1 20 8a1 1 0 1 0 0 2c2.757 0 5-2.243 5-5 0-.907-.261-1.746-.685-2.48z" fill="#afb6bb"/><path fill="#edeada" d="M1 18h56v40H1z"/><circle cx="13" cy="29" r="5" fill="#cec9ae"/><circle cx="29" cy="29" r="5" fill="#cec9ae"/><circle cx="45" cy="29" r="5" fill="#cec9ae"/><circle cx="13" cy="45" r="5" fill="#cec9ae"/><circle cx="29" cy="45" r="5" fill="#cec9ae"/><circle cx="45" cy="45" r="5" fill="#26b99a"/></svg>