<svg xmlns="http://www.w3.org/2000/svg" viewBox="0 0 58 58"><path fill="#fc3952" d="M48 4v4h-7V4H17v4h-7V4H2v11h54V4z"/><path fill="#edeada" d="M10 15H2v43h54V15H17z"/><path d="M39 22H10v29h38V22h-9zm-9 2h7v7h-7v-7zm7 16h-7v-7h7v7zm-16-7h7v7h-7v-7zm0-9h7v7h-7v-7zm-9 0h7v7h-7v-7zm0 9h7v7h-7v-7zm7 16h-7v-7h7v7zm9 0h-7v-7h7v7zm9 0h-7v-7h7v7zm9 0h-7v-7h7v7zm0-9h-7v-7h7v7zm-7-9v-7h7v7h-7z" fill="#cec9ae"/><path fill="#28384c" d="M10 0h7v8h-7zm31 0h7v8h-7z"/><path fill="#26b99a" d="M30 33h7v7h-7z"/></svg>