<svg xmlns="http://www.w3.org/2000/svg" viewBox="0 0 60 60"><path fill="#e7eced" d="M0 0h60v60H0z"/><path d="M56 4v52H4V4h52m4-4H0v60h60V0z" fill="#556080"/><path d="M30 7a1 1 0 0 0-1 1v1a1 1 0 1 0 2 0V8a1 1 0 0 0-1-1zm0 43a1 1 0 0 0-1 1v1a1 1 0 1 0 2 0v-1a1 1 0 0 0-1-1zm22-21h-1a1 1 0 1 0 0 2h1a1 1 0 1 0 0-2zm-42 1a1 1 0 0 0-1-1H8a1 1 0 1 0 0 2h1a1 1 0 0 0 1-1zm40.293-19.293a.997.997 0 0 0 .707-.293l.707-.707a.999.999 0 1 0-1.414-1.414L49.586 9a.999.999 0 0 0 .707 1.707zM9.146 49.439l-.707.707a.999.999 0 1 0 1.414 1.414l.707-.707a.999.999 0 1 0-1.414-1.414zm41.708 0a.999.999 0 1 0-1.414 1.414l.707.707a.997.997 0 0 0 1.414 0 .999.999 0 0 0 0-1.414l-.707-.707zM8.793 10.207a.997.997 0 0 0 1.414 0 .999.999 0 0 0 0-1.414L9.5 8.086A.999.999 0 1 0 8.086 9.5l.707.707z" fill="#7383bf"/><path fill="none" stroke="#efce4a" stroke-width="2" stroke-linecap="round" stroke-linejoin="round" stroke-miterlimit="10" d="M27 30h-8"/><path fill="none" stroke="#556080" stroke-width="2" stroke-linecap="round" stroke-linejoin="round" stroke-miterlimit="10" d="M30 27V16"/><circle cx="30" cy="30" r="3" fill="none" stroke="#556080" stroke-width="2" stroke-linecap="round" stroke-linejoin="round" stroke-miterlimit="10"/></svg>