<svg xmlns="http://www.w3.org/2000/svg" viewBox="0 0 60 60"><path d="M50.003 22c-.115-8.699-7.193-16-15.919-16-5.559 0-10.779 3.005-13.661 7.336A8 8 0 0 0 8 20c0 .153.014.302.023.454-.01.182-.023.366-.023.546-3.988 1.912-7 6.457-7 11.155C1 38.67 6.33 44 12.845 44h24.507c.138 0 .272-.016.408-.021.137.005.271.021.409.021h9.803C54.037 44 59 39.037 59 32.972c0-5.371-3.894-10.011-8.997-10.972zm0 0s-2.535-.375-5.003 0M8 20a8 8 0 0 1 16 0" fill="#7fabda" stroke="#7383bf" stroke-width="2" stroke-linecap="round" stroke-miterlimit="10"/><path fill="#ebba16" d="M15.586 55L30 30.357 44.414 55z"/><path fill="none" stroke="#fff" stroke-width="2" stroke-linecap="round" stroke-miterlimit="10" d="M30 38v8m0 4v1"/></svg>