<svg xmlns="http://www.w3.org/2000/svg" viewBox="0 0 60 60"><path d="M50.003 21.5c-.115-8.699-7.193-16-15.919-16-5.559 0-10.779 3.005-13.661 7.336A8 8 0 0 0 8 19.5c0 .153.014.302.023.454-.01.182-.023.366-.023.546-3.988 1.912-7 6.457-7 11.155C1 38.17 6.33 43.5 12.845 43.5h24.507c.138 0 .272-.016.408-.021.137.005.271.021.408.021h9.803C54.037 43.5 59 38.537 59 32.472c0-5.371-3.894-10.011-8.997-10.972zm0 0s-2.535-.375-5.003 0m-37-2a8 8 0 0 1 16 0" fill="#7fabda" stroke="#7383bf" stroke-width="2" stroke-linecap="round" stroke-miterlimit="10"/><path fill="none" stroke="#424a60" stroke-width="2" stroke-linecap="round" stroke-miterlimit="10" d="M31.028 54.5v-23m0 0l8 8m-16 0l8-8"/></svg>