<svg xmlns="http://www.w3.org/2000/svg" viewBox="0 0 60 60"><path d="M50.003 20c-.115-8.699-7.193-16-15.919-16-5.559 0-10.779 3.005-13.661 7.336A8 8 0 0 0 8 18c0 .153.014.302.023.454-.01.182-.023.366-.023.546-3.988 1.912-7 6.457-7 11.155C1 36.67 6.33 42 12.845 42h24.507c.138 0 .272-.016.408-.021.137.005.271.021.409.021h9.803C54.037 42 59 37.037 59 30.972c0-5.371-3.894-10.011-8.997-10.972zm0 0s-2.535-.375-5.003 0M8 18a8 8 0 0 1 16 0" fill="#7fabda" stroke="#7383bf" stroke-width="2" stroke-linecap="round" stroke-miterlimit="10"/><circle cx="31" cy="41" r="16" fill="#556080"/><path d="M41 41a1 1 0 0 0-1 1c0 4.963-4.038 9-9 9s-9-4.037-9-9 4.038-9 9-9c3 0 5.677 1.506 7.311 4H32a1 1 0 1 0 0 2h8l.005-.001c.07 0 .14-.027.21-.042.06-.014.125-.015.181-.039l.005-.001c.034-.015.056-.043.087-.061.081-.046.162-.093.227-.159.044-.046.07-.103.104-.155.036-.055.08-.104.105-.166.034-.084.043-.175.054-.265.004-.039.022-.072.022-.111v-8a1 1 0 1 0-2 0v4.6a10.605 10.605 0 0 0-8-3.6c-6.065 0-11 4.935-11 11s4.935 11 11 11 11-4.935 11-11a1 1 0 0 0-1-1z" fill="#fff"/></svg>