<svg xmlns="http://www.w3.org/2000/svg" viewBox="0 0 60 60"><path d="M30 1C13.984 1 1 13.984 1 30s12.984 29 29 29 29-12.984 29-29S46.016 1 30 1zm0 38c-4.971 0-9-4.029-9-9s4.029-9 9-9 9 4.029 9 9-4.029 9-9 9z" fill="#e7eced"/><path d="M4.373 16.425l14.808 8.095a11.94 11.94 0 0 1 2.035-2.725c.827-.827 1.749-1.5 2.725-2.035L15.738 4.753A29.124 29.124 0 0 0 4.373 16.425zm50.886 27.817L40.182 36a11.967 11.967 0 0 1-2.035 2.726c-.827.827-1.749 1.5-2.726 2.035l8.133 14.877a29.13 29.13 0 0 0 11.705-11.396z" fill="#bdcaef"/><path d="M30 15c-8.284 0-15 6.716-15 15s6.716 15 15 15 15-6.716 15-15-6.716-15-15-15zm0 22.5a7.5 7.5 0 1 1 0-15 7.5 7.5 0 0 1 0 15z" fill="#fff"/><path d="M30 19.167c-5.983 0-10.833 4.85-10.833 10.833S24.017 40.833 30 40.833 40.833 35.983 40.833 30 35.983 19.167 30 19.167zm0 16.666a5.833 5.833 0 1 1 0-11.666 5.833 5.833 0 0 1 0 11.666z" fill="#e7eced"/><path d="M30 0C13.458 0 0 13.458 0 30s13.458 30 30 30 30-13.458 30-30S46.542 0 30 0zm0 58C14.561 58 2 45.439 2 30S14.561 2 30 2s28 12.561 28 28-12.561 28-28 28z" fill="#7383bf"/></svg>