<svg xmlns="http://www.w3.org/2000/svg" viewBox="0 0 58 58"><circle cx="29" cy="29" r="29" fill="#23a24d"/><path d="M29 0C21.243 0 14.204 3.051 9 8.011V26l19.951 24.993A.03.03 0 0 0 29 50.97c0 .025.029.04.049.023L49 26V8.011C43.796 3.051 36.757 0 29 0z" fill="#ebd6bd"/><path d="M29 35c-3.748 0-7.093 1.72-9.294 4.412l9.245 11.581A.03.03 0 0 0 29 50.97c0 .025.029.04.049.023l9.245-11.581A11.975 11.975 0 0 0 29 35z" fill="#4c4c4c"/><path d="M29 0c-3.516 0-6.883.633-10 1.78V18l9.951 7.961c.02.016.049.001.049-.024 0 .025.029.04.049.024L39 18V1.78A28.897 28.897 0 0 0 29 0z" fill="#ebba16"/><path d="M9.432 25.654L19 18V1.78A29.05 29.05 0 0 0 9 8.011v17.435c0 .223.258.347.432.208zM39 18l9.568 7.654a.266.266 0 0 0 .432-.208V8.011A29.05 29.05 0 0 0 39 1.78V18z" fill="#ed8a19"/></svg>