<svg xmlns="http://www.w3.org/2000/svg" viewBox="0 0 56 56"><path d="M47.799 8.201c-10.935-10.935-28.663-10.935-39.598 0-10.935 10.935-10.935 28.663 0 39.598 10.935 10.935 28.663 10.935 39.598 0 10.935-10.935 10.935-28.663 0-39.598zM32.95 32.95a6.999 6.999 0 0 1-9.899 0 7 7 0 1 1 9.899 0z" fill="#424a60"/><path d="M35.778 20.222c-4.296-4.296-11.261-4.296-15.556 0-4.296 4.296-4.296 11.261 0 15.556 4.296 4.296 11.261 4.296 15.556 0 4.296-4.296 4.296-11.26 0-15.556zm-5.657 9.899a3 3 0 1 1-4.243-4.241 3 3 0 0 1 4.243 4.241z" fill="#e7eced"/><path d="M35.778 35.778c-.76.76-1.607 1.378-2.504 1.87l8.157 14.92a27.998 27.998 0 0 0 11.137-11.137l-14.92-8.157a10.975 10.975 0 0 1-1.87 2.504zM20.222 20.222c.76-.76 1.607-1.378 2.504-1.87l-8.157-14.92A27.998 27.998 0 0 0 3.432 14.569l14.92 8.157a10.975 10.975 0 0 1 1.87-2.504z" fill="#7383bf"/></svg>