<svg xmlns="http://www.w3.org/2000/svg" viewBox="0 0 58 58"><path d="M29 0C12.984 0 0 12.984 0 29s12.984 29 29 29 29-12.984 29-29S45.016 0 29 0zm0 36.08a7.08 7.08 0 1 1 0-14.16 7.08 7.08 0 0 1 0 14.16z" fill="#ebba16"/><path d="M6.487 22.932a1.001 1.001 0 0 1-.973-1.233c.946-3.935 2.955-7.522 5.809-10.376s6.441-4.862 10.376-5.809a1.001 1.001 0 0 1 .467 1.945c-3.575.859-6.836 2.685-9.429 5.277S8.319 18.59 7.46 22.165a1.003 1.003 0 0 1-.973.767zm29.579 29.582a1.001 1.001 0 0 1-.233-1.973c3.576-.859 6.837-2.685 9.43-5.277s4.418-5.854 5.277-9.429a.999.999 0 1 1 1.945.467c-.946 3.935-2.955 7.522-5.809 10.376s-6.441 4.862-10.377 5.809a1.016 1.016 0 0 1-.233.027z" fill="#efce4a"/><path d="M11.313 24.226A.999.999 0 0 1 10.338 23a16.925 16.925 0 0 1 12.661-12.661.996.996 0 0 1 1.2.747.999.999 0 0 1-.747 1.2c-2.725.635-5.207 2.014-7.18 3.986s-3.352 4.455-3.986 7.18a1 1 0 0 1-.973.774zm23.46 23.462a.999.999 0 0 1-.226-1.973c2.725-.635 5.207-2.014 7.18-3.986s3.352-4.455 3.986-7.18a.993.993 0 0 1 1.2-.747.999.999 0 0 1 .747 1.2 16.925 16.925 0 0 1-12.661 12.661 1.01 1.01 0 0 1-.226.025z" fill="#efce4a"/><path d="M16.14 25.519a1 1 0 0 1-.978-1.213 12.013 12.013 0 0 1 9.143-9.143 1 1 0 0 1 .427 1.953 10.01 10.01 0 0 0-7.617 7.617.999.999 0 0 1-.975.786zm17.34 17.342a1 1 0 0 1-.213-1.976 10.01 10.01 0 0 0 7.617-7.617 1 1 0 0 1 1.953.427 12.013 12.013 0 0 1-9.143 9.143.967.967 0 0 1-.214.023z" fill="#efce4a"/><path d="M29 38.08c-5.007 0-9.08-4.073-9.08-9.08s4.073-9.08 9.08-9.08 9.08 4.073 9.08 9.08-4.073 9.08-9.08 9.08zm0-14.16c-2.801 0-5.08 2.279-5.08 5.08s2.279 5.08 5.08 5.08 5.08-2.279 5.08-5.08-2.279-5.08-5.08-5.08z" fill="#e7eced"/></svg>