<svg xmlns="http://www.w3.org/2000/svg" viewBox="0 0 58 58"><path d="M5 2a1 1 0 0 0-1 1v36a1 1 0 1 0 2 0V3a1 1 0 0 0-1-1zm0 48a1 1 0 0 0-1 1v4a1 1 0 1 0 2 0v-4a1 1 0 0 0-1-1zM21 2a1 1 0 0 0-1 1v26a1 1 0 1 0 2 0V3a1 1 0 0 0-1-1zm0 38a1 1 0 0 0-1 1v14a1 1 0 1 0 2 0V41a1 1 0 0 0-1-1zM37 2a1 1 0 0 0-1 1v16a1 1 0 1 0 2 0V3a1 1 0 0 0-1-1zm0 28a1 1 0 0 0-1 1v24a1 1 0 1 0 2 0V31a1 1 0 0 0-1-1zm16-12a1 1 0 0 0-1 1v36a1 1 0 1 0 2 0V19a1 1 0 0 0-1-1zm0-16a1 1 0 0 0-1 1v4a1 1 0 1 0 2 0V3a1 1 0 0 0-1-1z" fill="#556080"/><path fill="#c7cac7" d="M0 41h10v12H0zm16-10h10v12H16zm16-10h10v12H32zM48 9h10v12H48z"/><path fill="#e7eced" d="M0 39h10v12H0zm16-10h10v12H16zm16-10h10v12H32zM48 7h10v12H48z"/><path d="M22 32h-2a1 1 0 1 0 0 2h2a1 1 0 1 0 0-2zm16-6h-2a1 1 0 1 0 0 2h2a1 1 0 1 0 0-2zm0-4h-2a1 1 0 1 0 0 2h2a1 1 0 1 0 0-2zm16-8h-2a1 1 0 1 0 0 2h2a1 1 0 1 0 0-2zm-2-2h2a1 1 0 1 0 0-2h-2a1 1 0 1 0 0 2zM22 36h-2a1 1 0 1 0 0 2h2a1 1 0 1 0 0-2zM6 42H4a1 1 0 1 0 0 2h2a1 1 0 1 0 0-2zm0 4H4a1 1 0 1 0 0 2h2a1 1 0 1 0 0-2z" fill="#fff"/></svg>