<svg xmlns="http://www.w3.org/2000/svg" viewBox="0 0 58 58"><path fill="#424a60" d="M0 0h58v58H0z"/><path d="M10 4a1 1 0 0 0-1 1v32a1 1 0 1 0 2 0V5a1 1 0 0 0-1-1zm0 44a1 1 0 0 0-1 1v4a1 1 0 1 0 2 0v-4a1 1 0 0 0-1-1zM29 4a1 1 0 0 0-1 1v18a1 1 0 1 0 2 0V5a1 1 0 0 0-1-1zm0 30a1 1 0 0 0-1 1v18a1 1 0 1 0 2 0V35a1 1 0 0 0-1-1zm19-14a1 1 0 0 0-1 1v32a1 1 0 1 0 2 0V21a1 1 0 0 0-1-1zm0-16a1 1 0 0 0-1 1v4a1 1 0 1 0 2 0V5a1 1 0 0 0-1-1z" fill="#7383bf"/><path fill="#c7cac7" d="M5 37h10v12H5zm19-14h10v12H24zM43 9h10v12H43z"/><path fill="#e7eced" d="M5 35h10v12H5zm19-14h10v12H24zM43 7h10v12H43z"/></svg>