<svg xmlns="http://www.w3.org/2000/svg" viewBox="0 0 54 54"><path d="M8 0a1 1 0 0 0-1 1v36a1 1 0 1 0 2 0V1a1 1 0 0 0-1-1zm0 48a1 1 0 0 0-1 1v4a1 1 0 1 0 2 0v-4a1 1 0 0 0-1-1zM27 0a1 1 0 0 0-1 1v20a1 1 0 1 0 2 0V1a1 1 0 0 0-1-1zm0 32a1 1 0 0 0-1 1v20a1 1 0 1 0 2 0V33a1 1 0 0 0-1-1zm19-16a1 1 0 0 0-1 1v36a1 1 0 1 0 2 0V17a1 1 0 0 0-1-1zm0-16a1 1 0 0 0-1 1v4a1 1 0 1 0 2 0V1a1 1 0 0 0-1-1z" fill="#25ae88"/><path fill="#ebba16" d="M3 37h10v12H3z"/><path fill="#23a24d" d="M22 21h10v12H22zM41 5h10v12H41z"/></svg>