<svg xmlns="http://www.w3.org/2000/svg" viewBox="0 0 58 58"><path fill="#556080" d="M0 0h58v58H0z"/><path d="M21 11h32a1 1 0 1 0 0-2H21a1 1 0 1 0 0 2zM5 11h4a1 1 0 1 0 0-2H5a1 1 0 1 0 0 2zm48 17H35a1 1 0 1 0 0 2h18a1 1 0 1 0 0-2zM5 30h18a1 1 0 1 0 0-2H5a1 1 0 1 0 0 2zm32 17H5a1 1 0 1 0 0 2h32a1 1 0 1 0 0-2zm16 0h-4a1 1 0 1 0 0 2h4a1 1 0 1 0 0-2z" fill="#424a60"/><path fill="#424a60" d="M9 5h12v10H9zm14 19h12v10H23zm14 19h12v10H37z"/><path fill="#e7eced" d="M9 3h12v10H9zm14 19h12v10H23zm14 19h12v10H37z"/></svg>