<svg xmlns="http://www.w3.org/2000/svg" viewBox="0 0 58 58"><path fill="#e7eced" d="M0 0h58v58H0z"/><path d="M19 12h32a1 1 0 1 0 0-2H19a1 1 0 1 0 0 2zm20 34H7a1 1 0 1 0 0 2h32a1 1 0 1 0 0-2zm12-18H36a1 1 0 1 0 0 2h15a1 1 0 1 0 0-2zM7 30h17a1 1 0 1 0 0-2H7a1 1 0 1 0 0 2z" fill="#556080"/><circle cx="13" cy="13" r="6" fill="#c7cac7"/><circle cx="45" cy="49" r="6" fill="#c7cac7"/><circle cx="30" cy="31" r="6" fill="#c7cac7"/><circle cx="13" cy="11" r="6" fill="#fff"/><circle cx="45" cy="47" r="6" fill="#fff"/><circle cx="30" cy="29" r="6" fill="#fff"/></svg>