<svg xmlns="http://www.w3.org/2000/svg" viewBox="0 0 56 56"><path d="M14 9h40a1 1 0 1 0 0-2H14a1 1 0 1 0 0 2zm28 40H2a1 1 0 1 0 0 2h40a1 1 0 1 0 0-2zm12-21H35a1 1 0 1 0 0 2h19a1 1 0 1 0 0-2zM2 30h20a1 1 0 1 0 0-2H2a1 1 0 1 0 0 2z" fill="#949493"/><circle cx="8" cy="8" r="6" fill="#c7cac7"/><circle cx="28.207" cy="28.793" r="6.207" fill="#c7cac7"/><circle cx="48" cy="50" r="6" fill="#c7cac7"/><circle cx="8" cy="6" r="6" fill="#e7eced"/><circle cx="28.207" cy="26.793" r="6.207" fill="#e7eced"/><circle cx="48" cy="48" r="6" fill="#e7eced"/></svg>