<svg xmlns="http://www.w3.org/2000/svg" viewBox="0 0 57 57"><path d="M6 43.5a1 1 0 0 1-1-1v-40a1 1 0 1 1 2 0v40a1 1 0 0 1-1 1zm15-12a1 1 0 0 1-1-1v-28a1 1 0 1 1 2 0v28a1 1 0 0 1-1 1zm15-12a1 1 0 0 1-1-1v-16a1 1 0 1 1 2 0v16a1 1 0 0 1-1 1zm15-12a1 1 0 0 1-1-1v-4a1 1 0 1 1 2 0v4a1 1 0 0 1-1 1zm-30 48a1 1 0 0 1-1-1v-12a1 1 0 1 1 2 0v12a1 1 0 0 1-1 1zm15 0a1 1 0 0 1-1-1v-24a1 1 0 1 1 2 0v24a1 1 0 0 1-1 1zm15 0a1 1 0 0 1-1-1v-36a1 1 0 1 1 2 0v36a1 1 0 0 1-1 1z" fill="#556080"/><circle cx="6" cy="48.5" r="6" fill="#c7cac7"/><circle cx="21" cy="36.5" r="6" fill="#c7cac7"/><circle cx="51" cy="12.5" r="6" fill="#c7cac7"/><circle cx="6" cy="46.5" r="6" fill="#e7eced"/><circle cx="21" cy="34.5" r="6" fill="#e7eced"/><circle cx="36" cy="24.5" r="6" fill="#c7cac7"/><circle cx="36" cy="22.5" r="6" fill="#e7eced"/><circle cx="51" cy="10.5" r="6" fill="#e7eced"/><path d="M52 9.5h-2a1 1 0 1 1 0-2h2a1 1 0 1 1 0 2zm-15 12h-2a1 1 0 1 1 0-2h2a1 1 0 1 1 0 2zm0 4h-2a1 1 0 1 1 0-2h2a1 1 0 1 1 0 2zm-15 8h-2a1 1 0 1 1 0-2h2a1 1 0 1 1 0 2zm0 4h-2a1 1 0 1 1 0-2h2a1 1 0 1 1 0 2zm-15 8H5a1 1 0 1 1 0-2h2a1 1 0 1 1 0 2zm0 4H5a1 1 0 1 1 0-2h2a1 1 0 1 1 0 2zm45-36h-2a1 1 0 1 1 0-2h2a1 1 0 1 1 0 2z" fill="#fff"/></svg>