<svg xmlns="http://www.w3.org/2000/svg" viewBox="0 0 58 58"><path fill="#edeada" d="M51.5 14l-14-14h-31v58h45z"/><path fill="#cec9ae" d="M37.5 0v14h14zm-22 16h9a1 1 0 1 0 0-2h-9a1 1 0 1 0 0 2zm0 8h5a1 1 0 1 0 0-2h-5a1 1 0 1 0 0 2zm22-2h-7a1 1 0 1 0 0 2h7a1 1 0 1 0 0-2zm-12.71.3a.965.965 0 0 0-.29.7c0 .26.1.52.29.71.189.18.45.29.71.29s.52-.101.71-.3c.18-.181.29-.44.29-.7 0-.261-.11-.521-.29-.71-.38-.37-1.05-.37-1.42.01zm18.42-.01c-.38-.37-1.04-.37-1.42 0-.181.189-.29.449-.29.71 0 .26.109.52.29.71.189.18.45.29.71.29s.52-.11.71-.29c.18-.19.29-.45.29-.71 0-.261-.11-.521-.29-.71zM27.5 30h-7a1 1 0 1 0 0 2h7a1 1 0 1 0 0-2zm-12.71.29a.986.986 0 0 0-.29.71c0 .26.109.52.29.71.189.18.45.29.71.29s.52-.11.71-.29a1.011 1.011 0 0 0 0-1.42c-.38-.37-1.04-.37-1.42 0z"/><path d="M18.645 39.166c-2.191 1.141-2.928 3.321-3.196 5.582l-1.241-1.04c-.981-.822-2.404.585-1.414 1.415l2.806 2.351c.662.555 1.676.211 1.707-.707.073-2.167.177-4.743 2.348-5.873 1.144-.596.132-2.322-1.01-1.728zm9.338 5.084c-.52-.93-1.642-1.391-2.688-1.095-1.365.386-2.981 2.042-3.936.106-.571-1.157-2.295-.143-1.727 1.009.514 1.042 1.5 1.798 2.669 1.932.607.069 1.117-.013 1.688-.226.406-.152 1.923-1.332 2.267-.717.629 1.126 2.357.117 1.727-1.009z" fill="#7383bf"/><path d="M40.045 29.09a1.64 1.64 0 0 0 2.249.931c1.393-.662 2.847.791 2.185 2.185a1.64 1.64 0 0 0 .931 2.249c1.454.517 1.454 2.573 0 3.09a1.64 1.64 0 0 0-.931 2.249c.662 1.393-.791 2.847-2.185 2.185a1.64 1.64 0 0 0-2.249.931c-.517 1.454-2.573 1.454-3.09 0a1.64 1.64 0 0 0-2.249-.931c-1.393.662-2.847-.791-2.185-2.185a1.64 1.64 0 0 0-.931-2.249c-1.454-.517-1.454-2.573 0-3.09a1.64 1.64 0 0 0 .931-2.249c-.662-1.393.791-2.847 2.185-2.185a1.64 1.64 0 0 0 2.249-.931c.517-1.453 2.573-1.453 3.09 0z" fill="#ebba16"/><path d="M42.294 41.979a1.64 1.64 0 0 0-2.249.931c-.517 1.454-2.573 1.454-3.09 0a1.639 1.639 0 0 0-2.249-.931c-.069.033-.137.038-.206.061V53l4-4 4 4V42.039c-.069-.022-.137-.028-.206-.06z" fill="#d75a4a"/></svg>