<svg xmlns="http://www.w3.org/2000/svg" viewBox="0 0 58 58"><path fill="#edeada" d="M51.5 14l-14-14h-31v58h45z"/><path fill="#cec9ae" d="M37.5 0v14h14zm-22 16h9a1 1 0 1 0 0-2h-9a1 1 0 1 0 0 2zm17 20h-17a1 1 0 1 0 0 2h17a1 1 0 1 0 0-2zm10-7h-7a1 1 0 1 0 0 2h7a1 1 0 1 0 0-2zm-27-5h5a1 1 0 1 0 0-2h-5a1 1 0 1 0 0 2zm15 0h7a1 1 0 1 0 0-2h-7a1 1 0 1 0 0 2zm-6-1c0 .26.11.52.29.71.19.18.45.29.71.29.26 0 .52-.11.71-.29.18-.19.29-.45.29-.71 0-.261-.11-.521-.29-.71-.37-.37-1.04-.37-1.42 0-.18.189-.29.449-.29.71zm-4 6a1 1 0 1 0 0 2h10a1 1 0 1 0 0-2h-10zm-5 2c.26 0 .52-.11.71-.29.18-.19.29-.45.29-.71 0-.261-.11-.521-.29-.71-.37-.37-1.05-.37-1.42 0-.18.189-.29.439-.29.71 0 .26.11.52.29.71.19.18.45.29.71.29zm27 12h-7a1 1 0 1 0 0 2h7a1 1 0 1 0 0-2zm-12 0h-10a1 1 0 1 0 0 2h10a1 1 0 1 0 0-2zm-15.71.29a1.013 1.013 0 0 0 0 1.42c.19.18.45.29.71.29.27 0 .52-.11.71-.29.18-.19.29-.45.29-.71a.987.987 0 0 0-.29-.7c-.37-.38-1.04-.38-1.42-.01zM42.5 24c.26 0 .52-.11.71-.29.19-.19.29-.45.29-.71 0-.261-.1-.521-.29-.71-.38-.37-1.04-.37-1.42 0-.18.189-.29.449-.29.71 0 .26.11.52.29.71.19.18.45.29.71.29zm-4.29 13.71c.18-.19.29-.45.29-.71 0-.261-.11-.521-.29-.71-.38-.37-1.05-.37-1.42 0-.18.189-.29.449-.29.71 0 .26.11.52.29.71.19.189.44.29.71.29s.52-.11.71-.29zm3.58-1.42c-.18.189-.29.449-.29.71 0 .26.11.52.29.71.19.18.44.29.71.29s.52-.11.71-.29c.18-.19.29-.45.29-.71 0-.261-.11-.521-.29-.71-.37-.37-1.05-.37-1.42 0z"/></svg>