<svg xmlns="http://www.w3.org/2000/svg" viewBox="0 0 58.018 58.018"><path fill="#edeada" d="M24.192 39.492l-7.778 2.121 2.122-7.778L48.362 4.009H0v54h54V9.685z"/><path d="M18.716 39.311a.999.999 0 0 1 0 1.414l-.358.358 5.793-1.58-5.627-5.627-1.58 5.792.358-.358a1 1 0 0 1 1.414.001z" fill="#f7e6a1"/><path d="M18.358 41.083l.358-.358a.999.999 0 1 0-1.414-1.414l-.358.358-.53 1.944 1.944-.53z" fill="#424a60"/><path fill="#ebba16" d="M51.062 12.622l-5.656-5.657-26.87 26.87-.012.041 5.627 5.627.041-.011z"/><path d="M57.437 3.44L54.587.59a1.985 1.985 0 0 0-2.807 0l-3.546 3.546 5.657 5.657 3.546-3.546a1.985 1.985 0 0 0 0-2.807z" fill="#ed7161"/><path fill="#f7e6a1" d="M48.234 4.136l5.657 5.657-2.829 2.828-5.657-5.657z"/></svg>