<svg xmlns="http://www.w3.org/2000/svg" viewBox="0 0 58 58"><circle cx="29" cy="29" r="29" fill="#25ae88"/><g fill="#fff"><path d="M54 29L32 44V14z"/><path d="M32 45a.999.999 0 0 1-1-1V14a.999.999 0 0 1 1.563-.826l22 15a.997.997 0 0 1 0 1.652l-22 15A1 1 0 0 1 32 45zm1-29.107v26.215L52.225 29 33 15.893z"/></g><g fill="#fff"><path d="M32 29L10 44V14z"/><path d="M10 45a.999.999 0 0 1-1-1V14a.999.999 0 0 1 1.563-.826l22 15a.997.997 0 0 1 0 1.652l-22 15A1 1 0 0 1 10 45zm1-29.107v26.215L30.225 29 11 15.893z"/></g></svg>