<svg xmlns="http://www.w3.org/2000/svg" viewBox="0 0 58 58"><path fill="#7383bf" d="M49 35v17h3v-3h6V17H0v32h6v3h3V35z"/><path fill="#556080" d="M6 41h46v11H6zM0 17h58v18H0z"/><path fill="#edeada" d="M49 0v17H9V0z"/><circle cx="49" cy="26" r="4" fill="#88c057"/><path d="M35 8H17a1 1 0 1 1 0-2h18a1 1 0 1 1 0 2zm6 5H17a1 1 0 1 1 0-2h24a1 1 0 1 1 0 2z" fill="#cec9ae"/><path d="M8 23H5a1 1 0 1 1 0-2h3a1 1 0 1 1 0 2zm0 4H5a1 1 0 1 1 0-2h3a1 1 0 1 1 0 2zm0 4H5a1 1 0 1 1 0-2h3a1 1 0 1 1 0 2zm7-8h-3a1 1 0 1 1 0-2h3a1 1 0 1 1 0 2zm0 4h-3a1 1 0 1 1 0-2h3a1 1 0 1 1 0 2zm0 4h-3a1 1 0 1 1 0-2h3a1 1 0 1 1 0 2zm7-8h-3a1 1 0 1 1 0-2h3a1 1 0 1 1 0 2zm0 4h-3a1 1 0 1 1 0-2h3a1 1 0 1 1 0 2zm0 4h-3a1 1 0 1 1 0-2h3a1 1 0 1 1 0 2z" fill="#fff"/><path fill="#edeada" d="M9 35h40v23H9z"/><path d="M41 44H17a1 1 0 1 1 0-2h24a1 1 0 1 1 0 2zm0 5H17a1 1 0 1 1 0-2h24a1 1 0 1 1 0 2z" fill="#cec9ae"/><path fill="#e2dfd5" d="M49 15v2H9v-2z"/></svg>