<svg xmlns="http://www.w3.org/2000/svg" viewBox="0 0 59 59"><path fill="#edeada" d="M49 20L34 5H11v50h38z"/><circle cx="31.453" cy="37.453" r="10.828" fill="#fff" stroke="#7383bf" stroke-width="2" stroke-linecap="round" stroke-miterlimit="10"/><path fill="none" stroke="#7383bf" stroke-width="2" stroke-linecap="round" stroke-miterlimit="10" d="M39.244 45.244L52 58"/><path d="M31.625 35h-6a1 1 0 1 1 0-2h6a1 1 0 1 1 0 2zm6 6h-12a1 1 0 1 1 0-2h12a1 1 0 1 1 0 2z" fill="#cec9ae"/><path fill="#e2dbbf" d="M11 5h23l10 10V0H6v50h5z"/><path d="M48.712 20H34V5.288a.12.12 0 0 1 .204-.084l14.592 14.592a.12.12 0 0 1-.084.204z" fill="#cec9ae"/></svg>