<svg xmlns="http://www.w3.org/2000/svg" viewBox="0 0 58.999 58.999"><g fill="#c7cac7"><path d="M29.083 26.038c-.53.154-.836.708-.683 1.239.027.093 2.697 9.591 1.962 30.687a.997.997 0 0 0 .964 1.034l.036.001a1 1 0 0 0 .998-.965c.747-21.414-1.925-30.919-2.038-31.313a1.002 1.002 0 0 0-1.239-.683zm25.145-9.559A26.952 26.952 0 0 0 29.362 0c-3.587 0-7.085.701-10.396 2.083a32.298 32.298 0 0 0-5.151 2.704 1.001 1.001 0 0 0 1.09 1.678 30.266 30.266 0 0 1 4.831-2.536A24.846 24.846 0 0 1 29.362 2a24.952 24.952 0 0 1 23.023 15.259c1.63 3.854 2.511 10.95 2.891 14.838a.999.999 0 1 0 1.99-.196c-.477-4.886-1.391-11.529-3.038-15.422zM10.851 9.711a1 1 0 1 0-1.404-1.424C4.069 13.585-1.288 23.438 3.73 40.284a.998.998 0 1 0 1.916-.57C1.899 27.132 3.698 16.758 10.851 9.711z"/><path d="M30.13 6.014a20.753 20.753 0 0 0-8.853 1.606C11.471 11.711 6.257 22.494 9.15 32.704c.289 1.021.585 2.107.744 3.189.358 2.449.377 6.956.377 14.105a1 1 0 1 0 2 0c0-7.458-.019-11.804-.398-14.396-.176-1.202-.491-2.36-.799-3.444-2.617-9.236 2.1-18.992 10.973-22.693a19.062 19.062 0 0 1 8.012-1.454c7.111.256 15.171 6.524 17.602 13.689 2.104 6.199 2.122 16.76 1.861 26.271a1 1 0 0 0 .973 1.027c.542-.01 1.012-.419 1.027-.973.265-9.689.238-20.471-1.967-26.969C46.838 13.049 38.124 6.3 30.13 6.014z"/><path d="M21.935 16.337a1 1 0 1 0-1.149-1.637c-5.15 3.616-7.388 10.563-5.565 17.295.021.073 2.051 7.462 2.051 19.004a1 1 0 1 0 2 0c0-11.813-2.038-19.232-2.123-19.535-1.601-5.914.323-11.993 4.786-15.127zM29.362 12c-1.087 0-2.169.117-3.218.349a1 1 0 1 0 .431 1.953c.907-.2 1.845-.302 2.786-.302 5.233 0 9.933 3.114 11.972 7.935 2.43 5.74 2.589 14.953 2.028 31.029a.998.998 0 0 0 .964 1.034l.036.001a1 1 0 0 0 .998-.965c.584-16.723.406-25.758-2.185-31.879A14.968 14.968 0 0 0 29.362 12zm9.91 36.006a1 1 0 0 0-.993-1.007h-.007a1 1 0 0 0-1 .993c-.005.752.02 1.85.047 3.036.039 1.725.083 3.68.04 4.937a.997.997 0 0 0 1 1.034 1 1 0 0 0 .998-.966c.046-1.313.001-3.299-.039-5.051a114.8 114.8 0 0 1-.046-2.976z"/><path d="M29.362 19a7.962 7.962 0 0 0-3.081.618c-3.892 1.624-5.783 6.015-4.4 10.214.754 2.289 1.391 14.272 1.391 26.167a1 1 0 1 0 2 0c0-10.707-.57-23.995-1.49-26.792-1.054-3.197.353-6.526 3.27-7.743a5.994 5.994 0 0 1 7.839 3.206c1.867 4.419 2.422 12.419 2.558 18.353a1 1 0 0 0 1 .977h.023c.552-.013.989-.471.977-1.023-.141-6.106-.726-14.375-2.72-19.093A7.983 7.983 0 0 0 29.362 19z"/></g></svg>