<svg xmlns="http://www.w3.org/2000/svg" viewBox="0 0 60 60"><path fill="none" stroke="#659c35" stroke-width="2" stroke-linecap="round" stroke-miterlimit="10" d="M30.028 1v10m0 0l4-4m-4 4l-4-4m4 52V49m0 0l-4 4m4-4l4 4"/><path d="M57.972 29.642l-7.234 7.234c-11.517 11.517-30.19 11.517-41.707 0l-7.004-7.004 7.234-7.234c11.517-11.517 30.19-11.517 41.707 0l7.004 7.004z" fill="#e7eced"/><circle cx="29.67" cy="29.783" r="11.813" fill="#3083c9"/><path d="M22.857 31a1 1 0 0 1-1-1c0-3.86 3.14-7 7-7a1 1 0 0 1 0 2c-2.757 0-5 2.243-5 5a1 1 0 0 1-1 1z" fill="#fff"/></svg>