<svg xmlns="http://www.w3.org/2000/svg" viewBox="0 0 58 58"><path d="M46.324 58H1.565a1.564 1.564 0 0 1-1.51-1.973l10.166-27.871A1.564 1.564 0 0 1 11.731 27H56.49c1.03 0 1.51.984 1.51 1.973L47.834 56.844A1.564 1.564 0 0 1 46.324 58z" fill="#efce4a"/><path d="M10.221 28.156A1.564 1.564 0 0 1 11.731 27H46V15L31 0H8v34.245l2.221-6.089z" fill="#f4efdc"/><path d="M50.268 18H46v9h6v-7.268c0-.957-.776-1.732-1.732-1.732zM8 11H1.732C.776 11 0 11.775 0 12.732V55.46c.069.002.138.006.205.01L8 34.212V11z" fill="#ebba16"/><path d="M25 16H15a1 1 0 1 1 0-2h10a1 1 0 1 1 0 2zm0-7H15a1 1 0 1 1 0-2h10a1 1 0 1 1 0 2zm14 14H15a1 1 0 1 1 0-2h24a1 1 0 1 1 0 2z" fill="#cec9ae"/><path fill="#d1bf86" d="M31 15h15L31 0z"/></svg>