<svg xmlns="http://www.w3.org/2000/svg" viewBox="0 0 58 58"><path d="M55.981 54.5H2.019A2.02 2.02 0 0 1 0 52.481V20.5h58v31.981a2.02 2.02 0 0 1-2.019 2.019z" fill="#efce4a"/><path d="M26.019 11.5V5.519A2.02 2.02 0 0 0 24 3.5H2.019A2.02 2.02 0 0 0 0 5.519V20.5h58v-6.981a2.02 2.02 0 0 0-2.019-2.019H26.019z" fill="#ebba16"/><path fill="#edeada" d="M34 37.5h19v12H34z"/><path d="M38 42.5h4a1 1 0 1 0 0-2h-4a1 1 0 1 0 0 2zm8 0h1a1 1 0 1 0 0-2h-1a1 1 0 1 0 0 2zm3 2H38a1 1 0 1 0 0 2h11a1 1 0 1 0 0-2z" fill="#cec9ae"/></svg>