<svg xmlns="http://www.w3.org/2000/svg" viewBox="0 0 59 59"><path d="M48.063 16.104l-37.63-5.289.479-3.41A2.557 2.557 0 0 1 13.8 5.229l32.566 4.577a2.557 2.557 0 0 1 2.176 2.888l-.479 3.41z" fill="#556080"/><path d="M24.141 6.683l.557-3.961a2.006 2.006 0 0 1 2.259-1.702l7.922 1.113a2.006 2.006 0 0 1 1.702 2.259l-.557 3.961-11.883-1.67z" fill="#fff" stroke="#7383bf" stroke-width="2" stroke-linecap="round" stroke-miterlimit="10"/><path d="M12.597 20h10.627l.343-.343L17.91 14l-5.401 5.401a.362.362 0 0 0 0 .511l.088.088z" fill="#ebba16"/><path fill="#dd352e" d="M24.567 17h8v3h-8z"/><path fill="#694f87" d="M35.567 17h5v3h-5z"/><path d="M42.838 59H14.297a2.73 2.73 0 0 1-2.729-2.729V20h34v36.271A2.73 2.73 0 0 1 42.838 59z" fill="#556080"/><g fill="#7383bf"><circle cx="16.567" cy="28" r="1"/><circle cx="16.567" cy="34" r="1"/><circle cx="19.567" cy="25" r="1"/><circle cx="25.567" cy="25" r="1"/><circle cx="19.567" cy="31" r="1"/><circle cx="25.567" cy="31" r="1"/><circle cx="22.567" cy="28" r="1"/><circle cx="28.567" cy="28" r="1"/><circle cx="22.567" cy="34" r="1"/><circle cx="28.567" cy="34" r="1"/><circle cx="31.567" cy="25" r="1"/><circle cx="37.567" cy="25" r="1"/><circle cx="31.567" cy="31" r="1"/><circle cx="37.567" cy="31" r="1"/><circle cx="34.567" cy="28" r="1"/><circle cx="40.567" cy="28" r="1"/><circle cx="34.567" cy="34" r="1"/><circle cx="40.567" cy="34" r="1"/><circle cx="16.567" cy="40" r="1"/><circle cx="16.567" cy="46" r="1"/><circle cx="19.567" cy="37" r="1"/><circle cx="25.567" cy="37" r="1"/><circle cx="19.567" cy="43" r="1"/><circle cx="25.567" cy="43" r="1"/><circle cx="22.567" cy="40" r="1"/><circle cx="28.567" cy="40" r="1"/><circle cx="22.567" cy="46" r="1"/><circle cx="28.567" cy="46" r="1"/><circle cx="31.567" cy="37" r="1"/><circle cx="37.567" cy="37" r="1"/><circle cx="31.567" cy="43" r="1"/><circle cx="37.567" cy="43" r="1"/><circle cx="34.567" cy="40" r="1"/><circle cx="40.567" cy="40" r="1"/><circle cx="34.567" cy="46" r="1"/><circle cx="40.567" cy="46" r="1"/><circle cx="16.567" cy="52" r="1"/><circle cx="19.567" cy="49" r="1"/><circle cx="25.567" cy="49" r="1"/><circle cx="19.567" cy="55" r="1"/><circle cx="25.567" cy="55" r="1"/><circle cx="22.567" cy="52" r="1"/><circle cx="28.567" cy="52" r="1"/><circle cx="31.567" cy="49" r="1"/><circle cx="37.567" cy="49" r="1"/><circle cx="31.567" cy="55" r="1"/><circle cx="37.567" cy="55" r="1"/><circle cx="34.567" cy="52" r="1"/><circle cx="40.567" cy="52" r="1"/></g><path d="M48.063 16.104l-37.63-5.289.479-3.41A2.557 2.557 0 0 1 13.8 5.229l32.566 4.577a2.557 2.557 0 0 1 2.176 2.888l-.479 3.41z" fill="#556080"/><path d="M24.141 6.683l.557-3.961a2.006 2.006 0 0 1 2.259-1.702l7.922 1.113a2.006 2.006 0 0 1 1.702 2.259l-.557 3.961-11.883-1.67z" fill="#fff" stroke="#7383bf" stroke-width="2" stroke-linecap="round" stroke-miterlimit="10"/><path d="M12.597 20h10.627l.343-.343L17.91 14l-5.401 5.401a.362.362 0 0 0 0 .511l.088.088z" fill="#ebba16"/><path fill="#dd352e" d="M24.567 17h8v3h-8z"/><path fill="#694f87" d="M35.567 17h5v3h-5z"/><path d="M42.838 59H14.297a2.73 2.73 0 0 1-2.729-2.729V20h34v36.271A2.73 2.73 0 0 1 42.838 59z" fill="#556080"/><g fill="#7383bf"><circle cx="16.567" cy="28" r="1"/><circle cx="16.567" cy="34" r="1"/><circle cx="19.567" cy="25" r="1"/><circle cx="25.567" cy="25" r="1"/><circle cx="19.567" cy="31" r="1"/><circle cx="25.567" cy="31" r="1"/><circle cx="22.567" cy="28" r="1"/><circle cx="28.567" cy="28" r="1"/><circle cx="22.567" cy="34" r="1"/><circle cx="28.567" cy="34" r="1"/><circle cx="31.567" cy="25" r="1"/><circle cx="37.567" cy="25" r="1"/><circle cx="31.567" cy="31" r="1"/><circle cx="37.567" cy="31" r="1"/><circle cx="34.567" cy="28" r="1"/><circle cx="40.567" cy="28" r="1"/><circle cx="34.567" cy="34" r="1"/><circle cx="40.567" cy="34" r="1"/><circle cx="16.567" cy="40" r="1"/><circle cx="16.567" cy="46" r="1"/><circle cx="19.567" cy="37" r="1"/><circle cx="25.567" cy="37" r="1"/><circle cx="19.567" cy="43" r="1"/><circle cx="25.567" cy="43" r="1"/><circle cx="22.567" cy="40" r="1"/><circle cx="28.567" cy="40" r="1"/><circle cx="22.567" cy="46" r="1"/><circle cx="28.567" cy="46" r="1"/><circle cx="31.567" cy="37" r="1"/><circle cx="37.567" cy="37" r="1"/><circle cx="31.567" cy="43" r="1"/><circle cx="37.567" cy="43" r="1"/><circle cx="34.567" cy="40" r="1"/><circle cx="40.567" cy="40" r="1"/><circle cx="34.567" cy="46" r="1"/><circle cx="40.567" cy="46" r="1"/><circle cx="16.567" cy="52" r="1"/><circle cx="19.567" cy="49" r="1"/><circle cx="25.567" cy="49" r="1"/><circle cx="19.567" cy="55" r="1"/><circle cx="25.567" cy="55" r="1"/><circle cx="22.567" cy="52" r="1"/><circle cx="28.567" cy="52" r="1"/><circle cx="31.567" cy="49" r="1"/><circle cx="37.567" cy="49" r="1"/><circle cx="31.567" cy="55" r="1"/><circle cx="37.567" cy="55" r="1"/><circle cx="34.567" cy="52" r="1"/><circle cx="40.567" cy="52" r="1"/></g></svg>