<svg xmlns="http://www.w3.org/2000/svg" viewBox="0 0 58 58"><path d="M49 4H9a2 2 0 1 1 0-4h40a2 2 0 1 1 0 4zm0 54H9a2 2 0 1 1 0-4h40a2 2 0 1 1 0 4z" fill="#23a24d"/><path d="M43 11V4H15v7c0 6.979 3.72 13.351 9.628 16.817.9.528.9 1.838 0 2.366A19.501 19.501 0 0 0 15 47v7h28v-7c0-6.979-3.72-13.351-9.628-16.817-.9-.528-.9-1.838 0-2.366A19.501 19.501 0 0 0 43 11z" fill="#7fabda"/><path d="M29 54h14v-7c0-6.979-3.72-13.351-9.628-16.817-.9-.528-.9-1.838 0-2.366A19.501 19.501 0 0 0 43 11V4H29v50z" fill="#7296b7"/><g fill="#e7eced"><circle cx="17" cy="53" r="1"/><circle cx="21" cy="53" r="1"/><circle cx="25" cy="53" r="1"/><circle cx="29" cy="53" r="1"/><circle cx="33" cy="53" r="1"/><circle cx="37" cy="53" r="1"/><circle cx="41" cy="53" r="1"/><circle cx="19" cy="51" r="1"/><circle cx="23" cy="51" r="1"/><circle cx="27" cy="51" r="1"/><circle cx="31" cy="51" r="1"/><circle cx="35" cy="51" r="1"/><circle cx="39" cy="51" r="1"/><circle cx="21" cy="49" r="1"/><circle cx="25" cy="49" r="1"/><circle cx="29" cy="32" r="1"/><circle cx="23" cy="21" r="1"/><circle cx="27" cy="21" r="1"/><circle cx="31" cy="21" r="1"/><circle cx="35" cy="21" r="1"/><circle cx="33" cy="19" r="1"/><circle cx="35" cy="17" r="1"/><circle cx="25" cy="19" r="1"/><circle cx="29" cy="19" r="1"/><circle cx="23" cy="17" r="1"/><circle cx="25" cy="23" r="1"/><circle cx="27" cy="25" r="1"/><circle cx="31" cy="25" r="1"/><circle cx="29" cy="23" r="1"/><circle cx="33" cy="23" r="1"/><circle cx="29" cy="35" r="1"/><circle cx="29" cy="38" r="1"/><circle cx="29" cy="41" r="1"/><circle cx="29" cy="44" r="1"/><circle cx="29" cy="47" r="1"/><circle cx="33" cy="49" r="1"/><circle cx="37" cy="49" r="1"/></g></svg>