<svg xmlns="http://www.w3.org/2000/svg" viewBox="0 0 60 60"><path d="M41.857 22.096A7.063 7.063 0 0 0 45 16.222V5H15v11.222c0 2.36 1.18 4.564 3.143 5.874l9.319 6.843a1.318 1.318 0 0 1 .001 2.122l-9.319 6.843A7.061 7.061 0 0 0 15 43.778V55h30V43.778c0-2.36-1.18-4.564-3.143-5.874l-9.319-6.843a1.318 1.318 0 0 1-.001-2.122l9.32-6.843z" fill="#e6e6e6"/><path fill="#9e6c53" d="M10 55h40v4H10zm0-54h40v4H10z"/><path d="M54 58H6a1 1 0 1 0 0 2h48a1 1 0 1 0 0-2zM6 2h48a1 1 0 1 0 0-2H6a1 1 0 1 0 0 2z" fill="#8a5336"/><path d="M40.192 19.6A4.053 4.053 0 0 0 42 16.223a2.847 2.847 0 0 0-2.156-2.762L24.791 9.698C21.342 8.835 18 11.444 18 15v1.223c0 1.359.676 2.622 1.808 3.377L29 26.346v15.877c0 3.63-3.764 6.036-7.058 4.511-1.774-.821-3.922.394-3.941 2.349V55h24V43.736c-.019-1.931-1.889-3.322-3.791-2.991l-2.049.357A4.405 4.405 0 0 1 31 36.763V26.346l9.192-6.746z" fill="#ebba16"/></svg>