<svg xmlns="http://www.w3.org/2000/svg" viewBox="0 0 60 60"><path d="M41.857 22.096A7.063 7.063 0 0 0 45 16.222V5H15v11.222c0 2.36 1.18 4.564 3.143 5.874L28 28.667v2.667l-9.857 6.571A7.06 7.06 0 0 0 15 43.778V55h30V43.778c0-2.36-1.18-4.564-3.143-5.874L32 31.333v-2.667l9.857-6.57z" fill="#7383bf"/><path d="M40.192 19.6A4.053 4.053 0 0 0 42 16.223a2.847 2.847 0 0 0-2.156-2.762L24.791 9.698C21.342 8.835 18 11.444 18 15v1.223c0 1.359.676 2.622 1.808 3.377L29 26.346v15.877c0 3.63-3.764 6.036-7.058 4.511-1.774-.821-3.922.394-3.941 2.349V55h24V43.736c-.019-1.931-1.889-3.322-3.791-2.991l-2.049.357A4.405 4.405 0 0 1 31 36.763V26.346l9.192-6.746zM10 55h40v4H10z" fill="#424a60"/><path d="M54 58h-3v-4H9v4H6a1 1 0 1 0 0 2h48a1 1 0 1 0 0-2zm-43-2h38v2H11v-2z" fill="#556080"/><path fill="#424a60" d="M10 1h40v4H10z"/><path d="M54 0H6a1 1 0 1 0 0 2h3v4h42V2h3a1 1 0 1 0 0-2zm-5 4H11V2h38v2z" fill="#556080"/><path d="M24.999 24c-.19 0-.383-.055-.554-.168l-4.638-3.092A4.05 4.05 0 0 1 18 17.362V15.14a1 1 0 1 1 2 0v2.222c0 .69.343 1.331.917 1.714l4.638 3.092A1.001 1.001 0 0 1 24.999 24zM41 46a1 1 0 0 1-1-1v-2.222c0-.69-.343-1.331-.917-1.714l-4.638-3.092a1.001 1.001 0 0 1 1.11-1.664l4.638 3.092A4.052 4.052 0 0 1 42 42.778V45a1 1 0 0 1-1 1z" fill="#7fabda"/></svg>