<svg xmlns="http://www.w3.org/2000/svg" viewBox="0 0 58 58"><path d="M54.783 50H3.217A3.217 3.217 0 0 1 0 46.783V11.217A3.217 3.217 0 0 1 3.217 8h51.566A3.217 3.217 0 0 1 58 11.217v35.566A3.217 3.217 0 0 1 54.783 50z" fill="#e7eced"/><path fill="#424a60" d="M33 25h20v20H33z"/><path d="M47.791 42.092l-2.511-1.283a.511.511 0 0 1-.28-.456v-.769c1.289-.555 2.03-1.634 2.39-2.983.543-.168.943-.671.943-1.268v-.667c0-.511-.294-.951-.718-1.175-.294-2.507-1.951-3.521-4.615-3.521-.126 0-.25.005-.371.015-.905.072-1.821-.098-2.574-.606-.313-.211-.577-.435-.762-.67-.084-.107-.254-.039-.238.097.027.233.066.505.125.803.22 1.107.089.945-.339 1.99a6.883 6.883 0 0 0-.46 1.897 1.332 1.332 0 0 0-.714 1.173v.667c0 .597.4 1.099.943 1.268.36 1.349 1.101 2.428 2.39 2.983v.763a.513.513 0 0 1-.286.46l-2.574 1.268a2.187 2.187 0 0 0-1.14 1.92v.884c0 .042.011.082.028.121h11.945a.35.35 0 0 0 .027-.124v-.83c0-.829-.468-1.586-1.209-1.957z" fill="#fff"/><path fill="#38454f" d="M0 13h58v8H0z"/><path d="M14 26H5a1 1 0 1 0 0 2h9a1 1 0 1 0 0-2zm14 1a1 1 0 0 0-1-1h-9a1 1 0 1 0 0 2h9a1 1 0 0 0 1-1zM6 31H5a1 1 0 1 0 0 2h1a1 1 0 1 0 0-2zm6 0h-2a1 1 0 1 0 0 2h2a1 1 0 1 0 0-2zm5 0h-1a1 1 0 1 0 0 2h1a1 1 0 1 0 0-2zm6 0h-2a1 1 0 1 0 0 2h2a1 1 0 1 0 0-2zm3.29.29c-.181.189-.29.439-.29.71 0 .27.109.52.29.71.189.18.45.29.71.29s.52-.11.71-.29c.18-.19.29-.45.29-.71s-.11-.521-.29-.71c-.37-.37-1.05-.37-1.42 0z" fill="#afb6bb"/><g fill="#7383bf"><path d="M10.651 36.4c-2.191 1.14-2.928 3.32-3.196 5.582l-1.241-1.04c-.981-.822-2.404.585-1.414 1.414l2.806 2.351c.661.555 1.676.211 1.707-.707.073-2.167.177-4.743 2.348-5.873 1.144-.595.133-2.321-1.01-1.727z"/><path d="M25.814 40.513c-.423-.579-.859-1.063-1.632-1.121-1.457-.11-3.958 1.975-4.992.132-.262-.468-.91-.64-1.368-.359-1.416.869-3.267 2.119-4.756.5-.875-.951-2.286.467-1.414 1.414 1.871 2.033 4.284 1.41 6.407.259.448.481.984.81 1.697 1.067.909.328 4.087-1.22 4.333-.883.75 1.031 2.487.035 1.725-1.009z"/></g></svg>