<svg xmlns="http://www.w3.org/2000/svg" viewBox="0 0 59 59"><path d="M32.499 6a1 1 0 0 1-.799-1.599l3-4A.999.999 0 1 1 36.299 1.6l-3 4a.995.995 0 0 1-.8.4z" fill="#424a60"/><path d="M46.5 5h-34c-1.1 0-2 .9-2 2v50c0 1.1.9 2 2 2h34c1.1 0 2-.9 2-2V7c0-1.1-.9-2-2-2zm-17 9a3 3 0 1 1 0-6 3 3 0 0 1 0 6z" fill="#e7eced"/><path d="M10.5 41v16c0 1.1.9 2 2 2h34c1.1 0 2-.9 2-2V41h-38z" fill="#556080"/><path d="M20.5 51h18a1 1 0 1 0 0-2h-18a1 1 0 1 0 0 2zm4-4h10a1 1 0 1 0 0-2h-10a1 1 0 1 0 0 2zm-3 6h-1a1 1 0 1 0 0 2h1a1 1 0 1 0 0-2zm6 0h-2a1 1 0 1 0 0 2h2a1 1 0 1 0 0-2zm5 0h-1a1 1 0 1 0 0 2h1a1 1 0 1 0 0-2zm6 0h-2a1 1 0 1 0 0 2h2a1 1 0 1 0 0-2z" fill="#fff"/><path d="M38.495 41a3.278 3.278 0 0 0-1.809-2.862l-3.767-1.924a.769.769 0 0 1-.419-.685v-1.153c1.933-.833 3.044-2.451 3.585-4.475A1.998 1.998 0 0 0 37.5 28v-1c0-.766-.441-1.427-1.078-1.763-.441-3.761-2.927-5.283-6.922-5.283-.189 0-.375.007-.557.022-1.358.108-2.732-.147-3.862-.909-.47-.316-.865-.653-1.143-1.006a.2.2 0 0 0-.357.145c.04.35.1.758.188 1.204.33 1.66.133 1.418-.509 2.984a10.33 10.33 0 0 0-.69 2.845A2.004 2.004 0 0 0 21.5 27v1a2 2 0 0 0 1.415 1.902c.541 2.023 1.651 3.642 3.585 4.475v1.145a.77.77 0 0 1-.429.69l-3.861 1.901a3.281 3.281 0 0 0-1.71 2.88V41h17.995z" fill="#3083c9"/><path d="M29.501 12a1 1 0 0 1-.896-.553l-5-10a1 1 0 0 1 1.789-.895l5 10A1 1 0 0 1 29.501 12z" fill="#424a60"/></svg>