<svg xmlns="http://www.w3.org/2000/svg" viewBox="0 0 59 59"><path fill="none" stroke="#424a60" stroke-width="2" stroke-linecap="round" stroke-miterlimit="10" d="M32.5 5l3-4"/><path d="M46.5 5h-34c-1.1 0-2 .9-2 2v50c0 1.1.9 2 2 2h34c1.1 0 2-.9 2-2V7c0-1.1-.9-2-2-2zm-17 9a3 3 0 1 1 0-6 3 3 0 0 1 0 6z" fill="#e7eced"/><path fill="none" stroke="#424a60" stroke-width="2" stroke-linecap="round" stroke-miterlimit="10" d="M24.5 1l5 10"/><path fill="#efce4a" d="M20.5 18h18v18h-18z"/><path d="M39.5 43h-20a1 1 0 1 1 0-2h20a1 1 0 1 1 0 2zm0 5h-20a1 1 0 1 1 0-2h20a1 1 0 1 1 0 2zm0 5h-20a1 1 0 1 1 0-2h20a1 1 0 1 1 0 2z" fill="#424a60"/><g fill="#dc691d"><circle cx="29.5" cy="26" r="4"/><path d="M29.5 30a5 5 0 0 0-5 5v1h10v-1a5 5 0 0 0-5-5z"/></g></svg>