<svg xmlns="http://www.w3.org/2000/svg" viewBox="0 0 58 58"><path d="M41 0c-9.374 0-17 7.626-17 17 0 3.195.902 6.175 2.441 8.731L.586 51.586a2 2 0 1 0 2.828 2.828L7 50.828l6.586 6.586c.391.391.902.586 1.414.586s1.023-.195 1.414-.586a2 2 0 0 0 0-2.828L9.828 48 12 45.828l4.586 4.586c.391.391.902.586 1.414.586s1.023-.195 1.414-.586a2 2 0 0 0 0-2.828L14.828 43 17 40.828l6.586 6.586c.391.391.902.586 1.414.586s1.023-.195 1.414-.586a2 2 0 0 0 0-2.828L19.828 38l9.075-9.075C31.988 32.054 36.269 34 41 34c9.374 0 17-7.626 17-17S50.374 0 41 0zm0 30c-7.168 0-13-5.832-13-13S33.832 4 41 4s13 5.832 13 13-5.832 13-13 13z" fill="#d8a852"/></svg>