<svg xmlns="http://www.w3.org/2000/svg" viewBox="0 0 56 56"><path fill="#4b6daa" d="M1.5 20h14v36h-14z"/><circle cx="8.5" cy="47" r="4" fill="#d8a852"/><path d="M53.5 26a4 4 0 0 0-4-4H33.898l.988-4.619c.754-3.524.552-7.819.104-10.836C34.542 3.528 31.84 0 29.013 0h-.239C26.364 0 25.5 2.659 25.5 6c0 16.25-8 16-8 16h-2v32h29a4 4 0 0 0 0-8h3a4 4 0 0 0 0-8h3a4 4 0 0 0 4-4c0-2.493-1.613-3.442-4-3.796-1.163-.173-3.276-.204-4-.204h3a4 4 0 0 0 4-4z" fill="#fbce9d"/><path d="M52.12 29H39.5a1 1 0 1 0 0 2h13.456c-.657-.403-1.488-.653-2.456-.796-1.163-.173-3.276-.204-4-.204h3a3.963 3.963 0 0 0 2.62-1zm1 8H39.5a1 1 0 1 0 0 2h10.621a3.966 3.966 0 0 0-2.621-1h3a3.963 3.963 0 0 0 2.62-1zm-3 8H37.5a1 1 0 1 0 0 2h9.621a3.966 3.966 0 0 0-2.621-1h3a3.963 3.963 0 0 0 2.62-1z" fill="#f7b563"/></svg>