<svg xmlns="http://www.w3.org/2000/svg" viewBox="0 0 58 58"><path fill="#edeada" d="M0 0h58v58H0z"/><path fill="#ebba16" d="M13.929 10l1.214 2.46 2.715.395-1.964 1.915.463 2.704-2.428-1.277-2.428 1.277.464-2.704L10 12.855l2.715-.395zm0 15.083l1.214 2.46 2.715.395-1.964 1.915.463 2.704-2.428-1.277-2.428 1.277.464-2.704L10 27.938l2.715-.395zm0 15.443l1.214 2.461 2.715.394-1.964 1.915.463 2.704-2.428-1.277L11.501 48l.464-2.704L10 43.381l2.715-.394z"/><path d="M46 16H22.429a1 1 0 1 1 0-2H46a1 1 0 1 1 0 2zm0 15H22.429a1 1 0 1 1 0-2H46a1 1 0 1 1 0 2zm0 15H22.429a1 1 0 1 1 0-2H46a1 1 0 1 1 0 2z" fill="#7383bf"/></svg>