<svg xmlns="http://www.w3.org/2000/svg" viewBox="0 0 52 52"><path d="M40.771 52H11.229A6.23 6.23 0 0 1 5 45.771V26.229A6.23 6.23 0 0 1 11.229 20h29.542A6.23 6.23 0 0 1 47 26.229v19.542A6.23 6.23 0 0 1 40.771 52z" fill="#c7cac7"/><path d="M40.771 20H26v32h14.771A6.23 6.23 0 0 0 47 45.771V26.229A6.23 6.23 0 0 0 40.771 20z" fill="#e7eced"/><path d="M26 40c-1.65 0-3-1.35-3-3v-6c0-1.65 1.35-3 3-3s3 1.35 3 3v6c0 1.65-1.35 3-3 3z" fill="#4c4c4f"/><path d="M11.229 20H15v-6.5C15 8.262 19.935 4 26 4s11 4.262 11 9.5V20h3.771c.077 0 .152.009.229.011V13.5C41 6.075 34.25 0 26 0S11 6.075 11 13.5v6.511c.077-.002.152-.011.229-.011z" fill="#546a79"/></svg>