<svg xmlns="http://www.w3.org/2000/svg" viewBox="0 0 60 60"><path d="M35 24H25v-8a5 5 0 0 1 5-5h0a5 5 0 0 1 5 5v8z" fill="none" stroke="#949493" stroke-width="2" stroke-linecap="round" stroke-miterlimit="10"/><path d="M30 53C15.641 53 4 41.359 4 27S15.641 1 30 1s26 11.641 26 26a25.916 25.916 0 0 1-7.528 18.297M30 53l-6 6m6-6l-6-6" fill="none" stroke="#38454f" stroke-width="2" stroke-linecap="round" stroke-linejoin="round" stroke-miterlimit="10"/><path fill="#eb7937" d="M20 22h20v17H20z"/><path d="M33 29a3 3 0 1 0-6 0 2.99 2.99 0 0 0 2.035 2.827c-.011.058-.035.112-.035.173v3a1 1 0 1 0 2 0v-3c0-.061-.024-.115-.035-.173A2.99 2.99 0 0 0 33 29z" fill="#fff"/></svg>