<svg xmlns="http://www.w3.org/2000/svg" viewBox="0 0 56.598 56.598"><path fill="#424a60" d="M.092 52.355l40.341-40.341 4.243 4.242L4.334 56.598z"/><path d="M40.506 9a1 1 0 0 1-1-1V1a1 1 0 1 1 2 0v7a1 1 0 0 1-1 1zm0 23a1 1 0 0 1-1-1v-7a1 1 0 1 1 2 0v7a1 1 0 0 1-1 1zm15-15h-7a1 1 0 1 1 0-2h7a1 1 0 1 1 0 2zm-23 0h-7a1 1 0 1 1 0-2h7a1 1 0 1 1 0 2zm14-6a.999.999 0 0 1-.707-1.707l4.95-4.95a.999.999 0 1 1 1.414 1.414l-4.95 4.95a.997.997 0 0 1-.707.293zm4.95 16.95a.997.997 0 0 1-.707-.293l-4.95-4.95a.999.999 0 1 1 1.414-1.414l4.95 4.95a.999.999 0 0 1-.707 1.707zM34.506 11a.997.997 0 0 1-.707-.293l-4.95-4.95a.999.999 0 1 1 1.414-1.414l4.95 4.95A.999.999 0 0 1 34.506 11z" fill="#ebba16"/><path fill="#7383bf" d="M44.719 16.213L34.554 26.378l-4.242-4.242 10.165-10.165z"/></svg>