<svg xmlns="http://www.w3.org/2000/svg" viewBox="0 0 52 52"><path fill="#556080" d="M18 44L0 50V7l18-6z"/><path fill="#465066" d="M52 42l-17 9V10l17-9z"/><path fill="none" stroke="#424a60" stroke-width="2" stroke-linecap="round" stroke-linejoin="round" stroke-miterlimit="10" d="M10 17v3"/><circle cx="10" cy="13" r="4" fill="#d75a4a"/><path d="M31.418 33.497a1 1 0 0 1 .38-1.963c1.119.216 2.165.303 3.202.266V10L18 1v28.228a19.264 19.264 0 0 1 1.918-.141h.022a1.001 1.001 0 0 1 .021 2c-.674.014-1.328.068-1.961.155V44l17 7V33.799c-.14.004-.282.016-.421.016-1.008 0-2.071-.107-3.161-.318zm-2.71-1.757a1 1 0 0 1-1.308.537 16.01 16.01 0 0 1-.748-.334 30.544 30.544 0 0 0-2.877-.59 1 1 0 0 1 .302-1.977 32.59 32.59 0 0 1 3.173.654c.071.019.14.045.205.078.017.009.275.138.716.322.509.215.749.8.537 1.31z" fill="#7383bf"/><path d="M15.736 29.653a1 1 0 1 0 .513 1.934A14.66 14.66 0 0 1 18 31.242v-2.014c-.783.095-1.541.234-2.264.425zm-3.931 1.689a13.87 13.87 0 0 0-3.235 2.82 1 1 0 0 0 1.529 1.289 11.833 11.833 0 0 1 2.768-2.414 1.001 1.001 0 0 0-1.062-1.695zm-4.178 5.934a1 1 0 0 0-1.327.489c-1.026 2.226-1.28 4.023-1.291 4.099a.998.998 0 0 0 .992 1.135c.491 0 .919-.362.99-.861.002-.016.231-1.597 1.125-3.534a1.002 1.002 0 0 0-.489-1.328z" fill="#efce4a"/><path d="M47.068 13.919c-.01-.553-.49-.973-1.018-.982a1 1 0 0 0-.982 1.018c.006.347.01.688.01 1.022 0 1-.03 1.973-.089 2.893a1 1 0 0 0 .934 1.062l.065.002a1 1 0 0 0 .997-.937c.062-.961.093-1.978.093-3.02 0-.347-.003-.7-.01-1.058zm-1.378 6.995a1.008 1.008 0 0 0-1.167.8c-.252 1.348-.595 2.58-1.019 3.663a1 1 0 1 0 1.862.728c.47-1.199.847-2.553 1.123-4.024a1.002 1.002 0 0 0-.799-1.167zm-3.988 7.668a8.414 8.414 0 0 1-2.735 2.257 1 1 0 0 0 .91 1.782 10.419 10.419 0 0 0 3.384-2.786 1 1 0 0 0-1.559-1.253zm-6.19 3.197c-.17.013-.341.015-.512.021v1.999c.222-.007.443-.009.667-.026a1 1 0 0 0 .919-1.074.995.995 0 0 0-1.074-.92z" fill="#af903a"/><path d="M28.17 30.432a12.399 12.399 0 0 1-.716-.322.996.996 0 0 0-.205-.078 32.59 32.59 0 0 0-3.173-.654.999.999 0 1 0-.302 1.977c.926.142 1.893.34 2.877.59.134.064.39.185.748.334a.999.999 0 0 0 1.308-.537 1 1 0 0 0-.537-1.31zm3.629 1.102a1 1 0 0 0-.38 1.963c1.089.211 2.153.318 3.16.318.139 0 .281-.012.421-.016V31.8a14.05 14.05 0 0 1-3.201-.266zM20.94 30.065a1 1 0 0 0-1-.979h-.022c-.655.014-1.294.065-1.918.141v2.014c.633-.087 1.288-.14 1.961-.155a.999.999 0 0 0 .979-1.021z" fill="#f9ee2b"/><path fill="none" stroke="#424a60" stroke-width="2" stroke-linecap="round" stroke-linejoin="round" stroke-miterlimit="10" d="M8 23l4 4m-4 0l4-4"/></svg>