<svg xmlns="http://www.w3.org/2000/svg" viewBox="0 0 59.51 59.51"><path fill="#fff" d="M53.057 24.76h-46l-3.655 29h52.769z"/><path d="M53.057 24.76l3.114 29H3.402l3.655-29h46m2.695-3H4.411l-.331 2.625-3.655 29L0 56.76h59.51l-.357-3.32-3.114-29-.287-2.68z" fill="#556080"/><path d="M13.684 49.76c-.257 0-.513-.016-.769-.047a4.754 4.754 0 0 1-.653-.124 1 1 0 0 1 .5-1.936c.132.033.264.059.396.075.403.05.811.037 1.215-.015a1 1 0 1 1 .25 1.984 7.248 7.248 0 0 1-.939.063zm4.65-1.158a1 1 0 0 1-.361-1.933 27.241 27.241 0 0 0 1.774-.759 1 1 0 1 1 .85 1.81 29.54 29.54 0 0 1-1.903.813.951.951 0 0 1-.36.069zM9.987 46.87a1 1 0 0 1-.994-.898 5.864 5.864 0 0 1-.019-.939c.023-.469.099-.942.225-1.406a.996.996 0 0 1 1.226-.704.998.998 0 0 1 .704 1.226 4.593 4.593 0 0 0-.144 1.62c.056.55-.345 1.04-.894 1.097-.036.002-.07.004-.104.004zm13.679-.999a1 1 0 0 1-.546-1.839c.535-.347 1.066-.72 1.58-1.107a1.004 1.004 0 0 1 1.401.196 1.002 1.002 0 0 1-.196 1.401c-.552.415-1.122.815-1.695 1.188a.999.999 0 0 1-.544.161zm4.759-3.65a1 1 0 0 1-.59-1.808c.209-.151.422-.3.641-.441.377-.245.781-.477 1.2-.688a1 1 0 0 1 .899 1.787 10.797 10.797 0 0 0-1.562.959.999.999 0 0 1-.588.191zm-15.956-.473a1 1 0 0 1-.478-1.878 4.476 4.476 0 0 1 1.644-.52c.29-.033.593-.032.891.008a.999.999 0 0 1 .86 1.122.994.994 0 0 1-1.122.86 1.622 1.622 0 0 0-.406-.002 2.467 2.467 0 0 0-.913.289 1 1 0 0 1-.476.121zm21.434-1.852a1 1 0 0 1-.208-1.978 23.99 23.99 0 0 1 2.058-.342.987.987 0 0 1 1.115.869.999.999 0 0 1-.869 1.115c-.665.083-1.3.188-1.886.313a.951.951 0 0 1-.21.023zm5.96-.617a1 1 0 0 1-.04-1.999l1.993-.082c.55-.05 1.02.401 1.045.954a1 1 0 0 1-.954 1.044l-2.002.082-.042.001zm5.979-.443a1 1 0 0 1-.202-1.98c.578-.119 1.006-.286 1.347-.525.437-.341 1.102-.285 1.438.149.339.437.296 1.039-.14 1.378-.055.042-.11.083-.169.122-.544.384-1.229.661-2.072.835a.997.997 0 0 1-.202.021zm4.069-4.03a1 1 0 0 1-.955-1.296c.053-.171.086-.341.097-.506l.004-.116c0-.229-.044-.462-.13-.694a.999.999 0 1 1 1.875-.695 3.985 3.985 0 0 1 .247 1.64 4.195 4.195 0 0 1-.183.964 1 1 0 0 1-.955.703zm-5.06-4.107a.998.998 0 0 1-.961-.729.998.998 0 0 1 .69-1.233 5.918 5.918 0 0 1 2.386-.18 1 1 0 0 1 .857 1.125.993.993 0 0 1-1.125.857 3.95 3.95 0 0 0-1.575.121.947.947 0 0 1-.272.039z" fill="#ebba16"/><path d="M40.844 11.931C40.32 7.932 38.23 2.75 30.022 2.75c-8.207 0-10.298 5.182-10.822 9.181-.287 2.192-.126 4.419.33 6.582 2.509 11.893 8.71 19.022 10.177 20.577a.432.432 0 0 0 .63 0c1.467-1.555 7.668-8.684 10.177-20.577.457-2.163.618-4.39.33-6.582zm-10.822 7.741a6.346 6.346 0 1 1 0-12.691 6.346 6.346 0 0 1 0 12.691z" fill="#dd352e"/><path d="M30.023 5.981c-4.051 0-7.346 3.295-7.346 7.345 0 4.051 3.295 7.346 7.346 7.346s7.346-3.295 7.346-7.346c-.001-4.05-3.296-7.345-7.346-7.345zm0 12.691c-2.947 0-5.346-2.398-5.346-5.346s2.398-5.345 5.346-5.345 5.346 2.397 5.346 5.345-2.399 5.346-5.346 5.346z" fill="#b02721"/></svg>