<svg xmlns="http://www.w3.org/2000/svg" viewBox="0 0 55 55"><path d="M51 52c-2.2 0-4-1.8-4-4V7c0-2.2 1.8-4 4-4s4 1.8 4 4v41c0 2.2-1.8 4-4 4z" fill="#eb7937"/><path fill="#ebba16" d="M47 45L6 32v-9l41-13z"/><path d="M27.263 46c-.416 0-.829-.065-1.227-.194l-14.27-4.623a3.962 3.962 0 0 1-2.326-1.987 3.995 3.995 0 0 1 4.792-5.624l14.271 4.623a3.97 3.97 0 0 1 2.326 1.988c.486.953.573 2.036.245 3.05A3.993 3.993 0 0 1 27.263 46zM13.007 35.378c-.86 0-1.646.569-1.91 1.384a1.98 1.98 0 0 0 .125 1.523 1.98 1.98 0 0 0 1.161.995l14.271 4.623c1.025.33 2.191-.276 2.519-1.287a1.98 1.98 0 0 0-.125-1.523 1.982 1.982 0 0 0-1.161-.995l-14.271-4.623a1.979 1.979 0 0 0-.609-.097z" fill="#c7cac7"/><path d="M3 36c-1.65 0-3-1.35-3-3V22c0-1.65 1.35-3 3-3s3 1.35 3 3v11c0 1.65-1.35 3-3 3z" fill="#424a60"/></svg>