<svg xmlns="http://www.w3.org/2000/svg" viewBox="0 0 59 59"><path fill="#556080" d="M38 43.5L5 33.1v-7.2l33-10.4z"/><path d="M21.276 43.384L9.86 39.685a2.408 2.408 0 0 1-1.544-3.023h0a2.408 2.408 0 0 1 3.023-1.544l11.416 3.698a2.408 2.408 0 0 1 1.544 3.023h0a2.408 2.408 0 0 1-3.023 1.545z" fill="none" stroke="#afb6bb" stroke-width="2" stroke-linecap="round" stroke-miterlimit="10"/><path d="M2.5 36.5A2.507 2.507 0 0 1 0 34v-9c0-1.375 1.125-2.5 2.5-2.5S5 23.625 5 25v9c0 1.375-1.125 2.5-2.5 2.5zm38.5 12c-1.65 0-3-1.35-3-3v-32c0-1.65 1.35-3 3-3s3 1.35 3 3v32c0 1.65-1.35 3-3 3z" fill="#424a60"/><path d="M58 30.5h-1a1 1 0 1 1 0-2h1a1 1 0 1 1 0 2zm-4 0h-1a1 1 0 1 1 0-2h1a1 1 0 1 1 0 2zm-4 0h-1a1 1 0 1 1 0-2h1a1 1 0 1 1 0 2zm-1-11.636a.999.999 0 0 1-.707-1.707L49 16.45a.999.999 0 1 1 1.414 1.414l-.707.707a.993.993 0 0 1-.707.293zm2.828-2.828a.999.999 0 0 1-.707-1.707l.707-.707a.999.999 0 1 1 1.414 1.414l-.707.707a.997.997 0 0 1-.707.293zm2.829-2.829a.999.999 0 0 1-.707-1.707l.707-.707a.999.999 0 1 1 1.414 1.414l-.707.707a.997.997 0 0 1-.707.293zM49 24.864a.999.999 0 0 1-.316-1.949l.948-.316a1 1 0 1 1 .633 1.897l-.948.316a.98.98 0 0 1-.317.052zm3.795-1.264a.999.999 0 0 1-.316-1.949l.948-.316a.999.999 0 1 1 .633 1.897l-.948.316a1.007 1.007 0 0 1-.317.052zm3.795-1.266a1 1 0 0 1-.315-1.95l.948-.315a1.001 1.001 0 0 1 .631 1.899l-.948.315a1.028 1.028 0 0 1-.316.051zM55.364 48.5a.997.997 0 0 1-.707-.293l-.707-.707a.999.999 0 1 1 1.414-1.414l.707.707a.999.999 0 0 1-.707 1.707zm-2.829-2.829a.997.997 0 0 1-.707-.293l-.707-.707a.999.999 0 1 1 1.414-1.414l.707.707a.999.999 0 0 1-.707 1.707zm-2.828-2.828A.997.997 0 0 1 49 42.55l-.707-.707a.999.999 0 1 1 1.414-1.414l.707.707a.999.999 0 0 1-.707 1.707zm7.831-3.862c-.104 0-.211-.017-.315-.051l-.948-.315a1.002 1.002 0 0 1 .631-1.899l.948.315a1.002 1.002 0 0 1-.316 1.95zm-3.795-1.264a.996.996 0 0 1-.316-.052l-.948-.316a1 1 0 1 1 .633-1.897l.948.316a1 1 0 0 1-.317 1.949zm-3.795-1.265a.996.996 0 0 1-.316-.052l-.948-.316a1 1 0 1 1 .633-1.897l.948.316a1 1 0 0 1-.317 1.949z" fill="#c7cac7"/></svg>