<svg xmlns="http://www.w3.org/2000/svg" viewBox="0 0 57 57"><path d="M43.5 28v6c0 8.271-6.729 15-15 15s-15-6.729-15-15v-6" fill="none" stroke="#556080" stroke-width="2" stroke-linecap="round" stroke-miterlimit="10"/><path d="M28.5 44c-5.5 0-10-4.5-10-10V10c0-5.5 4.5-10 10-10s10 4.5 10 10v24c0 5.5-4.5 10-10 10z" fill="#4e3787"/><path fill="none" stroke="#556080" stroke-width="2" stroke-linecap="round" stroke-miterlimit="10" d="M28.5 49v7m6 0h-12"/><g fill="#ddb7de"><circle cx="28.5" cy="3" r="1"/><circle cx="25.5" cy="6" r="1"/><circle cx="19.5" cy="12" r="1"/><circle cx="25.5" cy="12" r="1"/><circle cx="22.5" cy="9" r="1"/><circle cx="28.5" cy="9" r="1"/><circle cx="22.5" cy="15" r="1"/><circle cx="28.5" cy="15" r="1"/><circle cx="31.5" cy="6" r="1"/><circle cx="31.5" cy="12" r="1"/><circle cx="34.5" cy="9" r="1"/><circle cx="34.5" cy="15" r="1"/><circle cx="19.5" cy="18" r="1"/><circle cx="25.5" cy="18" r="1"/><circle cx="19.5" cy="24" r="1"/><circle cx="25.5" cy="24" r="1"/><circle cx="22.5" cy="21" r="1"/><circle cx="28.5" cy="21" r="1"/><circle cx="22.5" cy="27" r="1"/><circle cx="28.5" cy="27" r="1"/><circle cx="31.5" cy="18" r="1"/><circle cx="31.5" cy="24" r="1"/><circle cx="34.5" cy="21" r="1"/><circle cx="34.5" cy="27" r="1"/><circle cx="19.5" cy="30" r="1"/><circle cx="25.5" cy="30" r="1"/><circle cx="37.5" cy="12" r="1"/><circle cx="37.5" cy="18" r="1"/><circle cx="37.5" cy="24" r="1"/><circle cx="37.5" cy="30" r="1"/><circle cx="25.5" cy="36" r="1"/><circle cx="22.5" cy="33" r="1"/><circle cx="28.5" cy="33" r="1"/><circle cx="22.5" cy="39" r="1"/><circle cx="28.5" cy="39" r="1"/><circle cx="31.5" cy="30" r="1"/><circle cx="31.5" cy="36" r="1"/><circle cx="34.5" cy="33" r="1"/><circle cx="34.5" cy="39" r="1"/><circle cx="25.5" cy="42" r="1"/><circle cx="31.5" cy="42" r="1"/></g></svg>