<svg xmlns="http://www.w3.org/2000/svg" viewBox="0 0 57 57"><path d="M43.5 28v6c0 8.271-6.729 15-15 15s-15-6.729-15-15v-6" fill="none" stroke="#556080" stroke-width="2" stroke-linecap="round" stroke-miterlimit="10"/><path d="M28.5 44c-5.5 0-10-4.5-10-10V10c0-5.5 4.5-10 10-10s10 4.5 10 10v24c0 5.5-4.5 10-10 10z" fill="#c7cac7"/><path fill="none" stroke="#556080" stroke-width="2" stroke-linecap="round" stroke-miterlimit="10" d="M28.5 49v7m6 0h-12"/><path d="M38.5 34V10c0-5.5-4.5-10-10-10v44c5.5 0 10-4.5 10-10z" fill="#afb6bb"/></svg>