<svg xmlns="http://www.w3.org/2000/svg" viewBox="0 0 52 52"><path d="M40.824 52H11.176C5.003 52 0 46.997 0 40.824V11.176C0 5.003 5.003 0 11.176 0h29.649C46.997 0 52 5.003 52 11.176v29.649C52 46.997 46.997 52 40.824 52z" fill="#ea6248"/><path d="M42.66 8.106a1 1 0 0 0-.789-.24l-22 2.856a1 1 0 0 0-.871.992v24.023c-1.371-1.328-3.326-2.165-5.5-2.165-4.136 0-7.5 3.013-7.5 6.715S9.364 47 13.5 47s7.5-3.012 7.5-6.714V19.878l20-2.598v12.009c-1.357-1.317-3.285-2.146-5.429-2.146-4.096 0-7.428 3.013-7.428 6.715s3.333 6.714 7.428 6.714c4.096 0 7.429-3.012 7.429-6.714V8.857a1 1 0 0 0-.34-.751z" fill="#efce4a"/></svg>