<svg xmlns="http://www.w3.org/2000/svg" viewBox="0 0 58 58"><path fill="#ef6129" d="M8 6h42v46H8z"/><path d="M50 10h4v38h-4zM4 10h4v38H4z" fill="#ebba16"/><path d="M54 14h4v30h-4zM0 14h4v30H0z" fill="#efce4a"/><path d="M43.649 12.24a1 1 0 0 0-.805-.228l-19 3A1 1 0 0 0 23 16v19.68A6.765 6.765 0 0 0 18.5 34c-3.584 0-6.5 2.691-6.5 6s2.916 6 6.5 6c3.533 0 6.411-2.617 6.492-5.861.001-.013.008-.024.008-.037V22.854l17-2.684v9.511C40.831 28.642 39.246 28 37.5 28c-3.584 0-6.5 2.691-6.5 6s2.916 6 6.5 6 6.5-2.691 6.5-6V13a.999.999 0 0 0-.351-.76z" fill="#fff"/></svg>