<svg xmlns="http://www.w3.org/2000/svg" viewBox="0 0 57 57"><path d="M44 28v6c0 8.271-6.729 15-15 15s-15-6.729-15-15v-6m15 21v7m6 0H23" fill="none" stroke="#556080" stroke-width="2" stroke-linecap="round" stroke-miterlimit="10"/><path d="M29 44c-5.5 0-10-4.5-10-10V10c0-5.5 4.5-10 10-10s10 4.5 10 10v24c0 5.5-4.5 10-10 10z" fill="#c7cac7"/><path d="M39 34V10c0-5.5-4.5-10-10-10v44c5.5 0 10-4.5 10-10z" fill="#afb6bb"/><path fill="none" stroke="#d75a4a" stroke-width="2" stroke-linecap="round" stroke-miterlimit="10" d="M6 49L51 4"/></svg>