<svg xmlns="http://www.w3.org/2000/svg" viewBox="0 0 58 58"><circle cx="29" cy="29" r="29" fill="#d75a4a"/><path d="M22.427 20h-8.323A2.104 2.104 0 0 0 12 22.104v12.793c0 1.161.942 2.103 2.104 2.103h8.323c.375 0 .743.1 1.067.29L36.83 49.706c1.402.825 3.17-.186 3.17-1.813V9.107c0-1.627-1.768-2.638-3.17-1.813L23.494 19.71c-.324.19-.692.29-1.067.29z" fill="#fff"/><path d="M50.866 9.962c-.436-.5-.884-.992-1.36-1.468s-.968-.924-1.468-1.36L7.134 48.038c.436.5.884.992 1.36 1.468s.968.924 1.468 1.36L50.866 9.962z" fill="#424a60"/></svg>