<svg xmlns="http://www.w3.org/2000/svg" viewBox="0 0 58 58"><path d="M6.005 58c-2.75 0-5-2.25-5-5V30h10v23c0 2.75-2.25 5-5 5zm5-58h45.99v11h-45.99z" fill="#cec9ae"/><path d="M11.005 35v18c0 2.75-2.25 5-5 5h46a4.99 4.99 0 0 0 4.99-4.99V13h-45.99v22z" fill="#edeada"/><path fill="#f4f3ed" d="M11.005 11h45.99v2h-45.99z"/><path fill="#61b872" d="M17.005 16h12v12h-12z"/><path d="M51.005 17h-16a1 1 0 1 1 0-2h16a1 1 0 1 1 0 2zm0 6h-16a1 1 0 1 1 0-2h16a1 1 0 1 1 0 2zm0 6h-16a1 1 0 1 1 0-2h16a1 1 0 1 1 0 2zm0 6h-33a1 1 0 1 1 0-2h33a1 1 0 1 1 0 2zm-18 6h-15a1 1 0 1 1 0-2h15a1 1 0 1 1 0 2zm0 6h-15a1 1 0 1 1 0-2h15a1 1 0 1 1 0 2zm0 6h-15a1 1 0 1 1 0-2h15a1 1 0 1 1 0 2z" fill="#cec9ae"/><path fill="#f7b563" d="M39.005 40h12v12h-12z"/><path fill="#8e8872" d="M23.005 4h22v4h-22z"/></svg>