<svg xmlns="http://www.w3.org/2000/svg" viewBox="0 0 56 56"><path d="M51.503 56H17.5V.003h34.003A2.997 2.997 0 0 1 54.5 3v50.003A2.997 2.997 0 0 1 51.503 56z" fill="#6b4842"/><path fill="#bfa380" d="M43.5.003h5V56h-5z"/><path fill="#be6e41" d="M6.5 0h11v56h-11z"/><circle cx="10.5" cy="45" r="2" fill="#6b4842"/><circle cx="10.5" cy="39" r="2" fill="#6b4842"/><circle cx="10.5" cy="33" r="2" fill="#6b4842"/><circle cx="10.5" cy="27" r="2" fill="#6b4842"/><path d="M1.5 27c0 1.13.391 2.162 1.025 3a5.013 5.013 0 0 1 1.495-1.315A2.98 2.98 0 0 1 3.5 27c0-1.654 1.346-3 3-3s3 1.346 3 3a1 1 0 1 0 2 0c0-2.757-2.243-5-5-5s-5 2.243-5 5z" fill="#d8a852"/><path d="M4.02 31.315A4.936 4.936 0 0 0 6.5 32v-2c-1.03 0-1.939.522-2.48 1.315zm0 6A4.936 4.936 0 0 0 6.5 38v-2c-1.03 0-1.939.522-2.48 1.315z" fill="#a37f46"/><path d="M4.02 28.685A5.013 5.013 0 0 0 2.525 30c-.634.838-1.025 1.87-1.025 3s.391 2.162 1.025 3a5.013 5.013 0 0 1 1.495-1.315c-.328-.481-.52-1.061-.52-1.685s.192-1.204.52-1.685A2.999 2.999 0 0 1 9.5 33a1 1 0 1 0 2 0c0-2.757-2.243-5-5-5-.907 0-1.746.261-2.48.685z" fill="#d8a852"/><path d="M4.02 43.315A4.936 4.936 0 0 0 6.5 44v-2c-1.03 0-1.939.522-2.48 1.315z" fill="#a37f46"/><path d="M4.02 34.685A5.013 5.013 0 0 0 2.525 36c-.634.838-1.025 1.87-1.025 3s.391 2.162 1.025 3a5.013 5.013 0 0 1 1.495-1.315c-.328-.481-.52-1.061-.52-1.685s.192-1.204.52-1.685A2.999 2.999 0 0 1 9.5 39a1 1 0 1 0 2 0c0-2.757-2.243-5-5-5-.907 0-1.746.261-2.48.685z" fill="#d8a852"/><circle cx="10.5" cy="21" r="2" fill="#6b4842"/><circle cx="10.5" cy="15" r="2" fill="#6b4842"/><circle cx="10.5" cy="9" r="2" fill="#6b4842"/><path d="M1.5 9c0 1.13.391 2.162 1.025 3a5.013 5.013 0 0 1 1.495-1.315A2.98 2.98 0 0 1 3.5 9c0-1.654 1.346-3 3-3s3 1.346 3 3a1 1 0 1 0 2 0c0-2.757-2.243-5-5-5s-5 2.243-5 5z" fill="#d8a852"/><path d="M4.02 13.315A4.936 4.936 0 0 0 6.5 14v-2c-1.03 0-1.939.522-2.48 1.315zm0 6A4.936 4.936 0 0 0 6.5 20v-2c-1.03 0-1.939.522-2.48 1.315z" fill="#a37f46"/><path d="M4.02 10.685A5.013 5.013 0 0 0 2.525 12c-.634.838-1.025 1.87-1.025 3s.391 2.162 1.025 3a5.013 5.013 0 0 1 1.495-1.315c-.328-.481-.52-1.061-.52-1.685s.192-1.204.52-1.685A2.999 2.999 0 0 1 9.5 15a1 1 0 1 0 2 0c0-2.757-2.243-5-5-5-.907 0-1.746.261-2.48.685z" fill="#d8a852"/><path d="M4.02 25.315A4.936 4.936 0 0 0 6.5 26v-2c-1.03 0-1.939.522-2.48 1.315z" fill="#a37f46"/><path d="M4.02 16.685A5.013 5.013 0 0 0 2.525 18c-.634.838-1.025 1.87-1.025 3s.391 2.162 1.025 3a5.013 5.013 0 0 1 1.495-1.315c-.328-.481-.52-1.061-.52-1.685s.192-1.204.52-1.685A2.999 2.999 0 0 1 9.5 21a1 1 0 1 0 2 0c0-2.757-2.243-5-5-5-.907 0-1.746.261-2.48.685zm0 24A5.013 5.013 0 0 0 2.525 42 4.954 4.954 0 0 0 1.5 45c0 2.757 2.243 5 5 5v-2c-1.654 0-3-1.346-3-3 0-.624.192-1.204.52-1.685A2.999 2.999 0 0 1 9.5 45a1 1 0 1 0 2 0c0-2.757-2.243-5-5-5-.907 0-1.746.261-2.48.685z" fill="#d8a852"/></svg>