<svg xmlns="http://www.w3.org/2000/svg" viewBox="0 0 59 59"><path fill="#303644" d="M24.5 0h9v5h-9z"/><path fill="#424a60" d="M37.5 2h-4v3h-9V2h-19v56h47V2z"/><path fill="#edeada" d="M40.5 5v3h-23V5h-9v50h41V5z"/><path d="M15.5 17h9a1 1 0 1 0 0-2h-9a1 1 0 1 0 0 2zm0 8h5a1 1 0 1 0 0-2h-5a1 1 0 1 0 0 2zm22-2h-7a1 1 0 1 0 0 2h7a1 1 0 1 0 0-2zm-12.71.29a.986.986 0 0 0-.29.71c0 .27.109.52.29.71.189.18.439.29.71.29.27 0 .52-.101.71-.29.18-.19.29-.45.29-.71 0-.261-.11-.521-.29-.71-.38-.37-1.04-.37-1.42 0zm18.42 0c-.37-.37-1.04-.37-1.42 0a.986.986 0 0 0-.29.71c0 .27.109.52.29.71.189.18.439.29.71.29.27 0 .52-.11.71-.29.18-.19.29-.45.29-.71 0-.261-.11-.521-.29-.71zM27.5 31h-7a1 1 0 1 0 0 2h7a1 1 0 1 0 0-2zm-12.71.29c-.181.189-.29.439-.29.71 0 .27.109.52.29.71.189.18.439.29.71.29.27 0 .52-.11.71-.29.18-.19.29-.45.29-.71 0-.261-.11-.521-.29-.71-.37-.37-1.05-.37-1.42 0z" fill="#cec9ae"/><path d="M18.645 40.166c-2.191 1.141-2.928 3.321-3.196 5.582l-1.241-1.04c-.981-.822-2.404.585-1.414 1.415l2.806 2.351c.662.555 1.676.211 1.707-.707.073-2.167.177-4.743 2.348-5.873 1.144-.596.132-2.322-1.01-1.728zm9.338 5.084c-.52-.93-1.642-1.391-2.688-1.095-1.365.386-2.981 2.042-3.936.106-.571-1.157-2.295-.143-1.727 1.009.514 1.042 1.5 1.798 2.669 1.932.607.069 1.117-.013 1.688-.226.406-.152 1.923-1.332 2.267-.717.629 1.126 2.357.117 1.727-1.009z" fill="#7383bf"/><path fill="none" stroke="#fc3952" stroke-width="2" stroke-linecap="round" stroke-miterlimit="10" d="M52.5 38l-20 20"/><path fill="#7383bf" d="M33.5 2v3h-9V2h-7v6h23V2z"/></svg>