<svg xmlns="http://www.w3.org/2000/svg" viewBox="0 0 58 58"><circle cx="29" cy="29" r="29" fill="#f76363"/><path d="M10 32a2 2 0 0 1-2-2c0-7.72 6.28-14 14-14h14a2 2 0 0 1 0 4H22c-5.514 0-10 4.486-10 10a2 2 0 0 1-2 2z" fill="#fff"/><path d="M26.002 28a2 2 0 0 1-1.179-3.617L33.6 18l-8.776-6.383a1.999 1.999 0 1 1 2.354-3.234L40.4 18l-13.224 9.617a1.986 1.986 0 0 1-1.174.383zM35 42H21a2 2 0 0 1 0-4h14c5.514 0 10-4.486 10-10a2 2 0 0 1 4 0c0 7.72-6.28 14-14 14z" fill="#fff"/><path d="M30.998 50c-.407 0-.819-.124-1.175-.383L16.6 40l13.224-9.617a1.999 1.999 0 1 1 2.354 3.234L23.4 40l8.776 6.383A1.999 1.999 0 0 1 30.998 50z" fill="#fff"/></svg>