<svg xmlns="http://www.w3.org/2000/svg" viewBox="0 0 58 58"><path fill="#edeada" d="M51.5 14l-14-14h-31v58h45z"/><path fill="#cec9ae" d="M37.5 0v14h14zm-4 34h-17a1 1 0 1 0 0 2h17a1 1 0 1 0 0-2zm11-4a1 1 0 0 0-1-1h-7a1 1 0 1 0 0 2h7a1 1 0 0 0 1-1zm-23 1h10a1 1 0 1 0 0-2h-10a1 1 0 1 0 0 2zm-5 0c.27 0 .52-.11.71-.29.18-.19.29-.45.29-.71 0-.261-.11-.521-.29-.71-.37-.37-1.06-.36-1.42 0-.18.189-.29.449-.29.71a1.009 1.009 0 0 0 1 1zm21.29 3.29c-.18.189-.29.439-.29.71 0 .27.1.52.29.71.19.18.45.29.71.29.26 0 .52-.11.71-.29a.99.99 0 0 0 .29-.71c0-.261-.11-.521-.29-.71-.38-.37-1.04-.37-1.42 0zm5 0c-.18.189-.29.439-.29.71 0 .27.1.52.29.71.19.18.45.29.71.29.26 0 .52-.11.71-.3.19-.19.29-.44.29-.7 0-.261-.11-.521-.29-.71-.38-.37-1.04-.37-1.42 0z"/><path d="M22.025 39.166c-2.191 1.141-2.928 3.321-3.196 5.582l-1.241-1.04c-.981-.822-2.404.585-1.414 1.415l2.806 2.351c.662.555 1.676.211 1.707-.707.073-2.167.177-4.743 2.348-5.873 1.144-.596.132-2.322-1.01-1.728zm15.338 5.084c-.423-.58-.859-1.063-1.632-1.121-1.457-.11-3.958 1.975-4.992.132-.262-.468-.91-.64-1.368-.359-1.416.869-3.267 2.119-4.756.5-.875-.951-2.286.467-1.414 1.414 1.871 2.034 4.284 1.411 6.407.259.448.481.984.81 1.697 1.067.909.328 4.087-1.22 4.333-.883.751 1.03 2.488.034 1.725-1.009z" fill="#7383bf"/><path d="M26.093 21.092l-2.511-1.283a.514.514 0 0 1-.279-.457v-.769c1.289-.555 2.03-1.634 2.39-2.983.543-.168.943-.671.943-1.268v-.667c0-.511-.294-.951-.718-1.175-.294-2.507-1.951-3.521-4.615-3.521-.126 0-.25.005-.371.015-.905.072-1.821-.099-2.574-.606-.313-.211-.577-.435-.762-.67-.084-.107-.254-.039-.238.097.027.233.066.505.125.803.22 1.107.089.945-.339 1.989a6.892 6.892 0 0 0-.46 1.897 1.332 1.332 0 0 0-.714 1.172v.667c0 .597.4 1.1.943 1.268.36 1.349 1.101 2.428 2.39 2.983v.764a.513.513 0 0 1-.286.46l-2.574 1.268a2.165 2.165 0 0 0-.942 1.059A9.945 9.945 0 0 0 21.302 24c2.157 0 4.15-.69 5.784-1.852a2.17 2.17 0 0 0-.993-1.056z" fill="#cec9ae"/></svg>