<svg xmlns="http://www.w3.org/2000/svg" viewBox="0 0 58 58"><circle cx="29" cy="29" r="29" fill="#25ae88"/><g fill="#fff"><path d="M4 29l22 15V14z"/><path d="M26 45a1 1 0 0 1-.563-.174l-22-15a.997.997 0 0 1 0-1.652l22-15A1.002 1.002 0 0 1 27 14v30a.999.999 0 0 1-1 1zM5.775 29L25 42.107V15.893L5.775 29z"/></g><g fill="#fff"><path d="M26 29l22 15V14z"/><path d="M48 45a1 1 0 0 1-.563-.174l-22-15a.997.997 0 0 1 0-1.652l22-15A1.002 1.002 0 0 1 49 14v30a.999.999 0 0 1-1 1zM27.775 29L47 42.107V15.893L27.775 29z"/></g></svg>