<svg xmlns="http://www.w3.org/2000/svg" viewBox="0 0 52.213 52.213"><circle cx="21" cy="21" r="20" fill="#556080"/><path d="M36.483 33.655a20.104 20.104 0 0 1-2.828 2.828l15.73 15.73 2.828-2.828-15.73-15.73z" fill="#2e253b"/><path d="M3.493 31.85a19.967 19.967 0 0 0 3.072 3.999 20.061 20.061 0 0 0 2.297 1.945L36.794 9.862a20.061 20.061 0 0 0-1.945-2.297 19.967 19.967 0 0 0-3.999-3.072L3.493 31.85z" fill="#7383bf"/><path d="M21 42C9.42 42 0 32.58 0 21S9.42 0 21 0s21 9.42 21 21-9.42 21-21 21zm0-40C10.523 2 2 10.523 2 21s8.523 19 19 19 19-8.523 19-19S31.477 2 21 2z" fill="#2e253b"/></svg>