<svg xmlns="http://www.w3.org/2000/svg" viewBox="0 0 60 60"><path d="M31.045 58.431a1 1 0 0 1-.259-1.966c.252-.067.494-.168.719-.3a1 1 0 0 1 1.007 1.728c-.377.22-.783.389-1.205.503a1 1 0 0 1-.262.035zm-3.033-.39a.994.994 0 0 1-.496-.132 4.993 4.993 0 0 1-1.038-.791.999.999 0 1 1 1.41-1.418c.185.184.394.343.621.473a1 1 0 0 1-.497 1.868zm5.854-2.439a1 1 0 0 1-.966-1.258c.066-.251.1-.511.1-.775 0-.553.448-1.023 1-1.023s1 .424 1 .977v.047c0 .438-.057.872-.168 1.291-.12.446-.524.741-.966.741zM26 54.581a.99.99 0 0 1-1-.988h1l-1-.002c0-.449.054-.874.161-1.284a1 1 0 0 1 1.936.504 3 3 0 0 0-.097.758 1.01 1.01 0 0 1-1 1.012zm6.799-2.87a.998.998 0 0 1-.7-.286 3.004 3.004 0 0 0-.626-.471 1 1 0 0 1 .987-1.74c.379.216.729.479 1.039.783a1 1 0 0 1-.7 1.714zm-4.825-.591a1 1 0 0 1-.508-1.862c.376-.221.78-.393 1.2-.508a.999.999 0 1 1 .532 1.927 2.973 2.973 0 0 0-.719.305.986.986 0 0 1-.505.138zM22 54.569h-1a1 1 0 1 1 0-2h1a1 1 0 1 1 0 2zm-4 0h-1a1 1 0 1 1 0-2h1a1 1 0 1 1 0 2zm-4 0h-1a1 1 0 1 1 0-2h1a1 1 0 1 1 0 2zm-4 0H9a1 1 0 1 1 0-2h1a1 1 0 1 1 0 2zm-4 0H5a1 1 0 1 1 0-2h1a1 1 0 1 1 0 2zm-4 0H1a1 1 0 1 1 0-2h1a1 1 0 1 1 0 2zm57 0h-1a1 1 0 1 1 0-2h1a1 1 0 1 1 0 2zm-4 0h-1a1 1 0 1 1 0-2h1a1 1 0 1 1 0 2zm-4 0h-1a1 1 0 1 1 0-2h1a1 1 0 1 1 0 2zm-4 0h-1a1 1 0 1 1 0-2h1a1 1 0 1 1 0 2zm-4 0h-1a1 1 0 1 1 0-2h1a1 1 0 1 1 0 2zm-4 0h-1a1 1 0 1 1 0-2h1a1 1 0 1 1 0 2zm-9-7a1 1 0 0 1-1-1v-1a1 1 0 1 1 2 0v1a1 1 0 0 1-1 1zm0-4a1 1 0 0 1-1-1v-1a1 1 0 1 1 2 0v1a1 1 0 0 1-1 1z" fill="#c7cac7"/><path d="M4.608 20.569h50.783a3.608 3.608 0 0 1 3.608 3.608V35.96a3.608 3.608 0 0 1-3.608 3.608H4.608A3.608 3.608 0 0 1 1 35.96V24.177a3.608 3.608 0 0 1 3.608-3.608z" fill="#ced8db"/><path d="M4.608 1.569h50.783A3.608 3.608 0 0 1 59 5.177V16.96a3.608 3.608 0 0 1-3.608 3.608H4.608A3.608 3.608 0 0 1 1 16.96V5.177a3.608 3.608 0 0 1 3.608-3.608z" fill="#e7eced"/><circle cx="10.5" cy="11.069" r="3.5" fill="#fff"/><circle cx="50" cy="9.569" r="1" fill="#fff"/><circle cx="46" cy="9.569" r="1" fill="#fff"/><circle cx="52" cy="12.569" r="1" fill="#fff"/><circle cx="48" cy="12.569" r="1" fill="#fff"/><circle cx="42" cy="9.569" r="1" fill="#fff"/><circle cx="44" cy="12.569" r="1" fill="#fff"/><circle cx="38" cy="9.569" r="1" fill="#fff"/><circle cx="40" cy="12.569" r="1" fill="#fff"/><circle cx="34" cy="9.569" r="1" fill="#fff"/><circle cx="36" cy="12.569" r="1" fill="#fff"/><circle cx="10.5" cy="30.069" r="3.5" fill="#fff"/><circle cx="50" cy="28.569" r="1" fill="#fff"/><circle cx="46" cy="28.569" r="1" fill="#fff"/><circle cx="52" cy="31.569" r="1" fill="#fff"/><circle cx="48" cy="31.569" r="1" fill="#fff"/><circle cx="42" cy="28.569" r="1" fill="#fff"/><circle cx="44" cy="31.569" r="1" fill="#fff"/><circle cx="38" cy="28.569" r="1" fill="#fff"/><circle cx="40" cy="31.569" r="1" fill="#fff"/><circle cx="34" cy="28.569" r="1" fill="#fff"/><circle cx="36" cy="31.569" r="1" fill="#fff"/></svg>