<svg xmlns="http://www.w3.org/2000/svg" viewBox="0 0 60 60"><path d="M30.023 56.004c-9.272 0-17.909-4.982-22.54-13.004C.315 30.584 4.584 14.651 17 7.483a25.997 25.997 0 0 1 12.977-3.487c9.272 0 17.909 4.982 22.54 13.004C59.685 29.416 55.416 45.349 43 52.517a25.997 25.997 0 0 1-12.977 3.487zm-.046-50.008A23.985 23.985 0 0 0 18 9.216c-5.552 3.205-9.522 8.381-11.182 14.572A23.846 23.846 0 0 0 9.216 42c4.274 7.404 12.248 12.004 20.808 12.004 4.188 0 8.328-1.113 11.977-3.22 5.552-3.205 9.522-8.381 11.182-14.572A23.846 23.846 0 0 0 50.786 18C46.51 10.596 38.536 5.996 29.977 5.996z" fill="#556080"/><path d="M23.46 1.729a.999.999 0 1 0-1.932.518l1.035 3.863a.998.998 0 0 0 1.225.707 1 1 0 0 0 .707-1.225L23.46 1.729zM37.437 53.89a1 1 0 1 0-1.932.518l1.035 3.863a.998.998 0 0 0 1.225.707 1 1 0 0 0 .707-1.225l-1.035-3.863zM59 29h-4a1 1 0 1 0 0 2h4a1 1 0 1 0 0-2zM5 31a1 1 0 1 0 0-2H1a1 1 0 1 0 0 2h4zm43.385 15.971a.999.999 0 1 0-1.414 1.414l2.828 2.828a.997.997 0 0 0 1.414 0 .999.999 0 0 0 0-1.414l-2.828-2.828zM10.201 8.787a.999.999 0 1 0-1.414 1.414l2.828 2.828a.997.997 0 0 0 1.414 0 .999.999 0 0 0 0-1.414l-2.828-2.828zm37.477 4.535a.997.997 0 0 0 .707-.293l2.828-2.828a.999.999 0 1 0-1.414-1.414l-2.828 2.828a.999.999 0 0 0 .707 1.707zM11.615 46.971l-2.828 2.828a.999.999 0 1 0 1.414 1.414l2.828-2.828a.999.999 0 1 0-1.414-1.414zm4.751-42.585A.998.998 0 0 0 15 4.02a.999.999 0 0 0-.366 1.366l2 3.464a1 1 0 1 0 1.732-1l-2-3.464zm27 46.764A.997.997 0 0 0 42 50.784a.999.999 0 0 0-.366 1.366l2 3.464a1 1 0 1 0 1.732-1l-2-3.464zM30 54a1 1 0 0 0-1 1v4a1 1 0 1 0 2 0v-4a1 1 0 0 0-1-1zm0-54a1 1 0 0 0-1 1v4a1 1 0 1 0 2 0V1a1 1 0 0 0-1-1zM4.386 16.366l3.464 2A.998.998 0 0 0 9.216 18a1 1 0 0 0-.366-1.366l-3.464-2A.998.998 0 0 0 4.02 15a.998.998 0 0 0 .366 1.366zm51.228 27.268l-3.464-2a1 1 0 0 0-1 1.732l3.464 2A.998.998 0 0 0 55.98 45a.998.998 0 0 0-.366-1.366zM1.729 23.46l3.863 1.035a1 1 0 0 0 .518-1.932l-3.863-1.035a1 1 0 0 0-.518 1.932zm56.542 13.08l-3.863-1.035a1.001 1.001 0 0 0-.518 1.932l3.863 1.035a1 1 0 0 0 .518-1.932zm-51.454-.328a1 1 0 0 0-1.225-.707L1.729 36.54a1 1 0 0 0 .518 1.932l3.863-1.035a1 1 0 0 0 .707-1.225zm46.366-12.424a.998.998 0 0 0 1.225.707l3.863-1.035a1 1 0 0 0-.518-1.932l-3.863 1.035a1 1 0 0 0-.707 1.225zM9.216 42a.999.999 0 0 0-1.366-.366l-3.464 2a.998.998 0 0 0 .501 1.866c.17 0 .342-.043.499-.134l3.464-2A1 1 0 0 0 9.216 42zm41.568-24a1 1 0 0 0 1.366.366l3.464-2A.999.999 0 0 0 55.98 15a.999.999 0 0 0-1.366-.366l-3.464 2A1 1 0 0 0 50.784 18zM45 4.02a.999.999 0 0 0-1.366.366l-2 3.464a.999.999 0 1 0 1.732 1l2-3.464A.998.998 0 0 0 45 4.02zM18 50.784a.998.998 0 0 0-1.366.366l-2 3.464a1 1 0 0 0 1.732 1l2-3.464A.999.999 0 0 0 18 50.784zM37.765 1.022a1.004 1.004 0 0 0-1.225.707l-1.035 3.863a1 1 0 0 0 1.932.518l1.035-3.863a1.002 1.002 0 0 0-.707-1.225zM23.788 53.183a1.002 1.002 0 0 0-1.225.707l-1.035 3.863a1 1 0 0 0 1.932.518l1.035-3.863a1 1 0 0 0-.707-1.225zm14.871-28.182c-2.761-4.782-8.876-6.421-13.658-3.659-4.782 2.761-6.421 8.876-3.66 13.658s8.876 6.421 13.658 3.66c4.782-2.762 6.421-8.877 3.66-13.659zM32.5 34.329a4.999 4.999 0 1 1-5-8.658 4.999 4.999 0 0 1 5 8.658z" fill="#556080"/><path d="M55.614 43.634L37.5 33.268a1 1 0 0 0-1 1.732l18.114 10.366A.998.998 0 0 0 55.98 45a.998.998 0 0 0-.366-1.366zm-31.748-10a.998.998 0 0 0-1.366-.366L4.386 43.634l1 1.732L23.5 35a1 1 0 0 0 .366-1.366zM29 5h2v17h-2z" fill="#556080"/></svg>