<svg xmlns="http://www.w3.org/2000/svg" viewBox="0 0 60 60"><g fill="#ed8a19"><path d="M59 16h-2.05a13.919 13.919 0 0 0-3.381-8.154l1.139-1.139a.999.999 0 1 0-1.414-1.414l-1.139 1.139a13.921 13.921 0 0 0-8.154-3.381V1a1 1 0 1 0-2 0v2.051a13.919 13.919 0 0 0-8.154 3.381l-1.139-1.139a.999.999 0 1 0-1.414 1.414l1.139 1.139A13.921 13.921 0 0 0 29.052 16H27a1 1 0 1 0 0 2h2.051a13.919 13.919 0 0 0 3.381 8.154l-1.139 1.139a.999.999 0 1 0 1.414 1.414l1.139-1.139A13.921 13.921 0 0 0 42 30.949V33a1 1 0 1 0 2 0v-2.051a13.919 13.919 0 0 0 8.154-3.381l1.198 1.198a.997.997 0 0 0 1.414 0 .999.999 0 0 0 0-1.414l-1.198-1.198A13.921 13.921 0 0 0 56.949 18H59a1 1 0 1 0 0-2zM43 29c-6.617 0-12-5.383-12-12S36.384 5 43 5s12 5.383 12 12-5.383 12-12 12z"/><path d="M43 13c-2.206 0-4 1.794-4 4s1.794 4 4 4 4-1.794 4-4-1.794-4-4-4zm0 6c-1.103 0-2-.897-2-2s.897-2 2-2 2 .897 2 2-.897 2-2 2z"/></g><path d="M37.407 48.086l-1.595-.708A17.878 17.878 0 0 0 37 41a17.91 17.91 0 0 0-.896-5.579l1.258-.489a1 1 0 1 0-.724-1.863l-1.267.492a18.095 18.095 0 0 0-8.165-8.562l.708-1.593a1 1 0 1 0-1.828-.812l-.709 1.595A17.869 17.869 0 0 0 19 23c-1.948 0-3.82.321-5.579.896l-.489-1.258a1 1 0 1 0-1.864.725l.492 1.267a18.093 18.093 0 0 0-8.561 8.165l-1.593-.708a1 1 0 1 0-.812 1.828l1.595.708A17.877 17.877 0 0 0 1 41c0 1.948.321 3.821.896 5.579l-1.258.489a1 1 0 1 0 .725 1.864l1.267-.492a18.095 18.095 0 0 0 8.165 8.562l-.708 1.593a1 1 0 1 0 1.828.811l.709-1.595A17.846 17.846 0 0 0 19 59c1.948 0 3.82-.321 5.579-.896l.489 1.258a1 1 0 0 0 1.864-.724l-.492-1.267a18.093 18.093 0 0 0 8.561-8.165l1.593.708a1.003 1.003 0 0 0 1.321-.508 1.001 1.001 0 0 0-.508-1.32zM19 25c1.959 0 3.828.371 5.565 1.018l-4.91 11.048A4.039 4.039 0 0 0 19 37c-2.206 0-4 1.794-4 4 0 .159.029.31.047.465l-11.289 4.39A15.937 15.937 0 0 1 3 41c0-8.822 7.178-16 16-16zm-1.856 16.732c-.001-.003 0-.006-.002-.009l-.003-.004A2 2 0 0 1 17 41a2.002 2.002 0 0 1 2.786-1.838c.009.004.015.013.024.017.004.002.008.001.012.002A2 2 0 0 1 21 41c0 1.103-.897 2-2 2a1.998 1.998 0 0 1-1.856-1.268zM4.497 47.713l11.267-4.382A3.987 3.987 0 0 0 19 45c.159 0 .31-.029.465-.047l4.39 11.289A15.937 15.937 0 0 1 19 57c-6.423 0-11.959-3.813-14.503-9.287zm21.217 7.791l-4.382-11.267A3.99 3.99 0 0 0 23 41c0-1.265-.602-2.381-1.521-3.115l4.916-11.06C31.502 29.501 35 34.846 35 41c0 6.423-3.812 11.959-9.286 14.504z" fill="#424a60"/></svg>