<svg xmlns="http://www.w3.org/2000/svg" viewBox="0 0 58 58"><circle cx="29" cy="29" r="29" fill="#424a60"/><path d="M53.148 21.529a.998.998 0 0 0-1.225-.707l-2.269.608a21.557 21.557 0 0 0-1.4-3.393l2.03-1.172a1 1 0 1 0-1-1.732l-2.045 1.181a21.64 21.64 0 0 0-2.219-2.921l1.657-1.657a.999.999 0 1 0-1.414-1.414l-1.653 1.653a21.438 21.438 0 0 0-2.921-2.223l1.176-2.036a1 1 0 1 0-1.732-1l-1.179 2.042a21.775 21.775 0 0 0-3.391-1.393l.613-2.288a1 1 0 0 0-1.932-.518l-.613 2.288A21.684 21.684 0 0 0 30 6.358V4a1 1 0 1 0-2 0v2.352a21.468 21.468 0 0 0-3.641.465l-.605-2.258a1 1 0 0 0-1.932.518l.606 2.263a21.732 21.732 0 0 0-3.383 1.42l-1.18-2.044a1 1 0 1 0-1.731 1l1.172 2.029a21.482 21.482 0 0 0-2.91 2.237l-1.66-1.66a.999.999 0 1 0-1.414 1.414l1.664 1.664a21.785 21.785 0 0 0-2.228 2.913l-2.043-1.179a1 1 0 0 0-1 1.732l2.045 1.181a21.902 21.902 0 0 0-1.403 3.387l-2.281-.612a1 1 0 1 0-.518 1.932l2.281.612a21.626 21.626 0 0 0-.516 4.721 1 1 0 0 0 1 .997h.003a1 1 0 0 0 .997-1.003 19.782 19.782 0 0 1 5.076-13.267l7.57 7.57a8.972 8.972 0 0 0-1.663 3.287 8.938 8.938 0 0 0 .898 6.828A9.039 9.039 0 0 0 29.007 37a9.002 9.002 0 0 0 4.492-1.207 8.934 8.934 0 0 0 4.192-5.464 8.938 8.938 0 0 0-.898-6.828 8.996 8.996 0 0 0-.77-1.111l7.584-7.584a19.66 19.66 0 0 1 2.444 3.35 19.66 19.66 0 0 1 2.62 9.924 1 1 0 0 0 .995 1.005h.005a1 1 0 0 0 1-.995 21.781 21.781 0 0 0-.504-4.725l2.273-.61a1 1 0 0 0 .708-1.226zM28.993 19a9.002 9.002 0 0 0-4.492 1.207c-.395.228-.76.49-1.111.768l-7.579-7.579a19.476 19.476 0 0 1 3.345-2.448c7.573-4.373 16.868-3.118 23.037 2.445l-7.585 7.585A9.03 9.03 0 0 0 28.993 19zm6.767 10.812a6.952 6.952 0 0 1-3.261 4.249 6.994 6.994 0 0 1-3.492.939 7.024 7.024 0 0 1-6.068-3.501c-.935-1.619-1.183-3.505-.699-5.311s1.642-3.314 3.261-4.249A6.994 6.994 0 0 1 28.993 21a7.024 7.024 0 0 1 6.068 3.501 6.951 6.951 0 0 1 .699 5.311z" fill="#fff"/><path d="M26 46.5h-2.207c-.016 0-.029.008-.044.009a13.657 13.657 0 0 0-1.341-5.023c.012-.007.026-.009.038-.016l1.911-1.104a1 1 0 1 0-1-1.732l-1.911 1.104c-.015.009-.024.024-.038.034a13.676 13.676 0 0 0-3.675-3.677c.009-.014.022-.025.03-.039l1.104-1.911a1 1 0 0 0-1.732-1l-1.104 1.911c-.006.011-.006.024-.012.035a13.872 13.872 0 0 0-5.026-1.347c0-.013.007-.023.007-.036V31.5a1 1 0 1 0-2 0v2.207c0 .017.009.031.01.049a13.71 13.71 0 0 0-5.906 1.799c-.718.415-1.374.893-1.987 1.408a28.891 28.891 0 0 0 3.862 8.267 5.488 5.488 0 0 1 2.264-2.509 5.517 5.517 0 0 1 5.518 9.557 5.457 5.457 0 0 1-.625.305 28.876 28.876 0 0 0 8.162 4.086 13.839 13.839 0 0 0 3.449-8.179c.017.001.031.01.048.01H26a1 1 0 1 0 0-2z" fill="#c7cac7"/><path d="M48.99 33.257c.001-.017.01-.032.01-.05V31a1 1 0 1 0-2 0v2.207c0 .016.008.028.009.044-1.705.12-3.41.557-5.026 1.342-.006-.012-.006-.026-.013-.038l-1.104-1.911a1 1 0 1 0-1.732.999l1.104 1.911c.009.015.022.026.031.04a13.676 13.676 0 0 0-3.676 3.676c-.014-.009-.022-.024-.037-.033l-1.911-1.104a1 1 0 0 0-1 1.732l1.911 1.104c.011.006.023.008.034.014a13.876 13.876 0 0 0-1.346 5.024c-.014 0-.024-.007-.037-.007H32a1 1 0 1 0 0 2h2.207c.017 0 .032-.009.049-.01a13.71 13.71 0 0 0 1.799 5.906c.57.987 1.253 1.864 2.009 2.651a28.906 28.906 0 0 0 8.252-4.302 5.489 5.489 0 0 1-3.093-2.487 5.518 5.518 0 0 1 9.556-5.517c.149.258.268.525.371.795a28.819 28.819 0 0 0 3.849-8.476 13.854 13.854 0 0 0-8.009-3.303z" fill="#ed7161"/></svg>