<svg xmlns="http://www.w3.org/2000/svg" viewBox="0 0 52 52"><path d="M50.219 21h-2.797a21.848 21.848 0 0 0-2.739-6.613l1.978-1.978a1.781 1.781 0 0 0 0-2.518l-4.553-4.553a1.781 1.781 0 0 0-2.518 0l-1.978 1.978A21.855 21.855 0 0 0 31 4.578V1.781A1.78 1.78 0 0 0 29.219 0H22.78A1.78 1.78 0 0 0 21 1.781v2.797a21.848 21.848 0 0 0-6.613 2.739L12.41 5.339a1.781 1.781 0 0 0-2.518 0L5.339 9.892a1.781 1.781 0 0 0 0 2.518l1.978 1.978A21.832 21.832 0 0 0 4.578 21H1.781A1.78 1.78 0 0 0 0 22.781v6.439C0 30.203.797 31 1.781 31h2.797a21.848 21.848 0 0 0 2.739 6.613L5.339 39.59a1.781 1.781 0 0 0 0 2.518l4.553 4.553a1.781 1.781 0 0 0 2.518 0l1.978-1.978a21.874 21.874 0 0 0 6.613 2.739v2.797A1.779 1.779 0 0 0 22.781 52h6.439A1.78 1.78 0 0 0 31 50.219v-2.797a21.848 21.848 0 0 0 6.613-2.739l1.978 1.978a1.781 1.781 0 0 0 2.518 0l4.553-4.553a1.781 1.781 0 0 0 0-2.518l-1.978-1.978a21.888 21.888 0 0 0 2.739-6.613h2.797a1.779 1.779 0 0 0 1.78-1.78V22.78A1.78 1.78 0 0 0 50.219 21zM26 35a9 9 0 1 1 0-18 9 9 0 0 1 0 18z" fill="#e7eced"/><path d="M26 13c-7.18 0-13 5.82-13 13s5.82 13 13 13 13-5.82 13-13-5.82-13-13-13zm0 22a9 9 0 1 1 0-18 9 9 0 0 1 0 18z" fill="#c7cac7"/></svg>