<svg xmlns="http://www.w3.org/2000/svg" viewBox="0 0 52 52"><path d="M50.219 21h-5.051c-2.619 0-3.93-3.167-2.079-5.018l3.572-3.572a1.781 1.781 0 0 0 0-2.518l-4.553-4.553a1.781 1.781 0 0 0-2.518 0l-3.572 3.572C34.166 10.762 31 9.451 31 6.832V1.781A1.78 1.78 0 0 0 29.219 0H22.78A1.78 1.78 0 0 0 21 1.781v5.052c0 2.619-3.166 3.93-5.018 2.079L12.41 5.339a1.781 1.781 0 0 0-2.518 0L5.339 9.892a1.781 1.781 0 0 0 0 2.518l3.572 3.572C10.763 17.833 9.451 21 6.832 21H1.781A1.78 1.78 0 0 0 0 22.781v6.439C0 30.203.797 31 1.781 31h5.051c2.619 0 3.93 3.167 2.079 5.018L5.339 39.59a1.781 1.781 0 0 0 0 2.518l4.553 4.553a1.781 1.781 0 0 0 2.518 0l3.572-3.572c1.852-1.852 5.018-.54 5.018 2.079v5.051A1.78 1.78 0 0 0 22.781 52h6.439A1.78 1.78 0 0 0 31 50.219v-5.051c0-2.619 3.166-3.931 5.018-2.079l3.572 3.572a1.781 1.781 0 0 0 2.518 0l4.553-4.553a1.781 1.781 0 0 0 0-2.518l-3.572-3.572C41.237 34.167 42.549 31 45.168 31h5.051A1.78 1.78 0 0 0 52 29.219V22.78A1.78 1.78 0 0 0 50.219 21zM26 34a8 8 0 1 1 0-16 8 8 0 0 1 0 16z" fill="#e7eced"/></svg>