<svg xmlns="http://www.w3.org/2000/svg" viewBox="0 0 60 60"><path fill="none" stroke="#38454f" stroke-width="2" stroke-linecap="round" stroke-miterlimit="10" d="M28.664 4V1m0 58V40m0-20v4"/><path d="M48.553 20H10.061a2.397 2.397 0 0 1-2.397-2.397V6.397A2.397 2.397 0 0 1 10.061 4h38.492l8.711 7.84a.214.214 0 0 1 0 .319L48.553 20z" fill="#23a24d"/><path d="M11.447 40h38.821a2.397 2.397 0 0 0 2.397-2.397V26.397A2.397 2.397 0 0 0 50.268 24H11.447l-8.711 7.84a.214.214 0 0 0 0 .319L11.447 40z" fill="#ebba16"/></svg>