<svg xmlns="http://www.w3.org/2000/svg" viewBox="0 0 58 58"><path d="M32.595 58H7.405A3.406 3.406 0 0 1 4 54.595V3.405A3.406 3.406 0 0 1 7.405 0h25.189A3.406 3.406 0 0 1 36 3.405v51.189A3.406 3.406 0 0 1 32.595 58z" fill="#424a60"/><path fill="#e7eced" d="M4 6h32v40H4z"/><circle cx="20" cy="52" r="3" fill="#262b35"/><path d="M20 4h-4a1 1 0 1 1 0-2h4a1 1 0 1 1 0 2zm4 0h-1a1 1 0 1 1 0-2h1a1 1 0 1 1 0 2z" fill="#262b35"/><path fill="#25ae88" d="M54 12H18v19h4v6l8-6h24z"/><path d="M24 20h10a1 1 0 1 0 0-2H24a1 1 0 1 0 0 2zm24 3H24a1 1 0 1 0 0 2h24a1 1 0 1 0 0-2z" fill="#57d8ab"/></svg>