<svg xmlns="http://www.w3.org/2000/svg" viewBox="0 0 58 58"><path d="M41.595 58h-25.19A3.406 3.406 0 0 1 13 54.595V3.405A3.406 3.406 0 0 1 16.405 0h25.189A3.406 3.406 0 0 1 45 3.405v51.189A3.406 3.406 0 0 1 41.595 58z" fill="#424a60"/><path fill="#e7eced" d="M13 6h32v40H13z"/><circle cx="29" cy="52" r="3" fill="#262b35"/><path d="M29 4h-4a1 1 0 1 1 0-2h4a1 1 0 1 1 0 2zm4 0h-1a1 1 0 1 1 0-2h1a1 1 0 1 1 0 2z" fill="#262b35"/><path d="M37 11H21a4 4 0 0 0-4 4v8l4-4h16a4 4 0 0 0 0-8z" fill="#48a0dc"/><path d="M21 28h16a4 4 0 0 1 4 4v8l-4-4H21a4 4 0 0 1 0-8z" fill="#61b872"/></svg>