<svg xmlns="http://www.w3.org/2000/svg" viewBox="0 0 58 58"><path d="M41.595 58h-25.19A3.406 3.406 0 0 1 13 54.595V3.405A3.406 3.406 0 0 1 16.405 0h25.189A3.406 3.406 0 0 1 45 3.405v51.189A3.406 3.406 0 0 1 41.595 58z" fill="#424a60"/><path fill="#e7eced" d="M13 6h32v40H13z"/><circle cx="29" cy="52" r="3" fill="#262b35"/><path d="M29 4h-4a1 1 0 1 1 0-2h4a1 1 0 1 1 0 2zm4 0h-1a1 1 0 1 1 0-2h1a1 1 0 1 1 0 2z" fill="#262b35"/><circle cx="29" cy="21" r="12" fill="#7383bf"/><path d="M31.932 28.567a1.322 1.322 0 0 1-.73-1.181v-1.358c.097-.111.209-.253.327-.421a7.97 7.97 0 0 0 1.076-2.168c.444-.137.771-.547.771-1.034v-1.449c0-.319-.142-.604-.362-.803v-2.096s.43-3.261-3.986-3.261-3.986 3.261-3.986 3.261v2.096a1.078 1.078 0 0 0-.362.803v1.449c0 .382.201.718.501.912a7.18 7.18 0 0 0 1.311 2.711v1.325c0 .483-.264.928-.688 1.159l-3.233 1.763c-.221.12-.418.271-.597.439A11.933 11.933 0 0 0 29 33c2.623 0 5.041-.851 7.016-2.278a2.894 2.894 0 0 0-.622-.424l-3.462-1.731z" fill="#424a60"/><path fill="#afb6bb" d="M16 37h26v6H16z"/><path fill="#61b872" d="M16 37h6v6h-6z"/></svg>