<svg xmlns="http://www.w3.org/2000/svg" viewBox="0 0 59.998 59.998"><path d="M42.594 58.999h-25.19a3.405 3.405 0 0 1-3.405-3.405V4.404A3.405 3.405 0 0 1 17.404.999h25.189a3.405 3.405 0 0 1 3.405 3.405v51.189a3.404 3.404 0 0 1-3.404 3.406z" fill="#e7eced"/><circle cx="29.999" cy="53.999" r="3" fill="#fff"/><path d="M29.999 4.999h-4a1 1 0 1 1 0-2h4a1 1 0 1 1 0 2zm4 0h-1a1 1 0 1 1 0-2h1a1 1 0 1 1 0 2z" fill="#424a60"/><path d="M55.904 21.241a.999.999 0 0 1-.707-1.707c3.736-3.736 3.736-9.815 0-13.552a.999.999 0 1 1 1.414-1.414c4.516 4.516 4.516 11.864 0 16.38a.993.993 0 0 1-.707.293z" fill="#7383bf"/><path d="M51.693 19.241a.999.999 0 0 1-.707-1.707c1.237-1.236 1.918-2.884 1.918-4.638s-.681-3.401-1.918-4.639A.999.999 0 1 1 52.4 6.843c1.615 1.614 2.504 3.765 2.504 6.053s-.889 4.438-2.504 6.052a.993.993 0 0 1-.707.293zm-47.599 2a.997.997 0 0 1-.707-.293c-4.516-4.516-4.516-11.864 0-16.38a.999.999 0 1 1 1.414 1.414c-3.736 3.736-3.736 9.815 0 13.552a.999.999 0 0 1-.707 1.707z" fill="#7383bf"/><path d="M8.305 18.966a.997.997 0 0 1-.707-.293c-1.615-1.614-2.504-3.765-2.504-6.053s.889-4.438 2.504-6.052a.999.999 0 1 1 1.414 1.414c-1.237 1.236-1.918 2.884-1.918 4.638s.681 3.401 1.918 4.639a.999.999 0 0 1-.707 1.707z" fill="#7383bf"/><path fill="#424a60" d="M13.999 6.999h32v42h-32z"/></svg>