<svg xmlns="http://www.w3.org/2000/svg" viewBox="0 0 58 58"><path d="M13 3.843c0-.68.205-1.311.549-1.843L3.525 4.686a3.405 3.405 0 0 0-2.408 4.171l11.81 44.075c.011.042.073.034.073-.01V3.843zm32-1c0-.68-.205-1.311-.549-1.843l10.024 2.686a3.405 3.405 0 0 1 2.408 4.171l-11.81 44.075c-.011.042-.073.034-.073-.01V2.843z" fill="#e7eced"/><path d="M41.595 58H16.406A3.406 3.406 0 0 1 13 54.595V3.405A3.406 3.406 0 0 1 16.406 0h25.189A3.405 3.405 0 0 1 45 3.405v51.189A3.405 3.405 0 0 1 41.595 58z" fill="#424a60"/><path fill="#a4e869" d="M13 6h32v40H13z"/><circle cx="29" cy="52" r="3" fill="#262b35"/><path d="M29 4h-4a1 1 0 1 1 0-2h4a1 1 0 1 1 0 2zm4 0h-1a1 1 0 1 1 0-2h1a1 1 0 1 1 0 2z" fill="#262b35"/></svg>