<svg xmlns="http://www.w3.org/2000/svg" viewBox="0 0 58 58"><path fill="#c8d2d6" d="M25.677 47h24v11h-24z"/><path d="M41.677 58h-16V47h9.426a6.574 6.574 0 0 1 6.574 6.574V58z" fill="#e7eced"/><circle cx="35.177" cy="52.5" r="2.5" fill="#7383bf"/><path d="M33.581 10.702a3.498 3.498 0 1 0-4.606-4.606l4.606 4.606z" fill="#fbce9d"/><path d="M38.581 15.702a3.498 3.498 0 1 0-4.606-4.606l4.606 4.606z" fill="#fbce9d"/><path d="M43.581 20.702a3.498 3.498 0 1 0-4.606-4.606l4.606 4.606z" fill="#fbce9d"/><path d="M48.581 25.702a3.498 3.498 0 1 0-4.606-4.606l4.606 4.606zM28.177 33h-10a3.51 3.51 0 0 1-3.5-3.5 3.51 3.51 0 0 1 3.5-3.5h10a3.51 3.51 0 0 1 3.5 3.5 3.51 3.51 0 0 1-3.5 3.5z" fill="#fbce9d"/><path d="M48.813 31.563l-11.12 11.12a2.294 2.294 0 0 1-3.244 0L24.767 33h-6.589c-.578.283-2.155-.738-1.55-.219l10.812 10.77c.074.074.16.127.238.194V47h20v-4.51a7.48 7.48 0 0 0 3-5.99 7.47 7.47 0 0 0-1.865-4.937z" fill="#f7b563"/><path d="M25.769 2.889L10.212 18.446l7.592 7.592c.125-.013.246-.038.373-.038h10c1.925 0 3.5 1.575 3.5 3.5s-1.575 3.5-3.5 3.5h-3.411l6.355 6.355 15.556-15.557L25.769 2.889z" fill="#424a60"/><path d="M25.769 2.889L23.552.672a2.294 2.294 0 0 0-3.244 0L7.995 12.984a2.295 2.295 0 0 0 0 3.245l2.217 2.217L25.769 2.889zm24.236 24.237l-3.328-3.328-15.556 15.557 3.327 3.327a2.294 2.294 0 0 0 3.244 0L50.004 30.37a2.293 2.293 0 0 0 .001-3.244z" fill="#e7eced"/><circle cx="41.177" cy="33.5" r="2" fill="#fff"/><path d="M15.677 11a.999.999 0 0 1-.707-1.707l2-2a.999.999 0 1 1 1.414 1.414l-2 2a.997.997 0 0 1-.707.293z" fill="#424a60"/></svg>