<svg xmlns="http://www.w3.org/2000/svg" viewBox="0 0 58 58"><path d="M53.595 58h-25.19A3.406 3.406 0 0 1 25 54.595V3.405A3.406 3.406 0 0 1 28.405 0h25.189A3.406 3.406 0 0 1 57 3.405v51.189A3.406 3.406 0 0 1 53.595 58z" fill="#424a60"/><path fill="#e7eced" d="M25 6h32v40H25z"/><circle cx="41" cy="52" r="3" fill="#262b35"/><path d="M41 4h-4a1 1 0 1 1 0-2h4a1 1 0 1 1 0 2zm4 0h-1a1 1 0 1 1 0-2h1a1 1 0 1 1 0 2z" fill="#262b35"/><path fill="none" stroke="#556080" stroke-width="2" stroke-linecap="round" stroke-miterlimit="10" d="M19.366 34.727L2 51"/><circle cx="29" cy="26" r="13" fill="#7fabda" stroke="#556080" stroke-width="2" stroke-linecap="round" stroke-miterlimit="10"/></svg>