<svg xmlns="http://www.w3.org/2000/svg" viewBox="0 0 58 58"><circle cx="29" cy="29" r="29" fill="#38454f"/><path d="M16.427 20H8.104A2.104 2.104 0 0 0 6 22.104v12.793C6 36.058 6.942 37 8.104 37h8.323c.375 0 .743.1 1.067.29L30.83 49.706c1.402.825 3.17-.186 3.17-1.813V9.107c0-1.627-1.768-2.638-3.17-1.813L17.494 19.71c-.324.19-.692.29-1.067.29z" fill="#7383bf"/><path d="M41.541 42.042a.999.999 0 0 1-.707-1.707c6.238-6.238 6.238-16.39 0-22.628a.999.999 0 1 1 1.414-1.414c7.018 7.019 7.018 18.438 0 25.456a1 1 0 0 1-.707.293z" fill="#efce4a"/><path d="M38 38a.999.999 0 0 1-.707-1.707c4.297-4.297 4.297-11.289 0-15.586a.999.999 0 1 1 1.414-1.414c5.077 5.077 5.077 13.337 0 18.414A.997.997 0 0 1 38 38z" fill="#efce4a"/><path d="M44.476 47a.999.999 0 0 1-.707-1.707c4.356-4.355 6.755-10.142 6.755-16.293s-2.399-11.938-6.755-16.293a.999.999 0 1 1 1.414-1.414c4.734 4.733 7.341 11.021 7.341 17.707s-2.607 12.974-7.341 17.707a.997.997 0 0 1-.707.293z" fill="#efce4a"/></svg>