<svg xmlns="http://www.w3.org/2000/svg" viewBox="0 0 58 58"><ellipse cx="12.5" cy="5.5" rx="12.5" ry="5.5" fill="#7383bf"/><ellipse cx="45.5" cy="5.5" rx="12.5" ry="5.5" fill="#7383bf"/><path d="M45.5 11C38.596 11 33 8.538 33 5.5c0-.169.024-.335.057-.5H33L0 58 57 8l.188-.564C55.406 9.517 50.852 11 45.5 11z" fill="#556080"/><path d="M20.488 25.095L29 11.424 25 5h-.057c.033.165.057.331.057.5 0 3.038-5.596 5.5-12.5 5.5C7.148 11 2.594 9.517.812 7.436L1 8l19.488 17.095zM29 32.562L58 58 37.512 25.095z" fill="#424a60"/></svg>