<svg xmlns="http://www.w3.org/2000/svg" viewBox="0 0 60 60"><circle cx="30" cy="30" r="29" fill="#7383bf"/><path d="M58.978 37.765l.001-.01a29.974 29.974 0 0 0-.001-15.51v-.007l-.006-.014a29.814 29.814 0 0 0-2.969-7.156c-.011-.022-.011-.047-.023-.069-.012-.021-.034-.033-.047-.054a30.162 30.162 0 0 0-4.677-6.094c-.017-.02-.024-.046-.043-.065s-.045-.026-.065-.043a30.162 30.162 0 0 0-6.094-4.677c-.02-.013-.032-.034-.054-.046-.022-.013-.047-.013-.07-.023a29.848 29.848 0 0 0-7.155-2.969l-.01-.005h-.01a29.889 29.889 0 0 0-15.51-.001h-.01l-.01.005a29.804 29.804 0 0 0-7.155 2.968c-.023.012-.048.012-.07.025-.022.012-.034.034-.054.047a30.162 30.162 0 0 0-6.094 4.677c-.02.017-.046.024-.065.043s-.026.045-.043.065a30.199 30.199 0 0 0-4.677 6.094c-.014.021-.035.033-.047.054-.013.022-.012.046-.023.069a29.814 29.814 0 0 0-2.969 7.156l-.005.01-.001.01a29.931 29.931 0 0 0 0 15.51l.001.01c.001.005.005.008.006.013a29.855 29.855 0 0 0 2.968 7.154c.01.022.01.046.023.068.018.031.044.055.065.083a30.16 30.16 0 0 0 4.66 6.064c.017.02.024.046.043.065s.045.026.065.043a30.17 30.17 0 0 0 6.091 4.675c.021.015.034.037.057.05.034.02.071.029.107.044a29.835 29.835 0 0 0 7.118 2.947l.01.005.015.002a29.893 29.893 0 0 0 15.499.001l.015-.002.01-.005a29.835 29.835 0 0 0 7.118-2.947c.036-.015.073-.024.107-.044.023-.013.036-.036.057-.05a30.198 30.198 0 0 0 6.091-4.675c.02-.017.046-.024.065-.043s.026-.045.043-.065a30.225 30.225 0 0 0 4.66-6.064c.021-.029.047-.052.065-.083.013-.022.012-.046.023-.069a29.82 29.82 0 0 0 2.968-7.154c.001-.005.004-.008.006-.013zm-4.123-.07l1.915.513a27.809 27.809 0 0 1-2.044 4.912l-1.709-.987a1 1 0 1 0-1 1.732l1.704.984a28.157 28.157 0 0 1-3.241 4.216l-1.388-1.388a.999.999 0 1 0-1.414 1.414l1.388 1.388a28.157 28.157 0 0 1-4.216 3.241l-.984-1.705a1 1 0 1 0-1.732 1l.987 1.709a27.84 27.84 0 0 1-4.912 2.044l-.513-1.915a1 1 0 0 0-1.932.518l.512 1.909a27.936 27.936 0 0 1-5.275.692V54a1 1 0 1 0-2 0v3.975c-1.807-.064-3.57-.3-5.275-.692l.512-1.909a1 1 0 0 0-1.932-.518l-.513 1.915a27.84 27.84 0 0 1-4.912-2.044l.987-1.709a1 1 0 0 0-1.732-1l-.984 1.705a28.157 28.157 0 0 1-4.216-3.241l1.388-1.388a.999.999 0 1 0-1.414-1.414l-1.39 1.386a28.157 28.157 0 0 1-3.241-4.216l1.704-.984a1 1 0 1 0-.999-1.732l-1.709.987a27.84 27.84 0 0 1-2.044-4.912l1.915-.513a1 1 0 0 0-.518-1.932l-1.909.511A27.855 27.855 0 0 1 2.025 31H6a1 1 0 1 0 0-2H2.025c.064-1.807.3-3.57.692-5.275l1.909.511a1 1 0 0 0 .518-1.932l-1.914-.512a27.809 27.809 0 0 1 2.044-4.912l1.709.987a1.004 1.004 0 0 0 1.366-.367 1 1 0 0 0-.366-1.366l-1.704-.984a28.157 28.157 0 0 1 3.241-4.216l1.388 1.388a.997.997 0 0 0 1.414 0 .999.999 0 0 0 0-1.414L10.934 9.52a28.157 28.157 0 0 1 4.216-3.241l.984 1.704a1 1 0 1 0 1.732-1l-.987-1.709a27.84 27.84 0 0 1 4.912-2.044l.513 1.915a.998.998 0 0 0 1.225.707 1 1 0 0 0 .707-1.225l-.512-1.909A27.957 27.957 0 0 1 29 2.025V6a1 1 0 1 0 2 0V2.025c1.807.064 3.57.3 5.275.692l-.512 1.909a1 1 0 0 0 1.932.518l.513-1.915a27.809 27.809 0 0 1 4.912 2.044l-.987 1.709a1 1 0 0 0 1.732 1l.984-1.704a28.157 28.157 0 0 1 4.216 3.241l-1.388 1.388a.999.999 0 1 0 1.414 1.414l1.388-1.388a28.157 28.157 0 0 1 3.241 4.216l-1.704.984a.999.999 0 0 0 .501 1.866c.17 0 .342-.043.499-.134l1.709-.987a27.84 27.84 0 0 1 2.044 4.912l-1.915.513a1 1 0 0 0 .518 1.932l1.909-.511c.392 1.705.629 3.468.692 5.275H54a1 1 0 1 0 0 2h3.975c-.064 1.807-.3 3.57-.692 5.275l-1.909-.511a1 1 0 0 0-.519 1.932z" fill="#556080"/><path d="M41 29h-7.142A3.993 3.993 0 0 0 31 26.142V13a1 1 0 1 0-2 0v13.142c-1.721.447-3 1.999-3 3.858 0 2.206 1.794 4 4 4 1.859 0 3.411-1.28 3.858-3H41a1 1 0 1 0 0-2zm-11 3c-1.103 0-2-.897-2-2s.897-2 2-2 2 .897 2 2-.897 2-2 2z" fill="#fff"/><circle cx="30" cy="43" r="7" fill="#556080"/><path d="M30 44a.997.997 0 0 1-.707-.293l-3-3a.999.999 0 1 1 1.414-1.414l3 3A.999.999 0 0 1 30 44z" fill="#fff"/></svg>