<svg xmlns="http://www.w3.org/2000/svg" viewBox="0 0 58 58"><path d="M29 0C12.984 0 0 12.984 0 29c0 8.629 3.778 16.366 9.761 21.677A30.779 30.779 0 0 1 28.939 44a30.784 30.784 0 0 1 19.251 6.734C54.203 45.42 58 37.656 58 29 58 12.984 45.016 0 29 0z" fill="#556080"/><path d="M29 3a1 1 0 0 0-1 1v2a1 1 0 1 0 2 0V4a1 1 0 0 0-1-1zm25.5 25h-2a1 1 0 1 0 0 2h2a1 1 0 1 0 0-2zm-48 1a1 1 0 0 0-1-1h-2a1 1 0 1 0 0 2h2a1 1 0 0 0 1-1zM42.25 6.551a1 1 0 0 0-1.366.366l-1 1.731a1 1 0 0 0 1.732 1l1-1.731a.998.998 0 0 0-.366-1.366zm9.334 34.833l-1.732-1a1 1 0 0 0-1 1.732l1.732 1a1 1 0 0 0 1-1.732zm-42.436-24.5l-1.732-1a1 1 0 0 0-1 1.732l1.732 1a1 1 0 0 0 1-1.732zm7.963-10.001a1 1 0 1 0-1.732 1l1 1.732a1.002 1.002 0 0 0 1.366.366.999.999 0 0 0 .366-1.366l-1-1.732zm31.988 11.401c.17 0 .342-.043.499-.134l1.731-1a.999.999 0 0 0 .366-1.366.998.998 0 0 0-1.366-.366l-1.731 1a.999.999 0 0 0 .501 1.866zM7.894 39.918l-1.731 1a.999.999 0 0 0 .501 1.866c.17 0 .342-.043.499-.134l1.731-1a.999.999 0 0 0 .366-1.366.999.999 0 0 0-1.366-.366z" fill="#7383bf"/><path d="M9.752 50.683A28.885 28.885 0 0 0 29 58a28.886 28.886 0 0 0 19.19-7.266A30.784 30.784 0 0 0 28.939 44a30.785 30.785 0 0 0-19.187 6.683z" fill="#38454f"/><path d="M42.021 17.172a.999.999 0 0 0-1.414 0L32.22 25.56c-1.537-.997-3.725-.833-5.048.491-.756.754-1.172 1.759-1.172 2.828s.416 2.073 1.172 2.828c.755.756 1.76 1.172 2.828 1.172s2.073-.416 2.828-1.172A3.971 3.971 0 0 0 34 28.879c0-.645-.168-1.259-.455-1.816l8.476-8.477a1 1 0 0 0 0-1.414zM31.414 30.293c-.756.756-2.072.756-2.828 0-.378-.378-.586-.88-.586-1.414s.208-1.036.586-1.414.88-.586 1.414-.586 1.036.208 1.414.586.586.879.586 1.414-.208 1.036-.586 1.414z" fill="#404960"/><path d="M41.021 16.172a.999.999 0 0 0-1.414 0L31.22 24.56c-1.537-.997-3.725-.833-5.048.491-.756.754-1.172 1.759-1.172 2.828s.416 2.073 1.172 2.828c.755.756 1.76 1.172 2.828 1.172s2.073-.416 2.828-1.172A3.971 3.971 0 0 0 33 27.879c0-.645-.168-1.259-.455-1.816l8.476-8.477a1 1 0 0 0 0-1.414zM30.414 29.293c-.756.756-2.072.756-2.828 0-.378-.378-.586-.88-.586-1.414s.208-1.036.586-1.414.88-.586 1.414-.586 1.036.208 1.414.586.586.879.586 1.414-.208 1.036-.586 1.414z" fill="#fff"/></svg>