<svg xmlns="http://www.w3.org/2000/svg" viewBox="0 0 59 59"><path fill="none" stroke="#424a60" stroke-width="2" stroke-linecap="round" stroke-miterlimit="10" d="M48.515 13.615l3.535-3.535"/><path fill="#afb6bb" d="M49.221 8.666l4.243-4.243 4.243 4.242-4.243 4.244z"/><path d="M30.13 6c-2.008 0-3.96.235-5.837.666V13h-8a1 1 0 1 0 0 2h8v5h-13a1 1 0 1 0 0 2h13v5h-18a1 1 0 1 0 0 2h18v5h-22a1 1 0 1 0 0 2h22v5h-16a1 1 0 1 0 0 2h16v5h-10a1 1 0 1 0 0 2h10v7.334c1.877.431 3.829.666 5.837.666 14.359 0 26-11.641 26-26s-11.641-26-26-26z" fill="#3083c9"/><path d="M44 23.172a1.004 1.004 0 0 0-1.293-.104L29.76 32.433c-.844.614-1.375 1.563-1.456 2.604s.296 2.06 1.033 2.797a3.538 3.538 0 0 0 2.518 1.044 3.578 3.578 0 0 0 2.886-1.47l9.363-12.944A.999.999 0 0 0 44 23.172z" fill="#2b77aa"/><path d="M43 21.293a1.004 1.004 0 0 0-1.293-.104L28.76 30.554c-.844.614-1.375 1.563-1.456 2.604s.296 2.06 1.033 2.797A3.534 3.534 0 0 0 30.854 37a3.578 3.578 0 0 0 2.886-1.47l9.363-12.944A.999.999 0 0 0 43 21.293z" fill="#efce4a"/><path d="M28.293 6.084c.661-.05 1.326-.084 2-.084s1.339.034 2 .084V3h2.5a1.5 1.5 0 0 0 0-3h-9a1.5 1.5 0 0 0 0 3h2.5v3.084z" fill="#424a60"/><path d="M30.293 5a1 1 0 0 0-1 1v3a1 1 0 1 0 2 0V6a1 1 0 0 0-1-1zm0 49a1 1 0 0 0-1 1v3a1 1 0 1 0 2 0v-3a1 1 0 0 0-1-1zM56.13 31h-3a1 1 0 1 0 0 2h3a1 1 0 1 0 0-2zM43.63 8.617a1 1 0 0 0-1.366.366l-1.5 2.599a1 1 0 0 0 1.732 1l1.5-2.599a1 1 0 0 0-.366-1.366zm9.516 35.517l-2.598-1.5a1 1 0 0 0-1 1.732l2.598 1.5a.998.998 0 0 0 1.366-.366.998.998 0 0 0-.366-1.366zm-10.65 7.285a.998.998 0 0 0-1.366-.366.999.999 0 0 0-.366 1.366l1.5 2.598a1 1 0 1 0 1.732-1l-1.5-2.598zM50.05 21.5c.17 0 .342-.043.499-.134l2.598-1.5a.999.999 0 0 0 .366-1.366.998.998 0 0 0-1.366-.366l-2.598 1.5a.998.998 0 0 0 .501 1.866z" fill="#a1c8ec"/></svg>