<svg xmlns="http://www.w3.org/2000/svg" viewBox="0 0 59 59"><path d="M11.115 14.615a.997.997 0 0 1-.707-.293l-3.535-3.535a.999.999 0 1 1 1.414-1.414l3.535 3.535a.999.999 0 0 1-.707 1.707zm36.77 0a.999.999 0 0 1-.707-1.707l3.535-3.535a.999.999 0 1 1 1.414 1.414l-3.535 3.535a.999.999 0 0 1-.707.293z" fill="#556080"/><circle cx="29.5" cy="32" r="26" fill="#fff"/><path d="M31.5 5.082V3H34a1.5 1.5 0 0 0 0-3h-9a1.5 1.5 0 1 0 0 3h2.5v2.082C13.544 6.11 2.5 17.785 2.5 32c0 14.888 12.112 27 27 27s27-12.112 27-27c0-14.215-11.044-25.89-25-26.918zM29.5 57c-13.785 0-25-11.215-25-25s11.215-25 25-25 25 11.215 25 25-11.215 25-25 25z" fill="#424a60"/><path fill="#dc691d" d="M1.923 8.666l4.242-4.243 4.242 4.241-4.242 4.243z"/><path fill="#14a085" d="M48.591 8.666l4.243-4.243 4.243 4.242-4.243 4.244z"/><path d="M29.5 5a1 1 0 0 0-1 1v3a1 1 0 1 0 2 0V6a1 1 0 0 0-1-1zm0 49a1 1 0 0 0-1 1v3a1 1 0 1 0 2 0v-3a1 1 0 0 0-1-1zm26-23h-3a1 1 0 1 0 0 2h3a1 1 0 1 0 0-2zm-49 2a1 1 0 1 0 0-2h-3a1 1 0 1 0 0 2h3zm39.264-16.264a.997.997 0 0 0 .707-.293l2.121-2.121a.999.999 0 1 0-1.414-1.414l-2.121 2.121a.999.999 0 0 0 .707 1.707zm-33.235 30.82l-2.121 2.121a.999.999 0 1 0 1.414 1.414l2.121-2.121a.999.999 0 1 0-1.414-1.414zm33.942 0a.999.999 0 1 0-1.414 1.414l2.121 2.121a.997.997 0 0 0 1.414 0 .999.999 0 0 0 0-1.414l-2.121-2.121zM11.822 12.908a.999.999 0 1 0-1.414 1.414l2.121 2.121a.997.997 0 0 0 1.414 0 .999.999 0 0 0 0-1.414l-2.121-2.121zm11.914-6.281a1 1 0 1 0-1.932.518l.776 2.898a1 1 0 1 0 1.932-.518l-.776-2.898zm12.683 47.331a1 1 0 0 0-1.932.518l.776 2.897a.998.998 0 0 0 1.225.707 1 1 0 0 0 .707-1.225l-.776-2.897zM50.75 26.306a1 1 0 0 0 1.225.707l2.898-.777a1 1 0 1 0-.518-1.932l-2.898.777a1 1 0 0 0-.707 1.225zM8.25 37.694a.997.997 0 0 0-1.225-.707l-2.898.776a1 1 0 0 0 .518 1.932l2.898-.776c.533-.143.849-.692.707-1.225zM43 8.617a1 1 0 0 0-1.366.366l-1.5 2.599a1 1 0 0 0 1.732 1l1.5-2.599A1 1 0 0 0 43 8.617zM18.5 51.052a.998.998 0 0 0-1.366.366l-1.5 2.598a1 1 0 0 0 1.732 1l1.5-2.598a1 1 0 0 0-.366-1.366zm34.016-6.918l-2.598-1.5a1 1 0 0 0-1 1.732l2.598 1.5a.998.998 0 0 0 1.367-.366 1 1 0 0 0-.367-1.366zM6.483 19.866l2.598 1.5A.998.998 0 0 0 10.447 21a1 1 0 0 0-.366-1.366l-2.598-1.5a1 1 0 0 0-1 1.732zM17.366 8.983a1 1 0 0 0-1.732 1l1.5 2.599a1.002 1.002 0 0 0 1.366.366.999.999 0 0 0 .366-1.366l-1.5-2.599zm24.5 42.436a.998.998 0 0 0-1.366-.366.999.999 0 0 0-.366 1.366l1.5 2.598a1 1 0 1 0 1.732-1l-1.5-2.598zM48.553 21a1 1 0 0 0 1.366.366l2.598-1.5a.999.999 0 0 0 .366-1.366.998.998 0 0 0-1.366-.366l-2.598 1.5A.998.998 0 0 0 48.553 21zM10.447 43a.998.998 0 0 0-1.366-.366l-2.598 1.5a1 1 0 0 0 1 1.732l2.598-1.5A1 1 0 0 0 10.447 43zM36.488 5.92a1.002 1.002 0 0 0-1.225.707l-.776 2.898a1 1 0 0 0 1.932.518l.776-2.898a1 1 0 0 0-.707-1.225zM23.806 53.251a1 1 0 0 0-1.225.707l-.776 2.897a1 1 0 0 0 1.932.518l.776-2.897a1 1 0 0 0-.707-1.225zm31.067-15.488l-2.898-.776a1 1 0 0 0-.518 1.932l2.898.776a1 1 0 0 0 .518-1.932zM4.127 26.236l2.898.777a1 1 0 0 0 .518-1.932l-2.898-.777a1 1 0 1 0-.518 1.932z" fill="#424a60"/><path d="M18.5 21l12.944 9.363a2.564 2.564 0 1 1-3.581 3.581L18.5 21z" fill="#48a0dc"/></svg>