<svg xmlns="http://www.w3.org/2000/svg" viewBox="0 0 58 58"><path d="M29 51a1 1 0 0 1-1-1V24a1 1 0 1 1 2 0v26a1 1 0 0 1-1 1zm-8 3h16v4H21z" fill="#556080"/><path fill="#7383bf" d="M24 50h10v4H24z"/><path d="M29 13a1 1 0 0 1-1-1V8a1 1 0 1 1 2 0v4a1 1 0 0 1-1 1z" fill="#556080"/><circle cx="29" cy="4" r="4" fill="#7383bf"/><path d="M42 24H16c-3.3 0-6-2.7-6-6s2.7-6 6-6h26c3.3 0 6 2.7 6 6s-2.7 6-6 6z" fill="#556080"/><path d="M34 17H24a1 1 0 1 1 0-2h10a1 1 0 1 1 0 2zm9 4H16a1 1 0 1 1 0-2h27a1 1 0 1 1 0 2z" fill="#fff"/></svg>