<svg xmlns="http://www.w3.org/2000/svg" viewBox="0 0 58 58"><path fill="none" stroke="#949493" stroke-width="2" stroke-linecap="round" stroke-miterlimit="10" d="M28.5 50V27"/><path fill="#949493" d="M20.5 54h16v4h-16z"/><path fill="#c7cac7" d="M23.5 50h10v4h-10z"/><path d="M13.5 27h24.859a2.14 2.14 0 0 0 2.141-2.141v-5.718A2.14 2.14 0 0 0 38.359 17H13.5l-5 5 5 5z" fill="#23a24d"/><path fill="none" stroke="#949493" stroke-width="2" stroke-linecap="round" stroke-miterlimit="10" d="M28.5 11V8"/><path d="M44.5 11H19.641a2.14 2.14 0 0 0-2.141 2.141V17h20.859a2.14 2.14 0 0 1 2.141 2.141V21h4l5-5-5-5z" fill="#43b05c"/><circle cx="28.5" cy="4" r="4" fill="#c7cac7"/></svg>