<svg xmlns="http://www.w3.org/2000/svg" viewBox="0 0 59 59"><path d="M56.008 44.5H3.992A2.993 2.993 0 0 1 1 41.508V17.492A2.993 2.993 0 0 1 3.992 14.5h52.016A2.993 2.993 0 0 1 59 17.492v24.016a2.993 2.993 0 0 1-2.992 2.992z" fill="#c7cac7"/><path d="M28.008 44.5H3.992A2.993 2.993 0 0 1 1 41.508V17.492A2.993 2.993 0 0 1 3.992 14.5h24.016A2.993 2.993 0 0 1 31 17.492v24.016a2.993 2.993 0 0 1-2.992 2.992z" fill="#fff" stroke="#e7eced" stroke-width="2" stroke-miterlimit="10"/><path fill="none" stroke="#afb6bb" stroke-width="2" stroke-linecap="round" stroke-miterlimit="10" d="M13 26.5v6m3-6v6m3-6v6"/></svg>