<svg xmlns="http://www.w3.org/2000/svg" viewBox="0 0 59 59"><path d="M2.992 14.5h52.016A2.993 2.993 0 0 1 58 17.492v24.016a2.993 2.993 0 0 1-2.992 2.992H2.992A2.993 2.993 0 0 1 0 41.508V17.492A2.993 2.993 0 0 1 2.992 14.5z" fill="#61b872"/><path d="M30.992 14.5h24.016A2.993 2.993 0 0 1 58 17.492v24.016a2.993 2.993 0 0 1-2.992 2.992H30.992A2.993 2.993 0 0 1 28 41.508V17.492a2.993 2.993 0 0 1 2.992-2.992z" fill="#fff" stroke="#e7eced" stroke-width="2" stroke-miterlimit="10"/><path fill="none" stroke="#afb6bb" stroke-width="2" stroke-linecap="round" stroke-miterlimit="10" d="M46 32.5v-6m-3 6v-6m-3 6v-6"/></svg>