<svg xmlns="http://www.w3.org/2000/svg" viewBox="0 0 58 58"><path d="M51.471 58H6.529A6.529 6.529 0 0 1 0 51.471V6.529A6.529 6.529 0 0 1 6.529 0h44.943A6.529 6.529 0 0 1 58 6.529v44.943A6.529 6.529 0 0 1 51.471 58z" fill="#556080"/><path d="M43 26H15C9.5 26 5 21.5 5 16v0C5 10.5 9.5 6 15 6h28c5.5 0 10 4.5 10 10v0c0 5.5-4.5 10-10 10z" fill="#a4e869" stroke="#434d68" stroke-width="2" stroke-linecap="round" stroke-miterlimit="10"/><path d="M15 52h28c5.5 0 10-4.5 10-10v0c0-5.5-4.5-10-10-10H15C9.5 32 5 36.5 5 42v0c0 5.5 4.5 10 10 10z" fill="#d75a4a" stroke="#434d68" stroke-width="2" stroke-linecap="round" stroke-miterlimit="10"/><circle cx="43" cy="16" r="10" fill="#e7eced" stroke="#fff" stroke-width="2" stroke-linecap="round" stroke-miterlimit="10"/><circle cx="15" cy="42" r="10" fill="#e7eced" stroke="#fff" stroke-width="2" stroke-linecap="round" stroke-miterlimit="10"/></svg>