<svg xmlns="http://www.w3.org/2000/svg" viewBox="0 0 58 58"><path d="M51 50.957a8.02 8.02 0 0 0-4.434-7.174l-11.027-4.776c-.603-.302-1.095-.943-1.441-1.64-.311-.628.155-1.367.856-1.367h7.766s2.848.273 5.044-.67c1.286-.553 1.73-2.167.925-3.313-2.353-3.349-7.215-11.234-7.373-19.379 0 0-.27-12.536-12.638-12.638-7.215.06-10.623 4.306-12.21 7.835-.885 1.969-1.265 4.115-1.407 6.269-.513 7.763-4.466 15.092-6.308 18.126-.625 1.029-.323 2.4.711 3.017 1.694 1.013 3.767.753 3.767.753h7.949c.775 0 1.117.979.509 1.459-.496.391-.969.745-1.225.884L11.18 43.72A8.02 8.02 0 0 0 7 50.761V53c0 2.761 9.85 5 22 5s22-2.239 22-5v-2.043z" fill="#9777a8"/></svg>