<svg xmlns="http://www.w3.org/2000/svg" viewBox="0 0 58 58"><circle cx="29" cy="29" r="29" fill="#f76363"/><path d="M52.932 45.376C52.275 38.985 46.876 34 40.311 34h-5.946A1.365 1.365 0 0 1 33 32.635v-.645c0-.583.379-1.082.925-1.287 5.804-2.182 9.778-11.704 8.971-18.433C42.134 5.919 36.97.801 30.614.09a14.265 14.265 0 0 0-1.535-.088l-.048-.001C21.285-.016 15 6.258 15 14c0 6.024 3.807 14.755 9.145 16.729.523.193.855.713.855 1.271v.635c0 .754-.611 1.365-1.365 1.365h-5.946c-6.565 0-11.964 4.985-12.621 11.376C10.293 52.998 19.061 58 29 58s18.707-5.002 23.932-12.624z" fill="#f7b563"/><path d="M33.492 6.61c3.715 1.021 7.213 3.306 9.453 6.322-.016-.221-.023-.447-.049-.663C42.134 5.919 36.97.801 30.614.09a14.265 14.265 0 0 0-1.535-.088l-.048-.001c-6.92-.015-12.66 4.995-13.808 11.583h.005c.179.252.354.507.545.75.07-.087.141-.173.213-.258 2-2.38 5.341-2.931 8.183-1.671a7 7 0 0 0 9.323-3.795zm.433 24.093c-.546.205-.925.704-.925 1.287v.645c0 .754.611 1.365 1.365 1.365h5.946c.923 0 1.822.104 2.689.292V14h-.012c.014 6.24-3.752 14.706-9.063 16.703zM17.689 34h5.946c.754 0 1.365-.611 1.365-1.365V32c0-.558-.332-1.078-.855-1.271C18.807 28.755 15 20.024 15 14v20.292A12.674 12.674 0 0 1 17.689 34z" fill="#f7e714"/><path d="M38 40c-3.961 0-7.382 2.322-9 5.67-1.618-3.348-5.039-5.67-9-5.67a1 1 0 1 0 0 2c4.411 0 8 3.589 8 8v3h2v-3c0-4.411 3.589-8 8-8a1 1 0 1 0 0-2z" fill="#d39450"/><path d="M52.932 45.376c-.383-3.726-2.385-6.965-5.283-9.026L29 53 10.35 36.35c-2.898 2.061-4.899 5.3-5.283 9.026C10.293 52.998 19.061 58 29 58s18.707-5.002 23.932-12.624z" fill="#25ae88"/><path d="M43 47v7.392c.685-.379 1.35-.789 2-1.22V47h-2zm-30 6.172c.65.431 1.315.841 2 1.22V47h-2v6.172z" fill="#229974"/></svg>