<svg xmlns="http://www.w3.org/2000/svg" viewBox="0 0 56 56"><path fill="#424a60" d="M10 6h36v44H10z"/><path d="M46 29H10a1 1 0 1 1 0-2h36a1 1 0 1 1 0 2zm0-21H10a1 1 0 1 1 0-2h36a1 1 0 1 1 0 2zm0 42H10a1 1 0 1 1 0-2h36a1 1 0 1 1 0 2z" fill="#343b49"/><path d="M46 39v11h10V39H46zm7 8h-4v-5h4v5z" fill="#556080"/><path d="M46 28v11h10V28H46zm7 8h-4v-5h4v5z" fill="#38454f"/><path d="M46 17v11h10V17H46zm7 8h-4v-5h4v5z" fill="#556080"/><path d="M46 6v11h10V6H46zm7 8h-4V9h4v5z" fill="#38454f"/><path d="M0 39v11h10V39H0zm7 8H3v-5h4v5z" fill="#556080"/><path d="M0 28v11h10V28H0zm7 8H3v-5h4v5z" fill="#38454f"/><path d="M0 17v11h10V17H0zm7 8H3v-5h4v5z" fill="#556080"/><path d="M0 6v11h10V6H0zm7 8H3V9h4v5z" fill="#38454f"/></svg>