<svg xmlns="http://www.w3.org/2000/svg" viewBox="0 0 53 53"><path fill="none" stroke="#7383bf" stroke-width="2" stroke-linecap="round" stroke-miterlimit="10" d="M20.132 33.5l-7.421 16m7.421-16l7.421 16"/><path d="M50.02 31.428L37.511 19.474a1.773 1.773 0 0 1 .038-2.528L50.058 5.4C51.172 4.342 53 5.139 53 6.683v23.5c0 1.569-1.88 2.354-2.98 1.245z" fill="#efce4a"/><path d="M34.827 33.5H3.791A3.79 3.79 0 0 1 0 29.709V6.444A3.956 3.956 0 0 1 3.944 2.5h31.112A3.944 3.944 0 0 1 39 6.444v22.883a4.185 4.185 0 0 1-4.173 4.173z" fill="#363e4b"/><circle cx="11.5" cy="14" r="5.5" fill="#efce4a"/><path fill="none" stroke="#fff" stroke-width="2" stroke-linecap="round" stroke-miterlimit="10" d="M13 14.5l5 5"/></svg>