<svg xmlns="http://www.w3.org/2000/svg" viewBox="0 0 59 59"><path d="M9.7 41.598a.997.997 0 0 1-.707-.293C-2.313 29.998-2.313 11.6 8.993.293a.999.999 0 1 1 1.414 1.414C-.12 12.234-.12 29.363 10.407 39.891a.999.999 0 0 1-.707 1.707zm39.598 0a.999.999 0 0 1-.707-1.707c5.092-5.091 7.896-11.871 7.896-19.092S53.683 6.798 48.591 1.707A.999.999 0 1 1 50.005.293c5.47 5.469 8.481 12.751 8.481 20.506s-3.012 15.037-8.481 20.506a.997.997 0 0 1-.707.293z" fill="#ed8a19"/><path d="M13.944 37.355a.997.997 0 0 1-.707-.293c-8.968-8.968-8.968-23.56 0-32.527a.999.999 0 1 1 1.414 1.414c-8.188 8.188-8.188 21.511 0 29.699a.999.999 0 0 1-.707 1.707zm31.112 0a.999.999 0 0 1-.707-1.707c8.188-8.188 8.188-21.511 0-29.699a.999.999 0 1 1 1.414-1.414c8.968 8.968 8.968 23.56 0 32.527a.993.993 0 0 1-.707.293z" fill="#ebba16"/><path d="M18.186 33.112a.997.997 0 0 1-.707-.293c-3.206-3.206-4.972-7.475-4.972-12.021s1.766-8.814 4.972-12.021a.999.999 0 1 1 1.414 1.414c-5.849 5.849-5.849 15.364 0 21.213a.999.999 0 0 1-.707 1.708zm22.628 0a.999.999 0 0 1-.707-1.707c5.849-5.849 5.849-15.364 0-21.213a.999.999 0 1 1 1.414-1.414c3.206 3.206 4.972 7.475 4.972 12.021s-1.766 8.814-4.972 12.021a.998.998 0 0 1-.707.292z" fill="#efce4a"/><path d="M35.5 21a6 6 0 1 0-12 0 5.997 5.997 0 0 0 5.017 5.913c-.003.03-.018.056-.018.087v31a1 1 0 1 0 2 0V27c0-.031-.015-.057-.018-.087A5.997 5.997 0 0 0 35.5 21z" fill="#dc691d"/></svg>