<svg xmlns="http://www.w3.org/2000/svg" viewBox="0 0 58 58"><path fill="#ebba16" d="M14 20h44v32H14z"/><path fill="#dc691d" d="M7 13v25H0V6h44v7z"/><path fill="#ed8a19" d="M14 20v25H7V13h44v7z"/><g fill="#efce4a"><circle cx="33" cy="15" r="1"/><circle cx="36" cy="18" r="1"/><circle cx="39" cy="15" r="1"/><circle cx="45" cy="15" r="1"/><circle cx="42" cy="18" r="1"/><circle cx="48" cy="18" r="1"/><circle cx="27" cy="15" r="1"/><circle cx="30" cy="18" r="1"/><circle cx="9" cy="15" r="1"/><circle cx="9" cy="21" r="1"/><circle cx="12" cy="18" r="1"/><circle cx="12" cy="24" r="1"/><circle cx="15" cy="15" r="1"/><circle cx="21" cy="15" r="1"/><circle cx="18" cy="18" r="1"/><circle cx="24" cy="18" r="1"/><circle cx="9" cy="27" r="1"/><circle cx="9" cy="33" r="1"/><circle cx="12" cy="30" r="1"/><circle cx="12" cy="36" r="1"/><circle cx="9" cy="39" r="1"/><circle cx="12" cy="42" r="1"/></g></svg>