<svg xmlns="http://www.w3.org/2000/svg" viewBox="0 0 60 60"><circle cx="30" cy="32.007" r="3" fill="none" stroke="#ebba16" stroke-width="2" stroke-miterlimit="10"/><path d="M34.055 38.891C36.411 37.498 38 34.937 38 32.007c0-4.411-3.589-8-8-8s-8 3.589-8 8c0 2.93 1.589 5.491 3.945 6.884" fill="none" stroke="#ebba16" stroke-width="2" stroke-linecap="round" stroke-miterlimit="10"/><path d="M44.717 56.993C53.263 51.948 59 42.65 59 32.007c0-16.016-12.984-29-29-29s-29 12.984-29 29C1 42.65 6.737 51.948 15.283 56.993" fill="none" stroke="#ebba16" stroke-width="2" stroke-linecap="round" stroke-miterlimit="10"/><path d="M41.16 50.955C47.641 47.123 52 40.066 52 32.007c0-12.131-9.869-22-22-22s-22 9.869-22 22c0 8.059 4.359 15.116 10.84 18.948" fill="none" stroke="#ebba16" stroke-width="2" stroke-linecap="round" stroke-miterlimit="10"/><path d="M37.603 44.915C42.021 42.302 45 37.502 45 32.007c0-8.271-6.729-15-15-15s-15 6.729-15 15c0 5.495 2.979 10.295 7.397 12.908" fill="none" stroke="#ebba16" stroke-width="2" stroke-linecap="round" stroke-miterlimit="10"/></svg>