<svg xmlns="http://www.w3.org/2000/svg" viewBox="0 0 58 58"><circle cx="31.494" cy="20" r="20" fill="#a1c8ec"/><path d="M49.879 36.971l-3.535-3.535-1.414 1.414 2.105 2.105c-9.013 8.271-23.073 8.038-31.804-.691C10.894 31.927 8.506 26.151 8.506 20c0-5.815 2.135-11.296 6.033-15.541l2.106 2.105 1.414-1.414-3.535-3.535-.707.707C9.102 7.037 6.506 13.314 6.506 20s2.597 12.963 7.312 17.678c4.481 4.481 10.375 7.044 16.688 7.288V55a1 1 0 1 0 2 0V44.965c6.304-.249 12.19-2.811 16.666-7.287l.707-.707z" fill="#556080"/><path fill="#556080" d="M21.506 55h20v3h-20z"/><path d="M20.266 3.45c-.006.341-.017.696-.037 1.081-.01.185.023.37.101.538 1.356 2.922 3.101 7.882 6.081 9.024 1.449.556 2.788.346 4.161 1.019.147.072.361.239.453.374.698 1.021.296 2.517.988 2.883.548.29.859.881.625 1.455-.955 2.343-.129 5.023 2.092 6.863 1.563 1.294.262 4.295-1.053 6.65-.47.842.368 1.815 1.277 1.493 1.437-.511 2.627-1.252 4.004-2.438 1.997-1.718 2.429-3.589 4.409-5.047a.126.126 0 0 0 .047-.062c.506-1.483 2.078-4.722.492-5.547-1.481-.769-2.035-2.997-3.48-4.515-.166-.174-.402-.261-.641-.292-1.771-.228-2.569-1.576-3.76-.68-.893.671-1.896.262-2.208-.811-.102-.35-.28-.662-.923-.86-.488-.15-.726-.704-.55-1.183l.008-.021c.235-.641-1.089-.543-1.763-.431-.189.031.452-.73.241-.606-.828.489-1.856-.355-1.812-1.315.045-.974.227-.928 1.897-1.12 1.798-.837 2.668-.227 2.61 1.829 1.111.165 1.5-.327 1.165-1.473a1.123 1.123 0 0 1 .193-.985c2.047-2.664 3.758-3.825 6.893-4.901.465-.16.727-.625.666-1.1A19.9 19.9 0 0 0 31.494 0a19.903 19.903 0 0 0-11.228 3.45z" fill="#23a24d"/></svg>