<svg xmlns="http://www.w3.org/2000/svg" viewBox="0 0 57.157 57.157"><circle cx="28.578" cy="29.157" r="26" fill="#e0e1e2"/><circle cx="28.578" cy="29.157" r="15" fill="#fff"/><path d="M12.578 57.157a.999.999 0 0 1-.707-1.707l3.933-3.933a.999.999 0 1 1 1.414 1.414l-3.933 3.933a.997.997 0 0 1-.707.293zm32 0a.997.997 0 0 1-.707-.293l-3.963-3.963a.999.999 0 1 1 1.414-1.414l3.963 3.963a.999.999 0 0 1-.707 1.707z" fill="#424a60"/><path d="M46.672 11.371a.999.999 0 0 1-.707-1.707l3-3a.999.999 0 1 1 1.414 1.414l-3 3a.996.996 0 0 1-.707.293zm-36.187 0a.997.997 0 0 1-.707-.293l-3-3a.999.999 0 1 1 1.414-1.414l3 3a.999.999 0 0 1-.707 1.707z" fill="#c7cac7"/><path d="M28.578 57.157c-15.439 0-28-12.561-28-28s12.561-28 28-28 28 12.561 28 28-12.56 28-28 28zm0-52c-13.234 0-24 10.767-24 24s10.766 24 24 24 24-10.767 24-24-10.766-24-24-24z" fill="#26b99a"/><path d="M28.578 6.036a1 1 0 0 0-1 1v1a1 1 0 1 0 2 0v-1a1 1 0 0 0-1-1zm0 43a1 1 0 0 0-1 1v1a1 1 0 1 0 2 0v-1a1 1 0 0 0-1-1zm22-21h-1a1 1 0 1 0 0 2h1a1 1 0 1 0 0-2zm-43 0h-1a1 1 0 1 0 0 2h1a1 1 0 1 0 0-2zm35.849-15.264l-.707.707a.999.999 0 1 0 1.414 1.414l.707-.707a.999.999 0 1 0-1.414-1.414zM13.022 43.178l-.707.707a.999.999 0 1 0 1.414 1.414l.707-.707a.999.999 0 1 0-1.414-1.414zm31.112 0a.999.999 0 1 0-1.414 1.414l.707.707a.997.997 0 0 0 1.414 0 .999.999 0 0 0 0-1.414l-.707-.707zM13.729 12.772a.999.999 0 1 0-1.414 1.414l.707.707a.997.997 0 0 0 1.414 0 .999.999 0 0 0 0-1.414l-.707-.707z" fill="#26b99a"/><path d="M39.578 30.157h-8a1 1 0 1 1 0-2h8a1 1 0 1 1 0 2zm-11-3a1 1 0 0 1-1-1v-11a1 1 0 1 1 2 0v11a1 1 0 0 1-1 1z" fill="#424a60"/><path d="M28.578 33.157c-2.206 0-4-1.794-4-4s1.794-4 4-4 4 1.794 4 4-1.794 4-4 4zm0-6c-1.103 0-2 .897-2 2s.897 2 2 2 2-.897 2-2-.897-2-2-2z" fill="#424a60"/><path d="M54.493 2.086a7.121 7.121 0 0 1 0 10.071L44.421 2.086a7.123 7.123 0 0 1 10.072 0zm-51.829 0a7.121 7.121 0 0 0 0 10.071L12.735 2.086a7.121 7.121 0 0 0-10.071 0z" fill="#e7eced"/></svg>