<svg xmlns="http://www.w3.org/2000/svg" viewBox="0 0 60 60"><path d="M34 12V8a4 4 0 0 0-8 0v4.072" fill="none" stroke="#dc9628" stroke-width="2" stroke-linecap="round" stroke-linejoin="round" stroke-miterlimit="10"/><path d="M16.491 50.638c10.701 1.847 16.658 1.847 27.36 0L53.341 49c-4.685-4.657-7.317-10.415-7.317-17v-9c.038-6.047-3.957-10.478-7.946-12.301-4.999-2.285-10.815-2.294-15.806.008C18.319 12.53 14.038 16.958 14 23v9c0 6.585-2.315 12.343-7 17l9.491 1.638z" fill="#eeaf4b"/><path d="M19 25.991h-.006A1.001 1.001 0 0 1 18 24.985c.03-4.682 3.752-7.643 5.948-8.654 3.849-1.775 8.594-1.772 12.469-.002a1 1 0 1 1-.832 1.818c-3.354-1.533-7.469-1.537-10.799 0-1.767.814-4.762 3.173-4.785 6.85-.004.55-.452.994-1.001.994z" fill="#fbd490"/><path d="M21.906 51.46C23.35 54.728 26.508 57 30.183 57c3.676 0 6.834-2.273 8.278-5.543-5.928.752-10.631.753-16.555.003z" fill="#dc9628"/><path d="M4.095 39.967a.997.997 0 0 1-.707-.293A11.506 11.506 0 0 1 0 31.483a11.5 11.5 0 0 1 3.388-8.19.999.999 0 1 1 1.414 1.414A9.517 9.517 0 0 0 2 31.483c0 2.563.995 4.969 2.802 6.776a.999.999 0 0 1-.707 1.708z" fill="#f2ecbf"/><path d="M8.305 37.69a.997.997 0 0 1-.707-.293c-3.337-3.337-3.337-8.768 0-12.104a.999.999 0 1 1 1.414 1.414 6.565 6.565 0 0 0 0 9.276.999.999 0 0 1-.707 1.707zm47.6 2.277a.999.999 0 0 1-.707-1.707A9.52 9.52 0 0 0 58 31.483c0-2.563-.995-4.97-2.802-6.776a.999.999 0 1 1 1.414-1.414A11.503 11.503 0 0 1 60 31.483c0 3.097-1.203 6.006-3.388 8.19a.994.994 0 0 1-.707.294z" fill="#f2ecbf"/><path d="M51.695 37.69a.999.999 0 0 1-.707-1.707 6.565 6.565 0 0 0 0-9.276.999.999 0 1 1 1.414-1.414c3.337 3.337 3.337 8.768 0 12.104a.993.993 0 0 1-.707.293z" fill="#f2ecbf"/></svg>