<svg xmlns="http://www.w3.org/2000/svg" viewBox="0 0 57.157 57.157"><path d="M15.804 51.517l-3.933 3.933a.999.999 0 1 0 1.414 1.414l3.933-3.933a.999.999 0 1 0-1.414-1.414zm29.481 3.933l-3.963-3.963a.999.999 0 1 0-1.414 1.414l3.963 3.963a.997.997 0 0 0 1.414 0 .999.999 0 0 0 0-1.414z" fill="#7383bf"/><path d="M47.303 11.129c.024-.02.053-.028.076-.05l3-3a.999.999 0 1 0-1.414-1.414l-3 3c-.031.031-.043.071-.069.104-4.598-4.11-10.664-6.612-17.317-6.612S15.86 5.659 11.261 9.768c-.026-.033-.038-.073-.069-.104l-3-3a.999.999 0 1 0-1.414 1.414l3 3c.022.022.052.03.076.05-4.502 4.675-7.275 11.026-7.275 18.028 0 14.359 11.641 26 26 26s26-11.641 26-26c-.001-7.002-2.774-13.353-7.276-18.027z" fill="#424a60"/><circle cx="28.578" cy="29.157" r="22" fill="#e7eced"/><circle cx="28.578" cy="29.157" r="15" fill="#fff"/><path d="M28.578 6.157a1 1 0 0 0-1 1v2a1 1 0 1 0 2 0v-2a1 1 0 0 0-1-1zm0 42a1 1 0 0 0-1 1v2a1 1 0 1 0 2 0v-2a1 1 0 0 0-1-1zm22-20h-2a1 1 0 1 0 0 2h2a1 1 0 1 0 0-2zm-41 1a1 1 0 0 0-1-1h-2a1 1 0 1 0 0 2h2a1 1 0 0 0 1-1zm8.867-19.553a.999.999 0 1 0-1.732 1l1 1.732a1.002 1.002 0 0 0 1.366.366 1 1 0 0 0 .366-1.366l-1-1.732zm21 36.373a1 1 0 1 0-1.732 1l1 1.732a1.002 1.002 0 0 0 1.366.366 1 1 0 0 0 .366-1.366l-1-1.732zM11.758 18.29l-1.732-1a1.001 1.001 0 0 0-1 1.732l1.732 1a.997.997 0 0 0 1.366-.366 1 1 0 0 0-.366-1.366zm36.373 21l-1.732-1a.999.999 0 1 0-1 1.732l1.732 1a.997.997 0 0 0 1.366-.366 1 1 0 0 0-.366-1.366zm-37.373-1l-1.732 1a1 1 0 0 0 1 1.732l1.732-1a1 1 0 0 0-1-1.732zM45.9 20.157a.997.997 0 0 0 .499-.134l1.732-1a1 1 0 0 0-1-1.732l-1.732 1a1 1 0 0 0 .501 1.866zM19.078 45.611a1 1 0 0 0-1.366.366l-1 1.732a1 1 0 0 0 1.732 1l1-1.732a1 1 0 0 0-.366-1.366zm21-36.373a1 1 0 0 0-1.366.366l-1 1.732a1 1 0 0 0 1.732 1l1-1.732a1 1 0 0 0-.366-1.366z" fill="#fff"/><path d="M39.578 28.157h-7.142a3.995 3.995 0 0 0-2.858-2.858V15.157a1 1 0 1 0-2 0v10.142c-1.72.447-3 1.999-3 3.858 0 2.206 1.794 4 4 4 1.858 0 3.411-1.28 3.858-3h7.142a1 1 0 1 0 0-2zm-11 3c-1.103 0-2-.897-2-2s.897-2 2-2 2 .897 2 2-.897 2-2 2z" fill="#424a60"/><path d="M54.493 2.086a7.121 7.121 0 0 1 0 10.071L44.421 2.086a7.123 7.123 0 0 1 10.072 0zm-51.829 0a7.121 7.121 0 0 0 0 10.071L12.735 2.086a7.121 7.121 0 0 0-10.071 0z" fill="#7383bf"/></svg>