<svg xmlns="http://www.w3.org/2000/svg" viewBox="0 0 58 58"><path d="M58 17.01H0V3.046C0 1.916.916 1 2.046 1h53.908C57.084 1 58 1.916 58 3.046V17.01z" fill="#b1b7bc"/><path fill="#e7eced" d="M3 17.01h52V57H3z"/><path d="M38 13.01H20a4 4 0 0 1 0-8h18a4 4 0 0 1 0 8z" fill="#424a60"/><path fill="#57abc1" d="M3 52h52v5H3z"/><path fill="#fff" d="M15 25h28v14H15z"/><path d="M19 31h6a1 1 0 1 0 0-2h-6a1 1 0 1 0 0 2zm10 0c.26 0 .52-.11.71-.29.18-.19.29-.45.29-.71 0-.261-.11-.521-.29-.71-.38-.37-1.05-.37-1.42 0-.181.189-.29.449-.29.71 0 .27.109.52.29.71.189.18.439.29.71.29zm10 2H23a1 1 0 1 0 0 2h16a1 1 0 1 0 0-2zm-20.71.29c-.181.189-.29.449-.29.71 0 .26.109.52.29.71.189.18.439.29.71.29.27 0 .52-.11.71-.29.18-.19.29-.45.29-.71 0-.261-.11-.521-.29-.71-.37-.37-1.04-.37-1.42 0z" fill="#c7cac7"/><path fill="#d7d7e2" d="M3 17h52v5H3z"/></svg>