<svg xmlns="http://www.w3.org/2000/svg" viewBox="0 0 58 58"><path d="M58 17H0V7.311A.31.31 0 0 1 .311 7h57.378a.31.31 0 0 1 .311.311V17z" fill="#996b52"/><path d="M57.778 7H.222a.102.102 0 0 1-.077-.169L6 0h46l5.855 6.831a.102.102 0 0 1-.077.169z" fill="#6c4127"/><path fill="#935f42" d="M3 17h52v41H3z"/><path fill="#6c4127" d="M18 23h22v8H18z"/><path fill="#edeada" d="M15 38h28v12H15z"/><path d="M26 45h-5a1 1 0 1 0 0 2h5a1 1 0 1 0 0-2zm0-2h11a1 1 0 1 0 0-2H26a1 1 0 1 0 0 2zm-5 0c.26 0 .52-.11.71-.29.18-.19.29-.45.29-.71 0-.261-.11-.521-.29-.71-.38-.37-1.04-.37-1.42 0-.18.189-.29.449-.29.71 0 .27.11.52.29.71.19.18.44.29.71.29zm9.29 2.29c-.18.189-.29.449-.29.71 0 .26.11.52.29.71.19.18.45.29.71.29.26 0 .52-.11.71-.29.18-.19.29-.45.29-.71 0-.261-.11-.521-.29-.71-.37-.37-1.05-.37-1.42 0zM37 45h-1a1 1 0 1 0 0 2h1a1 1 0 1 0 0-2z" fill="#cec9ae"/></svg>