<svg xmlns="http://www.w3.org/2000/svg" viewBox="0 0 58 58"><path fill="#d8a852" d="M16.5 0h10v4h-10z"/><path d="M34.5 34l2-3.464V6.464A2.464 2.464 0 0 0 34.036 4H8.964A2.464 2.464 0 0 0 6.5 6.464v49.072A2.464 2.464 0 0 0 8.964 58h25.072a2.464 2.464 0 0 0 2.464-2.464V37.464L34.5 34z" fill="#424a60"/><path d="M21.5 28c-4.625-15.375-15-11-15-11v38.536A2.464 2.464 0 0 0 8.964 58h25.072a2.464 2.464 0 0 0 2.464-2.464V37.464L35.5 36s-9.375 7.375-14-8z" fill="#43b05c"/><path d="M34.5 33h-2.586L29.5 30.586V28a1 1 0 1 0-2 0v2h-2a1 1 0 1 0 0 2h2.586l2.155 2.155L27.934 38H26.5a1 1 0 1 0 0 2h1v1a1 1 0 1 0 2 0v-1.723L32.066 35H34.5a1 1 0 1 0 0-2z" fill="#292f3a"/><circle cx="10.5" cy="22" r="1" fill="#a4e869"/><circle cx="7.5" cy="19" r="1" fill="#a4e869"/><circle cx="13.5" cy="19" r="1" fill="#a4e869"/><circle cx="7.5" cy="25" r="1" fill="#a4e869"/><circle cx="13.5" cy="25" r="1" fill="#a4e869"/><circle cx="16.5" cy="22" r="1" fill="#a4e869"/><circle cx="19.5" cy="25" r="1" fill="#a4e869"/><circle cx="10.5" cy="28" r="1" fill="#a4e869"/><circle cx="10.5" cy="34" r="1" fill="#a4e869"/><circle cx="7.5" cy="31" r="1" fill="#a4e869"/><circle cx="13.5" cy="31" r="1" fill="#a4e869"/><circle cx="7.5" cy="37" r="1" fill="#a4e869"/><circle cx="13.5" cy="37" r="1" fill="#a4e869"/><circle cx="16.5" cy="28" r="1" fill="#a4e869"/><circle cx="16.5" cy="34" r="1" fill="#a4e869"/><circle cx="22.5" cy="34" r="1" fill="#a4e869"/><circle cx="19.5" cy="31" r="1" fill="#a4e869"/><circle cx="40.5" cy="36" r="1" fill="#43b05c"/><circle cx="42.5" cy="43" r="1" fill="#43b05c"/><circle cx="42.5" cy="39" r="1" fill="#43b05c"/><circle cx="44.5" cy="46" r="1" fill="#43b05c"/><circle cx="45.5" cy="49" r="1" fill="#43b05c"/><circle cx="48.5" cy="53" r="1" fill="#43b05c"/><circle cx="46.5" cy="43" r="1" fill="#43b05c"/><circle cx="46.5" cy="39" r="1" fill="#43b05c"/><circle cx="48.5" cy="47" r="1" fill="#43b05c"/><circle cx="45.5" cy="53" r="1" fill="#43b05c"/><circle cx="50.5" cy="50" r="1" fill="#43b05c"/><circle cx="49.5" cy="57" r="1" fill="#43b05c"/><circle cx="19.5" cy="37" r="1" fill="#a4e869"/><circle cx="10.5" cy="40" r="1" fill="#a4e869"/><circle cx="10.5" cy="46" r="1" fill="#a4e869"/><circle cx="7.5" cy="43" r="1" fill="#a4e869"/><circle cx="13.5" cy="43" r="1" fill="#a4e869"/><circle cx="7.5" cy="49" r="1" fill="#a4e869"/><circle cx="13.5" cy="49" r="1" fill="#a4e869"/><circle cx="16.5" cy="40" r="1" fill="#a4e869"/><circle cx="22.5" cy="40" r="1" fill="#a4e869"/><circle cx="16.5" cy="46" r="1" fill="#a4e869"/><circle cx="22.5" cy="46" r="1" fill="#a4e869"/><circle cx="19.5" cy="43" r="1" fill="#a4e869"/><circle cx="25.5" cy="43" r="1" fill="#a4e869"/><circle cx="19.5" cy="49" r="1" fill="#a4e869"/><circle cx="25.5" cy="49" r="1" fill="#a4e869"/><circle cx="34.5" cy="40" r="1" fill="#a4e869"/><circle cx="28.5" cy="46" r="1" fill="#a4e869"/><circle cx="34.5" cy="46" r="1" fill="#a4e869"/><circle cx="31.5" cy="43" r="1" fill="#a4e869"/><circle cx="31.5" cy="49" r="1" fill="#a4e869"/><circle cx="10.5" cy="52" r="1" fill="#a4e869"/><circle cx="7.5" cy="55" r="1" fill="#a4e869"/><circle cx="13.5" cy="55" r="1" fill="#a4e869"/><circle cx="16.5" cy="52" r="1" fill="#a4e869"/><circle cx="22.5" cy="52" r="1" fill="#a4e869"/><circle cx="19.5" cy="55" r="1" fill="#a4e869"/><circle cx="25.5" cy="55" r="1" fill="#a4e869"/><circle cx="28.5" cy="52" r="1" fill="#a4e869"/><circle cx="34.5" cy="52" r="1" fill="#a4e869"/><circle cx="31.5" cy="55" r="1" fill="#a4e869"/><path d="M34.036 6c.256 0 .464.208.464.464v49.072a.464.464 0 0 1-.464.464H8.964a.464.464 0 0 1-.464-.464V6.464c0-.256.208-.464.464-.464h25.072m0-2H8.964A2.464 2.464 0 0 0 6.5 6.464v49.072A2.464 2.464 0 0 0 8.964 58h25.072a2.464 2.464 0 0 0 2.464-2.464V6.464A2.464 2.464 0 0 0 34.036 4z" fill="#292f3a"/></svg>