<svg xmlns="http://www.w3.org/2000/svg" viewBox="0 0 58 58"><path d="M41.536 58H16.464A2.464 2.464 0 0 1 14 55.536V6.464A2.464 2.464 0 0 1 16.464 4h25.072A2.464 2.464 0 0 1 44 6.464v49.072A2.464 2.464 0 0 1 41.536 58z" fill="#424a60"/><path fill="#d8a852" d="M24 0h10v4H24z"/><path d="M41.536 58H16.464A2.464 2.464 0 0 1 14 55.536V25.464A2.464 2.464 0 0 1 16.464 23h25.072A2.464 2.464 0 0 1 44 25.464v30.072A2.464 2.464 0 0 1 41.536 58z" fill="#43b05c"/><g fill="#a4e869"><circle cx="17" cy="52" r="1"/><circle cx="20" cy="55" r="1"/><circle cx="23" cy="52" r="1"/><circle cx="29" cy="52" r="1"/><circle cx="26" cy="55" r="1"/><circle cx="32" cy="55" r="1"/><circle cx="35" cy="52" r="1"/><circle cx="41" cy="52" r="1"/><circle cx="38" cy="55" r="1"/><circle cx="17" cy="46" r="1"/><circle cx="20" cy="49" r="1"/><circle cx="23" cy="46" r="1"/><circle cx="29" cy="46" r="1"/><circle cx="26" cy="49" r="1"/><circle cx="32" cy="49" r="1"/><circle cx="35" cy="46" r="1"/><circle cx="41" cy="46" r="1"/><circle cx="38" cy="49" r="1"/><circle cx="17" cy="40" r="1"/><circle cx="20" cy="43" r="1"/><circle cx="23" cy="40" r="1"/><circle cx="29" cy="40" r="1"/><circle cx="26" cy="43" r="1"/><circle cx="32" cy="43" r="1"/><circle cx="35" cy="40" r="1"/><circle cx="41" cy="40" r="1"/><circle cx="38" cy="43" r="1"/><circle cx="17" cy="34" r="1"/><circle cx="20" cy="37" r="1"/><circle cx="23" cy="34" r="1"/><circle cx="29" cy="34" r="1"/><circle cx="26" cy="37" r="1"/><circle cx="32" cy="37" r="1"/><circle cx="35" cy="34" r="1"/><circle cx="41" cy="34" r="1"/><circle cx="38" cy="37" r="1"/><circle cx="17" cy="28" r="1"/><circle cx="20" cy="31" r="1"/><circle cx="23" cy="28" r="1"/><circle cx="29" cy="28" r="1"/><circle cx="26" cy="31" r="1"/><circle cx="32" cy="31" r="1"/><circle cx="35" cy="28" r="1"/><circle cx="41" cy="28" r="1"/><circle cx="38" cy="31" r="1"/><circle cx="20" cy="25" r="1"/><circle cx="26" cy="25" r="1"/><circle cx="32" cy="25" r="1"/><circle cx="38" cy="25" r="1"/></g><path d="M41.536 6c.256 0 .464.208.464.464v49.072a.464.464 0 0 1-.464.464H16.464a.464.464 0 0 1-.464-.464V6.464c0-.256.208-.464.464-.464h25.072m0-2H16.464A2.464 2.464 0 0 0 14 6.464v49.072A2.464 2.464 0 0 0 16.464 58h25.072A2.464 2.464 0 0 0 44 55.536V6.464A2.464 2.464 0 0 0 41.536 4z" fill="#292f3a"/></svg>