<svg xmlns="http://www.w3.org/2000/svg" viewBox="0 0 58 58"><path d="M19 17V7.206C19 5.988 19.988 5 21.206 5h15.587C38.012 5 39 5.988 39 7.206V17" fill="none" stroke="#556080" stroke-width="2" stroke-linecap="round" stroke-miterlimit="10"/><path d="M55.99 54H2.01C.9 54 0 53.1 0 51.99V16.01C0 14.9.9 14 2.01 14h53.98c1.11 0 2.01.9 2.01 2.01v35.98c0 1.11-.9 2.01-2.01 2.01z" fill="#a97c50"/><path d="M8 14H2.01C.9 14 0 14.9 0 16.01v35.98C0 53.1.9 54 2.01 54H8V14zm47.99 0H50v40h5.99c1.11 0 2.01-.9 2.01-2.01V16.01c0-1.11-.9-2.01-2.01-2.01z" fill="#997046"/><path fill="#d1a074" d="M7 14h2v40H7zm42 0h2v40h-2z"/><path fill="#c7cac7" d="M5 11h8v3H5zm40 0h8v3h-8z"/></svg>