<svg xmlns="http://www.w3.org/2000/svg" viewBox="0 0 56 56"><path fill="#ebba16" d="M0 0h28v28H0z"/><path fill="#ed8a19" d="M28 0h28v28H28zM0 28h28v28H0z"/><path fill="#556080" d="M28 28h28v28H28z"/><path d="M48 46H36a1 1 0 1 1 0-2h12a1 1 0 1 1 0 2zm0-6H36a1 1 0 1 1 0-2h12a1 1 0 1 1 0 2zm-34 3a.999.999 0 0 1-.707-1.707l5-5a.999.999 0 1 1 1.414 1.414l-5 5A.997.997 0 0 1 14 43z" fill="#fff"/><path d="M9 48a.999.999 0 0 1-.707-1.707l5-5a.999.999 0 1 1 1.414 1.414l-5 5A.997.997 0 0 1 9 48z" fill="#fff"/><path d="M19 48a.997.997 0 0 1-.707-.293l-5-5a.999.999 0 1 1 1.414-1.414l5 5A.999.999 0 0 1 19 48z" fill="#fff"/><path d="M14 43a.997.997 0 0 1-.707-.293l-5-5a.999.999 0 1 1 1.414-1.414l5 5A.999.999 0 0 1 14 43zm6-28H8a1 1 0 1 1 0-2h12a1 1 0 1 1 0 2z" fill="#fff"/><path d="M14 21a1 1 0 0 1-1-1V8a1 1 0 1 1 2 0v12a1 1 0 0 1-1 1zm34-6H36a1 1 0 1 1 0-2h12a1 1 0 1 1 0 2z" fill="#fff"/></svg>