<svg xmlns="http://www.w3.org/2000/svg" viewBox="0 0 59 59"><path fill="#a7afc6" d="M1.5 16h56v42h-56z"/><path fill="#424a60" d="M42.5 5H.5v10h58V5z"/><circle cx="20.5" cy="9" r="2" fill="#262b38"/><circle cx="26.5" cy="9" r="2" fill="#262b38"/><circle cx="32.5" cy="9" r="2" fill="#262b38"/><circle cx="38.5" cy="9" r="2" fill="#262b38"/><path d="M38.5 0c-1.13 0-2.162.391-3 1.025.534.405.979.912 1.315 1.495A2.98 2.98 0 0 1 38.5 2c1.654 0 3 1.346 3 3s-1.346 3-3 3a1 1 0 1 0 0 2c2.757 0 5-2.243 5-5s-2.243-5-5-5z" fill="#afb6bb"/><path d="M34.185 2.52A4.936 4.936 0 0 0 33.5 5h2c0-1.03-.522-1.939-1.315-2.48zm-6 0A4.936 4.936 0 0 0 27.5 5h2c0-1.03-.522-1.939-1.315-2.48z" fill="#839594"/><path d="M36.815 2.52A5.027 5.027 0 0 0 35.5 1.025C34.662.391 33.63 0 32.5 0s-2.162.391-3 1.025c.534.405.979.912 1.315 1.495.481-.328 1.061-.52 1.685-.52s1.204.192 1.685.52A2.999 2.999 0 0 1 32.5 8a1 1 0 1 0 0 2c2.757 0 5-2.243 5-5 0-.907-.261-1.746-.685-2.48z" fill="#afb6bb"/><path d="M22.185 2.52A4.936 4.936 0 0 0 21.5 5h2c0-1.03-.522-1.939-1.315-2.48z" fill="#839594"/><path d="M30.815 2.52A5.027 5.027 0 0 0 29.5 1.025C28.662.391 27.63 0 26.5 0s-2.162.391-3 1.025c.534.405.979.912 1.315 1.495.481-.328 1.061-.52 1.685-.52s1.204.192 1.685.52A2.999 2.999 0 0 1 26.5 8a1 1 0 1 0 0 2c2.757 0 5-2.243 5-5 0-.907-.261-1.746-.685-2.48z" fill="#afb6bb"/><path d="M24.815 2.52A5.027 5.027 0 0 0 23.5 1.025 4.954 4.954 0 0 0 20.5 0c-2.757 0-5 2.243-5 5h2c0-1.654 1.346-3 3-3a2.98 2.98 0 0 1 1.685.52A2.999 2.999 0 0 1 20.5 8a1 1 0 1 0 0 2c2.757 0 5-2.243 5-5 0-.907-.261-1.746-.685-2.48z" fill="#afb6bb"/><path fill="none" stroke="#1081e0" stroke-width="2" stroke-linecap="round" stroke-miterlimit="10" d="M29.5 30h14v14h-14z"/><path d="M44.5 15H.5v44h58V15h-14zm-14 2h12v12h-12V17zm12 26h-12V31h12v12zm-26-12h12v12h-12V31zm0-14h12v12h-12V17zm-14 0h12v12h-12V17zm0 14h12v12h-12V31zm12 26h-12V45h12v12zm14 0h-12V45h12v12zm14 0h-12V45h12v12zm14 0h-12V45h12v12zm0-14h-12V31h12v12zm-12-14V17h12v12h-12z" fill="#556080"/><path fill="#ebba16" d="M30.5 31h12v12h-12z"/><path d="M37.914 37l3.293-3.293a.999.999 0 1 0-1.414-1.414L36.5 35.586l-3.293-3.293a.999.999 0 1 0-1.414 1.414L35.086 37l-3.293 3.293a.999.999 0 1 0 1.414 1.414l3.293-3.293 3.293 3.293a.997.997 0 0 0 1.414 0 .999.999 0 0 0 0-1.414L37.914 37z" fill="#efce4a"/></svg>