<svg xmlns="http://www.w3.org/2000/svg" viewBox="0 0 56 56"><path fill="#424a60" d="M41 5.5H0v10h56v-10z"/><circle cx="19" cy="9.5" r="2" fill="#262b38"/><circle cx="25" cy="9.5" r="2" fill="#262b38"/><circle cx="31" cy="9.5" r="2" fill="#262b38"/><circle cx="37" cy="9.5" r="2" fill="#262b38"/><path d="M37 .5c-1.13 0-2.162.391-3 1.025.534.405.979.912 1.315 1.495A2.98 2.98 0 0 1 37 2.5c1.654 0 3 1.346 3 3s-1.346 3-3 3a1 1 0 1 0 0 2c2.757 0 5-2.243 5-5s-2.243-5-5-5z" fill="#afb6bb"/><path d="M32.685 3.02A4.936 4.936 0 0 0 32 5.5h2c0-1.03-.522-1.939-1.315-2.48zm-6 0A4.936 4.936 0 0 0 26 5.5h2c0-1.03-.522-1.939-1.315-2.48z" fill="#839594"/><path d="M35.315 3.02A5.013 5.013 0 0 0 34 1.525C33.162.891 32.13.5 31 .5s-2.162.391-3 1.025c.534.405.979.912 1.315 1.495.481-.328 1.061-.52 1.685-.52s1.204.192 1.685.52A2.999 2.999 0 0 1 31 8.5a1 1 0 1 0 0 2c2.757 0 5-2.243 5-5 0-.907-.261-1.746-.685-2.48z" fill="#afb6bb"/><path d="M20.685 3.02A4.936 4.936 0 0 0 20 5.5h2c0-1.03-.522-1.939-1.315-2.48z" fill="#839594"/><path d="M29.315 3.02A5.013 5.013 0 0 0 28 1.525C27.162.891 26.13.5 25 .5s-2.162.391-3 1.025c.534.405.979.912 1.315 1.495.481-.328 1.061-.52 1.685-.52s1.204.192 1.685.52A2.999 2.999 0 0 1 25 8.5a1 1 0 1 0 0 2c2.757 0 5-2.243 5-5 0-.907-.261-1.746-.685-2.48z" fill="#afb6bb"/><path d="M23.315 3.02A5.013 5.013 0 0 0 22 1.525 4.954 4.954 0 0 0 19 .5c-2.757 0-5 2.243-5 5h2c0-1.654 1.346-3 3-3a2.98 2.98 0 0 1 1.685.52A2.999 2.999 0 0 1 19 8.5a1 1 0 1 0 0 2c2.757 0 5-2.243 5-5 0-.907-.261-1.746-.685-2.48z" fill="#afb6bb"/><path fill="#edeada" d="M0 15.5h56v40H0z"/><path d="M8 24.5h22a1 1 0 1 0 0-2H8a1 1 0 1 0 0 2zm40 14H33a1 1 0 1 0 0 2h15a1 1 0 1 0 0-2zm-40-6h10a1 1 0 1 0 0-2H8a1 1 0 1 0 0 2zm40 14H38a1 1 0 1 0 0 2h10a1 1 0 1 0 0-2zm-21-15a1 1 0 0 0 1 1h15a1 1 0 1 0 0-2H28a1 1 0 0 0-1 1zm-3.29.71c.18-.19.29-.45.29-.71 0-.261-.11-.521-.29-.71-.37-.37-1.05-.37-1.42 0-.18.189-.29.449-.29.71 0 .26.11.52.29.71a1.011 1.011 0 0 0 1.42 0zM12 39.5a1 1 0 0 0 1 1h15a1 1 0 1 0 0-2H13a1 1 0 0 0-1 1zm-4 1c.26 0 .52-.11.71-.29.18-.19.29-.45.29-.71 0-.261-.11-.521-.29-.7-.37-.38-1.05-.38-1.42-.01-.18.189-.29.449-.29.71 0 .26.11.52.29.71.19.18.44.29.71.29zm40-8c.26 0 .52-.101.71-.29.19-.19.29-.45.29-.71 0-.261-.1-.521-.29-.71-.38-.37-1.05-.37-1.42 0-.18.189-.29.449-.29.71 0 .26.11.52.29.71.19.189.45.29.71.29zm-15 14H8a1 1 0 1 0 0 2h25a1 1 0 1 0 0-2z" fill="#cec9ae"/></svg>