<svg xmlns="http://www.w3.org/2000/svg" viewBox="0 0 56 56"><path fill="#61b872" d="M41 5H0v11h56V5z"/><circle cx="19" cy="9" r="2" fill="#50965c"/><circle cx="25" cy="9" r="2" fill="#50965c"/><circle cx="31" cy="9" r="2" fill="#50965c"/><circle cx="37" cy="9" r="2" fill="#50965c"/><path fill="#edeada" d="M0 16h56v40H0z"/><g fill="#424a60"><circle cx="21" cy="24" r="1"/><circle cx="28" cy="24" r="1"/><circle cx="35" cy="24" r="1"/><circle cx="42" cy="24" r="1"/><circle cx="49" cy="24" r="1"/><circle cx="7" cy="32" r="1"/><circle cx="14" cy="32" r="1"/><circle cx="21" cy="32" r="1"/><circle cx="28" cy="32" r="1"/><circle cx="35" cy="32" r="1"/><circle cx="42" cy="32" r="1"/><circle cx="49" cy="32" r="1"/><circle cx="7" cy="39" r="1"/><circle cx="14" cy="39" r="1"/><circle cx="21" cy="39" r="1"/><circle cx="28" cy="39" r="1"/><circle cx="35" cy="39" r="1"/><circle cx="42" cy="39" r="1"/><circle cx="49" cy="39" r="1"/><circle cx="7" cy="47" r="1"/><circle cx="14" cy="47" r="1"/><circle cx="21" cy="47" r="1"/><circle cx="28" cy="47" r="1"/><circle cx="35" cy="47" r="1"/></g><path d="M37 0c-1.13 0-2.162.391-3 1.025.534.405.979.912 1.315 1.495A2.98 2.98 0 0 1 37 2c1.654 0 3 1.346 3 3s-1.346 3-3 3a1 1 0 1 0 0 2c2.757 0 5-2.243 5-5s-2.243-5-5-5z" fill="#d8a852"/><path d="M32.685 2.52A4.936 4.936 0 0 0 32 5h2c0-1.03-.522-1.939-1.315-2.48zm-6 0A4.936 4.936 0 0 0 26 5h2c0-1.03-.522-1.939-1.315-2.48z" fill="#a37f46"/><path d="M35.315 2.52A5.013 5.013 0 0 0 34 1.025C33.162.391 32.13 0 31 0s-2.162.391-3 1.025c.534.405.979.912 1.315 1.495C29.796 2.192 30.376 2 31 2s1.204.192 1.685.52A2.999 2.999 0 0 1 31 8a1 1 0 1 0 0 2c2.757 0 5-2.243 5-5 0-.907-.261-1.746-.685-2.48z" fill="#d8a852"/><path d="M20.685 2.52A4.936 4.936 0 0 0 20 5h2c0-1.03-.522-1.939-1.315-2.48z" fill="#a37f46"/><path d="M29.315 2.52A5.013 5.013 0 0 0 28 1.025C27.162.391 26.13 0 25 0s-2.162.391-3 1.025c.534.405.979.912 1.315 1.495C23.796 2.192 24.376 2 25 2s1.204.192 1.685.52A2.999 2.999 0 0 1 25 8a1 1 0 1 0 0 2c2.757 0 5-2.243 5-5 0-.907-.261-1.746-.685-2.48z" fill="#d8a852"/><path d="M23.315 2.52A5.013 5.013 0 0 0 22 1.025 4.954 4.954 0 0 0 19 0c-2.757 0-5 2.243-5 5h2c0-1.654 1.346-3 3-3a2.98 2.98 0 0 1 1.685.52A2.999 2.999 0 0 1 19 8a1 1 0 1 0 0 2c2.757 0 5-2.243 5-5 0-.907-.261-1.746-.685-2.48z" fill="#d8a852"/></svg>