<svg xmlns="http://www.w3.org/2000/svg" viewBox="0 0 60 60"><path d="M51.2 60H8.8A8.8 8.8 0 0 1 0 51.2V8.8A8.8 8.8 0 0 1 8.8 0h42.4A8.8 8.8 0 0 1 60 8.8v42.4a8.8 8.8 0 0 1-8.8 8.8z" fill="#e7eced"/><path d="M25 25h-4.5a4.5 4.5 0 0 1-4.5-4.5v0a4.5 4.5 0 0 1 4.5-4.5h0a4.5 4.5 0 0 1 4.5 4.5V25zm0 0h11v11H25zm-4.5 20h0a4.5 4.5 0 0 1-4.5-4.5v0a4.5 4.5 0 0 1 4.5-4.5H25v4.5a4.5 4.5 0 0 1-4.5 4.5zm20-20H36v-4.5a4.5 4.5 0 0 1 4.5-4.5h0a4.5 4.5 0 0 1 4.5 4.5v0a4.5 4.5 0 0 1-4.5 4.5zm0 20h0a4.5 4.5 0 0 1-4.5-4.5V36h4.5a4.5 4.5 0 0 1 4.5 4.5v0a4.5 4.5 0 0 1-4.5 4.5z" fill="none" stroke="#afb6bb" stroke-width="2" stroke-linecap="round" stroke-miterlimit="10"/></svg>