<svg xmlns="http://www.w3.org/2000/svg" viewBox="0 0 58 58"><path fill="#556080" d="M0 0h58v58H0z"/><path d="M11 6a1 1 0 0 0-1 1v32a1 1 0 1 0 2 0V7a1 1 0 0 0-1-1zm36 12a1 1 0 0 0-1 1v32a1 1 0 1 0 2 0V19a1 1 0 0 0-1-1zM29 6a1 1 0 0 0-1 1v15a1 1 0 1 0 2 0V7a1 1 0 0 0-1-1zm0 27a1 1 0 0 0-1 1v17a1 1 0 1 0 2 0V34a1 1 0 0 0-1-1z" fill="#7383bf"/><circle cx="11" cy="47" r="6" fill="#afb6bb"/><circle cx="47" cy="15" r="6" fill="#afb6bb"/><circle cx="29" cy="30" r="6" fill="#afb6bb"/><circle cx="11" cy="45" r="6" fill="#e7eced"/><circle cx="47" cy="13" r="6" fill="#e7eced"/><circle cx="29" cy="28" r="6" fill="#e7eced"/></svg>