<svg xmlns="http://www.w3.org/2000/svg" viewBox="0 0 58 58"><path d="M34 0C22.773 0 13.35 2.73 10.728 6.418 4.63 7.854.495 10.252.045 13H0v37h.045C.776 54.461 11.219 58 24 58c11.227 0 20.648-2.731 23.269-6.419 6.097-1.436 10.236-3.833 10.687-6.581H58V8.5C58 3.806 47.255 0 34 0z" fill="#424a60"/><path d="M24 46c-13.255 0-24-3.806-24-8.5V50h.045C.776 54.461 11.219 58 24 58s23.224-3.539 23.955-8H48V37.5c0 4.694-10.745 8.5-24 8.5zM0 37v.5c0-.168.018-.334.045-.5H0zm47.955 0c.027.166.045.332.045.5V37h-.045z" fill="#424a60"/><path d="M24 34c-13.255 0-24-3.806-24-8.5V38h.045C.776 42.461 11.219 46 24 46s23.224-3.539 23.955-8H48V25.5c0 4.694-10.745 8.5-24 8.5zM0 25v.5c0-.168.018-.334.045-.5H0zm47.955 0c.027.166.045.332.045.5V25h-.045z" fill="#556080"/><ellipse cx="24" cy="13.5" rx="24" ry="8.5" fill="#7fabda"/><path d="M24 22c-13.255 0-24-3.806-24-8.5V26h.045C.776 30.461 11.219 34 24 34s23.224-3.539 23.955-8H48V13.5c0 4.694-10.745 8.5-24 8.5zM0 13v.5c0-.168.018-.334.045-.5H0zm47.955 0c.027.166.045.332.045.5V13h-.045z" fill="#7383bf"/><path d="M34 0C22.772 0 13.347 2.731 10.727 6.42 14.529 5.524 19.09 5 24 5c12.781 0 23.224 3.538 23.955 8H48v2.402c6.054-1.543 10-4.059 10-6.902C58 3.806 47.255 0 34 0z" fill="#88c057"/><path d="M48 15.402v12.001c5.696-1.452 9.523-3.766 9.955-6.403H58V8.5c0 2.843-3.946 5.359-10 6.902z" fill="#61b872"/><path d="M48 27.402v12.001c5.696-1.452 9.523-3.766 9.955-6.403H58V20.5c0 2.843-3.946 5.359-10 6.902z" fill="#25ae88"/><path d="M48 39.402V50h-.045c-.089.542-.324 1.071-.687 1.581 6.097-1.436 10.236-3.833 10.687-6.581H58V32.5c0 2.843-3.946 5.359-10 6.902z" fill="#1a9172"/></svg>