<svg xmlns="http://www.w3.org/2000/svg" viewBox="0 0 56 56"><path fill="#4b6daa" d="M40.5 0h14v36h-14z"/><circle cx="47.5" cy="9" r="4" fill="#d8a852"/><path d="M2.5 30a4 4 0 0 0 4 4h15.602l-.988 4.619c-.754 3.524-.552 7.819-.104 10.836.448 3.017 3.15 6.545 5.977 6.545h.239c2.41 0 3.274-2.659 3.274-6 0-16.25 8-16 8-16h2V2h-29a4 4 0 0 0 0 8h-3a4 4 0 0 0 0 8h-3a4 4 0 0 0-4 4c0 2.493 1.613 3.442 4 3.796 1.163.173 3.276.204 4 .204h-3a4 4 0 0 0-4 4z" fill="#fbce9d"/><path d="M19.5 10a1 1 0 0 0-1-1H8.88c.703.615 1.613 1 2.62 1h-3a3.963 3.963 0 0 0-2.62 1H18.5a1 1 0 0 0 1-1zm-3 7H5.88c.703.615 1.613 1 2.62 1h-3a3.963 3.963 0 0 0-2.62 1H16.5a1 1 0 1 0 0-2zm0 8H3.044c.657.403 1.488.653 2.456.796 1.163.173 3.276.204 4 .204h-3a3.963 3.963 0 0 0-2.62 1H16.5a1 1 0 1 0 0-2z" fill="#f7b563"/></svg>