<svg xmlns="http://www.w3.org/2000/svg" viewBox="0 0 50 50"><path d="M24.85 10.126c2.018-4.783 6.628-8.125 11.99-8.125 7.223 0 12.425 6.179 13.079 13.543 0 0 .353 1.828-.424 5.119-1.058 4.482-3.545 8.464-6.898 11.503L24.85 48 7.402 32.165c-3.353-3.038-5.84-7.021-6.898-11.503-.777-3.291-.424-5.119-.424-5.119C.734 8.179 5.936 2 13.159 2c5.363 0 9.673 3.343 11.691 8.126z" fill="#949493"/><path d="M36.841 2.001c-5.24 0-9.753 3.195-11.841 7.803v1.274l-7 7 15 2-12 11 8 5-3.9 11.699 17.498-15.611c3.353-3.038 5.84-7.021 6.898-11.503.777-3.291.424-5.119.424-5.119-.654-7.364-5.856-13.543-13.079-13.543z" fill="#c7cac7"/></svg>