<svg xmlns="http://www.w3.org/2000/svg" viewBox="0 0 58 58"><path d="M47 47c0 5.527 4.473 10 10 10" fill="none" stroke="#424a60" stroke-width="2" stroke-linecap="round" stroke-miterlimit="10"/><path d="M28 16c-2.106 0-4.083.546-5.804 1.499C22.863 20.086 25.205 22 28 22s5.137-1.914 5.804-4.501A11.942 11.942 0 0 0 28 16zm0 24c2.106 0 4.083-.546 5.804-1.499C33.137 35.914 30.795 34 28 34s-5.137 1.914-5.804 4.501A11.942 11.942 0 0 0 28 40zm12-12c0-2.106-.546-4.083-1.499-5.803C35.914 22.863 34 25.205 34 28s1.914 5.137 4.501 5.803A11.936 11.936 0 0 0 40 28zm-22.501-5.803C16.546 23.917 16 25.894 16 28s.546 4.083 1.499 5.803C20.086 33.137 22 30.795 22 28s-1.914-5.137-4.501-5.803z" fill="#424a60"/><path d="M28 0C12.536 0 0 12.536 0 28s12.536 28 28 28 28-12.536 28-28S43.464 0 28 0zm0 10a6 6 0 1 1 0 12 6 6 0 0 1 0-12zM16 34a6 6 0 1 1 0-12 6 6 0 0 1 0 12zm12 12a6 6 0 1 1 0-12 6 6 0 0 1 0 12zm12-12a6 6 0 1 1 0-12 6 6 0 0 1 0 12z" fill="#c7cac7"/><path d="M28 4C14.745 4 4 14.745 4 28s10.745 24 24 24 24-10.745 24-24S41.255 4 28 4zm0 6a6 6 0 1 1 0 12 6 6 0 0 1 0-12zM16 34a6 6 0 1 1 0-12 6 6 0 0 1 0 12zm12 12a6 6 0 1 1 0-12 6 6 0 0 1 0 12zm12-12a6 6 0 1 1 0-12 6 6 0 0 1 0 12z" fill="#e7eced"/></svg>