<svg xmlns="http://www.w3.org/2000/svg" viewBox="0 0 58 58"><path d="M46.324 58H1.565a1.564 1.564 0 0 1-1.51-1.973l10.166-27.871A1.564 1.564 0 0 1 11.731 27H56.49c1.03 0 1.51.984 1.51 1.973L47.834 56.844A1.564 1.564 0 0 1 46.324 58z" fill="#efce4a"/><path d="M50.268 18H48v9h4v-7.268c0-.957-.776-1.732-1.732-1.732zM4 11H1.732C.776 11 0 11.775 0 12.732V55.46c.069.002.138.006.205.01L4 45.122V11z" fill="#ebba16"/><path d="M10.221 28.156A1.564 1.564 0 0 1 11.731 27H48V0H10v28.761l.221-.605z" fill="#f4efdc"/><path d="M17 16h24a1 1 0 1 0 0-2H17a1 1 0 1 0 0 2zm0-7h10a1 1 0 1 0 0-2H17a1 1 0 1 0 0 2zm24 12H17a1 1 0 1 0 0 2h24a1 1 0 1 0 0-2zm-31 7.761V2H7v34.986z" fill="#cec9ae"/><path fill="#d1bf86" d="M7 36.986V4H4v41.211z"/></svg>