<svg xmlns="http://www.w3.org/2000/svg" viewBox="0 0 58 58"><path d="M46.324 52.5H1.565a1.564 1.564 0 0 1-1.51-1.973l10.166-27.871a1.564 1.564 0 0 1 1.51-1.156H56.49c1.03 0 1.51.984 1.51 1.973L47.834 51.344a1.564 1.564 0 0 1-1.51 1.156z" fill="#efce4a"/><path d="M10.221 22.656a1.563 1.563 0 0 1 1.51-1.156H53v-9H9l-6 6v23.953l7.221-19.797z" fill="#f4efdc"/><path d="M3 18.5l6-6h16l-5-7H1.732C.776 5.5 0 6.275 0 7.232V49.96c.069.002.138.006.205.01L3 42.349V18.5z" fill="#ebba16"/><path d="M28 17.5h2v4h-2zm7 0h2v4h-2zm7 0h2v4h-2zm-28 0h2v4h-2zm7 0h2v4h-2zm-12 1v-6l-6 6z" fill="#d1bf86"/></svg>