<svg xmlns="http://www.w3.org/2000/svg" viewBox="0 0 57.912 57.912"><path d="M54 22.956V7.724a.768.768 0 0 0-.768-.768H22.435a.764.764 0 0 1-.658-.373l-2.553-4.255a.77.77 0 0 0-.658-.373H4.768A.77.77 0 0 0 4 2.724v20.232h50z" fill="#b5885b"/><path fill="#fff" d="M7 18.956h44v4H7z"/><path fill="#e7eced" d="M8 15.956h42v3H8z"/><path fill="#c7cac7" d="M9 12.956h40v3H9z"/><path d="M52.723 55.956H5.189a.271.271 0 0 1-.268-.23L.003 23.268a.271.271 0 0 1 .268-.312h57.37c.166 0 .293.148.268.312l-4.918 32.458a.271.271 0 0 1-.268.23z" fill="#f7b563"/><path fill="#edeada" d="M26.956 36.956h19v12h-19z"/><path d="M30.956 41.956h4a1 1 0 1 0 0-2h-4a1 1 0 1 0 0 2zm8 0h1a1 1 0 1 0 0-2h-1a1 1 0 1 0 0 2zm3 2h-11a1 1 0 1 0 0 2h11a1 1 0 1 0 0-2z" fill="#cec9ae"/></svg>