<svg xmlns="http://www.w3.org/2000/svg" viewBox="0 0 57.912 57.912"><path d="M52.723 55.956H5.189a.271.271 0 0 1-.268-.23L.003 23.268a.271.271 0 0 1 .268-.312h57.37c.166 0 .293.148.268.312l-4.918 32.458a.271.271 0 0 1-.268.23z" fill="#f7b563"/><path d="M54 22.956V7.724a.768.768 0 0 0-.768-.768H22.435a.764.764 0 0 1-.658-.373l-2.553-4.255a.77.77 0 0 0-.658-.373H4.768A.77.77 0 0 0 4 2.724v20.232h50z" fill="#b5885b"/><path fill="#fff" d="M7 18.956h44v4H7z"/><path fill="#e7eced" d="M8 15.956h42v3H8z"/><path fill="#c7cac7" d="M9 12.956h40v3H9z"/><path fill="#424a60" d="M2.38 38.956l.805 5.313 5.313-5.313z"/><path fill="#efce4a" d="M11.326 38.956H8.498l-5.313 5.313.372 2.456.549 3.622 11.392-11.391z"/><path fill="#424a60" d="M18.326 38.956h-2.828L4.106 50.347l.092.609h7.3l12-12z"/><path fill="#efce4a" d="M26.326 38.956h-2.828l-12 12h8l12-12z"/><path fill="#424a60" d="M34.326 38.956h-2.828l-12 12h8l12-12z"/><path fill="#efce4a" d="M42.326 38.956h-2.828l-12 12h8l12-12z"/><path fill="#424a60" d="M50.326 38.956h-2.828l-12 12h8l12-12z"/><path fill="#efce4a" d="M55.498 38.956l-12 12h10.215l1.32-8.707.499-3.293z"/></svg>