<svg xmlns="http://www.w3.org/2000/svg" viewBox="0 0 52 52"><path d="M40.271 52H11.729A2.73 2.73 0 0 1 9 49.271V13h34v36.271A2.73 2.73 0 0 1 40.271 52z" fill="#e7eced"/><path d="M45 13H7V9.557A2.557 2.557 0 0 1 9.557 7h32.886A2.557 2.557 0 0 1 45 9.557V13z" fill="#c7d0d3"/><path d="M20 7V3c0-1.1.9-2 2-2h8c1.1 0 2 .9 2 2v4H20z" fill="#fff" stroke="#556080" stroke-width="2" stroke-linecap="round" stroke-miterlimit="10"/><g fill="#c7d0d3"><circle cx="14" cy="21" r="1"/><circle cx="14" cy="27" r="1"/><circle cx="17" cy="18" r="1"/><circle cx="23" cy="18" r="1"/><circle cx="17" cy="24" r="1"/><circle cx="23" cy="24" r="1"/><circle cx="20" cy="21" r="1"/><circle cx="26" cy="21" r="1"/><circle cx="20" cy="27" r="1"/><circle cx="26" cy="27" r="1"/><circle cx="29" cy="18" r="1"/><circle cx="35" cy="18" r="1"/><circle cx="29" cy="24" r="1"/><circle cx="35" cy="24" r="1"/><circle cx="32" cy="21" r="1"/><circle cx="38" cy="21" r="1"/><circle cx="32" cy="27" r="1"/><circle cx="38" cy="27" r="1"/><circle cx="14" cy="33" r="1"/><circle cx="14" cy="39" r="1"/><circle cx="17" cy="30" r="1"/><circle cx="23" cy="30" r="1"/><circle cx="17" cy="36" r="1"/><circle cx="23" cy="36" r="1"/><circle cx="20" cy="33" r="1"/><circle cx="26" cy="33" r="1"/><circle cx="20" cy="39" r="1"/><circle cx="26" cy="39" r="1"/><circle cx="29" cy="30" r="1"/><circle cx="35" cy="30" r="1"/><circle cx="29" cy="36" r="1"/><circle cx="35" cy="36" r="1"/><circle cx="32" cy="33" r="1"/><circle cx="38" cy="33" r="1"/><circle cx="32" cy="39" r="1"/><circle cx="38" cy="39" r="1"/><circle cx="14" cy="45" r="1"/><circle cx="17" cy="42" r="1"/><circle cx="23" cy="42" r="1"/><circle cx="17" cy="48" r="1"/><circle cx="23" cy="48" r="1"/><circle cx="20" cy="45" r="1"/><circle cx="26" cy="45" r="1"/><circle cx="29" cy="42" r="1"/><circle cx="35" cy="42" r="1"/><circle cx="29" cy="48" r="1"/><circle cx="35" cy="48" r="1"/><circle cx="32" cy="45" r="1"/><circle cx="38" cy="45" r="1"/></g></svg>