<svg xmlns="http://www.w3.org/2000/svg" viewBox="0 0 57 57"><path fill="#cb465f" d="M1 13.002h55v12H1z"/><path fill="#ef4d4d" d="M6 25.002h46v30H6z"/><path d="M56 12.002H41.741A6.957 6.957 0 0 0 43 7.995a6.951 6.951 0 0 0-2.043-4.95 7.008 7.008 0 0 0-9.899 0l-2.829 2.829-2.828-2.829a7.008 7.008 0 0 0-9.899 0 6.951 6.951 0 0 0-2.043 4.95c0 1.458.444 2.842 1.259 4.007H1a1 1 0 1 0 0 2h27v24H6a1 1 0 1 0 0 2h22v15a1 1 0 1 0 2 0v-15h22a1 1 0 1 0 0-2H30v-24h26a1 1 0 1 0 0-2zM32.472 4.459a5.006 5.006 0 0 1 7.071 0A4.967 4.967 0 0 1 41 7.995c0 1.34-.518 2.596-1.457 3.535l-.472.472H24.929l4.006-4.006.001-.001.001-.001 3.535-3.535zM16.916 11.53a4.964 4.964 0 0 1-1.457-3.535c0-1.341.518-2.596 1.457-3.536a5.006 5.006 0 0 1 7.071 0l2.828 2.829-3.536 3.536c-.331.331-.622.735-.898 1.179h-4.994l-.471-.473z" fill="#ebba16"/></svg>