<svg xmlns="http://www.w3.org/2000/svg" viewBox="0 0 56 56"><path d="M17.609 3h-.5a1 1 0 1 1 0-2h.5a1 1 0 1 1 0 2zM2 14.188a1 1 0 0 1-1-1v-.977a1 1 0 1 1 2 0v.977a1 1 0 0 1-1 1zm0-4.884a1 1 0 0 1-1-1v-.978a1 1 0 1 1 2 0v.978a1 1 0 0 1-1 1zm.958-4.665a1 1 0 0 1-.779-1.627c.251-.313.536-.596.846-.844a1 1 0 0 1 1.246 1.564 3.414 3.414 0 0 0-.534.534.998.998 0 0 1-.779.373zM13.201 3h-.977a1 1 0 1 1 0-2h.977a1 1 0 1 1 0 2zM8.316 3h-.977a1 1 0 1 1 0-2h.977a1 1 0 1 1 0 2zM2 18.609a1 1 0 0 1-1-1v-.5a1 1 0 1 1 2 0v.5a1 1 0 0 1-1 1zm52 0a1 1 0 0 1-1-1v-.5a1 1 0 1 1 2 0v.5a1 1 0 0 1-1 1zm0-4.408a1 1 0 0 1-1-1v-.977a1 1 0 1 1 2 0v.977a1 1 0 0 1-1 1zm0-4.885a1 1 0 0 1-1-1v-.977a1 1 0 1 1 2 0v.978a1 1 0 0 1-1 .999zm-.95-4.668a.999.999 0 0 1-.783-.377 3.352 3.352 0 0 0-.532-.533 1 1 0 1 1 1.252-1.56c.312.251.596.536.845.848a1 1 0 0 1-.782 1.622zM48.673 3h-.977a1 1 0 1 1 0-2h.977a1 1 0 1 1 0 2zm-4.884 0h-.977a1 1 0 1 1 0-2h.977a1 1 0 1 1 0 2zm-4.898 0h-.5a1 1 0 1 1 0-2h.5a1 1 0 1 1 0 2zm0 52h-.5a1 1 0 1 1 0-2h.5a1 1 0 1 1 0 2zm9.77 0h-.977a1 1 0 1 1 0-2h.977a1 1 0 1 1 0 2zm-4.885 0h-.977a1 1 0 1 1 0-2h.977a1 1 0 1 1 0 2zm8.576-.95a.999.999 0 0 1-.624-1.782c.195-.155.375-.335.534-.533a1 1 0 1 1 1.559 1.254 5.408 5.408 0 0 1-.847.844.994.994 0 0 1-.622.217zM54 49.674a1 1 0 0 1-1-1v-.978a1 1 0 1 1 2 0v.978a1 1 0 0 1-1 1zm0-4.886a1 1 0 0 1-1-1v-.977a1 1 0 1 1 2 0v.977a1 1 0 0 1-1 1zm0-4.897a1 1 0 0 1-1-1v-.5a1 1 0 1 1 2 0v.5a1 1 0 0 1-1 1zm-52 0a1 1 0 0 1-1-1v-.5a1 1 0 1 1 2 0v.5a1 1 0 0 1-1 1zM13.188 55h-.977a1 1 0 1 1 0-2h.977a1 1 0 1 1 0 2zm-4.884 0h-.977a1 1 0 1 1 0-2h.977a1 1 0 1 1 0 2zm-4.666-.958a.994.994 0 0 1-.625-.22 5.465 5.465 0 0 1-.845-.848 1 1 0 1 1 1.564-1.246c.156.196.335.376.532.533a1 1 0 0 1-.626 1.781zM2 49.661a1 1 0 0 1-1-1v-.978a1 1 0 1 1 2 0v.978a1 1 0 0 1-1 1zm0-4.886a1 1 0 0 1-1-1v-.977a1 1 0 1 1 2 0v.977a1 1 0 0 1-1 1zM17.609 55h-.5a1 1 0 1 1 0-2h.5a1 1 0 1 1 0 2z" fill="#7383bf"/><path d="M28 0C12.536 0 0 12.536 0 28s12.536 28 28 28 28-12.536 28-28S43.464 0 28 0zm0 42.56c-8.041 0-14.56-6.519-14.56-14.56S19.959 13.44 28 13.44 42.56 19.959 42.56 28 36.041 42.56 28 42.56z" fill="#efce4a"/><path d="M21.392.805a1 1 0 0 0-1.941.484l3.261 13.045a1 1 0 0 0 1.941-.484L21.392.805zM35.821.077a1.002 1.002 0 0 0-1.213.728L31.347 13.85a1 1 0 1 0 1.941.484l3.261-13.045a1 1 0 0 0-.728-1.212zm-2.533 41.589a1 1 0 0 0-1.941.484l3.261 13.045a1 1 0 0 0 1.941-.484l-3.261-13.045zm-9.363-.728a1.002 1.002 0 0 0-1.213.728l-3.261 13.045a1 1 0 1 0 1.941.484l3.261-13.045a1 1 0 0 0-.728-1.212zm17.983-16.255c.081 0 .162-.01.244-.03l13.045-3.261a1 1 0 0 0-.485-1.94l-13.045 3.261a1 1 0 0 0 .241 1.97zm13.288 9.925l-13.045-3.261a1 1 0 1 0-.485 1.94l13.045 3.261a1 1 0 0 0 .485-1.94zm-41.347-3.26L.804 34.608a1 1 0 0 0 .485 1.94l13.045-3.261a1 1 0 0 0-.485-1.939zm.485-8.635L1.289 19.452a1 1 0 1 0-.485 1.94l13.045 3.261a1 1 0 0 0 .485-1.94z" fill="#ed8a19"/></svg>