<svg xmlns="http://www.w3.org/2000/svg" viewBox="0 0 56.372 56.372"><path d="M56.372 28.564l-7.234 7.234c-11.517 11.517-30.19 11.517-41.707 0L0 28.367l7.234-7.234c11.517-11.517 30.19-11.517 41.707 0l7.431 7.431z" fill="#e7eced"/><circle cx="28.158" cy="28.436" r="12" fill="#3083c9"/><path fill="none" stroke="#ebba16" stroke-width="2" stroke-linecap="round" stroke-miterlimit="10" d="M6.052 51.436l46.5-46.5"/><path d="M21.372 28.436a1 1 0 0 1-1-1c0-3.86 3.14-7 7-7a1 1 0 0 1 0 2c-2.757 0-5 2.243-5 5a1 1 0 0 1-1 1z" fill="#fff"/></svg>