<svg xmlns="http://www.w3.org/2000/svg" viewBox="0 0 57.066 57.066"><path d="M30.797 10v15.5a1.5 1.5 0 0 1-3 0V3a3 3 0 1 0-6 0v22.5a1.5 1.5 0 0 1-3 0v-18a2.5 2.5 0 1 0-5 0v20a1.5 1.5 0 0 1-3 0V15a2.5 2.5 0 0 0-2.5-2.5h-.01a2.5 2.5 0 0 0-2.5 2.5v27.128c.836 12.08 7.46 14.938 16.81 14.938 6.667 0 12.416-3.409 15.177-8.351 1.161-1.874 8.194-12.825 8.798-13.969.704-1.334 1.735-2.94 3.035-4.002.693-.566 1.154-1.318 1.581-2.105.109-.202.426-2.646-1.391-2.639-1.576.006-3.375.67-4.68 1.552-1.463.989-3.362 2.696-4.984 5.531-.527.922-1.471 1.564-2.532 1.588-1.001.023-.742-.468-.804-2.536V10a3 3 0 1 0-6 0z" fill="#f7b563"/></svg>