<svg xmlns="http://www.w3.org/2000/svg" viewBox="0 0 58 58"><path d="M30.5 10h-12a1 1 0 1 0 0 2h12a1 1 0 1 0 0-2zm-12-4h12a1 1 0 1 0 0-2h-12a1 1 0 1 0 0 2zm12 11h-17a1 1 0 1 0 0 2h17a1 1 0 1 0 0-2zm0 7h-22a1 1 0 1 0 0 2h22a1 1 0 1 0 0-2zm0 7h-26a1 1 0 1 0 0 2h26a1 1 0 1 0 0-2zm0 7h-20a1 1 0 1 0 0 2h20a1 1 0 1 0 0-2zm0 7h-14a1 1 0 1 0 0 2h14a1 1 0 1 0 0-2zm0 7h-14a1 1 0 1 0 0 2h14a1 1 0 1 0 0-2z" fill="#7fabda"/><path d="M52.5 0h-24v4h24a2 2 0 0 0 0-4zm0 54h-24v4h24a2 2 0 0 0 0-4z" fill="#23a24d"/><path d="M36.872 27.817A19.501 19.501 0 0 0 46.5 11V4h-18v50h18v-7c0-6.979-3.72-13.351-9.628-16.817-.9-.528-.9-1.838 0-2.366z" fill="#7fabda"/></svg>