<svg xmlns="http://www.w3.org/2000/svg" viewBox="0 0 60 60"><path d="M53.792 28.028L30 9.688 6.208 28.028a2.998 2.998 0 0 1-3.678-4.737L27.96 3.396 30 1.5l2.041 1.896 25.43 19.895a3 3 0 1 1-3.679 4.737z" fill="#b02721"/><path d="M53.792 28.028L30 9.688 6.208 28.028a2.998 2.998 0 0 1-3.678-4.737L27.96 3.396 30 1.5l2.041 1.896 25.43 19.895a3 3 0 1 1-3.679 4.737z" fill="#b02721"/><path fill="#e0e1e2" d="M30 9.688L7 27.417V57.5h46V27.417z"/><path d="M59 47.5a1 1 0 0 0-1 1v1h-1v-1a1 1 0 1 0-2 0v1h-2a1 1 0 1 0 0 2h2v3h-2a1 1 0 1 0 0 2h2v1a1 1 0 1 0 2 0v-1h1v1a1 1 0 1 0 2 0v-9a1 1 0 0 0-1-1zm-2 7v-3h1v3h-1zm-50-3a1 1 0 1 0 0-2H5v-1a1 1 0 1 0-2 0v1H2v-1a1 1 0 1 0-2 0v9a1 1 0 1 0 2 0v-1h1v1a1 1 0 1 0 2 0v-1h2a1 1 0 1 0 0-2H5v-3h2zm-4 3H2v-3h1v3z" fill="#e0e1e2"/><path fill="#556080" d="M15 26.5h12v8H15zm0 14h12v10H15zm18-14h12v8H33zm0 14h12v17H33z"/><path fill="#7383bf" d="M33 26.5h12v6H33zm-18 0h12v2.765H15zm7 18v-4h-2v4h-5v2h5v4h2v-4h5v-2z"/></svg>