<svg xmlns="http://www.w3.org/2000/svg" viewBox="0 0 58 58"><path d="M54.783 50H3.217A3.217 3.217 0 0 1 0 46.783V11.217A3.217 3.217 0 0 1 3.217 8h51.566A3.217 3.217 0 0 1 58 11.217v35.566A3.217 3.217 0 0 1 54.783 50z" fill="#e7eced"/><path d="M21.186 36.138l-3.767-1.924A.769.769 0 0 1 17 33.53v-1.153c1.933-.833 3.044-2.451 3.585-4.475A2 2 0 0 0 22 26v-1c0-.766-.441-1.427-1.078-1.763-.441-3.761-2.927-5.283-6.922-5.283-.189 0-.375.007-.557.022-1.358.108-2.732-.147-3.862-.909-.47-.316-.865-.653-1.143-1.006a.2.2 0 0 0-.357.145c.04.35.1.758.188 1.204.33 1.66.133 1.418-.509 2.984a10.33 10.33 0 0 0-.69 2.845A2.004 2.004 0 0 0 6 25v1a2 2 0 0 0 1.415 1.902c.541 2.023 1.651 3.642 3.585 4.475v1.145a.77.77 0 0 1-.429.69L6.71 36.113A3.28 3.28 0 0 0 5 38.993v1.325C5 41.448 9.029 42 14 42s9-.552 9-1.682v-1.245a3.282 3.282 0 0 0-1.814-2.935z" fill="#bf4d90"/><path d="M29 22h10a1 1 0 1 0 0-2H29a1 1 0 1 0 0 2zm14 0h1a1 1 0 1 0 0-2h-1a1 1 0 1 0 0 2zM30 37h-1a1 1 0 1 0 0 2h1a1 1 0 1 0 0-2zm6 0h-2a1 1 0 1 0 0 2h2a1 1 0 1 0 0-2zm5 0h-1a1 1 0 1 0 0 2h1a1 1 0 1 0 0-2zm6 0h-2a1 1 0 1 0 0 2h2a1 1 0 1 0 0-2zm3.29.29c-.181.189-.29.45-.29.71s.109.52.29.71c.189.18.45.29.71.29s.52-.11.71-.29c.18-.19.29-.45.29-.71s-.11-.521-.29-.71c-.38-.37-1.05-.37-1.42 0zM29 28h22a1 1 0 1 0 0-2H29a1 1 0 1 0 0 2zm22 4H29a1 1 0 1 0 0 2h22a1 1 0 1 0 0-2z" fill="#afb6bb"/></svg>