<svg xmlns="http://www.w3.org/2000/svg" viewBox="0 0 59 59"><path d="M31.499 7a1 1 0 0 1-.78-1.625l4-5a1 1 0 0 1 1.561 1.25l-4 5a1 1 0 0 1-.781.375z" fill="#424a60"/><path d="M46.5 5h-34c-1.1 0-2 .9-2 2v50c0 1.1.9 2 2 2h34c1.1 0 2-.9 2-2V7c0-1.1-.9-2-2-2zm-17 9a3 3 0 1 1 0-6 3 3 0 0 1 0 6z" fill="#e7eced"/><circle cx="29.5" cy="36" r="12" fill="#424a60"/><path d="M33.284 41.261a4.954 4.954 0 0 0 1.216-3.234V34a5 5 0 0 0-10 0v4.027c0 1.24.468 2.36 1.216 3.234l-5.803 1.934C22.102 46.108 25.576 48 29.5 48s7.398-1.892 9.587-4.804l-5.803-1.935z" fill="#7383bf"/><path d="M29.501 12a1 1 0 0 1-.896-.553l-5-10a1 1 0 0 1 1.789-.895l5 10A1 1 0 0 1 29.501 12z" fill="#424a60"/><g fill="#424a60"><circle cx="29.5" cy="19" r="1"/><circle cx="33.3" cy="19" r="1"/><circle cx="25.7" cy="19" r="1"/><circle cx="18.099" cy="19" r="1"/><circle cx="14.3" cy="19" r="1"/><circle cx="44.7" cy="19" r="1"/><circle cx="37.099" cy="19" r="1"/><circle cx="40.9" cy="19" r="1"/><circle cx="21.9" cy="19" r="1"/><circle cx="21.9" cy="54" r="1"/><circle cx="18.099" cy="54" r="1"/><circle cx="14.3" cy="54" r="1"/><circle cx="37.099" cy="54" r="1"/><circle cx="40.9" cy="54" r="1"/><circle cx="44.7" cy="54" r="1"/><circle cx="29.5" cy="54" r="1"/><circle cx="33.3" cy="54" r="1"/><circle cx="25.7" cy="54" r="1"/></g></svg>