<svg xmlns="http://www.w3.org/2000/svg" viewBox="0 0 58 58"><path d="M35 14v4.687c0 .725-.588 1.313-1.313 1.313h-9.375A1.313 1.313 0 0 1 23 18.687V14H3.678A3.678 3.678 0 0 0 0 17.678v32.644A3.678 3.678 0 0 0 3.678 54h50.644A3.678 3.678 0 0 0 58 50.322V17.678A3.678 3.678 0 0 0 54.322 14H35z" fill="#e7eced"/><path d="M33.687 4h-9.375C23.588 4 23 4.588 23 5.313v13.375c0 .724.588 1.312 1.313 1.312h9.375c.724 0 1.312-.588 1.312-1.313V5.313C35 4.588 34.412 4 33.687 4zM29 13a3 3 0 1 1 0-6 3 3 0 0 1 0 6z" fill="#424a60"/><path d="M22.186 42.156l-3.767-1.924a.77.77 0 0 1-.419-.685v-1.153c1.933-.833 3.044-2.451 3.585-4.475A2 2 0 0 0 23 32.017v-1c0-.766-.441-1.427-1.078-1.763-.441-3.761-2.927-5.283-6.922-5.283-.189 0-.375.007-.557.022-1.358.108-2.732-.147-3.862-.909-.47-.316-.865-.653-1.143-1.006a.2.2 0 0 0-.357.145c.04.35.1.758.188 1.204.33 1.66.133 1.418-.509 2.984a10.33 10.33 0 0 0-.69 2.845A2.004 2.004 0 0 0 7 31.017v1a2 2 0 0 0 1.415 1.902c.541 2.023 1.651 3.642 3.585 4.475v1.145a.77.77 0 0 1-.429.69L7.71 42.13A3.281 3.281 0 0 0 6 45.01v1.325c0 1.13 4.029 1.682 9 1.682s9-.552 9-1.682V45.09a3.28 3.28 0 0 0-1.814-2.934z" fill="#26b99a"/><path d="M51.29 43.29c-.181.189-.29.45-.29.71s.1.52.29.71c.189.18.45.29.71.29s.52-.11.71-.29c.18-.19.29-.45.29-.71s-.11-.521-.29-.71c-.37-.36-1.04-.37-1.42 0zM30 28.018h10a1 1 0 1 0 0-2H30a1 1 0 1 0 0 2zm1 15h-1a1 1 0 1 0 0 2h1a1 1 0 1 0 0-2zm6 0h-2a1 1 0 1 0 0 2h2a1 1 0 1 0 0-2zm5 0h-1a1 1 0 1 0 0 2h1a1 1 0 1 0 0-2zm6 0h-2a1 1 0 1 0 0 2h2a1 1 0 1 0 0-2zm-18-9h22a1 1 0 1 0 0-2H30a1 1 0 1 0 0 2zm22 4H30a1 1 0 1 0 0 2h22a1 1 0 1 0 0-2z" fill="#afb6bb"/></svg>