<svg xmlns="http://www.w3.org/2000/svg" viewBox="0 0 57.654 57.654"><path d="M28.827 28.827h0c-4.276-4.276-4.276-11.273 0-15.55l9.071-9.071c4.276-4.276 11.273-4.276 15.549 0h0c4.276 4.276 4.276 11.273 0 15.549l-9.071 9.071c-4.275 4.277-11.273 4.277-15.549.001z" fill="none" stroke="#25ae88" stroke-width="2" stroke-linecap="round" stroke-miterlimit="10"/><path d="M4.207 53.447h0c-4.276-4.276-4.276-11.273 0-15.55l9.071-9.071c4.276-4.276 11.273-4.276 15.549 0h0c4.276 4.276 4.276 11.273 0 15.549l-9.071 9.071c-4.276 4.277-11.273 4.277-15.549.001zm33.951-33.951L19.496 38.158" fill="none" stroke="#25ae88" stroke-width="2" stroke-linecap="round" stroke-miterlimit="10"/><path d="M28.827 28.827h0c-4.276-4.276-4.276-11.273 0-15.55l9.071-9.071c4.276-4.276 11.273-4.276 15.549 0h0c4.276 4.276 4.276 11.273 0 15.549l-9.071 9.071c-4.275 4.277-11.273 4.277-15.549.001z" fill="none" stroke="#25ae88" stroke-width="2" stroke-linecap="round" stroke-miterlimit="10"/><path d="M4.207 53.447h0c-4.276-4.276-4.276-11.273 0-15.55l9.071-9.071c4.276-4.276 11.273-4.276 15.549 0h0c4.276 4.276 4.276 11.273 0 15.549l-9.071 9.071c-4.276 4.277-11.273 4.277-15.549.001zm33.951-33.951L19.496 38.158" fill="none" stroke="#25ae88" stroke-width="2" stroke-linecap="round" stroke-miterlimit="10"/></svg>