<svg xmlns="http://www.w3.org/2000/svg" viewBox="0 0 58 58"><path d="M42 32H15V13.601C15 6.652 21.056 1 28.5 1S42 6.652 42 13.601V32zm-23-4h19V13.601C38 8.858 33.738 5 28.5 5S19 8.858 19 13.601V28z" fill="#c7cac7" stroke="#c7cac7" stroke-width="2" stroke-miterlimit="10"/><path fill="#7383bf" d="M8 26h42v32H8z"/><path fill="#6879af" d="M29 26h21v32H29z"/><path fill="#ebba16" d="M42.586 57L49 50.586V47h-5.586l-10 10z"/><path fill="#4f5970" d="M9 47v7.586L16.586 47z"/><path fill="#424a60" d="M30.586 57l10-10h-9.172l-10 10z"/><path d="M28.586 47h-9.172l-9.707 9.707A.997.997 0 0 1 9 57h9.586l10-10z" fill="#eacc18"/><path fill="#424a60" d="M49 57v-3.586L45.414 57z"/><path fill="#4f5970" d="M29 49.414L21.414 57H29z"/></svg>