<svg xmlns="http://www.w3.org/2000/svg" viewBox="0 0 58 58"><path d="M39 22.866V11.219C39 6.149 34.5 2 29 2s-10 4.149-10 9.219v11.647" fill="none" stroke="#fbd490" stroke-width="4" stroke-linecap="round" stroke-linejoin="round" stroke-miterlimit="10"/><circle cx="29" cy="39" r="19" fill="#7383bf"/><path d="M48 39c0-10.493-8.507-19-19-19v38c10.493 0 19-8.507 19-19z" fill="#556080"/><circle cx="29" cy="39" r="8" fill="#424a60" stroke="#d8a852" stroke-width="2" stroke-linecap="round" stroke-linejoin="round" stroke-miterlimit="10"/><path fill="none" stroke="#d8a852" stroke-width="2" stroke-linecap="round" stroke-linejoin="round" stroke-miterlimit="10" d="M29 31v-4m0 24v-4m5.657-2.343l2.828 2.828m-16.97 0l2.828-2.828m11.314-11.314l2.828-2.828m-16.97 0l2.828 2.828M37 39h4m-24 0h4"/><circle cx="29" cy="39" r="4" fill="#556080"/></svg>