<svg xmlns="http://www.w3.org/2000/svg" viewBox="0 0 59 59"><path d="M46 41.5H26c-6.627 0-12-5.373-12-12s5.373-12 12-12h20v-14H26c-14.359 0-26 11.641-26 26s11.641 26 26 26h20v-14z" fill="#424a60"/><path d="M53 7.5h1a1 1 0 1 0 0-2h-1a1 1 0 1 0 0 2zm-4 0h1a1 1 0 1 0 0-2h-1a1 1 0 1 0 0 2zm8 0h1a1 1 0 1 0 0-2h-1a1 1 0 1 0 0 2zm-3 6h-1a1 1 0 1 0 0 2h1a1 1 0 1 0 0-2zm-5 2h1a1 1 0 1 0 0-2h-1a1 1 0 1 0 0 2zm9-2h-1a1 1 0 1 0 0 2h1a1 1 0 1 0 0-2zm-8-3a1 1 0 0 0 1 1h1a1 1 0 1 0 0-2h-1a1 1 0 0 0-1 1zm4 0a1 1 0 0 0 1 1h1a1 1 0 1 0 0-2h-1a1 1 0 0 0-1 1zm0 34h-1a1 1 0 1 0 0 2h1a1 1 0 1 0 0-2zm-5 2h1a1 1 0 1 0 0-2h-1a1 1 0 1 0 0 2zm9-2h-1a1 1 0 1 0 0 2h1a1 1 0 1 0 0-2zm-4 8h-1a1 1 0 1 0 0 2h1a1 1 0 1 0 0-2zm-4 0h-1a1 1 0 1 0 0 2h1a1 1 0 1 0 0-2zm8 0h-1a1 1 0 1 0 0 2h1a1 1 0 1 0 0-2zm-5-3a1 1 0 0 0-1-1h-1a1 1 0 1 0 0 2h1a1 1 0 0 0 1-1zm4 0a1 1 0 0 0-1-1h-1a1 1 0 1 0 0 2h1a1 1 0 0 0 1-1z" fill="#c7cac7"/><path fill="#ebba16" d="M32 3.5h14v14H32zm0 38h14v14H32z"/></svg>