<svg xmlns="http://www.w3.org/2000/svg" viewBox="0 0 58 58"><path fill="#d6c990" d="M0 30.588V53.5l2.785-1.114 9.506-9.506zM15 9.519l-3.585-3.585L0 10.5v4.532l15 15z"/><path fill="#f7e6a1" d="M29 26.171v-2.652l-14-14v20.513l5.069 5.069z"/><path fill="#7383bf" d="M29 44.032v-2.305l-1.152 1.153z"/><path fill="#6472a0" d="M38.104 32.623L29 41.727v2.305l6.628 6.628L43 47.5v-9.981z"/><path fill="#d6c990" d="M43 12.171V4.5L30.776 9.739l7.328 7.328zM30.326 24.845L29 23.519v2.652z"/><path fill="#f7e6a1" d="M48.23 6.941L43 4.5v7.671z"/><path fill="#7383bf" d="M58 36.963V12.727L45.882 24.845zM43 47.5l15 6v-.981l-15-15z"/><path fill="#d1af43" d="M15 40.171V30.032l-15-15v15.556L12.291 42.88z"/><path fill="#efce4a" d="M20.759 49.968L29 53.5v-9.468l-1.152-1.152zM15 30.032v10.139l5.069-5.07z"/><path fill="#d1af43" d="M29 53.5l6.628-2.84L29 44.032zm-14-49l-3.585 1.434L15 9.519z"/><path fill="#efce4a" d="M29 10.5l-14-6v5.019l14 14z"/><path fill="#d1af43" d="M29 23.519l1.326 1.326 7.778-7.778-7.328-7.328L29 10.5zm14 14v-9.792l-4.896 4.896z"/><path fill="#efce4a" d="M45.882 24.845L43 27.727v9.792l15 15V36.963z"/><path fill="#d1af43" d="M15 45.588l-2.709-2.708-9.506 9.506L15 47.5z"/><path fill="#efce4a" d="M15 47.5l3.345 1.434L15 45.588zm5.069-12.399l7.779 7.779L29 41.727V26.171z"/><path fill="#d1af43" d="M43 12.171l-4.896 4.896L43 21.963zm-14 14v15.556l9.104-9.104-7.778-7.778z"/><path fill="#efce4a" d="M43 21.963l2.882 2.882L58 12.727V11.5l-9.77-4.559-5.23 5.23z"/><path fill="#d1af43" d="M12.291 42.88L15 45.588v-5.417z"/><path fill="#efce4a" d="M20.069 35.101L15 40.171v5.417l3.345 3.346 2.414 1.034 7.089-7.088z"/><path fill="#d1af43" d="M38.104 17.067l-7.778 7.778 7.778 7.778L43 27.727v-5.764z"/><path fill="#efce4a" d="M43 27.727l2.882-2.882L43 21.963z"/></svg>