<svg xmlns="http://www.w3.org/2000/svg" viewBox="0 0 53 53"><path fill="#43b05c" d="M18 23.243L2.256 7.499 0 8v43l2.099-.466L18 34.632z"/><path fill="#48a0dc" d="M9.372 48.917L18 47v-6.711z"/><path fill="#43b05c" d="M18 4L6.884 6.47 18 17.586zm31.449-.816L35 8v9.632z"/><path fill="#48a0dc" d="M35 23.289V50l18-7V5.289z"/><path fill="#3d994f" d="M26.523 26.109L35 17.632V8L18 4v13.586zM18 23.243v11.389l5.695-5.694z"/><path fill="#4393bf" d="M18 40.289V47l17 3V23.289z"/><path fill="#efce4a" d="M18 17.586L6.884 6.47 2.256 7.499 18 23.243zm0 17.046L2.099 50.534l7.273-1.617L18 40.289zm17-11.343l18-18V2l-3.551 1.184L35 17.632z"/><path fill="#d6b445" d="M26.523 26.109L18 17.586v5.657l5.695 5.695L18 34.632v5.657l17-17v-5.657z"/></svg>