<svg xmlns="http://www.w3.org/2000/svg" viewBox="0 0 54.888 54.888"><path d="M52.104.249a1.012 1.012 0 0 0-.789-.241l-31 4.011a1 1 0 0 0-.872.992v36.264C17.706 39.285 14.997 38 11.944 38c-5.247 0-9.5 3.781-9.5 8.444s4.253 8.444 9.5 8.444 9.5-3.781 9.5-8.444c0-.332-.027-.658-.069-.981a.98.98 0 0 0 .069-.343V16.118l29-3.753v18.909C48.706 29.285 45.997 28 42.944 28c-5.247 0-9.5 3.781-9.5 8.444s4.253 8.444 9.5 8.444 9.5-3.781 9.5-8.444c0-.092-.012-.181-.015-.272.002-.027.015-.05.015-.077V1a.998.998 0 0 0-.34-.751z" fill="#ea6248"/></svg>