<svg xmlns="http://www.w3.org/2000/svg" viewBox="0 0 58 58"><path fill="#424a60" d="M37.5 2h-4v3h-9V2h-19v56h47V2z"/><path fill="#303644" d="M24.5 0h9v5h-9z"/><path fill="#edeada" d="M40.5 5v3h-23V5h-9v50h41V5z"/><path fill="#7383bf" d="M33.5 2v3h-9V2h-7v6h23V2z"/><path d="M27.5 16h-13a1 1 0 1 1 0-2h13a1 1 0 1 1 0 2zm0 31h-13a1 1 0 1 1 0-2h13a1 1 0 1 1 0 2zm16-25h-29a1 1 0 1 1 0-2h29a1 1 0 1 1 0 2zm0 12h-29a1 1 0 1 1 0-2h29a1 1 0 1 1 0 2zm0 7h-29a1 1 0 1 1 0-2h29a1 1 0 1 1 0 2zm-15-13h-14a1 1 0 1 1 0-2h14a1 1 0 1 1 0 2zm15 0h-7a1 1 0 1 1 0-2h7a1 1 0 1 1 0 2zm-11 0a.99.99 0 0 1-.71-.29c-.181-.19-.29-.45-.29-.71 0-.271.1-.521.29-.71.38-.38 1.04-.37 1.42 0a.99.99 0 0 1 .29.71c0 .27-.11.52-.29.71-.19.18-.44.29-.71.29z" fill="#cec9ae"/></svg>