<svg xmlns="http://www.w3.org/2000/svg" viewBox="0 0 59 59"><path fill="#e0e1e2" d="M48.5 7h4v4h-4z"/><path d="M49.375.339zM52.5 0h-2.015a1.99 1.99 0 0 0-1.11.339 1.984 1.984 0 0 0-.875 1.646V7h4V0z" fill="#d75a4a"/><path fill="#db7b1b" d="M52.5 11h4v38h-4z"/><path fill="#c4c4c4" d="M52.5 7h4v4h-4z"/><path d="M56.5 7V1.985A1.984 1.984 0 0 0 54.515 0H52.5v7h4z" fill="#b74c44"/><path fill="#303644" d="M21.5 0h9v5h-9z"/><path fill="#424a60" d="M48.5 49V2h-18v3h-9V2h-19v56h47v-7.25z"/><path fill="#7383bf" d="M30.5 2v3h-9V2h-7v6h23V2z"/><path fill="#edeada" d="M37.5 7v1h-23V7h-7v46h37V7z"/><path d="M14.5 18h9a1 1 0 1 0 0-2h-9a1 1 0 1 0 0 2zm0 7h5a1 1 0 1 0 0-2h-5a1 1 0 1 0 0 2zm20-2h-7a1 1 0 1 0 0 2h7a1 1 0 1 0 0-2zm-11.71.29c-.181.189-.29.449-.29.71 0 .26.109.52.29.71a.99.99 0 0 0 .71.29c.26 0 .52-.11.71-.29.18-.19.29-.45.29-.71 0-.261-.11-.521-.29-.71-.38-.37-1.04-.37-1.42 0zm16.42 0c-.38-.37-1.04-.37-1.42 0-.181.189-.29.449-.29.71 0 .26.109.52.29.71a.99.99 0 0 0 .71.29c.27 0 .52-.11.71-.29.18-.19.29-.45.29-.71 0-.261-.11-.521-.29-.71zM25.5 30h-7a1 1 0 1 0 0 2h7a1 1 0 1 0 0-2zm-11.71.29a.986.986 0 0 0-.29.71c0 .26.109.52.29.71.189.18.45.29.71.29s.52-.11.71-.29a1.011 1.011 0 0 0 0-1.42c-.38-.37-1.04-.37-1.42 0z" fill="#cec9ae"/><path d="M20.025 36.137c-2.191 1.14-2.928 3.32-3.196 5.582l-1.241-1.04c-.981-.822-2.404.585-1.414 1.415l2.806 2.351c.662.555 1.676.211 1.707-.707.073-2.167.177-4.743 2.348-5.873 1.144-.597.132-2.323-1.01-1.728zm9.339 5.083c-.52-.93-1.642-1.391-2.688-1.095-1.365.386-2.981 2.042-3.936.106-.571-1.157-2.295-.143-1.727 1.009.514 1.042 1.5 1.798 2.669 1.932.607.069 1.117-.013 1.688-.226.406-.152 1.923-1.332 2.267-.717.629 1.126 2.356.118 1.727-1.009z" fill="#7383bf"/><path fill="#ebd6bd" d="M56.5 49h-8l4 7z"/><path d="M51.5 58a1 1 0 1 0 2 0v-4h-2v4z" fill="#4c4c4c"/><path fill="#ed8a19" d="M48.5 11h4v38h-4z"/></svg>