<svg xmlns="http://www.w3.org/2000/svg" viewBox="0 0 59 59"><path fill="#bfa380" d="M.5 0h44v58H.5z"/><path fill="#6b5b4b" d="M.5 0h8v58h-8z"/><path fill="#edeada" d="M15.5 10h22v12h-22z"/><path fill="#cec9ae" d="M19.5 13h14v2h-14zm0 4h14v2h-14z"/><path fill="#e0e1e2" d="M50.5 7h4v4h-4z"/><path d="M54.5 0h-2.015a1.99 1.99 0 0 0-1.11.339 1.984 1.984 0 0 0-.875 1.646V7h4V0zm2.015 0z" fill="#d75a4a"/><path fill="#db7b1b" d="M54.5 11h4v38h-4z"/><path fill="#c4c4c4" d="M54.5 7h4v4h-4z"/><path d="M58.5 7V1.985A1.984 1.984 0 0 0 56.515 0H54.5v7h4z" fill="#b74c44"/><path fill="#ebd6bd" d="M58.5 49h-8l4 7z"/><path d="M53.5 58a1 1 0 1 0 2 0v-4h-2v4z" fill="#4c4c4c"/><path fill="#ed8a19" d="M50.5 11h4v38h-4z"/></svg>