<svg xmlns="http://www.w3.org/2000/svg" viewBox="0 0 59.999 59.999"><path d="M57.972 29.64l-7.234 7.234c-11.517 11.517-30.19 11.517-41.707 0L2.027 29.87l7.234-7.234c11.517-11.517 30.19-11.517 41.707 0l7.004 7.004z" fill="#e7eced"/><path d="M25.857 5.999a.997.997 0 0 0 .707-.293l2.293-2.293v7.586a1 1 0 0 0 2 0V3.413l2.293 2.293a.997.997 0 0 0 1.414 0 .999.999 0 0 0 0-1.414l-4-4a1.001 1.001 0 0 0-1.414 0l-4 4a.999.999 0 0 0 .707 1.707zm7.293 48.293l-2.293 2.293v-7.586a1 1 0 0 0-2 0v7.586l-2.293-2.293a.999.999 0 1 0-1.414 1.414l4 4a1.01 1.01 0 0 0 .707.293 1.01 1.01 0 0 0 .707-.293l4-4a.999.999 0 1 0-1.414-1.414z" fill="#556080"/><circle cx="29.67" cy="29.782" r="11.813" fill="#3083c9"/><path d="M22.857 30.999a1 1 0 0 1-1-1c0-3.86 3.14-7 7-7a1 1 0 0 1 0 2c-2.757 0-5 2.243-5 5a1 1 0 0 1-1 1z" fill="#fff"/></svg>