<svg xmlns="http://www.w3.org/2000/svg" viewBox="0 0 56 56"><path fill="#226bac" d="M19 6h19v4H19z"/><path d="M53.63 50H2.37A2.37 2.37 0 0 1 0 47.63V12.37A2.37 2.37 0 0 1 2.37 10h51.26A2.37 2.37 0 0 1 56 12.37v35.26A2.37 2.37 0 0 1 53.63 50z" fill="#57abc1"/><circle cx="29" cy="30" r="16" fill="#424a60"/><circle cx="29" cy="30" r="14" fill="#7383bf"/><path d="M32.818 30c0 4.576 1.804 8.626 4.582 11.181C40.795 38.626 43 34.576 43 30s-2.205-8.626-5.6-11.181c-2.778 2.555-4.582 6.605-4.582 11.181zM15 30c0 4.576 2.205 8.626 5.6 11.181 2.778-2.555 4.582-6.605 4.582-11.181s-1.804-8.626-4.582-11.181C17.205 21.374 15 25.424 15 30z" fill="#879ad8"/><circle cx="23.909" cy="24.909" r="2.545" fill="#bccef7"/></svg>