<svg xmlns="http://www.w3.org/2000/svg" viewBox="0 0 58 58"><path d="M45 15.5l-4-10H17l-4 10H3.799A3.8 3.8 0 0 0 0 19.299v29.368A3.833 3.833 0 0 0 3.833 52.5h50.333a3.833 3.833 0 0 0 3.833-3.833V19.299A3.8 3.8 0 0 0 54.2 15.5H45z" fill="#556080"/><circle cx="29" cy="31.5" r="17" fill="#424a60" stroke="#2b313d" stroke-width="2" stroke-linecap="round" stroke-miterlimit="10"/><circle cx="29" cy="31.5" r="11" fill="#7383bf"/><path fill="#38454f" d="M6 10.5h4v5H6z"/><circle cx="51" cy="22.5" r="3" fill="#efce4a"/><path d="M32 31.5c0 3.595 1.418 6.778 3.6 8.785 2.667-2.007 4.4-5.19 4.4-8.785s-1.733-6.778-4.4-8.785c-2.182 2.007-3.6 5.19-3.6 8.785zm-14 0c0 3.595 1.733 6.778 4.4 8.785 2.182-2.007 3.6-5.19 3.6-8.785s-1.418-6.778-3.6-8.785c-2.667 2.007-4.4 5.19-4.4 8.785z" fill="#879ad8"/><path d="M29 43.5c-6.617 0-12-5.383-12-12s5.383-12 12-12 12 5.383 12 12-5.383 12-12 12zm0-22c-5.514 0-10 4.486-10 10s4.486 10 10 10 10-4.486 10-10-4.486-10-10-10z" fill="#556080"/><circle cx="30.5" cy="28" r="3.5" fill="#4674e8"/><circle cx="28" cy="29.5" r="2" fill="#bf4d90"/><circle cx="25" cy="27.5" r="2" fill="#bccef7"/></svg>