<svg xmlns="http://www.w3.org/2000/svg" viewBox="0 0 58.013 58.013"><path d="M17.575 29.007a8.906 8.906 0 0 1-3.411-2.121l-5.657-5.657a8.869 8.869 0 0 1-.92-1.097l-.001-.001C3.303 20.815 0 24.539 0 29.007c0 4.95 4.05 9 9 9h8c4.95 0 9-4.05 9-9a8.98 8.98 0 0 0-.102-1.278 8.929 8.929 0 0 1-2.417 1.278 9.069 9.069 0 0 0-5.906 0z" fill="#bf4d90"/><path d="M37.888 7.58c-.69-4.277-4.411-7.574-8.875-7.574s-8.185 3.297-8.875 7.574c.383.276.753.576 1.097.92l5.657 5.657a8.894 8.894 0 0 1 2.121 3.411 9.082 9.082 0 0 1 0 5.906 8.922 8.922 0 0 1-1.285 2.429c.421.061.848.104 1.285.104s.864-.042 1.285-.104a8.902 8.902 0 0 0 2.627-.809 9.077 9.077 0 0 0 4.176-4.176 8.902 8.902 0 0 0 .912-3.912v-8c0-.486-.05-.96-.125-1.426z" fill="#ed8a19"/><path d="M36.791 49.513l-5.657-5.657a8.894 8.894 0 0 1-2.121-3.411 9.082 9.082 0 0 1 0-5.906 8.922 8.922 0 0 1 1.285-2.429c-.421-.061-.848-.104-1.285-.104s-.864.042-1.285.104a8.902 8.902 0 0 0-2.627.809 9.077 9.077 0 0 0-4.176 4.176 8.902 8.902 0 0 0-.912 3.912v8c0 .486.05.96.125 1.426.69 4.277 4.411 7.574 8.875 7.574s8.185-3.297 8.875-7.574a9.048 9.048 0 0 1-1.097-.92z" fill="#7fabda"/><path d="M50.439 20.132a8.869 8.869 0 0 1-.92 1.097l-5.657 5.657a8.906 8.906 0 0 1-3.411 2.121 9.082 9.082 0 0 1-5.906 0 8.922 8.922 0 0 1-2.429-1.285 8.934 8.934 0 0 0-.103 1.285c0 .437.042.864.103 1.285.135.929.411 1.811.809 2.627a9.077 9.077 0 0 0 4.176 4.176 8.902 8.902 0 0 0 3.912.912h8c.486 0 .96-.05 1.426-.125 4.277-.69 7.574-4.411 7.574-8.875s-3.297-8.186-7.574-8.875z" fill="#a4e869"/><path d="M49.519 8.5c-3.156-3.156-8.119-3.456-11.631-.92.075.466.125.94.125 1.426v8a8.902 8.902 0 0 1-.912 3.912 9.077 9.077 0 0 1-4.176 4.176 8.902 8.902 0 0 1-2.627.809c.255.341.527.673.836.982s.641.581.982.836c.752.561 1.571.99 2.429 1.285a9.082 9.082 0 0 0 5.906 0 8.906 8.906 0 0 0 3.411-2.121l5.657-5.657c.344-.344.644-.714.92-1.097 2.537-3.512 2.236-8.474-.92-11.631z" fill="#efce4a"/><path d="M50.439 37.882c-.466.075-.94.125-1.426.125h-8a8.902 8.902 0 0 1-3.912-.912 9.077 9.077 0 0 1-4.176-4.176 8.902 8.902 0 0 1-.809-2.627c-.341.255-.673.527-.982.836s-.581.641-.836.982a8.894 8.894 0 0 0-1.285 2.429 9.082 9.082 0 0 0 0 5.906 8.906 8.906 0 0 0 2.121 3.411l5.657 5.657c.344.344.714.644 1.097.92 3.512 2.536 8.475 2.236 11.631-.92s3.457-8.119.92-11.631z" fill="#61b872"/><path d="M29.013 17.569a8.906 8.906 0 0 0-2.121-3.411L21.235 8.5a8.869 8.869 0 0 0-1.097-.92c-3.512-2.536-8.475-2.236-11.631.92-3.156 3.156-3.456 8.117-.921 11.629A9.032 9.032 0 0 1 9 20.007h8c4.515 0 8.271 3.373 8.898 7.722l.012-.008c.341-.255.673-.527.982-.836s.581-.641.836-.982a8.894 8.894 0 0 0 1.285-2.429 9.079 9.079 0 0 0 0-5.905z" fill="#ed7161"/><path d="M17 20.007H9a8.913 8.913 0 0 0-1.413.125c.276.383.576.753.92 1.097l5.657 5.657a8.906 8.906 0 0 0 3.411 2.121 9.082 9.082 0 0 1 5.906 0 8.901 8.901 0 0 0 2.417-1.278c-.627-4.349-4.383-7.722-8.898-7.722z" fill="#bf4d90"/><path d="M26.892 31.128a8.973 8.973 0 0 0-.982-.836 8.894 8.894 0 0 0-2.429-1.285 9.082 9.082 0 0 0-5.906 0 8.906 8.906 0 0 0-3.411 2.121l-5.657 5.657a8.869 8.869 0 0 0-.92 1.097c-2.536 3.512-2.236 8.475.92 11.631s8.119 3.456 11.631.92a8.947 8.947 0 0 1-.125-1.426v-8c0-1.402.334-2.726.912-3.912a9.077 9.077 0 0 1 4.176-4.176 8.902 8.902 0 0 1 2.627-.809 8.973 8.973 0 0 0-.836-.982z" fill="#9777a8"/></svg>