<svg xmlns="http://www.w3.org/2000/svg" viewBox="0 0 60 60"><path d="M51.809 12.208C51.112 6.89 48.332 0 37.419 0S23.727 6.89 23.03 12.208c-.382 2.915-.168 5.876.439 8.752 3.336 15.813 11.581 25.293 13.532 27.36a.573.573 0 0 0 .837 0c1.951-2.067 10.197-11.547 13.532-27.36.607-2.876.821-5.837.439-8.752zM37.419 22a8.438 8.438 0 1 1 0-16.876 8.438 8.438 0 0 1 0 16.876z" fill="#25ae88"/><path d="M36.97 23.705c-.697-5.318-3.477-12.208-14.39-12.208S8.888 18.387 8.19 23.705c-.382 2.915-.168 5.876.439 8.752C11.965 48.27 20.21 57.75 22.161 59.817a.573.573 0 0 0 .837 0c1.951-2.067 10.197-11.547 13.532-27.36.608-2.876.822-5.837.44-8.752zm-14.389 9.793a8.438 8.438 0 1 1 0-16.876 8.438 8.438 0 0 1 0 16.876z" fill="#ebba16"/></svg>