<svg xmlns="http://www.w3.org/2000/svg" viewBox="0 0 55.568 55.568"><path d="M44.472.784H31.294L6.848 25.151l23.734 23.785L55 24.599V11.288L44.472.784zm-1.457 14.87a2.935 2.935 0 1 1 0-5.87 2.935 2.935 0 0 1 0 5.87z" fill="#e3cda4"/><path fill="#cbb895" d="M6.877 25.138L1 30.999l23.734 23.785 5.903-5.886z"/><path d="M43.015 9.784a2.935 2.935 0 1 1 0 5.87 2.935 2.935 0 0 1 0-5.87m0-4c-3.824 0-6.935 3.111-6.935 6.935s3.111 6.935 6.935 6.935c3.824 0 6.935-3.111 6.935-6.935s-3.111-6.935-6.935-6.935z" fill="#bfa380"/><path d="M53.866 26.284a.997.997 0 0 0-.266-.299l-1.412 1.398c.526.983 4.22 8.578-2.895 15.694-2.741 2.739-9.128 3.895-13.912 1.172-4.812-2.738-6.378-8.497-4.412-16.218a1 1 0 0 0-.722-1.216.994.994 0 0 0-1.216.722c-2.98 11.703 2.079 16.583 5.36 18.45 2.143 1.219 4.695 1.809 7.215 1.808 3.501 0 6.935-1.138 9.101-3.304 8.568-8.568 3.214-18.111 3.159-18.207zM43.764 15.546a2.929 2.929 0 0 0 1.69-1.195L42.6 11.984C22.251-3.278.636 11.816.419 11.971a1 1 0 1 0 1.163 1.627c.203-.145 20.627-14.409 39.78-.044l2.402 1.992z" fill="#d75a4a"/></svg>