<svg xmlns="http://www.w3.org/2000/svg" viewBox="0 0 57.951 57.951"><circle cx="28.965" cy="28.968" r="28" fill="#a4e869"/><path d="M28.965 57.951c-7.426 0-14.853-2.827-20.506-8.48-10.157-10.158-11.31-26.46-2.681-37.919a.999.999 0 1 1 1.597 1.203C-.658 23.424.416 38.6 9.872 48.057c10.527 10.527 27.656 10.527 38.184 0s10.527-27.656 0-38.185C38.602.417 23.426-.657 12.755 7.376a.999.999 0 1 1-1.203-1.597c11.462-8.629 27.763-7.478 37.919 2.68 11.307 11.308 11.307 29.706 0 41.013-5.654 5.652-13.081 8.479-20.506 8.479z" fill="#88c057"/><path d="M28.965 50.954c-5.634 0-11.268-2.145-15.557-6.434-8.578-8.578-8.578-22.534 0-31.112s22.535-8.578 31.113 0a21.995 21.995 0 0 1 5.493 9.187 1 1 0 0 1-1.916.576 19.996 19.996 0 0 0-4.991-8.349c-7.798-7.798-20.487-7.798-28.285 0s-7.798 20.486 0 28.284c7.799 7.799 20.486 7.799 28.285 0a20.001 20.001 0 0 0 5.764-12.388c.048-.55.548-.957 1.083-.909a1 1 0 0 1 .909 1.083 22.001 22.001 0 0 1-6.342 13.628c-4.289 4.289-9.923 6.434-15.556 6.434z" fill="#88c057"/><path d="M28.965 42.958c-3.744 0-7.26-1.454-9.899-4.094s-4.094-6.155-4.094-9.899 1.454-7.26 4.094-9.899 6.155-4.094 9.899-4.094 7.26 1.454 9.899 4.094 4.094 6.155 4.094 9.899-1.454 7.26-4.094 9.899-6.155 4.094-9.899 4.094zm0-25.987c-3.21 0-6.224 1.246-8.485 3.508s-3.508 5.275-3.508 8.485 1.246 6.224 3.508 8.485 5.275 3.508 8.485 3.508 6.224-1.246 8.485-3.508 3.508-5.275 3.508-8.485-1.246-6.224-3.508-8.485-5.275-3.508-8.485-3.508z" fill="#88c057"/><path d="M28.965 29.965a.999.999 0 0 1-.707-1.707l22.5-22.5a.999.999 0 1 1 1.414 1.414l-22.5 22.5a.999.999 0 0 1-.707.293z" fill="#ebba16"/><circle cx="8.965" cy="8.964" r="4" fill="#7383bf"/><circle cx="49.471" cy="26.843" r="4" fill="#cc4b4c"/></svg>