<svg xmlns="http://www.w3.org/2000/svg" viewBox="0 0 60 60"><circle cx="13" cy="30" r="12" fill="#dd352e"/><path d="M13 43C5.832 43 0 37.168 0 30s5.832-13 13-13 13 5.832 13 13-5.832 13-13 13zm0-24C6.935 19 2 23.935 2 30s4.935 11 11 11 11-4.935 11-11-4.935-11-11-11z" fill="#b02721"/><circle cx="47" cy="30" r="12" fill="#dd352e"/><path d="M47 43c-7.168 0-13-5.832-13-13s5.832-13 13-13 13 5.832 13 13-5.832 13-13 13zm0-24c-6.065 0-11 4.935-11 11s4.935 11 11 11 11-4.935 11-11-4.935-11-11-11z" fill="#b02721"/><path d="M47 43H13a1 1 0 1 1 0-2h34a1 1 0 1 1 0 2z" fill="#b02721"/></svg>