<svg xmlns="http://www.w3.org/2000/svg" viewBox="0 0 47 47"><path fill="#424a60" d="M46.5 8v39H.5V0h38z"/><path fill="#e7eced" d="M7.5 26h31v21h-31z"/><path fill="#ebba16" d="M7.5 26h31v12.037h-31z"/><path fill="#c7cac7" d="M9.5 0h26v16h-26z"/><path d="M12.5 31h7a1 1 0 1 0 0-2h-7a1 1 0 1 0 0 2zm10 2h-10a1 1 0 1 0 0 2h10a1 1 0 1 0 0-2zm3.71.29c-.37-.37-1.04-.37-1.41 0a.996.996 0 0 0-.3.71c0 .27.109.52.29.71.189.18.439.29.71.29.27 0 .52-.11.71-.29.18-.19.29-.45.29-.71s-.11-.521-.29-.71z" fill="#fff"/><path fill="none" stroke="#424a60" stroke-width="2" stroke-linecap="round" stroke-miterlimit="10" d="M27.5 4h4v8h-4z"/><path fill="#e7eced" d="M24.5 16h-15V0h7z"/></svg>