<svg xmlns="http://www.w3.org/2000/svg" viewBox="0 0 52.966 52.966"><circle cx="21.983" cy="21" r="20" fill="#57abc1"/><path fill="none" stroke="#556080" stroke-width="2" stroke-linecap="round" stroke-miterlimit="10" d="M35.437 35.798l15.546 16.168"/><path d="M3.002 27.253a19.864 19.864 0 0 0 4.167 7.146L35.382 6.186a19.858 19.858 0 0 0-7.146-4.167L3.002 27.253z" fill="#7ccbd8"/><path d="M21.983 42c-11.58 0-21-9.42-21-21s9.42-21 21-21 21 9.42 21 21-9.421 21-21 21zm0-40c-10.477 0-19 8.523-19 19s8.523 19 19 19 19-8.523 19-19-8.524-19-19-19z" fill="#556080"/></svg>