<svg xmlns="http://www.w3.org/2000/svg" viewBox="0 0 61 61"><path d="M4.608 21h50.783A3.609 3.609 0 0 1 59 24.608v11.783A3.609 3.609 0 0 1 55.392 40H4.608A3.609 3.609 0 0 1 1 36.392V24.608A3.609 3.609 0 0 1 4.608 21z" fill="#ced8db"/><circle cx="30" cy="54" r="4" fill="none" stroke="#424a60" stroke-width="2" stroke-linecap="round" stroke-miterlimit="10"/><path d="M4.608 2h50.783A3.609 3.609 0 0 1 59 5.608v11.783A3.609 3.609 0 0 1 55.392 21H4.608A3.609 3.609 0 0 1 1 17.392V5.608A3.609 3.609 0 0 1 4.608 2z" fill="#e7eced"/><path fill="none" stroke="#424a60" stroke-width="2" stroke-linecap="round" stroke-miterlimit="10" d="M1 54h21m16 0h22"/><path fill="none" stroke="#424a60" stroke-width="2" stroke-miterlimit="10" d="M30 40l-5.5 5.5m11-1L30 50"/><circle cx="10.5" cy="11.5" r="3.5" fill="#fff"/><circle cx="50" cy="10" r="1" fill="#fff"/><circle cx="46" cy="10" r="1" fill="#fff"/><circle cx="52" cy="13" r="1" fill="#fff"/><circle cx="48" cy="13" r="1" fill="#fff"/><circle cx="42" cy="10" r="1" fill="#fff"/><circle cx="44" cy="13" r="1" fill="#fff"/><circle cx="38" cy="10" r="1" fill="#fff"/><circle cx="40" cy="13" r="1" fill="#fff"/><circle cx="34" cy="10" r="1" fill="#fff"/><circle cx="36" cy="13" r="1" fill="#fff"/><circle cx="10.5" cy="30.5" r="3.5" fill="#fff"/><circle cx="50" cy="29" r="1" fill="#fff"/><circle cx="46" cy="29" r="1" fill="#fff"/><circle cx="52" cy="32" r="1" fill="#fff"/><circle cx="48" cy="32" r="1" fill="#fff"/><circle cx="42" cy="29" r="1" fill="#fff"/><circle cx="44" cy="32" r="1" fill="#fff"/><circle cx="38" cy="29" r="1" fill="#fff"/><circle cx="40" cy="32" r="1" fill="#fff"/><circle cx="34" cy="29" r="1" fill="#fff"/><circle cx="36" cy="32" r="1" fill="#fff"/></svg>