<svg xmlns="http://www.w3.org/2000/svg" viewBox="0 0 60 60"><path d="M55.392 20.5H4.608A3.609 3.609 0 0 1 1 16.892V5.108A3.609 3.609 0 0 1 4.608 1.5h50.783A3.609 3.609 0 0 1 59 5.108v11.783a3.609 3.609 0 0 1-3.608 3.609z" fill="#424a60"/><circle cx="30" cy="53.5" r="4" fill="none" stroke="#424a60" stroke-width="2" stroke-linecap="round" stroke-miterlimit="10"/><path d="M55.392 39.5H4.608A3.609 3.609 0 0 1 1 35.892V24.108A3.609 3.609 0 0 1 4.608 20.5h50.783a3.608 3.608 0 0 1 3.608 3.608v11.783a3.608 3.608 0 0 1-3.607 3.609z" fill="#556080"/><path fill="none" stroke="#424a60" stroke-width="2" stroke-linecap="round" stroke-miterlimit="10" d="M1 53.5h25m8 0h25"/><path fill="none" stroke="#424a60" stroke-width="2" stroke-miterlimit="10" d="M30 49.5v-10"/><circle cx="10.5" cy="11" r="3.5" fill="#7383bf"/><circle cx="10.5" cy="30" r="3.5" fill="#7383bf"/><g fill="#7383bf"><circle cx="50" cy="9.5" r="1"/><circle cx="46" cy="9.5" r="1"/><circle cx="52" cy="12.5" r="1"/><circle cx="48" cy="12.5" r="1"/><circle cx="42" cy="9.5" r="1"/><circle cx="44" cy="12.5" r="1"/><circle cx="38" cy="9.5" r="1"/><circle cx="40" cy="12.5" r="1"/><circle cx="34" cy="9.5" r="1"/><circle cx="36" cy="12.5" r="1"/><circle cx="50" cy="28.5" r="1"/><circle cx="46" cy="28.5" r="1"/><circle cx="52" cy="31.5" r="1"/><circle cx="48" cy="31.5" r="1"/><circle cx="42" cy="28.5" r="1"/><circle cx="44" cy="31.5" r="1"/><circle cx="38" cy="28.5" r="1"/><circle cx="40" cy="31.5" r="1"/><circle cx="34" cy="28.5" r="1"/><circle cx="36" cy="31.5" r="1"/></g></svg>