<svg xmlns="http://www.w3.org/2000/svg" viewBox="0 0 52 52"><path d="M48.872 22.898c-4.643-.893-6.772-6.318-3.976-10.13l1.964-2.678-4.243-4.243-2.638 1.787c-3.914 2.652-9.256.321-9.974-4.351L29.5 0h-6l-.777 4.041c-.873 4.54-6.105 6.708-9.933 4.115L9.383 5.847 5.14 10.09l1.964 2.678c2.796 3.812.666 9.237-3.976 10.13L0 23.5v6l3.283.505c4.673.719 7.003 6.061 4.351 9.975l-1.787 2.637 4.243 4.243 2.678-1.964c3.812-2.796 9.237-.667 10.13 3.976L23.5 52h6l.355-2.309c.735-4.776 6.274-7.071 10.171-4.213l1.884 1.382 4.243-4.243-1.787-2.637c-2.651-3.914-.321-9.256 4.351-9.975L52 29.5v-6l-3.128-.602zM26.5 31a4.5 4.5 0 1 1 0-9 4.5 4.5 0 0 1 0 9z" fill="#c7cac7"/><path d="M26.5 17c-5.247 0-9.5 4.253-9.5 9.5s4.253 9.5 9.5 9.5 9.5-4.253 9.5-9.5-4.253-9.5-9.5-9.5zm0 14a4.5 4.5 0 1 1 0-9 4.5 4.5 0 0 1 0 9z" fill="#556080"/></svg>