<svg xmlns="http://www.w3.org/2000/svg" viewBox="0 0 60 60"><path fill="#424a60" d="M0 0h60v60H0z"/><path d="M55.01 35.725l-.469-.111c.12.643.36 1.219.687 1.725a.865.865 0 0 0 .435-.557.878.878 0 0 0-.653-1.057zm-11.009 17.3a.867.867 0 0 0 .147-1.08l-.057-.092A8.031 8.031 0 0 0 44 53l.001.025zm-7.537-3.834l-3.871-12.889a6.19 6.19 0 0 0 3.13-3.323l13.297 3.139c.006-.03.017-.057.023-.087l.315-1.639-13.232-3.125c.021-.239.032-.481.025-.727a6.106 6.106 0 0 0-1.342-3.639l10.274-10.908a21.014 21.014 0 0 1 6.004 14.1c.03.986-.019 1.955-.124 2.908h1.771c.068-.686.108-1.38.114-2.082l2.658-.08a.878.878 0 1 0-.053-1.757l-2.658.08a22.827 22.827 0 0 0-.674-4.164l2.546-.764a.879.879 0 1 0-.506-1.684l-2.54.763a22.69 22.69 0 0 0-1.738-3.843l2.264-1.399a.88.88 0 0 0-.924-1.496l-2.268 1.402a22.94 22.94 0 0 0-2.667-3.264l1.829-1.942a.879.879 0 1 0-1.279-1.205l-1.829 1.942a22.976 22.976 0 0 0-3.418-2.467l1.263-2.347a.878.878 0 1 0-1.549-.832l-1.261 2.344a22.674 22.674 0 0 0-3.94-1.505l.609-2.581a.878.878 0 1 0-1.71-.404L34.391 8.3a22.785 22.785 0 0 0-4.196-.424l-.08-2.658a.878.878 0 1 0-1.757.053l.08 2.658c-1.429.097-2.82.327-4.163.675l-.765-2.547a.878.878 0 1 0-1.684.505l.763 2.54a22.616 22.616 0 0 0-3.843 1.739l-1.399-2.264a.879.879 0 1 0-1.496.924l1.401 2.267a22.94 22.94 0 0 0-3.264 2.667l-1.942-1.829a.879.879 0 1 0-1.205 1.279l1.942 1.829a22.976 22.976 0 0 0-2.467 3.418l-2.348-1.263a.88.88 0 0 0-.833 1.549L9.48 20.68a22.705 22.705 0 0 0-1.505 3.94l-2.581-.609a.874.874 0 0 0-1.057.653.878.878 0 0 0 .653 1.057l2.587.611a22.785 22.785 0 0 0-.424 4.196l-2.658.08a.878.878 0 1 0 .053 1.757l2.658-.08c.016.242.057.476.081.715h1.755a20.726 20.726 0 0 1-.128-1.645 21.115 21.115 0 0 1 .374-4.619l14.587 3.444c-.021.24-.032.481-.025.728a6.106 6.106 0 0 0 1.342 3.639l-3.428 3.64 1.244 1.243 3.464-3.678a6.106 6.106 0 0 0 3.713 1.121c.246-.007.487-.033.725-.069l3.973 13.229a4.736 4.736 0 0 0 1.581-.842zM29.368 9.637a21.01 21.01 0 0 1 14.434 5.149L33.529 25.695a6.106 6.106 0 0 0-3.713-1.121 6.18 6.18 0 0 0-.725.068L24.78 10.287a21.119 21.119 0 0 1 4.588-.65zm-5.091 18.832L9.688 25.024a21.189 21.189 0 0 1 13.408-14.236l4.312 14.357a6.19 6.19 0 0 0-3.131 3.324zm5.855 6.647a4.4 4.4 0 0 1-4.525-4.261c-.073-2.422 1.839-4.452 4.261-4.525s4.452 1.839 4.525 4.261a4.4 4.4 0 0 1-4.261 4.525z" fill="#373e49"/><path d="M59 32a1 1 0 1 0 0-2h-3.025a25.975 25.975 0 0 0-.625-4.758l2.921-.782a1 1 0 0 0 .707-1.225.996.996 0 0 0-1.225-.707l-2.915.781a25.869 25.869 0 0 0-1.846-4.429l2.622-1.514a1 1 0 1 0-1-1.732l-2.627 1.517a26.16 26.16 0 0 0-2.922-3.803l2.146-2.146a.999.999 0 1 0-1.414-1.414l-2.146 2.146a26.177 26.177 0 0 0-3.803-2.922l1.516-2.626a1 1 0 0 0-1.73-1L42.12 8.008a25.869 25.869 0 0 0-4.429-1.846l.781-2.915a1 1 0 1 0-1.932-.518l-.783 2.921A25.953 25.953 0 0 0 31 5.025V2a1 1 0 1 0-2 0v3.025a25.866 25.866 0 0 0-4.757.625l-.783-2.921a1 1 0 1 0-1.932.518l.781 2.915a25.869 25.869 0 0 0-4.429 1.846l-1.514-2.622a1 1 0 1 0-1.732 1l1.516 2.626a26.16 26.16 0 0 0-3.803 2.922l-2.146-2.146a.999.999 0 1 0-1.414 1.414l2.146 2.146a26.161 26.161 0 0 0-2.921 3.802l-2.627-1.517a1 1 0 1 0-1 1.733l2.622 1.514a25.869 25.869 0 0 0-1.846 4.429l-2.915-.781a1 1 0 1 0-.518 1.932l2.921.782A26.061 26.061 0 0 0 4.025 30H1a1 1 0 1 0 0 2h3.025c.062 1.629.276 3.218.625 4.758l-2.921.782a1 1 0 1 0 .517 1.932l2.915-.781a25.869 25.869 0 0 0 1.846 4.429l-2.622 1.514a1 1 0 0 0 1 1.732l2.627-1.517a26.16 26.16 0 0 0 1.75 2.414 6.013 6.013 0 0 1 3.975 3.975 26.16 26.16 0 0 0 2.414 1.75l-1.516 2.626a1 1 0 0 0 1.732 1l1.514-2.622a25.869 25.869 0 0 0 4.429 1.846l-.781 2.915c-.022.083-.015.165-.016.247h2.02l.71-2.65c1.539.35 3.129.563 4.757.625V59h2v-2.025a25.866 25.866 0 0 0 4.757-.625l.71 2.65h2.02c-.001-.082.007-.164-.016-.247l-.781-2.915a25.869 25.869 0 0 0 4.429-1.846l1.514 2.622a1 1 0 1 0 1.732-1l-1.516-2.626a26.16 26.16 0 0 0 2.414-1.75 6.013 6.013 0 0 1 3.975-3.975 26.296 26.296 0 0 0 1.75-2.414l2.627 1.517A.998.998 0 0 0 55.981 46a1 1 0 0 0-.366-1.366l-2.622-1.514a25.869 25.869 0 0 0 1.846-4.429l2.915.781a1 1 0 0 0 .517-1.932l-2.921-.782c.349-1.539.563-3.129.625-4.758H59zM30 7c6.258 0 11.962 2.41 16.239 6.347L34.184 25.402A6.953 6.953 0 0 0 30 24c-.28 0-.555.021-.826.053L24.76 7.583A24.008 24.008 0 0 1 30 7zm5 24c0 2.757-2.243 5-5 5s-5-2.243-5-5 2.243-5 5-5 5 2.243 5 5zM22.827 8.096l4.414 16.473a7.04 7.04 0 0 0-3.673 3.673L7.096 23.827A24.106 24.106 0 0 1 22.827 8.096zM6 31c0-1.8.206-3.552.583-5.24l16.47 4.414A7.03 7.03 0 0 0 23 31c0 1.57.526 3.015 1.402 4.184L12.347 47.239C8.41 42.962 6 37.258 6 31zm24 24c-6.258 0-11.962-2.41-16.239-6.347l12.054-12.054A6.964 6.964 0 0 0 30 38c.28 0 .555-.021.826-.053l4.413 16.47A23.992 23.992 0 0 1 30 55zm7.173-1.096l-4.414-16.473a7.04 7.04 0 0 0 3.673-3.673l16.473 4.414a24.11 24.11 0 0 1-15.732 15.732zM53.417 36.24l-16.47-4.414A7.03 7.03 0 0 0 37 31c0-1.57-.526-3.015-1.402-4.184l12.054-12.054C51.59 19.038 54 24.742 54 31c0 1.8-.206 3.552-.583 5.24z" fill="#efce4a"/><path d="M59 59v-2.13A8.009 8.009 0 0 1 57.279 59H59zm-4.496-23.538L54.125 33h-4.5l-.583 3.03c-.655 3.405-4.579 5.031-7.45 3.086l-2.555-1.731-3.182 3.182 1.473 2.009c2.097 2.859.5 6.928-2.982 7.597L32 50.625v4.5l2.462.379c2.011.309 3.438 1.761 3.918 3.496h8.34A7.974 7.974 0 0 1 44 53a8 8 0 0 1 8-8 7.995 7.995 0 0 1 7 4.13v-9.581c-2.151-.13-4.129-1.699-4.496-4.087zM1 59h1.721A8.009 8.009 0 0 1 1 56.87V59zm24.654-8.826c-3.482-.67-5.079-4.738-2.982-7.597l1.473-2.009-3.182-3.182-2.555 1.731c-2.871 1.945-6.795.319-7.45-3.086L10.375 33h-4.5l-.379 2.462C5.129 37.85 3.151 39.419 1 39.549v9.581A7.995 7.995 0 0 1 8 45a8 8 0 0 1 8 8 7.972 7.972 0 0 1-2.721 6h8.34c.48-1.735 1.908-3.187 3.918-3.496L28 55.125v-4.5l-2.346-.451z" fill="#7383bf"/><path d="M8 45a7.995 7.995 0 0 0-7 4.13v7.74A8.009 8.009 0 0 0 2.721 59h10.558A7.972 7.972 0 0 0 16 53a8 8 0 0 0-8-8zm0 12a4 4 0 1 1 0-8 4 4 0 0 1 0 8zm51-7.87A7.995 7.995 0 0 0 52 45a8 8 0 0 0-8 8 7.972 7.972 0 0 0 2.721 6h10.558A8.029 8.029 0 0 0 59 56.87v-7.74zM52 57a4 4 0 1 1 0-8 4 4 0 0 1 0 8z" fill="#fff"/></svg>