<svg xmlns="http://www.w3.org/2000/svg" viewBox="0 0 60 60"><path d="M59 31a1 1 0 1 0 0-2h-3.04a25.842 25.842 0 0 0-.618-4.755l2.928-.785a1 1 0 0 0-.518-1.932l-2.93.785c-.034-.109-.058-.222-.094-.331-.002-.006 0-.011-.002-.017-.002-.006-.007-.01-.01-.017a25.78 25.78 0 0 0-1.736-4.063l2.632-1.52a.999.999 0 0 0 .366-1.366.999.999 0 0 0-1.366-.366l-2.634 1.521a26.115 26.115 0 0 0-2.927-3.794l2.159-2.159a.999.999 0 1 0-1.414-1.414l-2.159 2.159a26.219 26.219 0 0 0-3.79-2.935l1.516-2.626a.999.999 0 0 0-1.729-.999l-1.515 2.623a25.82 25.82 0 0 0-4.433-1.831l.785-2.93a1 1 0 0 0-1.932-.518l-.785 2.929A25.82 25.82 0 0 0 31 4.041V1a1 1 0 1 0-2 0v3.041a25.842 25.842 0 0 0-4.755.618l-.785-2.93a1 1 0 1 0-1.932.518l.785 2.93a25.887 25.887 0 0 0-4.433 1.831l-1.515-2.623A.997.997 0 0 0 15 4.02a.999.999 0 0 0-.366 1.366l1.516 2.626a26.196 26.196 0 0 0-3.79 2.934l-2.159-2.159a.999.999 0 1 0-1.414 1.414l2.159 2.159a26.185 26.185 0 0 0-2.927 3.794l-2.634-1.521a1 1 0 1 0-.999 1.733l2.632 1.52a25.874 25.874 0 0 0-1.736 4.063c-.002.006-.007.01-.01.017-.002.006 0 .011-.002.017-.035.108-.06.221-.094.331l-2.93-.785a1 1 0 0 0-.518 1.932l2.928.785A25.991 25.991 0 0 0 4.04 29H1a1 1 0 1 0 0 2h3.031c.062 1.628.273 3.218.623 4.757l-2.925.783a1 1 0 0 0 .518 1.932l2.916-.781a25.825 25.825 0 0 0 1.846 4.428l-2.624 1.515a.999.999 0 0 0 .502 1.866c.17 0 .342-.043.499-.134l2.632-1.52a26.26 26.26 0 0 0 2.922 3.8l-2.153 2.153a.999.999 0 1 0 1.414 1.414l2.147-2.146a26.152 26.152 0 0 0 2.322 1.916c.018.015.028.037.048.052.028.02.06.028.089.045.438.316.892.61 1.349.899l-1.522 2.635a1 1 0 0 0 1.732 1l1.52-2.632a25.803 25.803 0 0 0 4.428 1.84l-.785 2.93a1 1 0 0 0 1.932.518l.785-2.928c1.538.35 3.128.555 4.755.617V59a1 1 0 1 0 2 0v-3.04a25.852 25.852 0 0 0 4.756-.617l.784 2.928a.998.998 0 0 0 1.225.707 1 1 0 0 0 .707-1.225l-.785-2.93a25.916 25.916 0 0 0 4.428-1.84l1.519 2.631a1 1 0 1 0 1.732-1l-1.522-2.635c.457-.29.912-.583 1.349-.9.029-.017.061-.025.088-.045.02-.014.029-.036.048-.052a26.152 26.152 0 0 0 2.322-1.916l2.147 2.146a.997.997 0 0 0 1.414 0 .999.999 0 0 0 0-1.414l-2.153-2.153a26.15 26.15 0 0 0 2.922-3.8l2.632 1.52a.998.998 0 0 0 1.366-.366 1 1 0 0 0-.366-1.366l-2.624-1.515a25.779 25.779 0 0 0 1.846-4.428l2.916.781a1 1 0 0 0 .518-1.932l-2.924-.783c.35-1.539.561-3.128.623-4.757H59zM30 54a23.855 23.855 0 0 1-13.279-4.021l7.658-10.541C26.026 40.423 27.945 41 30 41s3.974-.577 5.622-1.562l7.658 10.541A23.86 23.86 0 0 1 30 54zm0-26c1.103 0 2 .897 2 2s-.897 2-2 2-2-.897-2-2 .897-2 2-2zm1-8.949V6.025c9.861.407 18.204 6.788 21.495 15.614l-12.388 4.026c-1.561-3.623-5.013-6.243-9.107-6.614zm-2 0c-4.094.371-7.546 2.991-9.107 6.614L7.505 21.639C10.796 12.813 19.139 6.432 29 6.025v13.026zM6 30c0-2.237.314-4.401.89-6.458l12.39 4.026c-.178.784-.28 1.596-.28 2.432 0 3.293 1.462 6.244 3.761 8.262l-7.655 10.537C9.564 44.399 6 37.61 6 30zm38.893 18.799l-7.655-10.537C39.538 36.244 41 33.293 41 30c0-.836-.102-1.648-.28-2.431l12.39-4.026c.576 2.056.89 4.22.89 6.457 0 7.61-3.564 14.399-9.107 18.799z" fill="#556080"/></svg>