<svg xmlns="http://www.w3.org/2000/svg" viewBox="0 0 57 57"><path d="M42.111 8.847a1 1 0 1 0-1.049 1.703C48.224 14.96 52.5 22.604 52.5 31a24.03 24.03 0 0 1-.805 6.152 1.001 1.001 0 0 0 .967 1.256 1 1 0 0 0 .966-.744c.579-2.182.872-4.424.872-6.664 0-9.095-4.631-17.377-12.389-22.153zm-4.44 44.335A23.867 23.867 0 0 1 28.5 55a24.044 24.044 0 0 1-17.728-7.832 1 1 0 0 0-1.478 1.348A26.054 26.054 0 0 0 28.5 57c3.435 0 6.778-.663 9.936-1.971.51-.211.753-.796.542-1.307a1.001 1.001 0 0 0-1.307-.54zM22.784 7.687a1 1 0 0 0-.474-1.943C11.302 8.434 3.371 17.838 2.573 29.146a.998.998 0 0 0 .998 1.07 1 1 0 0 0 .997-.93A23.894 23.894 0 0 1 22.784 7.687z" fill="#424a60"/><circle cx="28.5" cy="6" r="6" fill="#ebba16"/><circle cx="6.5" cy="43" r="6" fill="#7383bf"/><circle cx="50.5" cy="43" r="6" fill="#43b05c"/></svg>