<svg xmlns="http://www.w3.org/2000/svg" viewBox="0 0 58 58"><circle cx="29" cy="29" r="29" fill="#f76363"/><path d="M12 43a2 2 0 0 1 0-4c5.514 0 10-4.486 10-10a2 2 0 0 1 4 0c0 7.72-6.28 14-14 14z" fill="#fff"/><path d="M24 31a2 2 0 0 1-2-2c0-7.72 6.28-14 14-14h10a2 2 0 0 1 0 4H36c-5.514 0-10 4.486-10 10a2 2 0 0 1-2 2zm22 12H36a13.99 13.99 0 0 1-9.263-3.498 2.001 2.001 0 0 1 2.646-3A9.995 9.995 0 0 0 36 39h10a2 2 0 0 1 0 4zM20.002 22.054a1.99 1.99 0 0 1-1.333-.51A9.983 9.983 0 0 0 12 19h-2a2 2 0 0 1 0-4h2c3.452 0 6.769 1.266 9.337 3.563a2 2 0 0 1-1.335 3.491zM12 43h-2a2 2 0 0 1 0-4h2a2 2 0 0 1 0 4z" fill="#fff"/><path d="M36.002 27a2 2 0 0 1-1.179-3.617L43.6 17l-8.776-6.383a1.999 1.999 0 0 1-.44-2.794 1.999 1.999 0 0 1 2.794-.44L50.4 17l-13.224 9.617a1.986 1.986 0 0 1-1.174.383zm0 24a2 2 0 0 1-1.179-3.617L43.6 41l-8.776-6.383a1.999 1.999 0 1 1 2.354-3.234L50.4 41l-13.224 9.617a1.986 1.986 0 0 1-1.174.383z" fill="#fff"/></svg>