<svg xmlns="http://www.w3.org/2000/svg" viewBox="0 0 58 58"><path d="M41.595 58h-25.19A3.406 3.406 0 0 1 13 54.595V3.405A3.406 3.406 0 0 1 16.405 0h25.189A3.406 3.406 0 0 1 45 3.405v51.189A3.406 3.406 0 0 1 41.595 58z" fill="#424a60"/><path fill="#e7eced" d="M13 6h32v40H13z"/><circle cx="29" cy="52" r="3" fill="#262b35"/><path d="M29 4h-4a1 1 0 1 1 0-2h4a1 1 0 1 1 0 2zm4 0h-1a1 1 0 1 1 0-2h1a1 1 0 1 1 0 2z" fill="#262b35"/><path d="M30.962 17.019h-3.924A1.038 1.038 0 0 1 26 15.981v-3.924c0-.573.465-1.038 1.038-1.038h3.924c.573 0 1.038.465 1.038 1.038v3.924c0 .573-.465 1.038-1.038 1.038z" fill="#3083c9"/><path d="M21.962 17.019h-3.924A1.038 1.038 0 0 1 17 15.981v-3.924c0-.573.465-1.038 1.038-1.038h3.924c.573 0 1.038.465 1.038 1.038v3.924c0 .573-.465 1.038-1.038 1.038z" fill="#88c057"/><path d="M39.962 17.019h-3.924A1.038 1.038 0 0 1 35 15.981v-3.924c0-.573.465-1.038 1.038-1.038h3.924c.573 0 1.038.465 1.038 1.038v3.924c0 .573-.465 1.038-1.038 1.038z" fill="#dc691d"/><path d="M30.962 26h-3.924A1.038 1.038 0 0 1 26 24.962v-3.924c0-.573.465-1.038 1.038-1.038h3.924c.573 0 1.038.465 1.038 1.038v3.924c0 .573-.465 1.038-1.038 1.038z" fill="#ebba16"/><path d="M21.962 26h-3.924A1.038 1.038 0 0 1 17 24.962v-3.924c0-.573.465-1.038 1.038-1.038h3.924c.573 0 1.038.465 1.038 1.038v3.924c0 .573-.465 1.038-1.038 1.038z" fill="#7383bf"/><path d="M39.962 26h-3.924A1.038 1.038 0 0 1 35 24.962v-3.924c0-.573.465-1.038 1.038-1.038h3.924c.573 0 1.038.465 1.038 1.038v3.924c0 .573-.465 1.038-1.038 1.038z" fill="#dd352e"/><path d="M30.962 35h-3.924A1.038 1.038 0 0 1 26 33.962v-3.924c0-.573.465-1.038 1.038-1.038h3.924c.573 0 1.038.465 1.038 1.038v3.924c0 .573-.465 1.038-1.038 1.038z" fill="#a485be"/><path d="M21.962 35h-3.924A1.038 1.038 0 0 1 17 33.962v-3.924c0-.573.465-1.038 1.038-1.038h3.924c.573 0 1.038.465 1.038 1.038v3.924c0 .573-.465 1.038-1.038 1.038z" fill="#ea6248"/><path d="M39.962 35h-3.924A1.038 1.038 0 0 1 35 33.962v-3.924c0-.573.465-1.038 1.038-1.038h3.924c.573 0 1.038.465 1.038 1.038v3.924c0 .573-.465 1.038-1.038 1.038z" fill="#25ae88"/></svg>