<svg xmlns="http://www.w3.org/2000/svg" viewBox="0 0 58 58"><path d="M54.595 27H32v27.594A3.406 3.406 0 0 1 28.595 58h26A3.406 3.406 0 0 0 58 54.594V30.405A3.406 3.406 0 0 0 54.595 27z" fill="#7fabda"/><path d="M51 14c0-6.633-5.367-12-12-12m6 11l6 6m0 0l6-6m-6 6v-5" fill="none" stroke="#88c057" stroke-width="2" stroke-linecap="round" stroke-miterlimit="10"/><path d="M28.595 58H3.405A3.406 3.406 0 0 1 0 54.595V3.405A3.406 3.406 0 0 1 3.405 0h25.189A3.406 3.406 0 0 1 32 3.405v51.189A3.406 3.406 0 0 1 28.595 58z" fill="#e7eced"/><circle cx="16" cy="53" r="3" fill="#fff"/><path d="M16 4h-4a1 1 0 1 1 0-2h4a1 1 0 1 1 0 2zm4 0h-1a1 1 0 1 1 0-2h1a1 1 0 1 1 0 2zM0 6h32v42H0z" fill="#424a60"/><path d="M54.595 27H52v31h2.595A3.405 3.405 0 0 0 58 54.595v-24.19A3.405 3.405 0 0 0 54.595 27z" fill="#e7eced"/></svg>