<svg xmlns="http://www.w3.org/2000/svg" viewBox="0 0 58 58"><path d="M30.595 58H5.405A3.406 3.406 0 0 1 2 54.595V3.405A3.406 3.406 0 0 1 5.405 0h25.189A3.406 3.406 0 0 1 34 3.405v51.189A3.406 3.406 0 0 1 30.595 58z" fill="#e7eced"/><circle cx="18" cy="53" r="3" fill="#fff"/><path d="M18 4h-4a1 1 0 1 1 0-2h4a1 1 0 1 1 0 2zm4 0h-1a1 1 0 1 1 0-2h1a1 1 0 1 1 0 2zM2 6h32v42H2z" fill="#424a60"/><path fill="none" stroke="#ebba16" stroke-width="2" stroke-linecap="round" stroke-miterlimit="10" d="M17 26h38M43 14l12 12M43 38l12-12"/></svg>