<svg xmlns="http://www.w3.org/2000/svg" viewBox="0 0 58 58"><path d="M27 3.405V26h27.594A3.406 3.406 0 0 1 58 29.405v-26A3.406 3.406 0 0 0 54.594 0H30.405A3.406 3.406 0 0 0 27 3.405z" fill="#7fabda"/><path d="M14 7C7.367 7 2 12.367 2 19m11-6l6-6m0 0l-6-6m6 6h-5" fill="none" stroke="#88c057" stroke-width="2" stroke-linecap="round" stroke-miterlimit="10"/><path d="M58 29.405v25.189A3.406 3.406 0 0 1 54.595 58H3.405A3.406 3.406 0 0 1 0 54.595V29.406A3.406 3.406 0 0 1 3.405 26h51.189A3.406 3.406 0 0 1 58 29.405z" fill="#e7eced"/><circle cx="53" cy="42" r="3" fill="#fff"/><path d="M4 42v4a1 1 0 1 1-2 0v-4a1 1 0 1 1 2 0zm0-4v1a1 1 0 1 1-2 0v-1a1 1 0 1 1 2 0zm2-12h42v32H6z" fill="#424a60"/><path d="M27 3.405V6h31V3.405A3.405 3.405 0 0 0 54.595 0h-24.19A3.405 3.405 0 0 0 27 3.405z" fill="#e7eced"/></svg>