<svg xmlns="http://www.w3.org/2000/svg" viewBox="0 0 60 60"><path d="M1 20.358v19l11-.005 13.83 12.705c1.402.844 3.17-.191 3.17-1.855V10.514c0-1.665-1.768-2.7-3.17-1.855L12 20.358H1z" fill="#e7eced" stroke="#c7cac7" stroke-width="2" stroke-linecap="round" stroke-linejoin="round" stroke-miterlimit="10"/><path fill="#e7eced" stroke="#c7cac7" stroke-width="2" stroke-linecap="round" stroke-miterlimit="10" d="M12 20.358v5m0 9v5"/><path d="M38.501 47.358c7.284-2.484 12.526-9.375 12.526-17.5 0-8.133-5.255-15.022-12.551-17.5" fill="none" stroke="#c7cac7" stroke-width="2" stroke-linecap="round" stroke-linejoin="round" stroke-miterlimit="10"/><path d="M43.347 52.705C52.504 49.156 59 40.268 59 29.858c0-10.138-6.158-18.837-14.937-22.563M33 41.859c5.212-1.506 9.027-6.304 9.027-12.001S38.212 19.364 33 17.857" fill="none" stroke="#c7cac7" stroke-width="2" stroke-linecap="round" stroke-linejoin="round" stroke-miterlimit="10"/></svg>