<svg xmlns="http://www.w3.org/2000/svg" viewBox="0 0 54 54"><path fill="#694f87" d="M0 15h54v37H0z"/><path fill="none" stroke="#556080" stroke-width="2" stroke-linecap="round" stroke-miterlimit="10" d="M2 11h50M5 7h44M8 3h38"/><g fill="#bf4d90"><circle cx="45" cy="18" r="1"/><circle cx="45" cy="24" r="1"/><circle cx="48" cy="21" r="1"/><circle cx="48" cy="27" r="1"/><circle cx="51" cy="18" r="1"/><circle cx="51" cy="24" r="1"/><circle cx="45" cy="30" r="1"/><circle cx="45" cy="36" r="1"/><circle cx="48" cy="33" r="1"/><circle cx="48" cy="39" r="1"/><circle cx="51" cy="30" r="1"/><circle cx="51" cy="36" r="1"/><circle cx="45" cy="42" r="1"/><circle cx="45" cy="48" r="1"/><circle cx="48" cy="45" r="1"/><circle cx="48" cy="51" r="1"/><circle cx="51" cy="42" r="1"/><circle cx="51" cy="48" r="1"/><circle cx="27" cy="18" r="1"/><circle cx="27" cy="24" r="1"/><circle cx="30" cy="21" r="1"/><circle cx="30" cy="27" r="1"/><circle cx="33" cy="18" r="1"/><circle cx="39" cy="18" r="1"/><circle cx="33" cy="24" r="1"/><circle cx="39" cy="24" r="1"/><circle cx="36" cy="21" r="1"/><circle cx="42" cy="21" r="1"/><circle cx="36" cy="27" r="1"/><circle cx="42" cy="27" r="1"/><circle cx="27" cy="30" r="1"/><circle cx="27" cy="36" r="1"/><circle cx="30" cy="33" r="1"/><circle cx="30" cy="39" r="1"/><circle cx="33" cy="30" r="1"/><circle cx="39" cy="30" r="1"/><circle cx="33" cy="36" r="1"/><circle cx="39" cy="36" r="1"/><circle cx="36" cy="33" r="1"/><circle cx="42" cy="33" r="1"/><circle cx="36" cy="39" r="1"/><circle cx="42" cy="39" r="1"/><circle cx="27" cy="42" r="1"/><circle cx="27" cy="48" r="1"/><circle cx="30" cy="45" r="1"/><circle cx="30" cy="51" r="1"/><circle cx="33" cy="42" r="1"/><circle cx="39" cy="42" r="1"/><circle cx="33" cy="48" r="1"/><circle cx="39" cy="48" r="1"/><circle cx="36" cy="45" r="1"/><circle cx="42" cy="45" r="1"/><circle cx="36" cy="51" r="1"/><circle cx="42" cy="51" r="1"/><circle cx="21" cy="18" r="1"/><circle cx="21" cy="24" r="1"/><circle cx="24" cy="21" r="1"/><circle cx="24" cy="27" r="1"/><circle cx="21" cy="30" r="1"/><circle cx="21" cy="36" r="1"/><circle cx="24" cy="33" r="1"/><circle cx="24" cy="39" r="1"/><circle cx="21" cy="42" r="1"/><circle cx="21" cy="48" r="1"/><circle cx="24" cy="45" r="1"/><circle cx="24" cy="51" r="1"/><circle cx="3" cy="18" r="1"/><circle cx="3" cy="24" r="1"/><circle cx="6" cy="21" r="1"/><circle cx="6" cy="27" r="1"/><circle cx="9" cy="18" r="1"/><circle cx="15" cy="18" r="1"/><circle cx="9" cy="24" r="1"/><circle cx="15" cy="24" r="1"/><circle cx="12" cy="21" r="1"/><circle cx="18" cy="21" r="1"/><circle cx="12" cy="27" r="1"/><circle cx="18" cy="27" r="1"/><circle cx="3" cy="30" r="1"/><circle cx="3" cy="36" r="1"/><circle cx="6" cy="33" r="1"/><circle cx="6" cy="39" r="1"/><circle cx="9" cy="30" r="1"/><circle cx="15" cy="30" r="1"/><circle cx="9" cy="36" r="1"/><circle cx="15" cy="36" r="1"/><circle cx="12" cy="33" r="1"/><circle cx="18" cy="33" r="1"/><circle cx="12" cy="39" r="1"/><circle cx="18" cy="39" r="1"/><circle cx="3" cy="42" r="1"/><circle cx="3" cy="48" r="1"/><circle cx="6" cy="45" r="1"/><circle cx="6" cy="51" r="1"/><circle cx="9" cy="42" r="1"/><circle cx="15" cy="42" r="1"/><circle cx="9" cy="48" r="1"/><circle cx="15" cy="48" r="1"/><circle cx="12" cy="45" r="1"/><circle cx="18" cy="45" r="1"/><circle cx="12" cy="51" r="1"/><circle cx="18" cy="51" r="1"/></g></svg>