<svg xmlns="http://www.w3.org/2000/svg" viewBox="0 0 58 58"><path fill="#556080" d="M0 6h58v38H0z"/><path fill="#61b872" d="M49 10h4v4h-4z"/><path d="M39.326 34.814c.162-.11.329-.211.488-.325a4.479 4.479 0 0 0-.964-.656l-4.664-3.018c-.693-.346-2-.225-2-1V27.71c.151-.171 1.323-.885 1.507-1.145.731-1.032 1.476-2.168 1.86-3.359.688-.212 1.633-.847 1.633-1.602v-2.246c0-.195-.102-.382-.248-.556-.464-.556-.752-1.237-.752-1.961v-1.027s-.158-6-7-6-7 6-7 6v1.027c0 .724-.288 1.406-.752 1.961-.145.174-.248.361-.248.556v2.246c0 .592.75 1.112 1.215 1.413.561 2.443 3.785 4.201 3.785 4.201v2.052c0 .748-1.838 1.437-2.495 1.796l-4.707 2.732c-.342.187-.648.42-.925.68.163.118.337.224.504.337h20.763z" fill="#fbce9d"/><path fill="#ebba16" d="M5 34h5v5H5z"/><path fill="#424a60" d="M31 49v-5h-4v5h-5v3h14v-3z"/><path fill="#d75a4a" d="M14 34h39v5H14z"/></svg>