<svg xmlns="http://www.w3.org/2000/svg" viewBox="0 0 54 54"><path d="M41.771 54H12.229A6.23 6.23 0 0 1 6 47.771V28.229A6.23 6.23 0 0 1 12.229 22h29.542A6.23 6.23 0 0 1 48 28.229v19.542A6.23 6.23 0 0 1 41.771 54z" fill="#c7cac7"/><path d="M41.771 22H27v32h14.771A6.23 6.23 0 0 0 48 47.771V28.229A6.23 6.23 0 0 0 41.771 22z" fill="#e7eced"/><path d="M27 42c-1.65 0-3-1.35-3-3v-6c0-1.65 1.35-3 3-3s3 1.35 3 3v6c0 1.65-1.35 3-3 3z" fill="#4c4c4f"/><path d="M12 17.5a2 2 0 0 0 2-2C14 9.159 19.832 4 27 4s13 5.159 13 11.5V22h1.771c.771 0 1.507.147 2.188.403.027-.13.041-.265.041-.403v-6.5C44 6.953 36.374 0 27 0S10 6.953 10 15.5a2 2 0 0 0 2 2z" fill="#546a79"/></svg>