<svg xmlns="http://www.w3.org/2000/svg" viewBox="0 0 53 53"><path d="M11.487 44.641l9.113-3.908c.494-.247.896-1.045 1.179-1.614a.778.778 0 0 0-.7-1.119h-6.445s-2.33-.228-4.127-1c-1.053-.452-1.415-1.049-.757-1.986 1.925-2.74 5.904-9.192 6.033-15.855 0 0 .221-10.257 10.34-10.34 5.903.049 8.691 3.523 9.99 6.41.724 1.611 1.035 3.367 1.151 5.129.42 6.351 3.654 12.16 5.161 14.642.511.842.264 1.963-.581 2.469-1.386.829-3.083.531-3.083.531h-6.488c-.634 0-.914.886-.416 1.279.406.32.793.609 1.002.723l7.58 4.587A6.563 6.563 0 0 1 43 47.118 26.379 26.379 0 0 1 26.359 53a26.384 26.384 0 0 1-17.216-6.363 6.537 6.537 0 0 1 2.344-1.996z" fill="#e7eced"/><path d="M26.5 0C11.864 0 0 11.865 0 26.5c0 8.022 3.57 15.206 9.202 20.066a6.521 6.521 0 0 1 2.286-1.925l9.113-3.908c.494-.247.896-1.045 1.179-1.614a.778.778 0 0 0-.7-1.119h-6.445s-2.33-.228-4.127-1c-1.053-.452-1.415-1.049-.757-1.986 1.925-2.74 5.904-9.192 6.033-15.855 0 0 .221-10.257 10.34-10.34 5.903.049 8.691 3.523 9.99 6.41.724 1.611 1.035 3.367 1.151 5.129.42 6.351 3.654 12.16 5.161 14.642.511.842.264 1.963-.581 2.469-1.387.829-3.084.531-3.084.531h-6.488c-.634 0-.914.886-.416 1.279.406.32.793.609 1.002.723l7.58 4.587a6.542 6.542 0 0 1 2.545 2.505c.026.025.055.048.08.075C49.117 42.313 53 34.864 53 26.5 53 11.865 41.136 0 26.5 0z" fill="#556080"/></svg>