<svg xmlns="http://www.w3.org/2000/svg" viewBox="0 0 58 58"><path d="M51 49.957a8.02 8.02 0 0 0-4.434-7.174l-9.552-4.776A3.644 3.644 0 0 1 35 34.748V31c.268-.305.576-.698.904-1.162a21.964 21.964 0 0 0 2.969-5.984C40.098 23.477 41 22.345 41 21v-4c0-.88-.391-1.667-1-2.217V9s1.187-9-11-9C16.812 0 18 9 18 9v5.783c-.609.55-1 1.337-1 2.217v4a3 3 0 0 0 1.383 2.517C19.382 27.869 22 31 22 31v3.655c0 1.333-.728 2.56-1.899 3.198L11.18 42.72A8.02 8.02 0 0 0 7 49.761V53c0 2.761 9.85 5 22 5s22-2.239 22-5v-3.043z" fill="#88c057"/></svg>