<svg xmlns="http://www.w3.org/2000/svg" viewBox="0 0 58 58"><path d="M53.566 45.283l-9.552-4.776A3.644 3.644 0 0 1 42 37.248V33.5c.268-.305.576-.698.904-1.162a21.964 21.964 0 0 0 2.969-5.984C47.098 25.977 48 24.845 48 23.5v-4c0-.88-.391-1.667-1-2.217V11.5s1.187-9-11-9c-12.188 0-11 9-11 9v5.783c-.609.55-1 1.337-1 2.217v4a3 3 0 0 0 1.383 2.517C26.382 30.369 29 33.5 29 33.5v3.655c0 1.333-.728 2.56-1.899 3.198L18.18 45.22A8.02 8.02 0 0 0 14 52.261V55.5h44v-3.043a8.022 8.022 0 0 0-4.434-7.174z" fill="#7383bf"/><path d="M18.18 45.22l5.946-3.243c-.034-.033-.005-.043.065-.036l2.91-1.587A3.643 3.643 0 0 0 29 37.155V33.5s-1.062-1.275-2.092-3.323l-.001-.003a20.31 20.31 0 0 1-.399-.844l-.054-.121a18.523 18.523 0 0 1-.386-.944l-.023-.065a18.79 18.79 0 0 1-.306-.896l-.077-.251a16.731 16.731 0 0 1-.278-1.038A2.992 2.992 0 0 1 24 23.5v-4c0-.88.391-1.667 1-2.217v-5.648C23.587 10.539 21.397 9.5 18 9.5c-9.563 0-10 8-10 8v4.995c-.526.475-1 1.154-1 1.914v3.455c0 .911.479 1.711 1.194 2.174.863 3.758 3.76 6.463 3.76 6.463v3.157a3.146 3.146 0 0 1-1.64 2.762L3.61 46.622A6.928 6.928 0 0 0 0 52.703V55.5h14v-3.239a8.02 8.02 0 0 1 4.18-7.041z" fill="#556080"/></svg>