<svg xmlns="http://www.w3.org/2000/svg" viewBox="0 0 56 56"><path d="M40.693 47.277H3.307A2.307 2.307 0 0 1 1 44.97V19.584a2.307 2.307 0 0 1 2.307-2.307h37.386A2.307 2.307 0 0 1 43 19.584V44.97a2.307 2.307 0 0 1-2.307 2.307z" fill="#424a60"/><path d="M52.074 47.465L43 43.277v-22l9.074-4.188c1.833-.846 3.926.493 3.926 2.512v25.352c0 2.019-2.093 3.358-3.926 2.512z" fill="#556080"/><path d="M1 9.277h32c1.1 0 2 .9 2 2v6" fill="none" stroke="#424a60" stroke-width="2" stroke-linecap="round" stroke-miterlimit="10"/></svg>