<svg xmlns="http://www.w3.org/2000/svg" viewBox="0 0 54.908 54.908"><path d="M53.908 20.83a.997.997 0 0 1-.707-.293C46.335 13.67 37.191 9.889 27.454 9.889S8.573 13.67 1.707 20.537a.999.999 0 1 1-1.414-1.414C7.537 11.879 17.183 7.89 27.454 7.89s19.918 3.989 27.161 11.233a.999.999 0 0 1-.707 1.707z" fill="#424a60"/><path d="M6.878 26.708a.999.999 0 0 1-.707-1.707c11.736-11.736 30.831-11.734 42.565 0a.999.999 0 1 1-1.414 1.414c-10.956-10.956-28.782-10.956-39.737 0a.997.997 0 0 1-.707.293z" fill="#9777a8"/><path d="M42.151 32.586a.997.997 0 0 1-.707-.293c-3.73-3.73-8.699-5.785-13.99-5.785s-10.259 2.055-13.99 5.785a.999.999 0 1 1-1.414-1.414c4.108-4.108 9.579-6.371 15.404-6.371 5.825 0 11.295 2.263 15.404 6.371a.999.999 0 0 1-.707 1.707zm-14.697 1.33c-3.612 0-6.551 2.939-6.551 6.552s2.939 6.552 6.551 6.552c3.613 0 6.552-2.939 6.552-6.552s-2.939-6.552-6.552-6.552z" fill="#7fabda"/></svg>