<svg xmlns="http://www.w3.org/2000/svg" viewBox="0 0 58 58"><path fill="#71c3a9" d="M14 6h44v32H14z"/><path fill="#14a085" d="M7 45V20H0v32h44v-7z"/><path fill="#26b99a" d="M14 38V13H7v32h44v-7z"/><g fill="#39eaaf"><circle cx="33" cy="43" r="1"/><circle cx="36" cy="40" r="1"/><circle cx="39" cy="43" r="1"/><circle cx="45" cy="43" r="1"/><circle cx="42" cy="40" r="1"/><circle cx="48" cy="40" r="1"/><circle cx="27" cy="43" r="1"/><circle cx="30" cy="40" r="1"/><circle cx="9" cy="43" r="1"/><circle cx="9" cy="37" r="1"/><circle cx="12" cy="40" r="1"/><circle cx="12" cy="34" r="1"/><circle cx="15" cy="43" r="1"/><circle cx="21" cy="43" r="1"/><circle cx="18" cy="40" r="1"/><circle cx="24" cy="40" r="1"/><circle cx="9" cy="31" r="1"/><circle cx="9" cy="25" r="1"/><circle cx="12" cy="28" r="1"/><circle cx="12" cy="22" r="1"/><circle cx="9" cy="19" r="1"/><circle cx="12" cy="16" r="1"/></g></svg>