<svg id="Layer_1" data-name="Layer 1" xmlns="http://www.w3.org/2000/svg" viewBox="0 0 394.26 515.26"><defs><style>.cls-2{fill:#e0e0e2}</style></defs><path id="Fill-4" d="M322.42 212.08L435.55 25.82a3.45 3.45 0 0 0-3.77-5.14L112.19 98.75a8.2 8.2 0 0 0-6 5.89l-45.1 170.52a8.18 8.18 0 0 0 4.24 9.42L318.69 412.1a2.42 2.42 0 0 1-1.63 4.52l-74.74-17-68 111.24a3.83 3.83 0 0 0 5 5.39l165.85-86.59a15 15 0 0 0 5.36-4.72l77.15-110.44a7 7 0 0 0-1.77-9.74l-.23-.15-263.43-168.75a2.18 2.18 0 0 1 2.16-3.77z" transform="translate(-41.79 -1.39)" fill="#d3d3d3"/><path id="Fill-6" class="cls-2" d="M183.17 410.28l97.57-9.46-74.63-62.63-59.53 98.31 36.59-26.22z"/><path id="Fill-8" class="cls-2" d="M250.53 174.35L88.14 102.26l-7.28 16.75 160.2 107.04 96.12-160.2-86.65 108.5z"/><path id="Fill-10" d="M303.36 192.89L416.53 6.63a3.45 3.45 0 0 0-3.77-5.14L93.17 79.55a8.2 8.2 0 0 0-6 5.89L42.07 256a8.19 8.19 0 0 0 4.24 9.43L299.67 392.9a2.42 2.42 0 0 1-1.63 4.52l-74.74-17-67.94 111.25a3.82 3.82 0 0 0 5 5.38l165.85-86.58a15.08 15.08 0 0 0 5.35-4.72l77.11-110.45a7 7 0 0 0-1.78-9.74l-.22-.14-263.44-168.75a2.18 2.18 0 0 1 2.16-3.78z" transform="translate(-41.79 -1.39)" fill="#f9f9f9"/></svg>