<svg id="Layer_1" data-name="Layer 1"
  xmlns="http://www.w3.org/2000/svg" viewBox="0 0 200 200">
  <defs>
    <style>.cls-1{fill:#0515a5;}.cls-2{fill:#0011FF;}</style>
  </defs>
  <title>logo-noBG</title>
  <polygon id="Fill-1" class="cls-1" points="88.92 150.4 104.79 124.39 124.68 140.96 98.67 143.46 88.92 150.4"/>
  <polygon id="Fill-2" class="cls-1" points="139.72 52.36 114.1 94.73 71.41 66.42 73.35 61.99 116.63 81.06 139.72 52.36"/>
  <path id="Fill-3" class="cls-2" d="M119.58,85.59l30.15-49.26a.92.92,0,0,0-1-1.36L63.56,55.62A2.17,2.17,0,0,0,62,57.17l-12,45.11a2.15,2.15,0,0,0,1.13,2.49l67.51,33.73a.64.64,0,0,1-.43,1.19l-19.92-4.5L80.12,164.62a1,1,0,0,0,1.34,1.43l44.19-22.91a4,4,0,0,0,1.43-1.24l20.55-29.22a1.83,1.83,0,0,0-.52-2.61L76.9,65.43a.58.58,0,0,1,.57-1Z"/>
</svg>