<svg id="Layer_1" data-name="Layer 1" xmlns="http://www.w3.org/2000/svg" viewBox="0 0 394.26 515.26"><defs><style>.cls-1{fill:#d3d3d3;}.cls-2{fill:#e0e0e2;}.cls-3{fill:#f9f9f9;}</style></defs><title>Single Spa Logo</title><path id="Fill-4" class="cls-1" d="M322.42,212.08,435.55,25.82a3.45,3.45,0,0,0-3.77-5.14L112.19,98.75a8.2,8.2,0,0,0-6,5.89L61.09,275.16a8.18,8.18,0,0,0,4.24,9.42L318.69,412.1a2.42,2.42,0,0,1-1.63,4.52l-74.74-17-68,111.24a3.83,3.83,0,0,0,5,5.39l165.85-86.59a15,15,0,0,0,5.36-4.72L427.68,314.5a7,7,0,0,0-1.77-9.74l-.23-.15L162.25,135.86a2.18,2.18,0,0,1,2.16-3.77Z" transform="translate(-41.79 -1.39)"/><polygon id="Fill-6" class="cls-2" points="183.17 410.28 280.74 400.82 206.11 338.19 146.58 436.5 183.17 410.28"/><polygon id="Fill-8" class="cls-2" points="250.53 174.35 88.14 102.26 80.86 119.01 241.06 226.05 337.18 65.85 250.53 174.35"/><path id="Fill-10" class="cls-3" d="M303.36,192.89,416.53,6.63a3.45,3.45,0,0,0-3.77-5.14L93.17,79.55a8.2,8.2,0,0,0-6,5.89L42.07,256a8.19,8.19,0,0,0,4.24,9.43L299.67,392.9a2.42,2.42,0,0,1-1.63,4.52l-74.74-17L155.36,491.67a3.82,3.82,0,0,0,5,5.38l165.85-86.58a15.08,15.08,0,0,0,5.35-4.72L408.67,295.3a7,7,0,0,0-1.78-9.74l-.22-.14L143.23,116.67a2.18,2.18,0,0,1,2.16-3.78Z" transform="translate(-41.79 -1.39)"/></svg>