<svg
  xmlns="http://www.w3.org/2000/svg"
  xmlns:xlink="http://www.w3.org/1999/xlink" viewBox="0 0 1000 1000">
  <defs>
    <style>.cls-1{fill:#fff;}.cls-2{mask:url(#mask);}.cls-3{fill:#0011FF;}.cls-4{fill:#0515a5;}.cls-5{fill:#cecece;}</style>
    <mask id="mask" x="50.66" y="50.17" width="900" height="900" maskUnits="userSpaceOnUse">
      <g id="mask-2">
        <polygon id="path-1" class="cls-1" points="950.66 950.17 950.66 50.17 50.66 50.17 50.66 950.17 950.66 950.17"/>
      </g>
    </mask>
  </defs>
  <title>logo-BG</title>
  <g id="Logo_background" data-name="Logo background">
    <g class="cls-2">
      <path id="Fill-1" class="cls-3" d="M950.66,500.17c0-248.53-201.47-450-450-450s-450,201.47-450,450,201.47,450,450,450,450-201.47,450-450"/>
    </g>
  </g>
  <g id="Logo">
    <path id="Fill-4" class="cls-4" d="M583.06,478.33,696.19,292.07a3.45,3.45,0,0,0-3.77-5.14L372.83,365a8.2,8.2,0,0,0-6,5.89l-45.1,170.52a8.18,8.18,0,0,0,4.24,9.42L579.33,678.35a2.42,2.42,0,0,1-1.63,4.52l-74.74-17L435,777.11a3.83,3.83,0,0,0,5,5.39l165.85-86.59a15.2,15.2,0,0,0,5.36-4.72l77.11-110.44a7,7,0,0,0-2-9.89L422.89,402.11a2.18,2.18,0,0,1,2.16-3.77Z"/>
    <polygon id="Fill-6" class="cls-5" points="478.6 676.92 576.17 667.46 501.54 604.83 442.01 703.14 478.6 676.92"/>
    <polygon id="Fill-8" class="cls-5" points="545.96 440.99 383.57 368.9 376.29 385.65 536.49 492.69 632.61 332.49 545.96 440.99"/>
    <path id="Fill-10" class="cls-1" d="M557,458.14,670.17,271.88a3.45,3.45,0,0,0-3.77-5.14L346.81,344.8a8.2,8.2,0,0,0-6,5.89l-45.1,170.52a8.19,8.19,0,0,0,4.24,9.43L553.31,658.15a2.42,2.42,0,0,1-1.63,4.52l-74.74-17L409,756.92a3.82,3.82,0,0,0,5,5.38l165.85-86.58A15.2,15.2,0,0,0,585.2,671l77.11-110.45a7,7,0,0,0-2-9.88L396.87,381.92a2.18,2.18,0,0,1,2.16-3.78Z"/>
  </g>
</svg>