<?xml version="1.0" encoding="utf-8"?>
<!-- Generator: Adobe Illustrator 22.0.0, SVG Export Plug-In . SVG Version: 6.00 Build 0)  -->
<svg version="1.1" id="Layer_1" xmlns="http://www.w3.org/2000/svg" xmlns:xlink="http://www.w3.org/1999/xlink" x="0px" y="0px"
	 viewBox="0 0 518 376.4" style="enable-background:new 0 0 518 376.4;" xml:space="preserve">
<style type="text/css">
	.st0{fill:#D3D3D3;}
	.st1{fill:#E0E0E2;}
	.st2{fill:#F9F9F9;}
</style>
<path class="st0" d="M383.7,377.4l44-62.9c2.2-3.2,1.4-7.5-1.8-9.7c-0.1-0.1-0.2-0.1-0.2-0.2L162.3,135.9c-1-0.7-1.2-2-0.6-3
	c0.6-0.9,1.8-1.2,2.7-0.7l158,79.9L435.6,25.8c1-1.6,0.5-3.8-1.2-4.7c-0.8-0.5-1.7-0.6-2.6-0.4L112.2,98.8c-2.9,0.7-5.2,3-6,5.9
	L61.1,275.2c-1,3.7,0.8,7.7,4.2,9.4l184.5,92.8L383.7,377.4L383.7,377.4z"/>
<polygon id="Fill-8_1_" class="st1" points="292.3,175.7 129.9,103.7 122.7,120.4 282.9,227.4 379,67.2 "/>
<polygon class="st1" points="293,377.4 247.9,339.6 225,377.4 "/>
<path class="st2" d="M351.3,377.4l57.5-82.3c2.2-3.2,1.4-7.5-1.8-9.7c-0.1,0-0.1-0.1-0.2-0.1L143.2,116.7c-1-0.7-1.3-2-0.6-3
	c0.6-0.9,1.8-1.3,2.8-0.8l158,80L416.5,6.6c1-1.6,0.5-3.8-1.2-4.7c-0.8-0.5-1.7-0.6-2.6-0.4L93.2,79.6c-2.9,0.7-5.2,3-6,5.9
	L42.1,256c-1,3.8,0.8,7.7,4.2,9.4l222.7,112H351.3z"/>
</svg>
