<svg xmlns="http://www.w3.org/2000/svg" xmlns:xlink="http://www.w3.org/1999/xlink" viewBox="0 0 181.717 28.644" height="28.644" width="181.717"><g transform="scale(.23729)"><defs><path id="a" d="M0 0h765.818v120.717H0z"/></defs><clipPath id="b"><use height="100%" width="100%" overflow="visible" xlink:href="#a"/></clipPath><path d="M195.002 109.836a4.401 4.401 0 0 1-4.203-3.03c-10.396-31.359-31.727-56.761-58.526-69.726a4.41 4.41 0 0 1-2.201-5.587l7.8-19.997a4.449 4.449 0 0 1 2.503-2.51 4.642 4.642 0 0 1 1.621-.303c.659 0 1.318.151 1.924.441 33.005 15.966 58.381 45.861 71.451 84.165a4.43 4.43 0 0 1-1.752 5.124l-16.18 10.698a4.499 4.499 0 0 1-2.437.725" clip-path="url(#b)" fill="#003755"/><path d="M195.002 105.422c-10.831-32.649-32.755-58.763-60.806-72.321l7.8-19.998c32.017 15.491 56.471 44.333 69.186 81.621l-16.18 10.698z" clip-path="url(#b)" fill="#003755"/><path d="M147.016 108.136a4.417 4.417 0 0 1-3.728-2.042c-7.524-11.779-17.63-21.345-29.225-27.682a4.417 4.417 0 0 1-1.923-5.64l6.258-14.388a4.473 4.473 0 0 1 2.636-2.424 4.333 4.333 0 0 1 1.423-.238c.738 0 1.475.185 2.121.554 15.587 8.524 28.907 21.568 38.526 37.708a4.44 4.44 0 0 1-1.503 6.048l-12.292 7.457a4.396 4.396 0 0 1-2.293.647" clip-path="url(#b)" fill="#005a8b"/><path d="M147.016 103.709c-7.958-12.438-18.525-22.451-30.817-29.171l6.258-14.388c14.941 8.182 27.589 20.581 36.839 36.101l-12.28 7.458z" clip-path="url(#b)" fill="#005a8b"/><path d="M94.142 114.368c3.399 6.522 12.003 8.314 19.237 3.992 7.206-4.308 10.329-13.11 6.943-19.618-3.386-6.536-11.99-8.328-19.21-4.006-7.233 4.322-10.356 13.111-6.97 19.632" clip-path="url(#b)" fill="#0071ac"/><path d="M70.4 112.432a4.499 4.499 0 0 1-2.082-.514C35.972 94.671 11.768 63.84.187 25.063a4.425 4.425 0 0 1 1.937-5.047L18.725 9.948a4.442 4.442 0 0 1 2.293-.645c.553 0 1.093.105 1.607.303a4.48 4.48 0 0 1 2.648 2.898c9.158 31.717 29.474 57.936 55.773 71.917a4.43 4.43 0 0 1 1.976 5.679l-8.564 19.685a4.42 4.42 0 0 1-2.595 2.411 4.658 4.658 0 0 1-1.463.236" clip-path="url(#b)" fill="#25a7d8"/><path d="M70.4 108.018C39.002 91.297 15.694 61.534 4.416 23.799l16.602-10.07C30.544 46.75 51.44 73.682 78.964 88.333L70.4 108.018z" clip-path="url(#b)" fill="#25a7d8"/><path d="M92.008 66.673a4.32 4.32 0 0 1-2.161-.567C74.195 57.278 62.363 43.008 55.63 24.853a4.42 4.42 0 0 1 1.858-5.323l11.726-7.118a4.424 4.424 0 0 1 2.293-.639c.487 0 .975.079 1.436.244a4.417 4.417 0 0 1 2.701 2.622c4.941 13.126 13.465 23.377 24.665 29.648a4.4 4.4 0 0 1 1.897 5.613l-6.14 14.125a4.414 4.414 0 0 1-2.648 2.424 4.358 4.358 0 0 1-1.41.224" clip-path="url(#b)" fill="#28c3ec"/><path d="M92.008 62.259C77.33 53.958 66.105 40.334 59.781 23.311l11.726-7.118c5.27 14.023 14.585 25.195 26.654 31.955l-6.153 14.111z" clip-path="url(#b)" fill="#28c3ec"/><path d="M118.794 5.679c-3.807-6.305-12.504-7.55-19.447-2.781-6.93 4.757-9.486 13.73-5.705 20.031 3.794 6.298 12.503 7.537 19.434 2.767 6.944-4.77 9.5-13.732 5.718-20.017" clip-path="url(#b)" fill="#86d4eb"/><path d="M319.42 109.849c-3.044 0-6.378-.224-9.895-.658l-3.373-69.212-32.491 69.159c-1.753.145-3.32.289-4.744.448a53.682 53.682 0 0 1-5.441.263c-2.398 0-4.967-.21-7.668-.619l-4.664-95.448c2.806-.343 5.902-.527 9.222-.527 1.634 0 3.268.046 4.928.138 1.199.06 2.372.205 3.518.415l.408 77.714 33.941-77.635a87.321 87.321 0 0 1 3.873-.434 55.215 55.215 0 0 1 4.717-.198c2.306 0 4.783.198 7.392.606l3.663 77.661 31.397-77.687a48.146 48.146 0 0 1 7.418-.58c1.779 0 3.492.093 5.139.277l3.017.316-41.345 95.382a65.58 65.58 0 0 1-9.012.619m61.28.83c-4.545 0-8.682-.421-12.319-1.198-3.505-.778-6.43-2.069-8.696-3.848-2.213-1.727-3.768-3.992-4.624-6.733-.857-2.741-.897-6.192-.119-10.29.764-4.031 2.28-7.418 4.479-10.065a26.304 26.304 0 0 1 7.972-6.562c3.123-1.674 6.535-2.886 10.158-3.624 3.703-.738 7.365-1.12 10.896-1.12 2.621 0 5.481.132 8.604.409l1.923.158.686-3.584c.461-2.464.422-4.546-.146-6.166-.566-1.661-1.555-2.978-2.938-3.914-1.33-.896-3.044-1.515-5.1-1.818-1.896-.276-4.071-.435-6.456-.435-4.717 0-9.908.843-15.482 2.504-.539-1.779-.922-3.479-1.093-5.073-.198-1.62-.118-3.544.224-5.731a80.534 80.534 0 0 1 11.107-2.543c4.058-.62 7.827-.935 11.226-.935 9.091 0 15.85 2.16 20.053 6.416 4.137 4.203 5.323 11.121 3.518 20.568l-7.602 39.79c-3.084.855-6.693 1.673-10.765 2.437-4.649.896-9.853 1.357-15.506 1.357m7.893-34.811c-4.823 0-8.907.896-12.148 2.662-3.558 1.938-5.758 5.046-6.575 9.249-.527 2.78-.303 5.006.659 6.588.909 1.502 2.16 2.648 3.729 3.347 1.475.672 3.109 1.081 4.874 1.226 1.634.145 3.083.224 4.322.224 1.488 0 2.978-.118 4.506-.368l5.271-.896 4.019-21.068-1.449-.236a48.356 48.356 0 0 0-3.61-.501 30.238 30.238 0 0 0-3.598-.227m57.38 33.836a85.06 85.06 0 0 1-4.572-.132 23.887 23.887 0 0 1-3.636-.448l-12.65-67.644a37.008 37.008 0 0 1 3.873-.421c1.872-.079 3.492-.119 4.85-.119 1.806 0 3.609.04 5.414.119 1.306.079 2.545.224 3.69.434l7.51 49.896 26.259-49.843a54.66 54.66 0 0 1 3.781-.408 67.24 67.24 0 0 1 5.152-.198c1.344 0 2.898.04 4.65.119 1.12.065 2.358.21 3.703.421l-38.855 67.71c-1.422.198-2.885.303-4.387.382-1.924.092-3.505.132-4.782.132m74.06.975c-6.378 0-11.727-.896-15.916-2.622-4.138-1.726-7.353-4.138-9.565-7.153-2.214-3.031-3.611-6.694-4.164-10.91-.54-4.282-.329-9.025.646-14.124.962-4.994 2.581-9.75 4.821-14.112 2.227-4.334 5.033-8.129 8.379-11.304 3.321-3.162 7.222-5.705 11.608-7.563 4.375-1.845 9.342-2.78 14.757-2.78 4.678 0 8.749.83 12.069 2.438 3.307 1.633 5.995 3.887 7.984 6.693 2.003 2.819 3.294 6.218 3.848 10.132.566 3.953.409 8.261-.448 12.793a69.094 69.094 0 0 1-1.172 4.994 47.492 47.492 0 0 1-.699 2.411h-46.234l-.224 1.896c-.751 6.008.607 10.462 4.02 13.242 3.28 2.675 8.023 4.032 14.085 4.032 3.228 0 6.628-.304 10.105-.923a66.053 66.053 0 0 0 8.498-2.068c.395 1.41.686 3.044.856 4.862.197 2.028.157 4.216-.118 6.508-7.114 2.359-14.889 3.558-23.136 3.558m8.155-59.33c-5.112 0-9.368 1.489-12.661 4.4-3.201 2.847-5.561 6.839-7.022 11.872l-.554 1.937h31.74l.276-1.845c.712-4.756.079-8.683-1.844-11.674-2.002-3.122-5.35-4.69-9.935-4.69m62.612 59.33c-5.705 0-10.54-.909-14.388-2.675-3.809-1.752-6.813-4.203-8.946-7.272-2.135-3.082-3.505-6.824-4.085-11.094-.579-4.321-.382-9.092.593-14.178.949-5.006 2.53-9.71 4.717-13.992a41.195 41.195 0 0 1 8.287-11.16c3.309-3.162 7.234-5.679 11.636-7.47 4.412-1.806 9.406-2.728 14.836-2.728 2.002 0 3.82.039 5.48.132a40.38 40.38 0 0 1 4.585.527c1.449.263 2.885.619 4.295 1.054a52.25 52.25 0 0 1 3.689 1.291c-.396 1.66-1.015 3.505-1.806 5.468a35.465 35.465 0 0 1-2.897 5.666c-2.082-.686-4.006-1.16-5.758-1.436-2.082-.343-4.546-.502-7.286-.502-6.259 0-11.489 2.096-15.534 6.233-3.901 4.005-6.576 9.697-7.946 16.917-1.501 7.826-.869 13.664 1.846 17.366 2.767 3.755 7.114 5.651 12.951 5.651 1.41 0 2.701-.039 3.888-.078a34.286 34.286 0 0 0 3.676-.356c1.225-.197 2.503-.5 3.794-.882.856-.264 1.818-.567 2.873-.896.461 1.396.777 2.979.987 4.718.224 1.936.105 4.229-.304 6.838-3.306 1.133-6.402 1.884-9.195 2.239a80.134 80.134 0 0 1-9.988.619m61.398 0c-6.377 0-11.727-.896-15.916-2.622-4.124-1.726-7.353-4.138-9.565-7.153-2.214-3.031-3.611-6.694-4.164-10.91-.54-4.282-.315-9.025.659-14.124.949-4.994 2.569-9.75 4.809-14.112 2.227-4.334 5.033-8.129 8.379-11.304 3.321-3.162 7.234-5.705 11.608-7.563 4.375-1.845 9.342-2.78 14.77-2.78 4.679 0 8.736.83 12.044 2.438 3.319 1.633 6.008 3.887 7.997 6.693 2.004 2.819 3.307 6.218 3.86 10.132.553 3.953.396 8.261-.461 12.793a76.05 76.05 0 0 1-1.16 4.994c-.25.909-.486 1.712-.711 2.411h-46.22l-.238 1.896c-.751 6.008.607 10.462 4.02 13.242 3.294 2.675 8.023 4.032 14.085 4.032 3.228 0 6.64-.304 10.105-.923a64.981 64.981 0 0 0 8.498-2.068c.408 1.41.686 3.044.856 4.862.197 2.028.158 4.216-.131 6.508-7.102 2.359-14.876 3.558-23.124 3.558m8.156-59.33c-5.111 0-9.367 1.489-12.648 4.4-3.214 2.847-5.573 6.839-7.036 11.872l-.553 1.937h31.739l.277-1.845c.698-4.756.092-8.683-1.844-11.674-2.003-3.122-5.351-4.69-9.935-4.69m65.18 46.168c-.356.04-.711.092-1.055.132-.962.092-1.845.145-2.635.145-1.845 0-3.386-.224-4.598-.646-1.371-.487-2.411-1.383-3.083-2.635-.62-1.199-.922-2.74-.91-4.758.014-1.844.29-4.188.857-7.167l9.223-48.368c1.568-8.208.737-14.15-2.478-17.659-3.24-3.557-8.222-5.362-14.809-5.362-1.7 0-3.584.092-5.64.27-1.489.132-2.833.336-4.031.613-.054.198-.106.382-.133.567l-.381 1.982a38.287 38.287 0 0 0-.646 8.904c.343-.04.698-.079 1.054-.119a24.327 24.327 0 0 1 2.636-.158c1.83 0 3.373.224 4.585.646 1.37.487 2.411 1.37 3.083 2.635.619 1.199.936 2.74.908 4.756 0 1.845-.275 4.19-.843 7.168l-9.222 48.381c-1.582 8.194-.752 14.137 2.463 17.642 3.242 3.571 8.235 5.362 14.823 5.362 1.698 0 3.57-.092 5.625-.264a31.673 31.673 0 0 0 4.032-.605c.066-.211.118-.396.146-.566l.381-2.003c.555-2.873.766-5.864.648-8.893m40.251 0c-.343.04-.711.092-1.054.132-.975.092-1.845.145-2.635.145-1.831 0-3.386-.224-4.599-.646-1.37-.487-2.398-1.383-3.082-2.635-.62-1.199-.91-2.74-.91-4.758.014-1.844.276-4.188.856-7.167l9.224-48.368c1.567-8.208.736-14.15-2.465-17.659-3.254-3.557-8.234-5.362-14.821-5.362-1.7 0-3.584.092-5.641.27-1.488.132-2.846.336-4.03.613a5.21 5.21 0 0 0-.146.567l-.383 1.982a39.935 39.935 0 0 0-.646 8.904l1.067-.119a24.324 24.324 0 0 1 2.635-.158c1.831 0 3.387.224 4.585.646 1.385.487 2.412 1.37 3.084 2.635.633 1.199.922 2.74.922 4.756-.014 1.845-.289 4.19-.856 7.168l-9.236 48.381c-1.555 8.194-.737 14.137 2.464 17.642 3.256 3.571 8.248 5.362 14.836 5.362 1.699 0 3.584-.092 5.625-.264a32.277 32.277 0 0 0 4.046-.605c.054-.211.105-.396.133-.566l.381-2.003c.554-2.873.765-5.864.646-8.893" clip-path="url(#b)" fill="#003e5a"/></g></svg>